<svg id="Layer_1" data-name="Layer 1" xmlns="http://www.w3.org/2000/svg" xmlns:xlink="http://www.w3.org/1999/xlink" width="1920" height="1080" viewBox="0 0 1920 1080"><defs><style>.cls-1{fill:#66605a;}.cls-2{fill:#668b5c;}.cls-3{fill:url(#linear-gradient);}.cls-4{fill:#e2de8d;}.cls-17,.cls-5{fill:#0a0909;}.cls-6{fill:#090a09;}.cls-7{fill:#e5de9c;}.cls-14,.cls-27,.cls-8{fill:none;}.cls-12,.cls-27,.cls-8{stroke:#000;}.cls-10,.cls-12,.cls-14,.cls-26,.cls-27,.cls-8{stroke-miterlimit:10;}.cls-9{fill:url(#linear-gradient-2);}.cls-10,.cls-11,.cls-12{fill:#1c3811;}.cls-10{stroke:#1c3811;}.cls-10,.cls-12{stroke-width:3px;}.cls-11{opacity:0.5;}.cls-13{fill:#724733;}.cls-14{stroke:#895327;stroke-width:10px;}.cls-15{fill:#663f30;opacity:0.6;}.cls-16{fill:#003cd0;}.cls-17{opacity:0.3;}.cls-18{fill:#91003b;}.cls-19{fill:url(#linear-gradient-3);}.cls-20,.cls-21{fill:#9e0032;}.cls-20{opacity:0.7;}.cls-22{fill:#7f0934;}.cls-23{fill:url(#linear-gradient-4);}.cls-24{fill:url(#linear-gradient-5);}.cls-25{fill:#101111;}.cls-26{fill:#d8e5ef;stroke:#d8e5ef;}.cls-27{stroke-width:9px;}.cls-28{fill:#603813;}</style><linearGradient id="linear-gradient" x1="1453.73" y1="175.18" x2="1468.29" y2="333.95" gradientUnits="userSpaceOnUse"><stop offset="0" stop-color="#fff" stop-opacity="0.2"/><stop offset="1" stop-color="#668b5c"/></linearGradient><linearGradient id="linear-gradient-2" x1="453.73" y1="174.18" x2="468.29" y2="332.95" xlink:href="#linear-gradient"/><linearGradient id="linear-gradient-3" x1="1466.9" y1="901.42" x2="1662.97" y2="901.42" gradientUnits="userSpaceOnUse"><stop offset="0" stop-color="#fff"/><stop offset="1" stop-color="#8e8e8e"/></linearGradient><linearGradient id="linear-gradient-4" x1="886.9" y1="896.42" x2="1082.97" y2="896.42" xlink:href="#linear-gradient-3"/><linearGradient id="linear-gradient-5" x1="321.9" y1="897.42" x2="517.97" y2="897.42" xlink:href="#linear-gradient-3"/></defs><title>baggrundmur</title><polygon class="cls-1" points="-3.21 930.36 -3.21 1084.77 18 1084.77 18 930.37 -3.21 930.36"/><rect class="cls-2" x="1" y="-5.91" width="1920" height="1073.91"/><polyline class="cls-3" points="1447 170 1379 405 1570.61 405 1497 170 1447 170"/><polygon class="cls-4" points="1467.23 97 1467 113 1475 113 1475 95 1467.23 97"/><polygon class="cls-5" points="1474 -5.91 1468 -5.91 1468 70 1463 70 1463 88 1477 88 1477 70 1474 70 1474 -5.91"/><polygon class="cls-6" points="1446 89 1496 89 1496 97 1492.16 97 1446 97 1446 89"/><polygon class="cls-6" points="1492 161 1492 97 1496 97 1496 166 1492 166 1492 161"/><polygon class="cls-6" points="1446 161 1446 97 1450 97 1450 166 1446 166 1446 161"/><polygon class="cls-6" points="1446 163 1496 163 1496 171 1492.16 171 1446 171 1446 163"/><path class="cls-7" d="M1483,125c0,9.39-5.37,17-12,17s-12-7.61-12-17c0-5.87,2.1-11,5.29-14.1A9.7,9.7,0,0,1,1471,108C1477.63,108,1483,115.61,1483,125Z"/><line class="cls-8" x1="1471" y1="97" x2="1471" y2="163"/><polyline class="cls-9" points="447 169 379 404 570.61 404 497 169 447 169"/><line class="cls-10" x1="230" y1="397.5" x2="696" y2="397.5"/><path class="cls-11" d="M668.5,251.5s3-9,0-11-13-2-15,0-2,5,0,9l1,2v18s-18,10-16,34,7,92,7,92h30s6-90,5-93,3-19-13-33Z"/><path class="cls-11" d="M462.5,251.5s3-9,0-11-13-2-15,0-2,5,0,9l1,2v18s-18,10-16,34,7,92,7,92h30s6-90,5-93,3-19-13-33Z"/><path class="cls-11" d="M395.5,323.27s3-4.51,0-5.52-13-1-15,0-2,2.51,0,4.52l1,1v9s-18,5-16,17.05,7,46.15,7,46.15h30s6-45.14,5-46.65,3-9.53-13-16.55Z"/><path class="cls-11" d="M597.09,287.38s4.19-6.75,0-8.25-18.14-1.51-20.94,0-2.79,3.75,0,6.75l1.4,1.5V300.9s-25.13,7.51-22.33,25.53S565,395.5,565,395.5h41.87s8.38-67.57,7-69.82S618,311.41,595.7,300.9Z"/><path class="cls-11" d="M314,251h16v48s10-1,11,13,0,84,0,84H304V308s3-8,10-9Z"/><path class="cls-11" d="M506,303h16v30.79s10-.65,11,8.33S533,396,533,396H496V339.56a13.27,13.27,0,0,1,10-5.77Z"/><path class="cls-11" d="M268.5,251.5s3-9,0-11-13-2-15,0-2,5,0,9l1,2v18s-18,10-16,34,7,92,7,92h30s6-90,5-93,3-19-13-33Z"/><line class="cls-10" x1="1245" y1="393.5" x2="1711" y2="393.5"/><path class="cls-11" d="M1683.5,247.5s3-9,0-11-13-2-15,0-2,5,0,9l1,2v18s-18,10-16,34,7,92,7,92h30s6-90,5-93,3-19-13-33Z"/><path class="cls-11" d="M1477.5,247.5s3-9,0-11-13-2-15,0-2,5,0,9l1,2v18s-18,10-16,34,7,92,7,92h30s6-90,5-93,3-19-13-33Z"/><path class="cls-11" d="M1410.5,319.27s3-4.51,0-5.52-13-1-15,0-2,2.51,0,4.52l1,1v9s-18,5-16,17.05,7,46.15,7,46.15h30s6-45.14,5-46.65,3-9.53-13-16.55Z"/><path class="cls-11" d="M1612.09,283.38s4.19-6.75,0-8.25-18.14-1.51-20.94,0-2.79,3.75,0,6.75l1.4,1.5V296.9s-25.13,7.51-22.33,25.53S1580,391.5,1580,391.5h41.87s8.38-67.57,7-69.82,4.19-14.27-18.14-24.78Z"/><path class="cls-11" d="M1329,247h16v48s10-1,11,13,0,84,0,84h-37V304s3-8,10-9Z"/><path class="cls-11" d="M1521,299h16v30.79s10-.65,11,8.33,0,53.88,0,53.88h-37V335.56a13.27,13.27,0,0,1,10-5.77Z"/><path class="cls-11" d="M1283.5,247.5s3-9,0-11-13-2-15,0-2,5,0,9l1,2v18s-18,10-16,34,7,92,7,92h30s6-90,5-93,3-19-13-33Z"/><line class="cls-12" x1="1242" y1="169.5" x2="1708" y2="169.5"/><polygon class="cls-11" points="1241 88 1316 88 1283 129 1283 164 1296 169 1267 169 1279 165 1279 129 1241 88"/><polygon class="cls-11" points="1334 88 1409 88 1376 129 1376 164 1389 169 1360 169 1372 165 1372 129 1334 88"/><polygon class="cls-11" points="1532 88 1607 88 1574 129 1574 164 1587 169 1558 169 1570 165 1570 129 1532 88"/><polygon class="cls-11" points="1628 88 1703 88 1670 129 1670 164 1683 169 1654 169 1666 165 1666 129 1628 88"/><line class="cls-12" x1="230" y1="169.5" x2="696" y2="169.5"/><polygon class="cls-11" points="229 88 304 88 271 129 271 164 284 169 255 169 267 165 267 129 229 88"/><polygon class="cls-11" points="322 88 397 88 364 129 364 164 377 169 348 169 360 165 360 129 322 88"/><polygon class="cls-11" points="520 88 595 88 562 129 562 164 575 169 546 169 558 165 558 129 520 88"/><polygon class="cls-11" points="616 88 691 88 658 129 658 164 671 169 642 169 654 165 654 129 616 88"/><rect class="cls-13" x="1" y="563" width="1920" height="507" rx="12"/><line class="cls-10" x1="749" y1="286.5" x2="1215" y2="286.5"/><path class="cls-11" d="M833,140h16v48s10-1,11,13,0,84,0,84H823V197s3-8,10-9Z"/><path class="cls-11" d="M787.5,140.5s3-9,0-11-13-2-15,0-2,5,0,9l1,2v18s-18,10-16,34,7,92,7,92h30s6-90,5-93,3-19-13-33Z"/><polygon class="cls-11" points="1041 245 1045.52 285 1077.88 285 1081 245 1041 245"/><polygon class="cls-11" points="989 245 993.52 285 1025.88 285 1029 245 989 245"/><polygon class="cls-11" points="933 245 937.52 285 969.88 285 973 245 933 245"/><polygon class="cls-11" points="886 233 888.97 286.5 909.86 286.5 910 233 886 233"/><polygon class="cls-11" points="1154 233 1156.97 286.5 1177.86 286.5 1178 233 1154 233"/><polygon class="cls-11" points="1112 233 1114.97 286.5 1135.86 286.5 1136 233 1112 233"/><line class="cls-14" x1="130.77" y1="563.57" x2="131" y2="1068"/><line class="cls-14" x1="259.77" y1="564.57" x2="260" y2="1069"/><line class="cls-14" x1="396.77" y1="564.57" x2="397" y2="1069"/><line class="cls-14" x1="544.77" y1="562.57" x2="545" y2="1067"/><line class="cls-14" x1="680.77" y1="564.57" x2="681" y2="1069"/><line class="cls-14" x1="814.77" y1="562.57" x2="815" y2="1067"/><line class="cls-14" x1="942.77" y1="564.57" x2="943" y2="1069"/><line class="cls-14" x1="1093.77" y1="561.57" x2="1094" y2="1066"/><line class="cls-14" x1="1220.77" y1="564.57" x2="1221" y2="1069"/><line class="cls-14" x1="1356.77" y1="562.57" x2="1357" y2="1067"/><line class="cls-14" x1="1509.9" y1="563" x2="1510.14" y2="1071"/><line class="cls-14" x1="1652.77" y1="563" x2="1652.91" y2="1069"/><line class="cls-14" x1="1793.41" y1="557" x2="1793.63" y2="1071"/><path class="cls-15" d="M-3.21,563V922c855.75-627,1740.26-117.6,1928.61,5.08V563Z"/><path class="cls-16" d="M764.18,443.52h0s0,0,0,0h0Z"/><path class="cls-16" d="M764.23,443.53h0Z"/><ellipse class="cls-17" cx="1590.85" cy="975.9" rx="131.02" ry="33.9"/><ellipse class="cls-17" cx="985.85" cy="975.9" rx="131.02" ry="33.9"/><ellipse class="cls-17" cx="386.85" cy="975.9" rx="131.02" ry="33.9"/><path class="cls-18" d="M1658.35,669.89s41.27,50.58-179.54,49.66c0,0,145.68,26.57,218.06-25.65C1696.87,693.9,1697.7,679.78,1658.35,669.89Z"/><polygon class="cls-1" points="-3.21 919.03 -3.21 1084.77 1073.81 1084.77 1073.81 1087.04 1089.74 1087.04 1089.74 1082.49 1925.4 1082.49 1925.4 920.35 -3.21 919.03"/><path class="cls-19" d="M1551.19,808.43V935.78l-84.29,26.57v17.41s80.63,33,193.32,0l2.75-22-82.46-21.08V808.43Z"/><path class="cls-20" d="M1697.79,693s22,33.25-4.58,88.66c0,0-132.8,65.58-257.36-9.23,0,0-6.41-27.71,0-73,0,0,22,24.93,132.8,25.86C1568.65,725.31,1683.13,724.38,1697.79,693Z"/><ellipse class="cls-21" cx="1565.85" cy="693.9" rx="131.02" ry="33.9"/><path class="cls-22" d="M1479.08,719.3s49.8,40.93-3.64,72.36c0,0,85.83,44.25,219.6-9.8,0,0,25.65-56.81,1.83-88C1696.87,693.9,1648.85,744.69,1479.08,719.3Z"/><path class="cls-23" d="M971.19,803.43V930.78L886.9,957.35v17.41s80.63,33,193.32,0l2.75-22-82.46-21.08V803.43Z"/><path class="cls-20" d="M1117.79,688s22,33.25-4.58,88.66c0,0-132.8,65.58-257.36-9.23,0,0-6.41-27.71,0-73,0,0,22,24.93,132.8,25.86C988.65,720.31,1103.13,719.38,1117.79,688Z"/><ellipse class="cls-21" cx="985.85" cy="688.9" rx="131.02" ry="33.9"/><path class="cls-22" d="M899.08,714.3s49.8,40.93-3.64,72.36c0,0,85.83,44.25,219.6-9.8,0,0,25.65-56.81,1.83-88C1116.87,688.9,1068.85,739.69,899.08,714.3Z"/><path class="cls-18" d="M1078.35,664.89s41.27,50.58-179.54,49.66c0,0,145.68,26.57,218.06-25.65C1116.87,688.9,1117.7,674.78,1078.35,664.89Z"/><path class="cls-24" d="M406.19,804.43V931.78L321.9,958.35v17.41s80.63,33,193.32,0l2.75-22-82.46-21.08V804.43Z"/><path class="cls-20" d="M552.79,689s22,33.25-4.58,88.66c0,0-132.8,65.58-257.36-9.23,0,0-6.41-27.71,0-73,0,0,22,24.93,132.8,25.86C423.65,721.31,538.13,720.38,552.79,689Z"/><ellipse class="cls-21" cx="420.85" cy="689.9" rx="131.02" ry="33.9"/><path class="cls-22" d="M334.08,715.3s49.8,40.93-3.64,72.36c0,0,85.83,44.25,219.6-9.8,0,0,25.65-56.81,1.83-88C551.87,689.9,503.85,740.69,334.08,715.3Z"/><path class="cls-18" d="M513.35,665.89s41.27,50.58-179.54,49.66c0,0,145.68,26.57,218.06-25.65C551.87,689.9,552.7,675.78,513.35,665.89Z"/><polygon class="cls-4" points="467.23 94 467 110 475 110 475 92 467.23 94"/><polygon class="cls-5" points="474 -5.91 468 -5.91 468 67 463 67 463 85 477 85 477 67 474 67 474 -5.91"/><polygon class="cls-6" points="446 86 496 86 496 94 492.16 94 446 94 446 86"/><polygon class="cls-6" points="492 158 492 94 496 94 496 163 492 163 492 158"/><polygon class="cls-6" points="446 158 446 94 450 94 450 163 446 163 446 158"/><polygon class="cls-6" points="446 160 496 160 496 168 492.16 168 446 168 446 160"/><path class="cls-7" d="M483,122c0,9.39-5.37,17-12,17s-12-7.61-12-17c0-5.87,2.1-11,5.29-14.1A9.7,9.7,0,0,1,471,105C477.63,105,483,112.61,483,122Z"/><line class="cls-8" x1="471" y1="94" x2="471" y2="160"/><circle class="cls-25" cx="958.5" cy="103" r="87"/><circle class="cls-26" cx="958.5" cy="103" r="69.45"/><rect x="894.01" y="101.6" width="22.64" height="8.9" rx="3.44"/><rect x="947.94" y="48.69" width="22.64" height="8.9" rx="3.44" transform="translate(906.12 1012.4) rotate(-90)"/><rect x="947.18" y="150.44" width="22.64" height="8.9" rx="3.44" transform="matrix(0, -1, 1, 0, 803.61, 1113.39)"/><rect x="999.58" y="98.04" width="22.64" height="8.9" rx="3.44" transform="translate(2021.81 204.98) rotate(-180)"/><line class="cls-27" x1="925.81" y1="50.98" x2="932.43" y2="64.46"/><line class="cls-27" x1="903.41" y1="77.52" x2="917.69" y2="82.18"/><line class="cls-27" x1="1010.76" y1="78.5" x2="995.97" y2="81.11"/><line class="cls-27" x1="992.92" y1="51.45" x2="984.48" y2="63.87"/><line class="cls-27" x1="990.59" y1="153.05" x2="983.94" y2="139.63"/><line class="cls-27" x1="1010.59" y1="125.62" x2="996.34" y2="120.87"/><line class="cls-27" x1="905.62" y1="127.24" x2="920.01" y2="122.95"/><line class="cls-27" x1="925.57" y1="154.92" x2="932.53" y2="141.61"/><rect class="cls-28" x="-3.21" y="528" width="1928.61" height="35"/></svg>
