<svg xmlns="http://www.w3.org/2000/svg" xmlns:xlink="http://www.w3.org/1999/xlink" width="1920" height="1080" viewBox="0 0 1920 1080"><defs><style>.cls-1{isolation:isolate;}.cls-2{fill:#ddd662;}.cls-3{fill:#668b5c;}.cls-4{fill:#724733;}.cls-5{fill:url(#linear-gradient);}.cls-6{fill:#e2de8d;}.cls-23,.cls-7{fill:#0a0909;}.cls-8{fill:#090a09;}.cls-9{fill:#e5de9c;}.cls-10,.cls-16,.cls-18,.cls-37,.cls-46{fill:none;}.cls-10,.cls-17,.cls-37{stroke:#000;}.cls-10,.cls-12,.cls-16,.cls-17,.cls-18,.cls-32,.cls-37,.cls-45,.cls-46{stroke-miterlimit:10;}.cls-11{fill:url(#linear-gradient-2);}.cls-12,.cls-13,.cls-17{fill:#1c3811;}.cls-12{stroke:#1c3811;}.cls-12,.cls-17{stroke-width:3px;}.cls-13,.cls-38,.cls-44{opacity:0.5;}.cls-14{fill:#bdccd4;}.cls-15{fill:url(#linear-gradient-3);}.cls-16{stroke:#fff;}.cls-18{stroke:#895327;stroke-width:10px;}.cls-19{fill:#603813;}.cls-20{fill:#663f30;opacity:0.6;}.cls-21{fill:#003cd0;}.cls-22{fill:#66605a;}.cls-23{opacity:0.3;}.cls-24{fill:url(#linear-gradient-4);}.cls-25,.cls-26{fill:#9e0032;}.cls-25,.cls-41,.cls-54{opacity:0.7;}.cls-27{fill:#7f0934;}.cls-28{fill:#deedd9;}.cls-29{fill:#91003b;}.cls-30{fill:url(#linear-gradient-5);}.cls-31{fill:url(#linear-gradient-6);}.cls-32{fill:#d8e5ef;stroke:#d8e5ef;}.cls-33,.cls-34,.cls-35{mix-blend-mode:luminosity;}.cls-33{fill:url(#linear-gradient-7);}.cls-34{fill:url(#linear-gradient-8);}.cls-35{fill:url(#linear-gradient-9);}.cls-36{fill:#101111;}.cls-37{stroke-width:9px;}.cls-38{fill:#ea8a21;}.cls-39{fill:#d3e5d3;}.cls-40{fill:url(#linear-gradient-10);}.cls-41,.cls-42{fill:#c80f03;}.cls-43{fill:#fff;}.cls-44,.cls-45,.cls-47{fill:#fcee21;}.cls-45,.cls-46{stroke:#fcee21;stroke-width:15px;}.cls-48{fill:url(#linear-gradient-11);}.cls-49{fill:#c69c6d;}.cls-50{fill:url(#linear-gradient-12);}.cls-51{fill:url(#linear-gradient-13);}.cls-52{fill:#39b54a;}.cls-53{fill:url(#linear-gradient-14);}.cls-54{fill:#e2cc43;}.cls-55{fill:#5b4c0f;}.cls-56{fill:#c2674a;}</style><linearGradient id="linear-gradient" x1="1449.73" y1="185.18" x2="1464.29" y2="343.95" gradientUnits="userSpaceOnUse"><stop offset="0" stop-color="#fff" stop-opacity="0.2"/><stop offset="1" stop-color="#668b5c"/></linearGradient><linearGradient id="linear-gradient-2" x1="449.73" y1="184.18" x2="464.29" y2="342.95" xlink:href="#linear-gradient"/><linearGradient id="linear-gradient-3" x1="1831.43" y1="293.32" x2="1895.99" y2="294.22" gradientUnits="userSpaceOnUse"><stop offset="0" stop-color="#fff"/><stop offset="1"/></linearGradient><linearGradient id="linear-gradient-4" x1="1462.9" y1="911.42" x2="1658.97" y2="911.42" gradientUnits="userSpaceOnUse"><stop offset="0" stop-color="#fff"/><stop offset="1" stop-color="#8e8e8e"/></linearGradient><linearGradient id="linear-gradient-5" x1="882.9" y1="906.42" x2="1078.97" y2="906.42" xlink:href="#linear-gradient-4"/><linearGradient id="linear-gradient-6" x1="317.9" y1="907.42" x2="513.97" y2="907.42" xlink:href="#linear-gradient-4"/><linearGradient id="linear-gradient-7" x1="36.61" y1="78.96" x2="77.72" y2="78.96" gradientUnits="userSpaceOnUse"><stop offset="0.2" stop-color="#fff" stop-opacity="0.5"/><stop offset="1" stop-opacity="0.2"/></linearGradient><linearGradient id="linear-gradient-8" x1="35.61" y1="224.96" x2="76.72" y2="224.96" xlink:href="#linear-gradient-7"/><linearGradient id="linear-gradient-9" x1="38.61" y1="363.96" x2="79.72" y2="363.96" xlink:href="#linear-gradient-7"/><linearGradient id="linear-gradient-10" x1="1552.73" y1="139.48" x2="1655.58" y2="139.48" gradientTransform="translate(-151.4 226.2) rotate(7.42)" gradientUnits="userSpaceOnUse"><stop offset="0.2" stop-color="#632905"/><stop offset="0.27" stop-color="#663318"/><stop offset="0.47" stop-color="#713415"/><stop offset="0.68" stop-color="#56311c"/></linearGradient><linearGradient id="linear-gradient-11" x1="1110.92" y1="780.96" x2="1218.48" y2="780.96" gradientTransform="translate(-180.88 222.4) rotate(-17.89)" gradientUnits="userSpaceOnUse"><stop offset="0"/><stop offset="0.1" stop-color="#a0372b"/><stop offset="0.41" stop-color="#a53a29"/><stop offset="0.49" stop-color="#ee6006"/><stop offset="0.77" stop-color="#a03528"/><stop offset="1"/></linearGradient><linearGradient id="linear-gradient-12" x1="1110.64" y1="887.01" x2="1219.23" y2="887.01" gradientTransform="translate(35.3 -178.4)" xlink:href="#linear-gradient-11"/><linearGradient id="linear-gradient-13" x1="802.95" y1="68.34" x2="935.33" y2="68.34" gradientTransform="translate(114.58 358.54) rotate(13.17)" xlink:href="#linear-gradient-4"/><linearGradient id="linear-gradient-14" x1="1172.22" y1="291.08" x2="1264.82" y2="291.08" gradientTransform="translate(-720.31 353.06) rotate(-3.43)" xlink:href="#linear-gradient-4"/></defs><title>baggrund med forklaring</title><g class="cls-1"><g id="Layer_1" data-name="Layer 1"><rect class="cls-2" x="853.5" y="371.5" width="222" height="222"/><rect class="cls-3" x="-3" y="-2" width="1928.18" height="1080"/><rect class="cls-4" x="-3" y="573" width="1920" height="507" rx="12"/><polyline class="cls-5" points="1443 180 1375 415 1566.61 415 1493 180 1443 180"/><polygon class="cls-6" points="1463.23 107 1463 123 1471 123 1471 105 1463.23 107"/><polygon class="cls-7" points="1470 -2 1470 80 1473 80 1473 98 1459 98 1459 80 1464 80 1464 -2 1470 -2"/><polygon class="cls-8" points="1442 99 1492 99 1492 107 1488.16 107 1442 107 1442 99"/><polygon class="cls-8" points="1488 171 1488 107 1492 107 1492 176 1488 176 1488 171"/><polygon class="cls-8" points="1442 171 1442 107 1446 107 1446 176 1442 176 1442 171"/><polygon class="cls-8" points="1442 173 1492 173 1492 181 1488.16 181 1442 181 1442 173"/><path class="cls-9" d="M1479,135c0,9.39-5.37,17-12,17s-12-7.61-12-17c0-5.87,2.1-11,5.29-14.1A9.7,9.7,0,0,1,1467,118C1473.63,118,1479,125.61,1479,135Z"/><line class="cls-10" x1="1467" y1="107" x2="1467" y2="173"/><polyline class="cls-11" points="443 179 375 414 566.61 414 493 179 443 179"/><line class="cls-12" x1="226" y1="407.5" x2="692" y2="407.5"/><path class="cls-13" d="M664.5,261.5s3-9,0-11-13-2-15,0-2,5,0,9l1,2v18s-18,10-16,34,7,92,7,92h30s6-90,5-93,3-19-13-33Z"/><path class="cls-13" d="M458.5,261.5s3-9,0-11-13-2-15,0-2,5,0,9l1,2v18s-18,10-16,34,7,92,7,92h30s6-90,5-93,3-19-13-33Z"/><path class="cls-13" d="M391.5,333.27s3-4.51,0-5.52-13-1-15,0-2,2.51,0,4.52l1,1v9s-18,5-16,17.05,7,46.15,7,46.15h30s6-45.14,5-46.65,3-9.53-13-16.55Z"/><path class="cls-13" d="M593.09,297.38s4.19-6.75,0-8.25-18.14-1.51-20.94,0-2.79,3.75,0,6.75l1.4,1.5V310.9s-25.13,7.51-22.33,25.53S561,405.5,561,405.5h41.87s8.38-67.57,7-69.82S614,321.41,591.7,310.9Z"/><path class="cls-13" d="M310,261h16v48s10-1,11,13,0,84,0,84H300V318s3-8,10-9Z"/><path class="cls-13" d="M502,313h16v30.79s10-.65,11,8.33S529,406,529,406H492V349.56a13.27,13.27,0,0,1,10-5.77Z"/><rect class="cls-14" x="1817" y="56" width="53" height="390" rx="12"/><rect class="cls-15" x="1824" y="150" width="39" height="286.98" rx="12"/><circle class="cls-16" cx="1851" cy="174" r="7"/><circle class="cls-16" cx="1839.5" cy="190.5" r="3.5"/><circle class="cls-16" cx="1847.5" cy="210.5" r="6.5"/><circle class="cls-16" cx="1852" cy="228" r="3"/><circle class="cls-16" cx="1851" cy="244" r="3"/><path class="cls-13" d="M264.5,261.5s3-9,0-11-13-2-15,0-2,5,0,9l1,2v18s-18,10-16,34,7,92,7,92h30s6-90,5-93,3-19-13-33Z"/><line class="cls-12" x1="1241" y1="403.5" x2="1707" y2="403.5"/><path class="cls-13" d="M1679.5,257.5s3-9,0-11-13-2-15,0-2,5,0,9l1,2v18s-18,10-16,34,7,92,7,92h30s6-90,5-93,3-19-13-33Z"/><path class="cls-13" d="M1473.5,257.5s3-9,0-11-13-2-15,0-2,5,0,9l1,2v18s-18,10-16,34,7,92,7,92h30s6-90,5-93,3-19-13-33Z"/><path class="cls-13" d="M1406.5,329.27s3-4.51,0-5.52-13-1-15,0-2,2.51,0,4.52l1,1v9s-18,5-16,17.05,7,46.15,7,46.15h30s6-45.14,5-46.65,3-9.53-13-16.55Z"/><path class="cls-13" d="M1608.09,293.38s4.19-6.75,0-8.25-18.14-1.51-20.94,0-2.79,3.75,0,6.75l1.4,1.5V306.9s-25.13,7.51-22.33,25.53S1576,401.5,1576,401.5h41.87s8.38-67.57,7-69.82,4.19-14.27-18.14-24.78Z"/><path class="cls-13" d="M1325,257h16v48s10-1,11,13,0,84,0,84h-37V314s3-8,10-9Z"/><path class="cls-13" d="M1517,309h16v30.79s10-.65,11,8.33,0,53.88,0,53.88h-37V345.56a13.27,13.27,0,0,1,10-5.77Z"/><path class="cls-13" d="M1279.5,257.5s3-9,0-11-13-2-15,0-2,5,0,9l1,2v18s-18,10-16,34,7,92,7,92h30s6-90,5-93,3-19-13-33Z"/><line class="cls-17" x1="1238" y1="179.5" x2="1704" y2="179.5"/><polygon class="cls-13" points="1237 98 1312 98 1279 139 1279 174 1292 179 1263 179 1275 175 1275 139 1237 98"/><polygon class="cls-13" points="1330 98 1405 98 1372 139 1372 174 1385 179 1356 179 1368 175 1368 139 1330 98"/><polygon class="cls-13" points="1528 98 1603 98 1570 139 1570 174 1583 179 1554 179 1566 175 1566 139 1528 98"/><polygon class="cls-13" points="1624 98 1699 98 1666 139 1666 174 1679 179 1650 179 1662 175 1662 139 1624 98"/><line class="cls-17" x1="226" y1="179.5" x2="692" y2="179.5"/><polygon class="cls-13" points="225 98 300 98 267 139 267 174 280 179 251 179 263 175 263 139 225 98"/><polygon class="cls-13" points="318 98 393 98 360 139 360 174 373 179 344 179 356 175 356 139 318 98"/><polygon class="cls-13" points="516 98 591 98 558 139 558 174 571 179 542 179 554 175 554 139 516 98"/><polygon class="cls-13" points="612 98 687 98 654 139 654 174 667 179 638 179 650 175 650 139 612 98"/><line class="cls-18" x1="126.77" y1="573.57" x2="127" y2="1078"/><line class="cls-18" x1="255.77" y1="574.57" x2="256" y2="1079"/><path class="cls-19" d="M1925.18,538H1a12,12,0,0,0-7.49,2.65v29.7A12,12,0,0,0,1,573H1925.18Z"/><line class="cls-18" x1="392.77" y1="574.57" x2="393" y2="1079"/><line class="cls-18" x1="540.77" y1="572.57" x2="541" y2="1077"/><line class="cls-18" x1="676.77" y1="574.57" x2="677" y2="1079"/><line class="cls-18" x1="810.77" y1="572.57" x2="811" y2="1077"/><line class="cls-18" x1="938.77" y1="574.57" x2="939" y2="1079"/><line class="cls-18" x1="1089.77" y1="571.57" x2="1090" y2="1076"/><line class="cls-18" x1="1216.77" y1="574.57" x2="1217" y2="1079"/><line class="cls-18" x1="1352.77" y1="571.57" x2="1353" y2="1076"/><line class="cls-18" x1="1505.77" y1="576.57" x2="1506" y2="1081"/><line class="cls-18" x1="1651.77" y1="574.57" x2="1652" y2="1079"/><line class="cls-18" x1="1789.77" y1="576.57" x2="1790" y2="1081"/><path class="cls-20" d="M1927.18,573H-2.47l-2,62.59V953.91c830.19-634.19,1695.28-180.57,1931.67-33.5Z"/><line class="cls-12" x1="745" y1="296.5" x2="1211" y2="296.5"/><path class="cls-13" d="M829,150h16v48s10-1,11,13,0,84,0,84H819V207s3-8,10-9Z"/><path class="cls-13" d="M783.5,150.5s3-9,0-11-13-2-15,0-2,5,0,9l1,2v18s-18,10-16,34,7,92,7,92h30s6-90,5-93,3-19-13-33Z"/><polygon class="cls-13" points="1037 255 1041.52 295 1073.88 295 1077 255 1037 255"/><polygon class="cls-13" points="985 255 989.52 295 1021.88 295 1025 255 985 255"/><polygon class="cls-13" points="929 255 933.52 295 965.88 295 969 255 929 255"/><polygon class="cls-13" points="882 243 884.97 296.5 905.86 296.5 906 243 882 243"/><polygon class="cls-13" points="1150 243 1152.97 296.5 1173.86 296.5 1174 243 1150 243"/><polygon class="cls-13" points="1108 243 1110.97 296.5 1131.86 296.5 1132 243 1108 243"/><path class="cls-21" d="M760.18,453.52h0s0,0,0,0h0Z"/><path class="cls-21" d="M760.23,453.53h0Z"/><polygon class="cls-22" points="1925.18 1088.72 1925.18 930.27 -6.49 929 -6.49 1086.09 980.4 1086.09 980.4 1088.72 1925.18 1088.72"/><ellipse class="cls-23" cx="1586.85" cy="985.9" rx="131.02" ry="33.9"/><ellipse class="cls-23" cx="981.85" cy="985.9" rx="131.02" ry="33.9"/><ellipse class="cls-23" cx="382.85" cy="985.9" rx="131.02" ry="33.9"/><path class="cls-24" d="M1547.19,818.43V945.78l-84.29,26.57v17.41s80.63,33,193.32,0l2.75-22-82.46-21.08V818.43Z"/><path class="cls-25" d="M1693.79,703s22,33.25-4.58,88.66c0,0-132.8,65.58-257.36-9.23,0,0-6.41-27.71,0-73,0,0,22,24.93,132.8,25.86C1564.65,735.31,1679.13,734.38,1693.79,703Z"/><ellipse class="cls-26" cx="1561.85" cy="703.9" rx="131.02" ry="33.9"/><path class="cls-27" d="M1475.08,729.3s49.8,40.93-3.64,72.36c0,0,85.83,44.25,219.6-9.8,0,0,25.65-56.81,1.83-88C1692.87,703.9,1644.85,754.69,1475.08,729.3Z"/><path class="cls-28" d="M1859.1,484.17c0,11.17-2.79,21.53-13.74,21.53-11.15,0-13.82-10.36-13.82-21.23s4-19.87,14-19.87S1859.1,473.08,1859.1,484.17Zm-20.35.13c0,9.58,1.47,15.92,6.63,15.92,5.44,0,6.54-6.51,6.54-15.91,0-8.63-1.54-14.25-6.46-14.25S1838.75,475.34,1838.75,484.3Z"/><path class="cls-29" d="M1654.35,679.89s41.27,50.58-179.54,49.66c0,0,145.68,26.57,218.06-25.65C1692.87,703.9,1693.7,689.78,1654.35,679.89Z"/><path class="cls-30" d="M967.19,813.43V940.78L882.9,967.35v17.41s80.63,33,193.32,0l2.75-22-82.46-21.08V813.43Z"/><path class="cls-25" d="M1113.79,698s22,33.25-4.58,88.66c0,0-132.8,65.58-257.36-9.23,0,0-6.41-27.71,0-73,0,0,22,24.93,132.8,25.86C984.65,730.31,1099.13,729.38,1113.79,698Z"/><ellipse class="cls-26" cx="981.85" cy="698.9" rx="131.02" ry="33.9"/><path class="cls-27" d="M895.08,724.3s49.8,40.93-3.64,72.36c0,0,85.83,44.25,219.6-9.8,0,0,25.65-56.81,1.83-88C1112.87,698.9,1064.85,749.69,895.08,724.3Z"/><path class="cls-29" d="M1074.35,674.89s41.27,50.58-179.54,49.66c0,0,145.68,26.57,218.06-25.65C1112.87,698.9,1113.7,684.78,1074.35,674.89Z"/><path class="cls-31" d="M402.19,814.43V941.78L317.9,968.35v17.41s80.63,33,193.32,0l2.75-22-82.46-21.08V814.43Z"/><path class="cls-25" d="M548.79,699s22,33.25-4.58,88.66c0,0-132.8,65.58-257.36-9.23,0,0-6.41-27.71,0-73,0,0,22,24.93,132.8,25.86C419.65,731.31,534.13,730.38,548.79,699Z"/><ellipse class="cls-26" cx="416.85" cy="699.9" rx="131.02" ry="33.9"/><path class="cls-27" d="M330.08,725.3s49.8,40.93-3.64,72.36c0,0,85.83,44.25,219.6-9.8,0,0,25.65-56.81,1.83-88C547.87,699.9,499.85,750.69,330.08,725.3Z"/><path class="cls-29" d="M509.35,675.89s41.27,50.58-179.54,49.66c0,0,145.68,26.57,218.06-25.65C547.87,699.9,548.7,685.78,509.35,675.89Z"/><polygon class="cls-6" points="463.23 104 463 120 471 120 471 102 463.23 104"/><polygon class="cls-7" points="470 -5 470 77 473 77 473 95 459 95 459 77 464 77 464 -5 470 -5"/><polygon class="cls-8" points="442 96 492 96 492 104 488.16 104 442 104 442 96"/><polygon class="cls-8" points="488 168 488 104 492 104 492 173 488 173 488 168"/><polygon class="cls-8" points="442 168 442 104 446 104 446 173 442 173 442 168"/><polygon class="cls-8" points="442 170 492 170 492 178 488.16 178 442 178 442 170"/><path class="cls-9" d="M479,132c0,9.39-5.37,17-12,17s-12-7.61-12-17c0-5.87,2.1-11,5.29-14.1A9.7,9.7,0,0,1,467,115C473.63,115,479,122.61,479,132Z"/><line class="cls-10" x1="467" y1="104" x2="467" y2="170"/><path class="cls-32" d="M46.7,153.62c-5.89.88-11.21,3.66-10.34,4.09s9.26,2.38,40.51-.21c0,0,1.08-1.72-3.23-2.8s-9-1.73-11.64-3c-1.55-.78-1.94-2.59-2.58-4.74s-1.94-34.92,4.31-41.6,19.83-9,20.47-23.06S78.17,53.62,78,53,51,48.88,36.57,53c0,0-7.54,20.48-6.25,27.16s2.8,14,19.18,24.78c0,0,3.24,1.51,4.74,9,0,0,3,24.79,1.73,33.41C56,147.37,55.32,152.33,46.7,153.62Z"/><path class="cls-33" d="M57.35,101c4.81-.6,6.12-3,6.12-3,4.75-5.08,13.72-6.67,14.21-17.32S73.1,58.91,72.93,58.42s-20.48-3.11-31.45,0c0,0-5.74,15.56-4.76,20.64S38.85,89.71,51.31,97.9l2.23,1.81S55.66,101.19,57.35,101Z"/><path class="cls-32" d="M46,293.84c-5.66.84-10.75,3.51-9.92,3.92S45,300,74.93,297.55c0,0,1-1.65-3.09-2.68s-8.68-1.65-11.16-2.89c-1.49-.75-1.86-2.48-2.48-4.55S56.34,254,62.33,247.56s19-8.67,19.63-22.1S76.17,198,76,197.37s-25.82-3.93-39.66,0c0,0-7.23,19.62-6,26S33,236.82,48.7,247.15c0,0,3.1,1.45,4.54,8.68,0,0,2.9,23.75,1.66,32C54.9,287.85,54.28,292.6,46,293.84Z"/><path class="cls-34" d="M56.35,247c4.81-.6,6.12-3,6.12-3,4.75-5.08,13.72-6.67,14.21-17.32s-4.58-21.79-4.75-22.28-20.48-3.11-31.45,0c0,0-5.74,15.56-4.76,20.64s2.13,10.65,14.59,18.84l2.23,1.81S54.66,247.19,56.35,247Z"/><path class="cls-32" d="M49.09,432.85c-5.64.86-10.73,3.53-9.9,3.94s8.88,2.26,38.83-.27c0,0,1-1.65-3.1-2.68S66.24,432.2,63.76,431c-1.49-.74-1.87-2.48-2.49-4.54S59.35,393,65.33,386.55s19-8.7,19.59-22.13-5.83-27.47-6-28.08-25.82-3.89-39.66.06c0,0-7.19,19.64-5.94,26S36,375.86,51.7,386.16c0,0,3.1,1.44,4.56,8.67,0,0,2.93,23.75,1.71,32C58,426.85,57.35,431.6,49.09,432.85Z"/><path class="cls-35" d="M59.35,386c4.81-.6,6.12-3,6.12-3,4.75-5.08,13.72-6.67,14.21-17.32s-4.58-21.79-4.75-22.28-20.48-3.11-31.45,0c0,0-5.74,15.56-4.76,20.64s2.13,10.65,14.59,18.84l2.23,1.81S57.66,386.19,59.35,386Z"/><circle class="cls-36" cx="966.5" cy="108" r="87"/><circle class="cls-32" cx="966.5" cy="108" r="69.45"/><rect x="902.01" y="106.6" width="22.64" height="8.9" rx="3.44"/><rect x="955.94" y="53.69" width="22.64" height="8.9" rx="3.44" transform="translate(909.12 1025.4) rotate(-90)"/><rect x="955.18" y="155.44" width="22.64" height="8.9" rx="3.44" transform="matrix(0, -1, 1, 0, 806.61, 1126.39)"/><rect x="1007.58" y="103.04" width="22.64" height="8.9" rx="3.44" transform="translate(2037.81 214.98) rotate(-180)"/><line class="cls-37" x1="933.81" y1="55.98" x2="940.43" y2="69.46"/><line class="cls-37" x1="911.41" y1="82.52" x2="925.69" y2="87.18"/><line class="cls-37" x1="1018.76" y1="83.5" x2="1003.97" y2="86.11"/><line class="cls-37" x1="1000.92" y1="56.45" x2="992.48" y2="68.87"/><line class="cls-37" x1="998.59" y1="158.05" x2="991.94" y2="144.63"/><line class="cls-37" x1="1018.59" y1="130.62" x2="1004.34" y2="125.87"/><line class="cls-37" x1="913.62" y1="132.24" x2="928.01" y2="127.95"/><line class="cls-37" x1="933.57" y1="159.92" x2="940.53" y2="146.61"/><rect class="cls-38" x="360.83" y="110.05" width="1179.5" height="656.2" rx="12"/><circle cx="966" cy="109" r="7"/><rect x="966.12" y="90.69" width="9.91" height="39.56" rx="4.96" transform="translate(511.49 973.01) rotate(-68.44)"/><path class="cls-39" d="M640.87,206.26h6.06v13.86h13.75V206.26h6.08v34.35h-6.08V225.19H646.93v15.42h-6.06Z"/><path class="cls-39" d="M676.68,214.9c2.82,9.52,4.81,16.06,5.54,20h0c.62-3.64,3.56-12.33,5.81-20h5.8l-8.77,25.71h-6.23l-8.49-25.71Z"/><path class="cls-39" d="M701.71,229c0,3.82,1.52,7.34,5.58,7.34a4.73,4.73,0,0,0,4.89-3.44H718c-1.11,3.91-4,8.13-10.88,8.13-8.15,0-11.34-5.84-11.34-13.32,0-6.35,3.16-13.35,11.61-13.35s10.95,6.2,10.95,12.59c0,.28,0,1.73-.07,2Zm10.84-4c-.12-3.39-1.48-6.16-5.29-6.16-4.26,0-5.29,3.61-5.45,6.16Z"/><path class="cls-39" d="M723.37,222.88c0-4.91,0-6.81-.1-8H729c.12.81.18,2.31.2,3.25a7.89,7.89,0,0,1,7.16-3.75c3.46,0,5.53,1.67,6.46,4.15a8.49,8.49,0,0,1,7.67-4.15c4.2,0,8,2.21,8,8.9v17.31h-5.79V224.27c0-2.58-.89-5-4-5-3.41,0-4.82,2.6-4.82,6.52v14.79h-5.77V224.06c0-2.6-1.16-4.73-4-4.73-3.16,0-4.9,2.13-4.9,6.85v14.43h-5.82Z"/><path class="cls-39" d="M781.66,229c0,3.82,1.52,7.34,5.58,7.34a4.73,4.73,0,0,0,4.89-3.44h5.79c-1.11,3.91-3.95,8.13-10.88,8.13-8.16,0-11.34-5.84-11.34-13.32,0-6.35,3.16-13.35,11.61-13.35s11,6.2,11,12.59c0,.28,0,1.73-.07,2Zm10.84-4c-.12-3.39-1.48-6.16-5.29-6.16-4.26,0-5.29,3.61-5.45,6.16Z"/><path class="cls-39" d="M803.37,240.61V204.22h5.89v36.39Z"/><path class="cls-39" d="M819.39,232.87c.36,2.45,2.14,3.84,4.87,3.84s4.09-1.23,4.09-3.07-1.53-2.74-5.59-3.87c-6.64-1.85-8.26-4.21-8.26-7.8,0-3.29,2.14-7.57,9.39-7.57,6.62,0,9.33,3.48,9.65,7.68h-5.75c-.27-1.63-1.17-3.33-4.17-3.33-2.19,0-3.34,1-3.34,2.69,0,1.54,1,2.34,4.92,3.34,6.86,1.79,9,4.24,9,8.33,0,5.1-4.19,7.95-10.07,7.95s-9.94-2.71-10.46-8.19Z"/><path class="cls-39" d="M844.66,226.05c2-2.43,6-7.27,9-11.15h6.72c-2.61,3.09-5.85,6.65-8.66,9.93,2.95,4.74,6.47,10.71,9.49,15.78h-6.79c-1.83-3.28-4.64-8.35-6.6-11.85-.31.34-2.84,3-3.17,3.35v8.5h-5.89V204.22h5.89Z"/><path class="cls-39" d="M868,229c0,3.82,1.52,7.34,5.58,7.34a4.73,4.73,0,0,0,4.89-3.44h5.79c-1.11,3.91-3.95,8.13-10.88,8.13-8.16,0-11.34-5.84-11.34-13.32,0-6.35,3.16-13.35,11.61-13.35s11,6.2,11,12.59c0,.28,0,1.73-.07,2Zm10.84-4c-.12-3.39-1.48-6.16-5.29-6.16-4.26,0-5.29,3.61-5.45,6.16Z"/><path class="cls-39" d="M889.67,223.62c0-4.19,0-7.11-.1-8.72h5.75c.12,1.15.16,2.78.16,4.75a8.15,8.15,0,0,1,8-5.18v6c-5.46,0-7.88,2.35-7.88,8.13v12h-5.89Z"/><path class="cls-39" d="M919.67,204.22h5.89v6h-5.89Zm0,10.68h5.89v25.71h-5.89Z"/><path class="cls-39" d="M938.16,226.05c2-2.43,6-7.27,9-11.15h6.72c-2.61,3.09-5.85,6.65-8.67,9.93,3,4.74,6.48,10.71,9.5,15.78h-6.79c-1.83-3.28-4.64-8.35-6.6-11.85-.31.34-2.84,3-3.17,3.35v8.5h-5.89V204.22h5.89Z"/><path class="cls-39" d="M963.31,226.05c2-2.43,6-7.27,9-11.15H979c-2.62,3.09-5.85,6.65-8.67,9.93,3,4.74,6.48,10.71,9.5,15.78h-6.79l-6.6-11.85c-.31.34-2.84,3-3.17,3.35v8.5h-5.89V204.22h5.89Z"/><path class="cls-39" d="M986.66,229c0,3.82,1.52,7.34,5.58,7.34a4.73,4.73,0,0,0,4.89-3.44h5.79c-1.11,3.91-3.95,8.13-10.88,8.13-8.16,0-11.34-5.84-11.34-13.32,0-6.35,3.16-13.35,11.61-13.35s11,6.2,11,12.59c0,.28,0,1.73-.07,2Zm10.84-4c-.12-3.39-1.48-6.16-5.29-6.16-4.26,0-5.29,3.61-5.45,6.16Z"/><path class="cls-39" d="M1047.63,240.61h-4.52a31.55,31.55,0,0,1-.48-4.32c-1.78,3.6-5.2,4.82-9.71,4.82-9,0-13.58-7.55-13.58-17.49s5.44-17.83,15.38-17.83c7.88,0,12.07,4.34,13,10.19h-6c-.78-2.7-2.56-5.26-7.35-5.26-6.35,0-8.81,5.91-8.81,12.93,0,6.81,2.5,12.56,8.63,12.56,5.92,0,7.41-4.11,7.41-9.19v-.18h-7.77v-5.19h13.78Z"/><path class="cls-39" d="M1054.82,204.22h5.89v6h-5.89Zm0,10.68h5.89v25.71h-5.89Z"/><path class="cls-39" d="M1067.42,222.93c0-5.32-.05-6.91-.1-8h5.75a31.84,31.84,0,0,1,.21,3.56c1-2.1,3.44-4.06,7.29-4.06,5.19,0,8.15,3.19,8.15,9.45v16.76h-5.91V224.93c0-3.19-.9-5.6-4.31-5.6-3.58,0-5.19,2.34-5.19,7.13v14.15h-5.89Z"/><path class="cls-39" d="M1137.7,219.66l-8.14,12c-4.11,6-6.41,9.44-12.87,9.44s-10.38-4.18-10.38-9.57c0-4,2.1-7.28,8.94-10.66,5.07-2.55,6.72-4.49,6.72-7,0-1.82-.92-3.82-3.59-3.82-2.21,0-3.52,1.64-3.52,3.84,0,2,1,3.56,3.31,5.82l21.72,20.88H1132l-18.56-18.25c-2.58-2.72-4-5.1-4-8.2,0-4.32,3-8.35,9-8.35,5.82,0,8.64,3.88,8.64,8,0,4.52-2.86,7-8.36,9.85-5.09,2.59-6.46,4.59-6.46,7.35a4.66,4.66,0,0,0,5,4.82c3.57,0,5.24-2,8.33-6.71l6.13-9.46Z"/><path class="cls-39" d="M1162.34,211.32h-9.56v-5.06H1178v5.06h-9.57v29.29h-6.12Z"/><path class="cls-39" d="M1199.68,227.38c0,7.48-3.48,13.7-12,13.7s-11.78-6.58-11.78-13.57c0-6.52,3.65-13.11,12.12-13.11C1195.92,214.4,1199.68,220.26,1199.68,227.38Zm-17.81,0c0,5.63,2.07,9,6,9s5.8-3.33,5.8-9c0-5.26-2-8.32-6-8.32C1183.92,219.09,1181.87,222.39,1181.87,227.39Z"/><path class="cls-39" d="M1204.77,222.93c0-5.32,0-6.91-.1-8h5.75a30,30,0,0,1,.2,3.56c1.05-2.1,3.45-4.06,7.3-4.06,5.18,0,8.14,3.19,8.14,9.45v16.76h-5.9V224.93c0-3.19-.9-5.6-4.32-5.6s-5.18,2.34-5.18,7.13v14.15h-5.89Z"/><path class="cls-39" d="M1232.77,204.22h5.89v6h-5.89Zm0,10.68h5.89v25.71h-5.89Z"/><path class="cls-39" d="M1266.05,231.89c-.85,5.12-4.08,9.18-10.93,9.18-7.65,0-11.32-4.84-11.32-13.31,0-7.89,4.25-13.36,11.69-13.36,7.87,0,10.32,5.6,10.54,9.39h-5.88c-.34-2.51-1.59-4.8-4.78-4.8-3.94,0-5.57,3.53-5.57,8.58,0,6.2,2,9,5.46,9,3.13,0,4.26-2,4.94-4.63Z"/><path class="cls-39" d="M1276.24,230v-.7c0-3.12,1.07-5.24,4.55-8.8,2.21-2.26,3-3.8,3-5.69,0-2.41-1.34-4.32-4.15-4.32s-4.3,1.76-4.63,5.35h-5.49c.19-4.7,2.57-10,10.32-10,7.42,0,9.82,4.6,9.82,9,0,3.06-.95,5.44-4.4,8.92-2.14,2.16-2.91,3.67-2.91,5.79v.5Zm0,10.66V233h6.07v7.66Z"/><path class="cls-39" d="M635.08,360.61l-11.17-34.35h6.51l4.84,16.05c1.4,4.64,2.82,9.35,3.5,12.56h.1c.7-3,2.26-7.95,3.68-12.43l5.09-16.18h6.23l-11.53,34.35Z"/><path class="cls-39" d="M657.2,324.23h5.89v5.95H657.2Zm0,10.68h5.89v25.7H657.2Z"/><path class="cls-39" d="M673.22,352.87c.36,2.45,2.13,3.84,4.87,3.84s4.09-1.23,4.09-3.07-1.53-2.74-5.59-3.87c-6.64-1.85-8.26-4.21-8.26-7.8,0-3.29,2.13-7.57,9.39-7.57,6.61,0,9.33,3.48,9.65,7.68h-5.75c-.27-1.63-1.17-3.33-4.18-3.33-2.18,0-3.33,1-3.33,2.69s1,2.34,4.92,3.34c6.86,1.79,9,4.24,9,8.33,0,5.1-4.2,7.95-10.07,7.95s-9.95-2.71-10.46-8.19Z"/><path class="cls-39" d="M727.21,347.38c0,7.48-3.48,13.7-12,13.7s-11.78-6.58-11.78-13.57c0-6.52,3.65-13.11,12.12-13.11C723.45,334.4,727.21,340.26,727.21,347.38Zm-17.81,0c0,5.63,2.07,9,6,9s5.8-3.33,5.8-9c0-5.26-1.94-8.32-6-8.32C711.45,339.09,709.4,342.39,709.4,347.39Z"/><path class="cls-39" d="M736.07,352.87c.35,2.45,2.13,3.84,4.87,3.84s4.08-1.23,4.08-3.07-1.52-2.74-5.58-3.87c-6.65-1.85-8.26-4.21-8.26-7.8,0-3.29,2.13-7.57,9.39-7.57,6.61,0,9.33,3.48,9.64,7.68h-5.75c-.26-1.63-1.17-3.33-4.17-3.33-2.18,0-3.33,1-3.33,2.69s1,2.34,4.92,3.34c6.85,1.79,9,4.24,9,8.33,0,5.1-4.2,7.95-10.07,7.95s-9.95-2.71-10.47-8.19Z"/><path class="cls-39" d="M789.3,324.23V353.6c0,2.82,0,5.48.1,7h-5.75c-.08-.69-.2-2.23-.2-3.29-1.26,2.49-3.24,3.77-7.37,3.77-6.58,0-9.94-5.44-9.94-13.28,0-7.64,4-13.41,11-13.41,3.93,0,5.68,1.43,6.29,2.59V324.23Zm-17.12,23.36c0,5.29,2,8.66,5.76,8.66,4.78,0,5.73-3.39,5.73-8.75,0-6.06-1.42-8.22-5.5-8.22C774.53,339.28,772.18,342.13,772.18,347.59Z"/><path class="cls-39" d="M796.15,324.23H802v5.95h-5.89Zm0,10.68H802v25.7h-5.89Z"/><path class="cls-39" d="M808.75,342.93c0-5.32,0-6.9-.1-8h5.75a29.65,29.65,0,0,1,.2,3.55c1-2.1,3.45-4.06,7.3-4.06,5.18,0,8.14,3.19,8.14,9.45v16.76h-5.9V344.93c0-3.19-.9-5.6-4.32-5.6-3.57,0-5.18,2.34-5.18,7.13v14.15h-5.89Z"/><path class="cls-39" d="M841.13,349c0,3.82,1.53,7.34,5.58,7.34a4.73,4.73,0,0,0,4.9-3.44h5.78c-1.11,3.91-3.94,8.13-10.87,8.13-8.16,0-11.34-5.84-11.34-13.32,0-6.35,3.16-13.35,11.61-13.35s11,6.21,11,12.59c0,.28,0,1.73-.07,2.05Zm10.84-4c-.11-3.39-1.48-6.16-5.28-6.16-4.26,0-5.3,3.61-5.46,6.16Z"/><path class="cls-39" d="M874.93,324.23h5.89V338c1.1-1.78,3.23-3.56,7.31-3.56,6.5,0,9.9,5.52,9.9,12.54,0,8.1-3.55,14.12-10.8,14.12-3.79,0-5.58-1.61-6.48-3.21,0,.91-.08,1.84-.18,2.76h-5.74c0-1.62.1-4.86.1-7.65Zm17.13,22.95c0-4.63-1.77-7.88-5.73-7.88-4.38,0-5.83,2.9-5.83,8.23,0,5.63,1.38,8.7,5.78,8.7C890.23,356.23,892.06,352.65,892.06,347.18Z"/><path class="cls-39" d="M922.49,354.27a57.44,57.44,0,0,0,.36,6.34h-5.21a21.62,21.62,0,0,1-.38-3.4c-1,2.25-3.52,3.85-7.39,3.85-6.33,0-8.47-4.06-8.47-7.83,0-4.38,3-8.35,12-8.35h3.33V342.8c0-2.21-.66-4.14-4.13-4.14-3.24,0-4.15,1.59-4.46,3.8H902.4c.31-4.14,2.76-8.06,10.29-8.06,5.83,0,9.8,2.12,9.8,8.31Zm-5.6-5.5h-3.44c-5.15,0-6.12,2.09-6.12,4s1.21,3.7,4,3.7c4.37,0,5.56-2.92,5.56-7.19Z"/><path class="cls-39" d="M929.2,343.62c0-4.19,0-7.11-.1-8.71h5.75c.12,1.14.15,2.77.15,4.74a8.15,8.15,0,0,1,8-5.18v6c-5.46,0-7.87,2.34-7.87,8.12v12H929.2Z"/><path class="cls-39" d="M945.55,334.91h3.79v-7.15h5.86v7.15H960v4.63H955.2v14.17c0,1.89.46,2.68,2.59,2.68a9.77,9.77,0,0,0,1.69-.13v4.16a14.07,14.07,0,0,1-3.88.47c-4.55,0-6.26-1.81-6.26-6.42V339.54h-3.79Z"/><path class="cls-39" d="M968.18,349c0,3.82,1.53,7.34,5.58,7.34a4.73,4.73,0,0,0,4.9-3.44h5.78c-1.11,3.91-4,8.13-10.88,8.13-8.15,0-11.33-5.84-11.33-13.32,0-6.35,3.16-13.35,11.6-13.35s11,6.21,11,12.59c0,.28,0,1.73-.07,2.05Zm10.84-4c-.11-3.39-1.48-6.16-5.29-6.16-4.25,0-5.29,3.61-5.45,6.16Z"/><path class="cls-39" d="M989.85,342.93c0-5.32-.06-6.9-.1-8h5.75a29.65,29.65,0,0,1,.2,3.55c1-2.1,3.45-4.06,7.3-4.06,5.18,0,8.14,3.19,8.14,9.45v16.76h-5.9V344.93c0-3.19-.9-5.6-4.32-5.6s-5.18,2.34-5.18,7.13v14.15h-5.89Z"/><path class="cls-39" d="M1039.3,324.23V353.6c0,2.82,0,5.48.1,7h-5.75c-.08-.69-.2-2.23-.2-3.29-1.26,2.49-3.24,3.77-7.37,3.77-6.58,0-9.95-5.44-9.95-13.28,0-7.64,4-13.41,11-13.41,3.93,0,5.68,1.43,6.29,2.59V324.23Zm-17.12,23.36c0,5.29,2,8.66,5.76,8.66,4.78,0,5.73-3.39,5.73-8.75,0-6.06-1.42-8.22-5.5-8.22C1024.53,339.28,1022.18,342.13,1022.18,347.59Z"/><path class="cls-39" d="M1050.53,349c0,3.82,1.52,7.34,5.58,7.34a4.73,4.73,0,0,0,4.9-3.44h5.78c-1.11,3.91-4,8.13-10.88,8.13-8.15,0-11.33-5.84-11.33-13.32,0-6.35,3.16-13.35,11.6-13.35s11,6.21,11,12.59c0,.28,0,1.73-.07,2.05Zm10.84-4c-.11-3.39-1.48-6.16-5.29-6.16-4.25,0-5.29,3.61-5.45,6.16Z"/><path class="cls-39" d="M1072.2,343.62c0-4.19,0-7.11-.11-8.71h5.76c.11,1.14.15,2.77.15,4.74a8.15,8.15,0,0,1,8-5.18v6c-5.46,0-7.87,2.34-7.87,8.12v12h-5.89Z"/><path class="cls-39" d="M1101.35,345.22v5h-12.68v-5Z"/><path class="cls-39" d="M1110.91,352.87c.36,2.45,2.14,3.84,4.87,3.84s4.09-1.23,4.09-3.07-1.52-2.74-5.58-3.87c-6.65-1.85-8.27-4.21-8.27-7.8,0-3.29,2.14-7.57,9.39-7.57,6.62,0,9.34,3.48,9.65,7.68h-5.75c-.27-1.63-1.17-3.33-4.17-3.33-2.19,0-3.34,1-3.34,2.69s1,2.34,4.92,3.34c6.86,1.79,9,4.24,9,8.33,0,5.1-4.2,7.95-10.08,7.95s-9.94-2.71-10.46-8.19Z"/><path class="cls-39" d="M1136.18,346.05c2-2.43,6-7.27,9-11.14h6.72c-2.61,3.08-5.84,6.64-8.66,9.92,3,4.74,6.47,10.71,9.5,15.78H1146c-1.83-3.28-4.64-8.35-6.6-11.85-.31.34-2.84,3-3.17,3.35v8.5h-5.89V324.23h5.89Z"/><path class="cls-39" d="M1155.49,324.23h5.89v5.95h-5.89Zm0,10.68h5.89v25.7h-5.89Z"/><path class="cls-39" d="M1168.09,360.61V324.23H1174v36.38Z"/><path class="cls-39" d="M1180.69,360.61V324.23h5.89v36.38Z"/><path class="cls-39" d="M1196.71,352.87c.36,2.45,2.14,3.84,4.87,3.84s4.09-1.23,4.09-3.07-1.53-2.74-5.59-3.87c-6.64-1.85-8.26-4.21-8.26-7.8,0-3.29,2.14-7.57,9.39-7.57,6.62,0,9.33,3.48,9.65,7.68h-5.75c-.27-1.63-1.17-3.33-4.17-3.33-2.19,0-3.34,1-3.34,2.69s1,2.34,4.92,3.34c6.86,1.79,9,4.24,9,8.33,0,5.1-4.2,7.95-10.08,7.95s-9.94-2.71-10.46-8.19Z"/><path class="cls-39" d="M1231.79,334.91c2.83,9.51,4.82,16,5.55,20h.05c.62-3.64,3.56-12.33,5.81-20h5.8l-8.77,25.7H1234l-8.49-25.7Z"/><path class="cls-39" d="M1256.83,349c0,3.82,1.52,7.34,5.58,7.34a4.72,4.72,0,0,0,4.89-3.44h5.79c-1.11,3.91-3.95,8.13-10.88,8.13-8.16,0-11.34-5.84-11.34-13.32,0-6.35,3.16-13.35,11.61-13.35s11,6.21,11,12.59c0,.28,0,1.73-.07,2.05Zm10.84-4c-.12-3.39-1.48-6.16-5.29-6.16-4.26,0-5.29,3.61-5.45,6.16Z"/><path class="cls-39" d="M1300.25,324.23V353.6c0,2.82,0,5.48.1,7h-5.75a31.75,31.75,0,0,1-.21-3.29c-1.26,2.49-3.23,3.77-7.36,3.77-6.59,0-10-5.44-10-13.28,0-7.64,4-13.41,11-13.41,3.94,0,5.69,1.43,6.3,2.59V324.23Zm-17.13,23.36c0,5.29,2,8.66,5.77,8.66,4.78,0,5.73-3.39,5.73-8.75,0-6.06-1.42-8.22-5.5-8.22C1285.47,339.28,1283.12,342.13,1283.12,347.59Z"/><path class="cls-39" d="M643.19,414.27a55.08,55.08,0,0,0,.37,6.34h-5.21a21.54,21.54,0,0,1-.39-3.4c-1,2.25-3.51,3.85-7.39,3.85-6.33,0-8.47-4.06-8.47-7.83,0-4.38,3-8.35,12-8.35h3.33V402.8c0-2.21-.67-4.14-4.14-4.14-3.24,0-4.15,1.59-4.46,3.8H623.1c.31-4.14,2.76-8.06,10.29-8.06,5.83,0,9.8,2.12,9.8,8.31Zm-5.59-5.5h-3.45c-5.15,0-6.11,2.09-6.11,4s1.2,3.7,4,3.7c4.38,0,5.57-2.92,5.57-7.19Z"/><path class="cls-39" d="M646.4,394.91h3.79v-7.15h5.86v7.15h4.78v4.63h-4.78v14.17c0,1.89.46,2.68,2.59,2.68a9.7,9.7,0,0,0,1.69-.13v4.16a14,14,0,0,1-3.87.47c-4.56,0-6.27-1.81-6.27-6.42V399.54H646.4Z"/><path class="cls-39" d="M698.6,418.27c0,8-3.24,12.73-11.78,12.73-8.05,0-10.43-4.33-10.76-8.1h5.82c.48,2.3,2.34,3.5,5.26,3.5,4.69,0,5.72-2.88,5.72-7.86v-1.77c-1.3,2.57-3.7,3.65-7.1,3.65-6.12,0-10.13-4.91-10.13-12.87,0-8.24,4.83-13.15,10.64-13.15,4.06,0,5.82,1.54,6.45,3.12a19.8,19.8,0,0,1,.26-2.61h5.72c-.05,1.25-.1,4.08-.1,7.64Zm-16.89-10.83c0,5,2.09,8.08,5.64,8.08,4.21,0,5.67-2.5,5.67-8.16,0-5.3-.92-8.06-5.49-8.06C684.11,399.3,681.71,402,681.71,407.44Z"/><path class="cls-39" d="M705.2,403.62c0-4.19,0-7.11-.1-8.71h5.75c.12,1.14.15,2.77.15,4.74a8.15,8.15,0,0,1,8-5.18v6c-5.46,0-7.87,2.34-7.87,8.12v12H705.2Z"/><path class="cls-39" d="M723.05,384.23h5.89v5.95h-5.89Zm0,10.68h5.89v25.7h-5.89Z"/><path class="cls-39" d="M735.63,384.23h5.89V398c1.1-1.78,3.23-3.56,7.31-3.56,6.5,0,9.9,5.52,9.9,12.54,0,8.1-3.55,14.12-10.8,14.12-3.79,0-5.58-1.61-6.48-3.21,0,.91-.08,1.84-.18,2.76h-5.74c.05-1.62.1-4.86.1-7.65Zm17.13,22.95c0-4.63-1.77-7.88-5.72-7.88-4.39,0-5.84,2.9-5.84,8.23,0,5.63,1.38,8.7,5.78,8.7C750.93,416.23,752.76,412.65,752.76,407.18Z"/><path class="cls-39" d="M768.33,409c0,3.82,1.53,7.34,5.59,7.34a4.73,4.73,0,0,0,4.89-3.44h5.78c-1.11,3.91-3.94,8.13-10.87,8.13-8.16,0-11.34-5.84-11.34-13.32,0-6.35,3.16-13.35,11.61-13.35s11,6.21,11,12.59c0,.28,0,1.73-.07,2.05Zm10.84-4c-.11-3.39-1.48-6.16-5.28-6.16-4.26,0-5.3,3.61-5.46,6.16Z"/><path class="cls-39" d="M823.6,384.23V413.6c0,2.82,0,5.48.1,7H818c-.08-.69-.2-2.23-.2-3.29-1.26,2.49-3.24,3.77-7.37,3.77-6.58,0-9.94-5.44-9.94-13.28,0-7.64,4-13.41,11-13.41,3.93,0,5.68,1.43,6.29,2.59V384.23Zm-17.12,23.36c0,5.29,2,8.66,5.76,8.66,4.78,0,5.73-3.39,5.73-8.75,0-6.06-1.42-8.22-5.5-8.22C808.83,399.28,806.48,402.13,806.48,407.59Z"/><path class="cls-39" d="M834.83,409c0,3.82,1.53,7.34,5.59,7.34a4.73,4.73,0,0,0,4.89-3.44h5.78c-1.11,3.91-3.94,8.13-10.88,8.13-8.15,0-11.33-5.84-11.33-13.32,0-6.35,3.16-13.35,11.61-13.35s11,6.21,11,12.59c0,.28,0,1.73-.07,2.05Zm10.84-4c-.11-3.39-1.48-6.16-5.29-6.16-4.25,0-5.29,3.61-5.45,6.16Z"/><path class="cls-39" d="M868.65,403.62c0-4.19,0-7.11-.1-8.71h5.75c.12,1.14.15,2.77.15,4.74a8.15,8.15,0,0,1,8-5.18v6c-5.46,0-7.87,2.34-7.87,8.12v12h-5.89Z"/><path class="cls-39" d="M886.5,384.23h5.89v5.95H886.5Zm0,10.68h5.89v25.7H886.5Z"/><path class="cls-39" d="M920.49,418.27c0,8-3.24,12.73-11.77,12.73-8.05,0-10.43-4.33-10.76-8.1h5.82c.48,2.3,2.34,3.5,5.26,3.5,4.69,0,5.72-2.88,5.72-7.86v-1.77c-1.3,2.57-3.7,3.65-7.1,3.65-6.12,0-10.13-4.91-10.13-12.87,0-8.24,4.82-13.15,10.64-13.15,4.05,0,5.82,1.54,6.45,3.12a19.8,19.8,0,0,1,.26-2.61h5.71c-.05,1.25-.1,4.08-.1,7.64ZM903.6,407.44c0,5,2.1,8.08,5.65,8.08,4.2,0,5.66-2.5,5.66-8.16,0-5.3-.92-8.06-5.48-8.06C906,399.3,903.6,402,903.6,407.44Z"/><path class="cls-39" d="M924.25,394.91H928v-7.15h5.86v7.15h4.78v4.63H933.9v14.17c0,1.89.46,2.68,2.59,2.68a9.77,9.77,0,0,0,1.69-.13v4.16a14.07,14.07,0,0,1-3.88.47c-4.55,0-6.26-1.81-6.26-6.42V399.54h-3.79Z"/><path class="cls-39" d="M942.79,384.23h5.9v5.95h-5.9Zm0,10.68h5.9v25.7h-5.9Z"/><path class="cls-39" d="M976.79,418.27c0,8-3.24,12.73-11.77,12.73-8,0-10.43-4.33-10.76-8.1h5.82c.48,2.3,2.33,3.5,5.25,3.5,4.7,0,5.73-2.88,5.73-7.86v-1.77c-1.3,2.57-3.7,3.65-7.1,3.65-6.12,0-10.13-4.91-10.13-12.87,0-8.24,4.82-13.15,10.64-13.15,4,0,5.82,1.54,6.45,3.12a19.8,19.8,0,0,1,.26-2.61h5.71c0,1.25-.1,4.08-.1,7.64ZM959.9,407.44c0,5,2.09,8.08,5.65,8.08,4.2,0,5.66-2.5,5.66-8.16,0-5.3-.92-8.06-5.48-8.06C962.31,399.3,959.9,402,959.9,407.44Z"/><path class="cls-39" d="M987.78,409c0,3.82,1.52,7.34,5.58,7.34a4.73,4.73,0,0,0,4.9-3.44H1004c-1.11,3.91-3.95,8.13-10.88,8.13-8.15,0-11.33-5.84-11.33-13.32,0-6.35,3.16-13.35,11.6-13.35s11,6.21,11,12.59c0,.28,0,1.73-.07,2.05Zm10.84-4c-.11-3.39-1.48-6.16-5.29-6.16-4.25,0-5.29,3.61-5.45,6.16Z"/><path class="cls-39" d="M1021.59,384.23h5.9v5.95h-5.9Zm0,10.68h5.9v25.7h-5.9Z"/><path class="cls-39" d="M1034.2,402.93c0-5.32-.06-6.9-.11-8h5.76a29.65,29.65,0,0,1,.2,3.55c1-2.1,3.45-4.06,7.3-4.06,5.18,0,8.14,3.19,8.14,9.45v16.76h-5.9V404.93c0-3.19-.9-5.6-4.32-5.6s-5.18,2.34-5.18,7.13v14.15h-5.89Z"/><path class="cls-39" d="M1083.59,418.27c0,8-3.24,12.73-11.77,12.73-8,0-10.43-4.33-10.76-8.1h5.82c.48,2.3,2.33,3.5,5.25,3.5,4.7,0,5.73-2.88,5.73-7.86v-1.77c-1.31,2.57-3.71,3.65-7.1,3.65-6.12,0-10.14-4.91-10.14-12.87,0-8.24,4.83-13.15,10.65-13.15,4,0,5.82,1.54,6.45,3.12a19.8,19.8,0,0,1,.26-2.61h5.71c0,1.25-.1,4.08-.1,7.64Zm-16.89-10.83c0,5,2.09,8.08,5.65,8.08,4.2,0,5.66-2.5,5.66-8.16,0-5.3-.92-8.06-5.48-8.06C1069.11,399.3,1066.7,402,1066.7,407.44Z"/><path class="cls-39" d="M1090.19,403.62c0-4.19,0-7.11-.1-8.71h5.75c.12,1.14.16,2.77.16,4.74a8.15,8.15,0,0,1,8-5.18v6c-5.46,0-7.88,2.34-7.88,8.12v12h-5.89Z"/><path class="cls-39" d="M1112.28,409c0,3.82,1.52,7.34,5.58,7.34a4.71,4.71,0,0,0,4.89-3.44h5.79c-1.11,3.91-4,8.13-10.88,8.13-8.15,0-11.34-5.84-11.34-13.32,0-6.35,3.17-13.35,11.61-13.35s11,6.21,11,12.59c0,.28,0,1.73-.07,2.05Zm10.84-4c-.12-3.39-1.48-6.16-5.29-6.16-4.26,0-5.29,3.61-5.45,6.16Z"/><path class="cls-39" d="M1155.7,384.23V413.6c0,2.82,0,5.48.1,7h-5.75a31.75,31.75,0,0,1-.21-3.29c-1.26,2.49-3.23,3.77-7.36,3.77-6.59,0-10-5.44-10-13.28,0-7.64,4-13.41,11-13.41,3.93,0,5.68,1.43,6.29,2.59V384.23Zm-17.13,23.36c0,5.29,2,8.66,5.77,8.66,4.78,0,5.73-3.39,5.73-8.75,0-6.06-1.42-8.22-5.5-8.22C1140.92,399.28,1138.57,402.13,1138.57,407.59Z"/><path class="cls-39" d="M1162.54,384.23h5.89v5.95h-5.89Zm0,10.68h5.89v25.7h-5.89Z"/><path class="cls-39" d="M1179.53,409c0,3.82,1.52,7.34,5.58,7.34a4.72,4.72,0,0,0,4.89-3.44h5.79c-1.11,3.91-4,8.13-10.88,8.13-8.15,0-11.34-5.84-11.34-13.32,0-6.35,3.16-13.35,11.61-13.35s11,6.21,11,12.59c0,.28,0,1.73-.07,2.05Zm10.84-4c-.12-3.39-1.48-6.16-5.29-6.16-4.26,0-5.29,3.61-5.45,6.16Z"/><path class="cls-39" d="M1201.19,402.93c0-5.32,0-6.9-.1-8h5.75a29.25,29.25,0,0,1,.21,3.55c1-2.1,3.44-4.06,7.3-4.06,5.18,0,8.14,3.19,8.14,9.45v16.76h-5.91V404.93c0-3.19-.9-5.6-4.31-5.6-3.57,0-5.19,2.34-5.19,7.13v14.15h-5.89Z"/><path class="cls-39" d="M1232.67,412.87c.35,2.45,2.13,3.84,4.86,3.84s4.09-1.23,4.09-3.07-1.52-2.74-5.58-3.87c-6.65-1.85-8.27-4.21-8.27-7.8,0-3.29,2.14-7.57,9.39-7.57,6.62,0,9.34,3.48,9.65,7.68h-5.75c-.27-1.63-1.17-3.33-4.17-3.33-2.19,0-3.34,1-3.34,2.69s1,2.34,4.92,3.34c6.86,1.79,9,4.24,9,8.33,0,5.1-4.2,7.95-10.08,7.95s-9.94-2.71-10.46-8.19Z"/><path class="cls-39" d="M1256.93,409c0,3.82,1.52,7.34,5.58,7.34a4.72,4.72,0,0,0,4.89-3.44h5.79c-1.11,3.91-4,8.13-10.88,8.13-8.15,0-11.34-5.84-11.34-13.32,0-6.35,3.16-13.35,11.61-13.35s11,6.21,11,12.59c0,.28,0,1.73-.07,2.05Zm10.84-4c-.12-3.39-1.48-6.16-5.29-6.16-4.26,0-5.29,3.61-5.45,6.16Z"/><path class="cls-39" d="M1278.59,403.62c0-4.19,0-7.11-.1-8.71h5.75c.12,1.14.16,2.77.16,4.74a8.15,8.15,0,0,1,8-5.18v6c-5.46,0-7.88,2.34-7.88,8.12v12h-5.89Z"/><path class="cls-39" d="M1299.29,408.55l-.62-16.32v-6h6.27v6l-.61,16.32Zm-.48,12.06v-7.4h5.83v7.4Z"/><path class="cls-40" d="M1406.16,429l-1,15s-8.86,15.94-18.35,33.06-11.06,50.67-11.06,50.67l-.47,16.18L1372,655.31s-3.66,43.68,7.47,53,27.62-1,27.62-1c14.65,11.82,24.59.11,25.15,1.33s13,5.17,20.43-1.21,5.55-46.63,5.55-46.63,1.58-75.54,2.28-79.12-.84-54-.84-54-.81-13.22.63-21.57-20.76-49.79-25.84-60.73c0,0-5.07-11.55-4.35-15.73S1406.16,429,1406.16,429Z"/><polygon class="cls-41" points="1373.42 583 1459.88 583.68 1457.77 660.78 1371.35 658.29 1373.42 583"/><path class="cls-42" d="M1430.12,430.24s7.86-2.17,4.11-17.87c0,0-11.1-3-21-2.63a34.51,34.51,0,0,0-3.58.32,24.58,24.58,0,0,0-3.12.64,19.1,19.1,0,0,0-2.28.8s-5.22,14.85-.46,16.18S1430.12,430.24,1430.12,430.24Z"/><path class="cls-43" d="M1372.84,630.25s24.71,18.54,52.88,14l7.41-1.2c21.56-3.47,25.23-3.84,25.23-3.84l-.12,3.88s-8.52-1.5-28.43,1.29-22.66,3.39-25.39,3.31-15.75,1.89-32.26-6Z"/><path class="cls-43" d="M1394.25,624.8l3.94,1.32a7.27,7.27,0,0,1-1.35,2.76,5.46,5.46,0,0,1-2.19,1.62,8.05,8.05,0,0,1-3.26.47,9.28,9.28,0,0,1-3.88-.82,6.08,6.08,0,0,1-2.54-2.52,8.35,8.35,0,0,1-1-4.52,7.6,7.6,0,0,1,2.12-5.53,8.8,8.8,0,0,1,9.85-.52,6.52,6.52,0,0,1,2.25,3.51l-4,.76a3.16,3.16,0,0,0-.41-1,2.64,2.64,0,0,0-.9-.83,2.73,2.73,0,0,0-1.22-.32,2.66,2.66,0,0,0-2.4,1.17,5.27,5.27,0,0,0-.71,2.87,5.53,5.53,0,0,0,.63,3.36,2.55,2.55,0,0,0,2.06,1,2.52,2.52,0,0,0,2-.67A4.41,4.41,0,0,0,1394.25,624.8Z"/><path class="cls-43" d="M1399.9,623.66a6.94,6.94,0,0,1,7.81-7.36,7.69,7.69,0,0,1,5.58,2.14,7.39,7.39,0,0,1,1.8,5.57,9,9,0,0,1-1,4.19,6.11,6.11,0,0,1-2.58,2.48,8.24,8.24,0,0,1-4.11.79,9.39,9.39,0,0,1-4.08-.92,6.18,6.18,0,0,1-2.56-2.58A8.32,8.32,0,0,1,1399.9,623.66Zm4.53.16a4.87,4.87,0,0,0,.72,3.21,3.13,3.13,0,0,0,4.51.16,5.47,5.47,0,0,0,.91-3.38,4.58,4.58,0,0,0-.74-3,2.86,2.86,0,0,0-2.24-1,2.74,2.74,0,0,0-2.23.9A4.86,4.86,0,0,0,1404.43,623.82Z"/><path class="cls-43" d="M1417.76,616.87l4.53.14-.34,11,7.07.22-.11,3.61-11.61-.36Z"/><path class="cls-43" d="M1440.06,629.82l-5.15-.17-.79,2.4-4.62-.14,6-14.49,4.94.15,5,14.84-4.75-.15Zm-.84-3.2-1.46-5.33-1.76,5.22Z"/><path class="cls-2" d="M1418.45,179.71l-16.69,117.2c30,4.08,58-18.64,62.59-50.89S1448.41,184.15,1418.45,179.71Z"/><ellipse class="cls-44" cx="1429.83" cy="281.75" rx="1.82" ry="1.69" transform="translate(946.7 1656.66) rotate(-81.79)"/><ellipse class="cls-44" cx="1419.33" cy="277.84" rx="1.82" ry="1.69" transform="translate(941.57 1642.92) rotate(-81.79)"/><ellipse class="cls-44" cx="1410.58" cy="287.96" rx="1.82" ry="1.69" transform="translate(924.05 1642.92) rotate(-81.79)"/><ellipse class="cls-44" cx="1412.92" cy="253.99" rx="1.94" ry="1.81" transform="translate(959.67 1616.13) rotate(-81.79)"/><ellipse class="cls-44" cx="1416.02" cy="259.84" rx="1.94" ry="1.81" transform="translate(956.54 1624.21) rotate(-81.79)"/><ellipse class="cls-44" cx="1411.9" cy="263.32" rx="1.88" ry="1.75" transform="translate(949.57 1623.11) rotate(-81.79)"/><ellipse class="cls-44" cx="1420.17" cy="268.31" rx="1.88" ry="1.75" transform="matrix(0.14, -0.99, 0.99, 0.14, 951.72, 1635.58)"/><ellipse class="cls-44" cx="1415.58" cy="270.99" rx="1.88" ry="1.75" transform="translate(945.14 1633.34) rotate(-81.79)"/><ellipse class="cls-44" cx="1412.92" cy="276.78" rx="1.88" ry="1.75" transform="translate(937.11 1635.66) rotate(-81.79)"/><ellipse class="cls-44" cx="1416.9" cy="282.05" rx="1.82" ry="1.69" transform="translate(935.32 1644.12) rotate(-81.79)"/><ellipse class="cls-44" cx="1410.66" cy="270.48" rx="1.88" ry="1.75" transform="translate(941.43 1628.03) rotate(-81.79)"/><ellipse class="cls-44" cx="1409.46" cy="282.21" rx="1.82" ry="1.69" transform="translate(928.78 1636.89) rotate(-81.79)"/><ellipse class="cls-44" cx="1424.77" cy="282.14" rx="1.88" ry="1.75" transform="translate(941.97 1651.99) rotate(-81.79)"/><ellipse class="cls-44" cx="1425.06" cy="275.39" rx="1.82" ry="1.69" transform="translate(948.91 1646.48) rotate(-81.79)"/><ellipse class="cls-44" cx="1419.76" cy="285.86" rx="1.82" ry="1.69" transform="translate(934 1650.22) rotate(-81.79)"/><line class="cls-45" x1="1414.9" y1="238.63" x2="1463.08" y2="245.61"/><path class="cls-46" d="M1418.35,180.41l-16.49,115.8c29.65,4,57.3-18.42,61.84-50.28S1448,184.8,1418.35,180.41Z"/><line class="cls-46" x1="1413.5" y1="234.44" x2="1453.17" y2="203.22"/><line class="cls-46" x1="1441.11" y1="285.5" x2="1412.5" y2="243.83"/><ellipse class="cls-44" cx="1424.64" cy="190.05" rx="1.94" ry="1.81" transform="translate(1033.01 1572.92) rotate(-81.79)"/><ellipse class="cls-44" cx="1429.28" cy="201.77" rx="1.94" ry="1.81" transform="translate(1025.38 1587.56) rotate(-81.79)"/><ellipse class="cls-44" cx="1442.93" cy="201.57" rx="1.94" ry="1.81" transform="translate(1037.29 1600.9) rotate(-81.79)"/><ellipse class="cls-44" cx="1418" cy="222.66" rx="1.94" ry="1.81" transform="translate(995.05 1594.3) rotate(-81.79)"/><ellipse class="cls-44" cx="1419.92" cy="216.15" rx="1.94" ry="1.81" transform="translate(1003.14 1590.63) rotate(-81.79)"/><ellipse class="cls-44" cx="1424.33" cy="217.84" rx="1.94" ry="1.81" transform="translate(1005.24 1596.45) rotate(-81.79)"/><ellipse class="cls-44" cx="1422.15" cy="207.54" rx="1.94" ry="1.81" transform="translate(1013.56 1585.45) rotate(-81.79)"/><ellipse class="cls-44" cx="1427.21" cy="209.33" rx="1.94" ry="1.81" transform="translate(1016.13 1591.99) rotate(-81.79)"/><ellipse class="cls-44" cx="1433.14" cy="207.32" rx="1.94" ry="1.81" transform="matrix(0.14, -0.99, 0.99, 0.14, 1023.21, 1596.14)"/><ellipse class="cls-44" cx="1434.09" cy="200.67" rx="1.94" ry="1.81" transform="translate(1030.6 1591.38) rotate(-81.79)"/><ellipse class="cls-44" cx="1430.24" cy="213.69" rx="1.94" ry="1.81" transform="translate(1014.41 1598.73) rotate(-81.79)"/><ellipse class="cls-44" cx="1439.53" cy="206.8" rx="1.94" ry="1.81" transform="translate(1029.19 1602.02) rotate(-81.79)"/><ellipse class="cls-44" cx="1428.75" cy="193.84" rx="1.94" ry="1.81" transform="translate(1032.78 1580.24) rotate(-81.79)"/><ellipse class="cls-44" cx="1423.39" cy="198.79" rx="1.94" ry="1.81" transform="translate(1023.29 1579.18) rotate(-81.79)"/><ellipse class="cls-44" cx="1434.84" cy="195.42" rx="1.94" ry="1.81" transform="translate(1036.43 1587.62) rotate(-81.79)"/><ellipse class="cls-44" cx="1450.55" cy="212.83" rx="1.94" ry="1.81" transform="translate(1032.67 1618.09) rotate(-81.79)"/><ellipse class="cls-44" cx="1447.18" cy="225.21" rx="1.94" ry="1.81" transform="translate(1017.52 1625.37) rotate(-81.79)"/><ellipse class="cls-44" cx="1457.7" cy="234.29" rx="1.94" ry="1.81" transform="translate(1017.56 1643.57) rotate(-81.79)"/><ellipse class="cls-44" cx="1426.26" cy="234.04" rx="1.94" ry="1.81" transform="translate(990.86 1612.23) rotate(-81.79)"/><ellipse class="cls-44" cx="1431.56" cy="230.21" rx="1.94" ry="1.81" transform="translate(999.19 1614.2) rotate(-81.79)"/><ellipse class="cls-44" cx="1433.93" cy="234.53" rx="1.94" ry="1.81" transform="translate(996.94 1620.24) rotate(-81.79)"/><ellipse class="cls-44" cx="1438.33" cy="224.93" rx="1.94" ry="1.81" transform="matrix(0.14, -0.99, 0.99, 0.14, 1010.22, 1616.37)"/><ellipse class="cls-44" cx="1441.14" cy="229.76" rx="1.94" ry="1.81" transform="translate(1007.84 1623.29) rotate(-81.79)"/><ellipse class="cls-44" cx="1446.85" cy="232.19" rx="1.94" ry="1.81" transform="matrix(0.14, -0.99, 0.99, 0.14, 1010.33, 1631.03)"/><ellipse class="cls-44" cx="1451.49" cy="227.6" rx="1.94" ry="1.81" transform="translate(1018.86 1631.68) rotate(-81.79)"/><ellipse class="cls-44" cx="1440.88" cy="235.25" rx="1.94" ry="1.81" transform="translate(1002.19 1627.74) rotate(-81.79)"/><ellipse class="cls-44" cx="1452.03" cy="236.11" rx="1.94" ry="1.81" transform="matrix(0.14, -0.99, 0.99, 0.14, 1010.9, 1639.51)"/><ellipse class="cls-44" cx="1451.44" cy="218.6" rx="1.94" ry="1.81" transform="translate(1027.72 1623.93) rotate(-81.79)"/><ellipse class="cls-44" cx="1444.44" cy="218.88" rx="1.94" ry="1.81" transform="translate(1021.45 1617.23) rotate(-81.79)"/><ellipse class="cls-44" cx="1455.16" cy="223.96" rx="1.94" ry="1.81" transform="translate(1025.6 1632.2) rotate(-81.79)"/><ellipse class="cls-44" cx="1455.29" cy="253.62" rx="1.94" ry="1.81" transform="translate(996.36 1657.76) rotate(-81.79)"/><ellipse class="cls-44" cx="1444.16" cy="258.61" rx="1.94" ry="1.81" transform="translate(981.89 1651.01) rotate(-81.79)"/><ellipse class="cls-44" cx="1443.81" cy="273.23" rx="1.94" ry="1.81" transform="translate(967.11 1663.2) rotate(-81.79)"/><ellipse class="cls-44" cx="1425.11" cy="246.55" rx="1.94" ry="1.81" transform="translate(977.5 1621.82) rotate(-81.79)"/><ellipse class="cls-44" cx="1431.11" cy="248.6" rx="1.94" ry="1.81" transform="matrix(0.14, -0.99, 0.99, 0.14, 980.61, 1629.52)"/><ellipse class="cls-44" cx="1429.35" cy="253.33" rx="1.94" ry="1.81" transform="translate(974.42 1631.83) rotate(-81.79)"/><ellipse class="cls-44" cx="1439.06" cy="250.97" rx="1.94" ry="1.81" transform="translate(985.07 1639.42) rotate(-81.79)"/><ellipse class="cls-44" cx="1437.19" cy="256.4" rx="1.94" ry="1.81" transform="translate(978.1 1642.21) rotate(-81.79)"/><ellipse class="cls-44" cx="1438.83" cy="262.75" rx="1.94" ry="1.81" transform="translate(973.22 1649.29) rotate(-81.79)"/><ellipse class="cls-44" cx="1445" cy="263.76" rx="1.94" ry="1.81" transform="matrix(0.14, -0.99, 0.99, 0.14, 977.51, 1656.26)"/><ellipse class="cls-44" cx="1433" cy="259.65" rx="1.94" ry="1.81" transform="translate(971.29 1640.86) rotate(-81.79)"/><ellipse class="cls-44" cx="1439.07" cy="269.59" rx="1.94" ry="1.81" transform="translate(966.64 1655.38) rotate(-81.79)"/><ellipse class="cls-44" cx="1451.59" cy="258.03" rx="1.94" ry="1.81" transform="translate(988.82 1657.86) rotate(-81.79)"/><ellipse class="cls-44" cx="1447.18" cy="252.3" rx="1.94" ry="1.81" transform="matrix(0.14, -0.99, 0.99, 0.14, 990.71, 1648.59)"/><ellipse class="cls-44" cx="1449.87" cy="264.56" rx="1.94" ry="1.81" transform="translate(980.89 1661.76) rotate(-81.79)"/><path class="cls-47" d="M1411,232.2l-1.79,12.57A6.38,6.38,0,0,0,1411,232.2Z"/><path class="cls-2" d="M1398.26,296.39,1413.62,179c-30.06-3.69-57.79,19.38-62,51.68S1368.24,292.34,1398.26,296.39Z"/><ellipse class="cls-44" cx="1385.72" cy="194.54" rx="1.82" ry="1.69" transform="translate(995.21 1538.26) rotate(-81.79)"/><ellipse class="cls-44" cx="1396.27" cy="198.31" rx="1.82" ry="1.69" transform="translate(1000.52 1551.92) rotate(-81.79)"/><ellipse class="cls-44" cx="1404.91" cy="188.08" rx="1.82" ry="1.69" transform="translate(1018.04 1551.71) rotate(-81.79)"/><ellipse class="cls-44" cx="1402.95" cy="222.07" rx="1.94" ry="1.81" transform="translate(982.73 1578.9) rotate(-81.79)"/><ellipse class="cls-44" cx="1399.78" cy="216.26" rx="1.94" ry="1.81" transform="translate(985.76 1570.79) rotate(-81.79)"/><ellipse class="cls-44" cx="1403.87" cy="212.73" rx="1.88" ry="1.75" transform="translate(992.76 1571.8) rotate(-81.79)"/><ellipse class="cls-44" cx="1395.53" cy="207.85" rx="1.88" ry="1.75" transform="translate(990.44 1559.37) rotate(-81.79)"/><ellipse class="cls-44" cx="1400.09" cy="205.11" rx="1.88" ry="1.75" transform="translate(997.06 1561.54) rotate(-81.79)"/><ellipse class="cls-44" cx="1402.7" cy="199.28" rx="1.88" ry="1.75" transform="translate(1005.06 1559.12) rotate(-81.79)"/><ellipse class="cls-44" cx="1398.65" cy="194.07" rx="1.82" ry="1.69" transform="translate(1006.75 1550.65) rotate(-81.79)"/><ellipse class="cls-44" cx="1405.02" cy="205.56" rx="1.88" ry="1.75" transform="translate(1000.84 1566.8) rotate(-81.79)"/><ellipse class="cls-44" cx="1406.1" cy="193.81" rx="1.82" ry="1.69" transform="translate(1013.39 1557.8) rotate(-81.79)"/><ellipse class="cls-44" cx="1390.78" cy="194.08" rx="1.88" ry="1.75" transform="translate(1000 1542.86) rotate(-81.79)"/><ellipse class="cls-44" cx="1390.57" cy="200.84" rx="1.82" ry="1.69" transform="translate(993.12 1548.45) rotate(-81.79)"/><ellipse class="cls-44" cx="1395.74" cy="190.3" rx="1.82" ry="1.69" transform="translate(1008 1544.54) rotate(-81.79)"/><line class="cls-45" x1="1401.15" y1="237.45" x2="1352.88" y2="231.1"/><path class="cls-46" d="M1398.35,295.69l15.18-116c-29.7-3.64-57.09,19.15-61.27,51.07S1368.7,291.69,1398.35,295.69Z"/><line class="cls-46" x1="1402.59" y1="241.61" x2="1363.27" y2="273.35"/><line class="cls-46" x1="1374.4" y1="190.94" x2="1403.48" y2="232.22"/><ellipse class="cls-44" cx="1391.95" cy="286.14" rx="1.94" ry="1.81" transform="translate(909.88 1622.94) rotate(-81.79)"/><ellipse class="cls-44" cx="1387.18" cy="274.48" rx="1.94" ry="1.81" transform="translate(917.33 1608.22) rotate(-81.79)"/><ellipse class="cls-44" cx="1373.53" cy="274.86" rx="1.94" ry="1.81" transform="translate(905.25 1595.03) rotate(-81.79)"/><ellipse class="cls-44" cx="1398.22" cy="253.46" rx="1.94" ry="1.81" transform="translate(947.61 1601.13) rotate(-81.79)"/><ellipse class="cls-44" cx="1396.37" cy="259.99" rx="1.94" ry="1.81" transform="translate(939.56 1604.89) rotate(-81.79)"/><ellipse class="cls-44" cx="1391.94" cy="258.35" rx="1.94" ry="1.81" transform="translate(937.38 1599.1) rotate(-81.79)"/><ellipse class="cls-44" cx="1394.25" cy="268.62" rx="1.94" ry="1.81" transform="translate(929.19 1610.19) rotate(-81.79)"/><ellipse class="cls-44" cx="1389.16" cy="266.9" rx="1.94" ry="1.81" transform="translate(926.54 1603.68) rotate(-81.79)"/><ellipse class="cls-44" cx="1383.25" cy="268.99" rx="1.94" ry="1.81" transform="translate(919.4 1599.62) rotate(-81.79)"/><ellipse class="cls-44" cx="1382.38" cy="275.65" rx="1.94" ry="1.81" transform="translate(912.07 1604.46) rotate(-81.79)"/><ellipse class="cls-44" cx="1386.08" cy="262.58" rx="1.94" ry="1.81" transform="translate(928.17 1596.93) rotate(-81.79)"/><ellipse class="cls-44" cx="1376.87" cy="269.59" rx="1.94" ry="1.81" transform="translate(913.34 1593.82) rotate(-81.79)"/><ellipse class="cls-44" cx="1387.8" cy="282.4" rx="1.94" ry="1.81" transform="translate(910.02 1615.62) rotate(-81.79)"/><ellipse class="cls-44" cx="1393.1" cy="277.38" rx="1.94" ry="1.81" transform="translate(919.53 1616.56) rotate(-81.79)"/><ellipse class="cls-44" cx="1381.69" cy="280.9" rx="1.94" ry="1.81" transform="translate(906.27 1608.29) rotate(-81.79)"/><ellipse class="cls-44" cx="1365.78" cy="263.71" rx="1.94" ry="1.81" transform="translate(909.66 1577.8) rotate(-81.79)"/><ellipse class="cls-44" cx="1369.01" cy="251.28" rx="1.94" ry="1.81" transform="translate(924.72 1570.35) rotate(-81.79)"/><ellipse class="cls-44" cx="1358.38" cy="242.35" rx="1.94" ry="1.81" transform="translate(924.45 1552.17) rotate(-81.79)"/><ellipse class="cls-44" cx="1389.83" cy="242.19" rx="1.94" ry="1.81" transform="translate(951.57 1583.16) rotate(-81.79)"/><ellipse class="cls-44" cx="1384.57" cy="246.08" rx="1.94" ry="1.81" transform="translate(943.21 1581.29) rotate(-81.79)"/><ellipse class="cls-44" cx="1382.16" cy="241.79" rx="1.94" ry="1.81" transform="translate(945.39 1575.23) rotate(-81.79)"/><ellipse class="cls-44" cx="1377.86" cy="251.45" rx="1.94" ry="1.81" transform="translate(932.14 1579.25) rotate(-81.79)"/><ellipse class="cls-44" cx="1375" cy="246.65" rx="1.94" ry="1.81" transform="translate(934.44 1572.31) rotate(-81.79)"/><ellipse class="cls-44" cx="1369.26" cy="244.3" rx="1.94" ry="1.81" transform="translate(931.85 1564.61) rotate(-81.79)"/><ellipse class="cls-44" cx="1364.67" cy="248.95" rx="1.94" ry="1.81" transform="translate(923.3 1564.06) rotate(-81.79)"/><ellipse class="cls-44" cx="1375.2" cy="241.16" rx="1.94" ry="1.81" transform="translate(940.04 1567.8) rotate(-81.79)"/><ellipse class="cls-44" cx="1364.04" cy="240.45" rx="1.94" ry="1.81" transform="translate(931.18 1556.15) rotate(-81.79)"/><ellipse class="cls-44" cx="1364.82" cy="257.95" rx="1.94" ry="1.81" transform="translate(914.53 1571.91) rotate(-81.79)"/><ellipse class="cls-44" cx="1371.82" cy="257.58" rx="1.94" ry="1.81" transform="translate(920.9 1578.53) rotate(-81.79)"/><ellipse class="cls-44" cx="1361.05" cy="252.63" rx="1.94" ry="1.81" transform="translate(916.56 1563.62) rotate(-81.79)"/><ellipse class="cls-44" cx="1360.57" cy="222.98" rx="1.94" ry="1.81" transform="translate(945.5 1537.74) rotate(-81.79)"/><ellipse class="cls-44" cx="1371.65" cy="217.86" rx="1.94" ry="1.81" transform="translate(960.07 1544.31) rotate(-81.79)"/><ellipse class="cls-44" cx="1371.84" cy="203.23" rx="1.94" ry="1.81" transform="translate(974.7 1531.96) rotate(-81.79)"/><ellipse class="cls-44" cx="1390.84" cy="229.67" rx="1.94" ry="1.81" transform="translate(964.82 1573.43) rotate(-81.79)"/><ellipse class="cls-44" cx="1384.81" cy="227.69" rx="1.94" ry="1.81" transform="translate(961.61 1565.77) rotate(-81.79)"/><ellipse class="cls-44" cx="1386.52" cy="222.95" rx="1.94" ry="1.81" transform="translate(967.77 1563.39) rotate(-81.79)"/><ellipse class="cls-44" cx="1376.84" cy="225.42" rx="1.94" ry="1.81" transform="translate(957.02 1555.93) rotate(-81.79)"/><ellipse class="cls-44" cx="1378.65" cy="219.98" rx="1.94" ry="1.81" transform="translate(963.97 1553.06) rotate(-81.79)"/><ellipse class="cls-44" cx="1376.93" cy="213.65" rx="1.94" ry="1.81" transform="translate(968.76 1545.93) rotate(-81.79)"/><ellipse class="cls-44" cx="1370.75" cy="212.72" rx="1.94" ry="1.81" transform="translate(964.38 1539.02) rotate(-81.79)"/><ellipse class="cls-44" cx="1382.8" cy="216.67" rx="1.94" ry="1.81" transform="translate(970.8 1554.33) rotate(-81.79)"/><ellipse class="cls-44" cx="1376.62" cy="206.81" rx="1.94" ry="1.81" transform="translate(975.26 1539.77) rotate(-81.79)"/><ellipse class="cls-44" cx="1364.23" cy="218.53" rx="1.94" ry="1.81" transform="translate(953.04 1537.55) rotate(-81.79)"/><ellipse class="cls-44" cx="1368.71" cy="224.2" rx="1.94" ry="1.81" transform="translate(951.26 1546.84) rotate(-81.79)"/><ellipse class="cls-44" cx="1365.87" cy="211.99" rx="1.94" ry="1.81" transform="translate(960.92 1533.56) rotate(-81.79)"/><path class="cls-47" d="M1405.14,243.83l1.65-12.6a6.38,6.38,0,0,0-1.65,12.6Z"/><path class="cls-2" d="M542.4,234.54,439.23,168.71c-16.68,26.5-7.26,62.55,21.13,80.67S525.41,260.84,542.4,234.54Z"/><ellipse class="cls-44" cx="441.5" cy="201.61" rx="1.75" ry="1.88" transform="translate(33.55 464.56) rotate(-57.35)"/><ellipse class="cls-44" cx="449.66" cy="193.4" rx="1.75" ry="1.88" transform="translate(44.22 467.65) rotate(-57.35)"/><ellipse class="cls-44" cx="443.89" cy="180.83" rx="1.75" ry="1.88" transform="translate(52.14 457) rotate(-57.35)"/><ellipse class="cls-44" cx="474.85" cy="197.56" rx="1.87" ry="2.01" transform="translate(52.31 490.78) rotate(-57.35)"/><ellipse class="cls-44" cx="468.02" cy="197.98" rx="1.87" ry="2.01" transform="translate(48.81 485.22) rotate(-57.35)"/><ellipse class="cls-44" cx="466.51" cy="192.61" rx="1.81" ry="1.94" transform="translate(52.64 481.47) rotate(-57.35)"/><ellipse class="cls-44" cx="458.27" cy="198.27" rx="1.81" ry="1.94" transform="translate(44.08 477.14) rotate(-57.35)"/><ellipse class="cls-44" cx="457.71" cy="192.8" rx="1.81" ry="1.94" transform="translate(48.43 474.16) rotate(-57.35)"/><ellipse class="cls-44" cx="453.4" cy="187.81" rx="1.81" ry="1.94" transform="translate(50.65 468.23) rotate(-57.35)"/><ellipse class="cls-44" cx="446.74" cy="189.31" rx="1.75" ry="1.88" transform="translate(46.31 463.31) rotate(-57.35)"/><ellipse class="cls-44" cx="460.3" cy="188.39" rx="1.81" ry="1.94" transform="translate(53.34 474.3) rotate(-57.35)"/><ellipse class="cls-44" cx="449.77" cy="182.23" rx="1.75" ry="1.88" transform="translate(53.67 462.6) rotate(-57.35)"/><ellipse class="cls-44" cx="443.29" cy="196.68" rx="1.81" ry="1.94" transform="translate(38.52 463.79) rotate(-57.35)"/><ellipse class="cls-44" cx="449.52" cy="199.84" rx="1.75" ry="1.88" transform="translate(38.73 470.5) rotate(-57.35)"/><ellipse class="cls-44" cx="441.93" cy="190.37" rx="1.75" ry="1.88" transform="translate(43.2 459.75) rotate(-57.35)"/><line class="cls-45" x1="488.46" y1="205.99" x2="461.29" y2="248.36"/><path class="cls-46" d="M541.79,234.15,439.84,169.1c-16.47,26.18-7.17,61.8,20.89,79.71S525,260.13,541.79,234.15Z"/><line class="cls-46" x1="493" y1="206.47" x2="505.43" y2="257.16"/><line class="cls-46" x1="433.14" y1="210.62" x2="484.6" y2="201.52"/><ellipse class="cls-44" cx="530.03" cy="235.95" rx="1.87" ry="2.01" transform="matrix(0.54, -0.84, 0.84, 0.54, 45.4, 554.91)"/><ellipse class="cls-44" cx="517.01" cy="235.3" rx="1.87" ry="2.01" transform="translate(39.95 543.65) rotate(-57.35)"/><ellipse class="cls-44" cx="511.36" cy="248.24" rx="1.87" ry="2.01" transform="matrix(0.54, -0.84, 0.84, 0.54, 26.45, 544.85)"/><ellipse class="cls-44" cx="502.17" cy="215.75" rx="1.87" ry="2.01" transform="translate(49.58 522.16) rotate(-57.35)"/><ellipse class="cls-44" cx="507.48" cy="220.34" rx="1.87" ry="2.01" transform="translate(48.15 528.74) rotate(-57.35)"/><ellipse class="cls-44" cx="503.99" cy="223.77" rx="1.87" ry="2.01" transform="translate(43.66 527.38) rotate(-57.35)"/><ellipse class="cls-44" cx="514.63" cy="226.12" rx="1.87" ry="2.01" transform="matrix(0.54, -0.84, 0.84, 0.54, 46.58, 537.42)"/><ellipse class="cls-44" cx="510.78" cy="230.12" rx="1.87" ry="2.01" transform="matrix(0.54, -0.84, 0.84, 0.54, 41.45, 536.02)"/><ellipse class="cls-44" cx="510.13" cy="236.56" rx="1.87" ry="2.01" transform="translate(35.72 538.44) rotate(-57.35)"/><ellipse class="cls-44" cx="515.99" cy="240.3" rx="1.87" ry="2.01" transform="translate(35.27 545.09) rotate(-57.35)"/><ellipse class="cls-44" cx="505.38" cy="231.11" rx="1.87" ry="2.01" transform="translate(38.12 531.93) rotate(-57.35)"/><ellipse class="cls-44" cx="507.89" cy="242.8" rx="1.87" ry="2.01" transform="matrix(0.54, -0.84, 0.84, 0.54, 29.44, 539.42)"/><ellipse class="cls-44" cx="524.7" cy="238.19" rx="1.87" ry="2.01" transform="translate(41.06 551.45) rotate(-57.35)"/><ellipse class="cls-44" cx="522.33" cy="231.03" rx="1.87" ry="2.01" transform="translate(45.99 546.16) rotate(-57.35)"/><ellipse class="cls-44" cx="520.61" cy="243.25" rx="1.87" ry="2.01" transform="translate(34.92 550.34) rotate(-57.35)"/><ellipse class="cls-44" cx="497.5" cy="250.59" rx="1.87" ry="2.01" transform="translate(18.1 534.27) rotate(-57.35)"/><ellipse class="cls-44" cx="487.29" cy="242.12" rx="1.87" ry="2.01" transform="translate(20.53 521.77) rotate(-57.35)"/><ellipse class="cls-44" cx="474.24" cy="248.15" rx="1.87" ry="2.01" transform="translate(9.44 513.56) rotate(-57.35)"/><ellipse class="cls-44" cx="489.26" cy="225.28" rx="1.87" ry="2.01" transform="matrix(0.54, -0.84, 0.84, 0.54, 35.61, 515.67)"/><ellipse class="cls-44" cx="484.18" cy="225.66" rx="1.87" ry="2.01" transform="translate(32.95 511.57) rotate(-57.35)"/><ellipse class="cls-44" cx="491.34" cy="233.92" rx="1.87" ry="2.01" transform="translate(29.29 521.4) rotate(-57.35)"/><ellipse class="cls-44" cx="485.59" cy="234.49" rx="1.87" ry="2.01" transform="translate(26.17 516.82) rotate(-57.35)"/><ellipse class="cls-44" cx="480.86" cy="238.82" rx="1.87" ry="2.01" transform="translate(20.33 514.83) rotate(-57.35)"/><ellipse class="cls-44" cx="483.2" cy="245.16" rx="1.87" ry="2.01" transform="translate(16.08 519.72) rotate(-57.35)"/><ellipse class="cls-44" cx="480.53" cy="231.9" rx="1.87" ry="2.01" transform="translate(26.02 511.37) rotate(-57.35)"/><ellipse class="cls-44" cx="474.96" cy="242.02" rx="1.87" ry="2.01" transform="translate(14.93 511.34) rotate(-57.35)"/><ellipse class="cls-44" cx="491.69" cy="248.96" rx="1.87" ry="2.01" transform="translate(16.79 528.62) rotate(-57.35)"/><ellipse class="cls-44" cx="494.42" cy="242.25" rx="1.87" ry="2.01" transform="translate(23.69 527.83) rotate(-57.35)"/><ellipse class="cls-44" cx="485.05" cy="250.16" rx="1.87" ry="2.01" transform="translate(12.72 523.58) rotate(-57.35)"/><ellipse class="cls-44" cx="457.07" cy="237.61" rx="1.87" ry="2.01" transform="translate(10.41 494.25) rotate(-57.35)"/><ellipse class="cls-44" cx="457.14" cy="225" rx="1.87" ry="2.01" transform="translate(21.06 488.5) rotate(-57.35)"/><ellipse class="cls-44" cx="443.53" cy="218.41" rx="1.87" ry="2.01" transform="translate(20.33 474) rotate(-57.35)"/><ellipse class="cls-44" cx="476.64" cy="212.23" rx="1.87" ry="2.01" transform="translate(40.79 499.04) rotate(-57.35)"/><ellipse class="cls-44" cx="472.14" cy="217" rx="1.87" ry="2.01" transform="translate(34.7 497.45) rotate(-57.35)"/><ellipse class="cls-44" cx="468.45" cy="213.32" rx="1.87" ry="2.01" transform="translate(36.1 492.64) rotate(-57.35)"/><ellipse class="cls-44" cx="466.51" cy="223.46" rx="1.87" ry="2.01" transform="translate(26.67 495.68) rotate(-57.35)"/><ellipse class="cls-44" cx="462.21" cy="219.38" rx="1.87" ry="2.01" transform="translate(28.12 490.18) rotate(-57.35)"/><ellipse class="cls-44" cx="455.52" cy="218.21" rx="1.87" ry="2.01" transform="translate(26.03 484.01) rotate(-57.35)"/><ellipse class="cls-44" cx="451.94" cy="223.58" rx="1.87" ry="2.01" transform="translate(19.85 483.46) rotate(-57.35)"/><ellipse class="cls-44" cx="460.94" cy="214.05" rx="1.87" ry="2.01" transform="translate(32.03 486.65) rotate(-57.35)"/><ellipse class="cls-44" cx="448.98" cy="215.5" rx="1.87" ry="2.01" transform="translate(25.3 477.26) rotate(-57.35)"/><ellipse class="cls-44" cx="454.51" cy="232.23" rx="1.87" ry="2.01" transform="translate(13.76 489.61) rotate(-57.35)"/><ellipse class="cls-44" cx="461.79" cy="230.53" rx="1.87" ry="2.01" transform="translate(18.54 494.96) rotate(-57.35)"/><ellipse class="cls-44" cx="449.1" cy="227.83" rx="1.87" ry="2.01" transform="translate(14.97 483.03) rotate(-57.35)"/><path class="cls-47" d="M496.2,205.06,485.12,198a6.6,6.6,0,0,0,11.08,7.07Z"/><path class="cls-2" d="M441.21,165.63l103.91,64.66c16.33-26.71,6.47-62.68-22.12-80.48S457.86,139.11,441.21,165.63Z"/><ellipse class="cls-44" cx="542.44" cy="197.4" rx="1.75" ry="1.88" transform="translate(83.58 547.61) rotate(-57.35)"/><ellipse class="cls-44" cx="534.38" cy="205.71" rx="1.75" ry="1.88" transform="translate(72.86 544.65) rotate(-57.35)"/><ellipse class="cls-44" cx="540.31" cy="218.22" rx="1.75" ry="1.88" transform="translate(65.06 555.41) rotate(-57.35)"/><ellipse class="cls-44" cx="509.16" cy="201.84" rx="1.87" ry="2.01" transform="translate(64.51 521.64) rotate(-57.35)"/><ellipse class="cls-44" cx="515.99" cy="201.34" rx="1.87" ry="2.01" transform="translate(68.07 527.15) rotate(-57.35)"/><ellipse class="cls-44" cx="517.56" cy="206.69" rx="1.81" ry="1.94" transform="translate(64.29 530.94) rotate(-57.35)"/><ellipse class="cls-44" cx="525.72" cy="200.93" rx="1.81" ry="1.94" transform="translate(72.9 535.16) rotate(-57.35)"/><ellipse class="cls-44" cx="526.35" cy="206.4" rx="1.81" ry="1.94" transform="matrix(0.54, -0.84, 0.84, 0.54, 68.58, 538.2)"/><ellipse class="cls-44" cx="530.72" cy="211.34" rx="1.81" ry="1.94" transform="translate(66.43 544.16) rotate(-57.35)"/><ellipse class="cls-44" cx="537.35" cy="209.76" rx="1.75" ry="1.88" transform="matrix(0.54, -0.84, 0.84, 0.54, 70.82, 549.02)"/><ellipse class="cls-44" cx="523.82" cy="210.85" rx="1.81" ry="1.94" transform="translate(63.68 538.12) rotate(-57.35)"/><ellipse class="cls-44" cx="534.41" cy="216.88" rx="1.75" ry="1.88" transform="translate(63.47 549.82) rotate(-57.35)"/><ellipse class="cls-44" cx="540.71" cy="202.35" rx="1.81" ry="1.94" transform="translate(78.61 548.44) rotate(-57.35)"/><ellipse class="cls-44" cx="534.45" cy="199.26" rx="1.75" ry="1.88" transform="translate(78.32 541.73) rotate(-57.35)"/><ellipse class="cls-44" cx="542.15" cy="208.64" rx="1.75" ry="1.88" transform="translate(73.97 552.54) rotate(-57.35)"/><line class="cls-45" x1="495.46" y1="193.56" x2="522.08" y2="150.84"/><path class="cls-46" d="M441.83,166l102.67,63.9c16.13-26.4,6.39-61.94-21.86-79.52S458.28,139.81,441.83,166Z"/><line class="cls-46" x1="490.92" y1="193.14" x2="477.87" y2="142.55"/><line class="cls-46" x1="550.68" y1="188.28" x2="499.38" y2="197.99"/><ellipse class="cls-44" cx="453.56" cy="164.08" rx="1.87" ry="2.01" transform="translate(70.7 457.43) rotate(-57.35)"/><ellipse class="cls-44" cx="466.58" cy="164.57" rx="1.87" ry="2.01" transform="translate(76.28 468.62) rotate(-57.35)"/><ellipse class="cls-44" cx="472.06" cy="151.56" rx="1.87" ry="2.01" transform="matrix(0.54, -0.84, 0.84, 0.54, 89.76, 467.24)"/><ellipse class="cls-44" cx="481.64" cy="183.96" rx="1.87" ry="2.01" transform="translate(66.89 490.23) rotate(-57.35)"/><ellipse class="cls-44" cx="476.28" cy="179.42" rx="1.87" ry="2.01" transform="translate(68.24 483.63) rotate(-57.35)"/><ellipse class="cls-44" cx="479.72" cy="175.95" rx="1.87" ry="2.01" transform="translate(72.75 484.93) rotate(-57.35)"/><ellipse class="cls-44" cx="469.07" cy="173.73" rx="1.87" ry="2.01" transform="translate(69.71 474.93) rotate(-57.35)"/><ellipse class="cls-44" cx="472.86" cy="169.68" rx="1.87" ry="2.01" transform="translate(74.87 476.26) rotate(-57.35)"/><ellipse class="cls-44" cx="473.43" cy="163.22" rx="1.87" ry="2.01" transform="translate(80.57 473.76) rotate(-57.35)"/><ellipse class="cls-44" cx="467.53" cy="159.56" rx="1.87" ry="2.01" transform="translate(80.94 467.11) rotate(-57.35)"/><ellipse class="cls-44" cx="478.24" cy="168.63" rx="1.87" ry="2.01" transform="matrix(0.54, -0.84, 0.84, 0.54, 78.24, 480.31)"/><ellipse class="cls-44" cx="475.59" cy="156.96" rx="1.87" ry="2.01" transform="translate(86.84 472.7) rotate(-57.35)"/><ellipse class="cls-44" cx="458.86" cy="161.77" rx="1.87" ry="2.01" transform="translate(75.08 460.83) rotate(-57.35)"/><ellipse class="cls-44" cx="461.31" cy="168.9" rx="1.87" ry="2.01" transform="translate(70.21 466.18) rotate(-57.35)"/><ellipse class="cls-44" cx="462.88" cy="156.66" rx="1.87" ry="2.01" transform="translate(81.24 461.86) rotate(-57.35)"/><ellipse class="cls-44" cx="485.87" cy="149.04" rx="1.87" ry="2.01" transform="translate(98.24 477.71) rotate(-57.35)"/><ellipse class="cls-44" cx="496.18" cy="157.4" rx="1.87" ry="2.01" transform="translate(95.95 490.24) rotate(-57.35)"/><ellipse class="cls-44" cx="509.14" cy="151.21" rx="1.87" ry="2.01" transform="translate(107.13 498.3) rotate(-57.35)"/><ellipse class="cls-44" cx="495.84" cy="180.88" rx="1.87" ry="2.01" transform="matrix(0.54, -0.84, 0.84, 0.54, 76.02, 500.77)"/><ellipse class="cls-44" cx="494.42" cy="174.27" rx="1.87" ry="2.01" transform="translate(80.94 496.53) rotate(-57.35)"/><ellipse class="cls-44" cx="499.49" cy="173.83" rx="1.87" ry="2.01" transform="translate(83.64 500.59) rotate(-57.35)"/><ellipse class="cls-44" cx="492.24" cy="165.65" rx="1.87" ry="2.01" transform="translate(87.19 490.72) rotate(-57.35)"/><ellipse class="cls-44" cx="497.98" cy="165.01" rx="1.87" ry="2.01" transform="translate(90.37 495.26) rotate(-57.35)"/><ellipse class="cls-44" cx="502.65" cy="160.62" rx="1.87" ry="2.01" transform="translate(96.22 497.17) rotate(-57.35)"/><ellipse class="cls-44" cx="500.23" cy="154.3" rx="1.87" ry="2.01" transform="translate(100.42 492.23) rotate(-57.35)"/><ellipse class="cls-44" cx="503.06" cy="167.54" rx="1.87" ry="2.01" transform="translate(90.58 500.71) rotate(-57.35)"/><ellipse class="cls-44" cx="508.5" cy="157.34" rx="1.87" ry="2.01" transform="translate(101.67 500.59) rotate(-57.35)"/><ellipse class="cls-44" cx="491.7" cy="150.6" rx="1.87" ry="2.01" transform="translate(99.61 483.34) rotate(-57.35)"/><ellipse class="cls-44" cx="489.06" cy="157.35" rx="1.87" ry="2.01" transform="translate(92.71 484.22) rotate(-57.35)"/><ellipse class="cls-44" cx="498.32" cy="149.32" rx="1.87" ry="2.01" transform="translate(103.74 488.32) rotate(-57.35)"/><ellipse class="cls-44" cx="526.43" cy="161.56" rx="1.87" ry="2.01" transform="translate(106.38 517.62) rotate(-57.35)"/><ellipse class="cls-44" cx="526.52" cy="174.17" rx="1.87" ry="2.01" transform="matrix(0.54, -0.84, 0.84, 0.54, 95.79, 523.51)"/><ellipse class="cls-44" cx="540.2" cy="180.61" rx="1.87" ry="2.01" transform="translate(96.68 537.99) rotate(-57.35)"/><ellipse class="cls-44" cx="507.19" cy="187.18" rx="1.87" ry="2.01" transform="translate(75.94 513.23) rotate(-57.35)"/><ellipse class="cls-44" cx="511.63" cy="182.36" rx="1.87" ry="2.01" transform="translate(82.05 514.74) rotate(-57.35)"/><ellipse class="cls-44" cx="515.37" cy="185.99" rx="1.87" ry="2.01" transform="translate(80.71 519.56) rotate(-57.35)"/><ellipse class="cls-44" cx="517.17" cy="175.82" rx="1.87" ry="2.01" transform="translate(90.11 516.4) rotate(-57.35)"/><ellipse class="cls-44" cx="521.53" cy="179.85" rx="1.87" ry="2.01" transform="translate(88.71 521.92) rotate(-57.35)"/><ellipse class="cls-44" cx="528.22" cy="180.95" rx="1.87" ry="2.01" transform="translate(90.87 528.06) rotate(-57.35)"/><ellipse class="cls-44" cx="531.74" cy="175.53" rx="1.87" ry="2.01" transform="translate(97.06 528.53) rotate(-57.35)"/><ellipse class="cls-44" cx="522.86" cy="185.18" rx="1.87" ry="2.01" transform="translate(84.85 525.5) rotate(-57.35)"/><ellipse class="cls-44" cx="534.79" cy="183.58" rx="1.87" ry="2.01" transform="matrix(0.54, -0.84, 0.84, 0.54, 91.68, 534.8)"/><ellipse class="cls-44" cx="529.06" cy="166.9" rx="1.87" ry="2.01" transform="translate(103.08 522.3) rotate(-57.35)"/><ellipse class="cls-44" cx="521.8" cy="168.69" rx="1.87" ry="2.01" transform="translate(98.24 517.01) rotate(-57.35)"/><ellipse class="cls-44" cx="534.51" cy="171.25" rx="1.87" ry="2.01" transform="translate(101.94 528.89) rotate(-57.35)"/><path class="cls-47" d="M487.74,194.59l11.16,6.94a6.6,6.6,0,0,0-11.16-6.94Z"/><path class="cls-48" d="M1115.9,510.77s3.2,12.35,4.37,13.54-31,23.39-23.12,40.52,50.16,155.35,50.16,155.35,50,1.19,101.2-32.67l-44.87-139s-1.64-27-23.16-30.3-26-5-26-5l-4.41-13.53Z"/><rect x="1104.83" y="456.45" width="40.44" height="53.17" rx="12" transform="translate(-93.99 369.01) rotate(-17.89)"/><rect class="cls-49" x="1127.84" y="577.68" width="86.12" height="80.13" rx="12" transform="translate(-133.16 389.61) rotate(-17.89)"/><path d="M1147,624.06l.66.66a66.41,66.41,0,0,0,5,4.61c.92.7,1.64,1,2.18.83.85-.22,1.29-1.07,1.33-2.55.36.08.58.22.64.43a3.86,3.86,0,0,1-.47,2.56c-.5,1.13-1,1.78-1.55,1.95-.77.24-2-.27-3.83-1.57a37.37,37.37,0,0,1-5.8-5.44c-.5.22-.93.38-1.29.5s-.81.23-1.37.36l.2,1L1143,629a6.79,6.79,0,0,1,.07,3.13,6.31,6.31,0,0,1-1.83,2.48l3.35-.85-1.15,2.15-6.12,1.64,1.22-2.3,1.57-.32q1.34-1.62.68-5.06l-.29-1.4-2.24-10.93q-5.94,3.24-4.79,6.82a5.5,5.5,0,0,0,1.42,2.35l-1.6,2.7a8.45,8.45,0,0,1-1-2.08,7.73,7.73,0,0,1,1.22-7.2,14.18,14.18,0,0,1,7.51-5.07q6.88-2.22,8.29,2.16C1150,619.36,1149.23,621.63,1147,624.06Zm-6.51-7.34,1.71,8.38a13.6,13.6,0,0,0,2.1-.48,10.68,10.68,0,0,0,1.82-.79,5.43,5.43,0,0,0,1.11-5.12Q1146,614.95,1140.49,616.72Z"/><path d="M1157.3,619.18l-1.57,2.91a7.91,7.91,0,0,1-1-2.06,7.42,7.42,0,0,1,.81-6.62,11.45,11.45,0,0,1,6.4-4.46l2-.66a26.41,26.41,0,0,0-.17,6.44,28.72,28.72,0,0,0,1.21,6.49q1.86,5.76,5.37,4.63a4.59,4.59,0,0,0,3.08-3.52,16.33,16.33,0,0,0-.29-7.32c-.3-1.39-.5-2.29-.58-2.71l-1.12-5.43,2.3-2.33a42.85,42.85,0,0,0,.85,6l.94,4.62q0,.24.36,1.62l.42,2c.17.75.33,1.4.51,1.93.29.92.8,1.27,1.5,1a3.78,3.78,0,0,0,1.67-1.26,1.28,1.28,0,0,0,.1.15,2.15,2.15,0,0,1,.11.25c.09.27-.09.61-.52,1l-.69.67-3.47,3.27-1-4.82q-1.47,5.61-4.92,6.72-4.7,1.51-7-5.66a28.46,28.46,0,0,1-1-11.17l-1.17.38c-3.86,1.25-5.38,3.14-4.55,5.7A5.17,5.17,0,0,0,1157.3,619.18Z"/><path d="M1181.65,611.32l-1.56,2.9a7.76,7.76,0,0,1-1-2.06,7.61,7.61,0,0,1,.75-6.57,10.1,10.1,0,0,1,5.82-4.39,10.54,10.54,0,0,1,1.17-.32,3.53,3.53,0,0,0,.45-.12l.18,0c.08.27.14.46.18.58.46,1.43,1.82,3.53,4.1,6.3l1.14,1.39.76,1,1,1.28c.53.67,1,1.35,1.46,2l.34-1.43c.37-1.58.69-3,1-4.31l.61-2.79.42-2.29.53-2.75c0-.26.15-.77.29-1.54l2.15-2.56a53.73,53.73,0,0,0,1.8,8.63l1.29,4.61.51,1.72a9.65,9.65,0,0,0,1.2,2.76,1.25,1.25,0,0,0,1.44.28,5.3,5.3,0,0,0,1.68-.85.6.6,0,0,1,.22.25c.1.31-.15.64-.73,1l-.68.42-3.71,2.09c-.32-.86-.6-1.65-.84-2.39a115.77,115.77,0,0,1-3.44-12.81c-.7,2.23-1.18,4-1.47,5.36l-.37,1.7a43.79,43.79,0,0,0-.93,6.59l-1.32,2.73a29.16,29.16,0,0,0-4.47-6.72l-1-1.23c-.13-.14-.43-.5-.9-1.06a24.27,24.27,0,0,1-2.37-3.29l1.09,7.25a18.3,18.3,0,0,1,.33,4.56,4.29,4.29,0,0,1-1.32,2.46l3.57-.87-1.23,2.21-6,1.61,1.24-2.3,1.61-.38a3.88,3.88,0,0,0,.77-2.09,25.5,25.5,0,0,0-.38-4.28l-1.49-10.33-.65.22q-5.79,1.86-4.56,5.69A5.39,5.39,0,0,0,1181.65,611.32Z"/><rect class="cls-50" x="1145.94" y="701.87" width="108.59" height="13.48" rx="6.74" transform="translate(-159.66 403.02) rotate(-17.89)"/><path class="cls-19" d="M937.11,522a5,5,0,0,1-3.69-4.39c-.78-8.94-2.53-32.22.07-33.84,3-1.84,19-4.16,33.76.53a5,5,0,0,1,3.54,5.05c-.46,8.68-1.74,29.8-3.5,32.67C965.17,525.44,960.06,528.2,937.11,522Z"/><path class="cls-51" d="M931.35,522.19l-31.41,15.27a6.8,6.8,0,0,0-3.83,5.66L885.2,698.41a6.86,6.86,0,0,1-.32,1.61c-.82,2.59-3.24,11.05-.19,12.92,3.55,2.19,71.91,20.2,101.32,8.86a7.19,7.19,0,0,0,2.82-2c1.75-2,4.51-6,2.69-9.63a7.34,7.34,0,0,1-.85-3.89l12.56-152.83a6.83,6.83,0,0,0-2.65-6l-29.53-22.64a6.82,6.82,0,0,0-6.65-1c-3.73,1.48-11.78,2.59-28.18-2.11A6.84,6.84,0,0,0,931.35,522.19Z"/><path class="cls-52" d="M943.6,595.68S892,620.83,890.4,638.39s-7.12,17.63,46.53,65.35c0,0,56.48-29.79,58.81-49.8S954.4,599.58,943.6,595.68Z"/><path d="M932.61,652.25l-.05,0a15.18,15.18,0,0,1-4.78,2.13,9.83,9.83,0,0,1-4.54.05,6.92,6.92,0,0,1-3.47-1.94,7.45,7.45,0,0,1-1.89-3.6,10.27,10.27,0,0,1,.1-4.6,18.61,18.61,0,0,1,1.91-4.83,26,26,0,0,1,3.38-4.66,32.08,32.08,0,0,1,4.64-4.24,25.51,25.51,0,0,1,7.16-3.92,11.29,11.29,0,0,1,6.11-.65,4.21,4.21,0,0,1,1.79.86,2.91,2.91,0,0,1,1,1.53,3.9,3.9,0,0,1,0,2,8.23,8.23,0,0,1-3.64,4.87,13.31,13.31,0,0,1-6.78,2.32l-.35-1.91a14.68,14.68,0,0,0,6.58-2,6.55,6.55,0,0,0,3.35-4,2.45,2.45,0,0,0-.85-2.44,3.26,3.26,0,0,0-1.34-.62,9.33,9.33,0,0,0-5.13.51,20.87,20.87,0,0,0-5.84,3.15,26.73,26.73,0,0,0-4.07,3.84,25.18,25.18,0,0,0-3.21,4.67,19.71,19.71,0,0,0-1.88,4.83,12.78,12.78,0,0,0-.37,3.44,8,8,0,0,0,.63,2.94,5.62,5.62,0,0,0,4,3.33c2.18.51,4.82-.19,7.94-2.11l.11-.1,1.74-3.71,2.69-.79-3,6.49c-.73,1.58-1.29,2.72-1.7,3.4a14.44,14.44,0,0,1-1.59,2.12,13.18,13.18,0,0,1-3.65,2.86,12.7,12.7,0,0,1-4.45,1.43,12.53,12.53,0,0,1-4.58-.21,10.46,10.46,0,0,1-4.13-1.8l1.11-1.45a10.65,10.65,0,0,0,4.85,2.62,9.12,9.12,0,0,0,2.62.24,7.93,7.93,0,0,0,2.42-.52,7.43,7.43,0,0,0,2.08-1.25,11,11,0,0,0,1.43-1.47,14.54,14.54,0,0,0,1.28-2c.45-.8,1-1.88,1.63-3.24Z"/><path d="M946.71,645.53l-3.77,7a12.57,12.57,0,0,0-1.2,2.85,2.53,2.53,0,0,0,0,1.25.77.77,0,0,0,.55.61c.47.11,1.36-.28,2.66-1.16l.29.4-.29.2a24.5,24.5,0,0,1-2.4,1.62,1.81,1.81,0,0,1-1.27.26,1.47,1.47,0,0,1-1-1,3.22,3.22,0,0,1-.07-1.91,14.62,14.62,0,0,1,.78-2.11l3.31-7.65Zm2.75-8.79a1.29,1.29,0,0,1,1,1.63,1.34,1.34,0,0,1-.61.87,1.29,1.29,0,0,1-1,.17,1.32,1.32,0,0,1-.83-.63,1.33,1.33,0,0,1-.2-1,1.29,1.29,0,0,1,.61-.84A1.33,1.33,0,0,1,949.46,636.74Z"/><path d="M948,660.15l5.38-12.07,2.39-.43-3.93,7.91a26.79,26.79,0,0,1,5.19-5.19q2.36-1.64,4.07-1.23a1.86,1.86,0,0,1,1.24.87,2.16,2.16,0,0,1,.17,1.62,6.3,6.3,0,0,1-.6,1.43l-.45.9-1.34,2.63-.43.83a10.41,10.41,0,0,0-.84,2,2.49,2.49,0,0,0,0,1.24.78.78,0,0,0,.56.6c.47.11,1.35-.28,2.65-1.16l.29.4-.28.2a24.5,24.5,0,0,1-2.4,1.62,1.82,1.82,0,0,1-1.27.26,1.46,1.46,0,0,1-1-1,3.14,3.14,0,0,1-.07-1.91,12.41,12.41,0,0,1,.78-2.11l2-4.63a12.29,12.29,0,0,0,.56-1.55,1,1,0,0,0-.08-.79,1,1,0,0,0-.63-.41c-1-.25-2.61.58-4.67,2.47a22.92,22.92,0,0,0-2.6,2.77,45.88,45.88,0,0,0-2.67,4l-.35.57Z"/><path class="cls-53" d="M487.74,422.43l.31,15.94s-7.87,17.7-16.3,36.7-6.94,54.65-6.94,54.65l1,17.17,7.08,118.25s.24,46.57,12.89,55.38,29.13-3.66,29.13-3.66c16.62,11.13,26-2.19,26.74-1s14.29,4.25,21.5-3.2,1.48-49.86,1.48-49.86-5.43-80.07-5-83.92-6-57.07-6-57.07-2.11-13.91-1.37-22.89-26.65-50.72-33-61.82c0,0-6.45-11.74-6.08-16.23S487.74,422.43,487.74,422.43Z"/><polygon class="cls-54" points="467.59 588.5 559.13 581.09 564.15 662.87 472.48 668.36 467.59 588.5"/><path class="cls-10" d="M519.72,604.92s19.37-6.91,22.65-16"/><path class="cls-55" d="M513.21,421.55s8.11-3,2.67-19.3c0,0-12-2.17-22.46-.81a36.8,36.8,0,0,0-3.76.68,24.45,24.45,0,0,0-3.24,1,18.34,18.34,0,0,0-2.33,1.06s-4.13,16.2,1,17.16S513.21,421.55,513.21,421.55Z"/><ellipse class="cls-56" cx="514.02" cy="605.58" rx="5.1" ry="6.69" transform="translate(-35.27 31.8) rotate(-3.43)"/><path d="M494,631.86a3,3,0,0,1,.33,1,2.38,2.38,0,0,1-.08.93,2.13,2.13,0,0,1-.43.78,2.46,2.46,0,0,1-.72.55,2.71,2.71,0,0,1-1.26.32,2.63,2.63,0,0,1-1.19-.27l.21-.81a2,2,0,0,0,.95.25,1.94,1.94,0,0,0,.91-.21,1.32,1.32,0,0,0,.72-.85,1.71,1.71,0,0,0-.19-1.29,1.69,1.69,0,0,0-.42-.54,1.84,1.84,0,0,0-.54-.31,2.62,2.62,0,0,0-.63-.14c-.21,0-.43,0-.66,0a5.44,5.44,0,0,1-.81,0,3.19,3.19,0,0,1-.75-.2,2.35,2.35,0,0,1-.67-.44,2.68,2.68,0,0,1-.56-.76,2.93,2.93,0,0,1-.33-1.06,2.38,2.38,0,0,1,.11-.93,2.35,2.35,0,0,1,.44-.75,2.72,2.72,0,0,1,.69-.52,2.86,2.86,0,0,1,1.08-.31,2.05,2.05,0,0,1,1,.21l-.2.81a1.44,1.44,0,0,0-.78-.2,1.74,1.74,0,0,0-1.17.52,1.44,1.44,0,0,0-.28.48,1.72,1.72,0,0,0-.05.61,2,2,0,0,0,.22.73,1.67,1.67,0,0,0,.41.54,1.71,1.71,0,0,0,.5.3,1.88,1.88,0,0,0,.58.13c.21,0,.41,0,.62,0a7.63,7.63,0,0,1,.82,0,3.75,3.75,0,0,1,.8.2,2.22,2.22,0,0,1,.72.43A2.41,2.41,0,0,1,494,631.86Z"/><path d="M498.58,632.42a1.65,1.65,0,0,1-1,.18,2,2,0,0,1-.91-.33,3.26,3.26,0,0,1-.82-.77,6.06,6.06,0,0,1-.72-1.18,6.16,6.16,0,0,1-.46-1.3,3.49,3.49,0,0,1-.08-1.14A2,2,0,0,1,495,627a1.85,1.85,0,0,1,.74-.63,1.8,1.8,0,0,1,1.5-.05l-.14.75a1,1,0,0,0-.49-.15,1.22,1.22,0,0,0-.54.11,1,1,0,0,0-.45.44,1.54,1.54,0,0,0-.14.67,3.5,3.5,0,0,0,.14.85,5.49,5.49,0,0,0,.37,1,6.28,6.28,0,0,0,.52.9,3.18,3.18,0,0,0,.58.62,1.34,1.34,0,0,0,.61.3,1,1,0,0,0,.64-.09,1.06,1.06,0,0,0,.44-.36,1.14,1.14,0,0,0,.2-.51l.63.42A1.67,1.67,0,0,1,498.58,632.42Z"/><path d="M504.12,629.67,502.45,626c-.08-.18-.17-.35-.27-.53a1.91,1.91,0,0,0-.34-.44.93.93,0,0,0-.44-.25.74.74,0,0,0-.54.06,1.07,1.07,0,0,0-.45.39,1.41,1.41,0,0,0-.19.6,2.33,2.33,0,0,0,0,.74,3.06,3.06,0,0,0,.24.78l1.49,3.33-.77.34-3.93-8.79.77-.35,1.84,4.12h0a2.11,2.11,0,0,1,.11-1.15,1.39,1.39,0,0,1,.77-.77,1.36,1.36,0,0,1,.83-.14,1.44,1.44,0,0,1,.67.32,2.73,2.73,0,0,1,.52.63,5.8,5.8,0,0,1,.41.78l1.66,3.72Z"/><path d="M511.47,626.55l-.92.38-2.95-4.33h0l1,5.15-.88.37-3.61-5.34.79-.33,2.94,4.57h0l-1-5.36.75-.31,3.09,4.51h0l-1.16-5.31.79-.33Z"/><path d="M513.8,621.67a4.73,4.73,0,0,0,.61.75,2.8,2.8,0,0,0,.64.49,1.32,1.32,0,0,0,.64.18,1,1,0,0,0,.62-.18,1,1,0,0,0,.47-.65,2,2,0,0,0,0-.8l.73-.05a2.47,2.47,0,0,1,0,1.18,1.73,1.73,0,0,1-.75,1,1.85,1.85,0,0,1-1.86.17A4.42,4.42,0,0,1,513,622a6.46,6.46,0,0,1-.63-1.22,3.58,3.58,0,0,1-.22-1.14,2.17,2.17,0,0,1,.19-1A1.81,1.81,0,0,1,513,618a1.74,1.74,0,0,1,.93-.32,1.89,1.89,0,0,1,.89.2,3.57,3.57,0,0,1,.83.63,5.86,5.86,0,0,1,.75.93l.25.39Zm1.75-2a3.46,3.46,0,0,0-1.1-1.12,1,1,0,0,0-1.09,0,.93.93,0,0,0-.39.53,1.72,1.72,0,0,0,0,.68,3,3,0,0,0,.19.71,4.4,4.4,0,0,0,.3.58Z"/><path d="M521.72,616.05a7.59,7.59,0,0,1,.67,1.18,3.77,3.77,0,0,1,.29,1.09,2.17,2.17,0,0,1-.11.93,1.59,1.59,0,0,1-.57.7,1.43,1.43,0,0,1-1,.26,1.89,1.89,0,0,1-1-.46h0l2.37,3.39-.68.48L516.33,616l.67-.46.65.92h0a2.07,2.07,0,0,1-.13-1.08,1.34,1.34,0,0,1,.6-.89,1.46,1.46,0,0,1,.85-.27,1.92,1.92,0,0,1,.91.21,3.75,3.75,0,0,1,.93.65A6.54,6.54,0,0,1,521.72,616.05Zm-.73.48a5.26,5.26,0,0,0-.65-.8,3.18,3.18,0,0,0-.67-.54A1.52,1.52,0,0,0,519,615a.9.9,0,0,0-.61.17.88.88,0,0,0-.36.51,1.56,1.56,0,0,0,0,.69,3.64,3.64,0,0,0,.27.83,5.87,5.87,0,0,0,.52.89,6.28,6.28,0,0,0,.67.81,3,3,0,0,0,.69.54,1.59,1.59,0,0,0,.66.21.92.92,0,0,0,.6-.17.9.9,0,0,0,.37-.51,1.58,1.58,0,0,0,0-.69,3.07,3.07,0,0,0-.28-.82A6.3,6.3,0,0,0,521,616.53Z"/><path d="M526.86,612.28a6.88,6.88,0,0,1,.7,1.16,3.75,3.75,0,0,1,.32,1.08,2,2,0,0,1-.09.93,1.5,1.5,0,0,1-.55.71,1.33,1.33,0,0,1-1,.29,1.9,1.9,0,0,1-1-.43h0l2.46,3.33-.67.5-5.58-7.54.65-.48.68.91,0,0a2.05,2.05,0,0,1-.16-1.07,1.27,1.27,0,0,1,.58-.9,1.43,1.43,0,0,1,.83-.3,2,2,0,0,1,.93.19,3.54,3.54,0,0,1,.94.62A6.52,6.52,0,0,1,526.86,612.28Zm-.71.5a5.28,5.28,0,0,0-.68-.78,2.9,2.9,0,0,0-.69-.53,1.63,1.63,0,0,0-.66-.21,1,1,0,0,0-1,.71,1.65,1.65,0,0,0,0,.7,3.37,3.37,0,0,0,.29.82,6.64,6.64,0,0,0,.55.88,6.8,6.8,0,0,0,.68.79,2.86,2.86,0,0,0,.71.51,1.61,1.61,0,0,0,.67.2,1,1,0,0,0,.59-.19.9.9,0,0,0,.35-.51,1.49,1.49,0,0,0,0-.7,3.12,3.12,0,0,0-.3-.81A8,8,0,0,0,526.15,612.78Z"/><path d="M529.05,610.79a4.47,4.47,0,0,0,.66.7,2.79,2.79,0,0,0,.68.44,1.47,1.47,0,0,0,.66.13,1,1,0,0,0,.6-.24,1,1,0,0,0,.41-.68,1.84,1.84,0,0,0-.08-.8l.73-.11a2.5,2.5,0,0,1,.07,1.18,1.72,1.72,0,0,1-.67,1,1.85,1.85,0,0,1-1.84.32,4.35,4.35,0,0,1-2-1.57,5.44,5.44,0,0,1-.73-1.16,3.36,3.36,0,0,1-.32-1.11,2,2,0,0,1,.12-1,1.74,1.74,0,0,1,.56-.76,1.76,1.76,0,0,1,.9-.4,1.88,1.88,0,0,1,.9.13,3.12,3.12,0,0,1,.88.55,6.28,6.28,0,0,1,.83.87l.29.36Zm1.57-2.13a3.51,3.51,0,0,0-1.18-1,1,1,0,0,0-1.08.12.9.9,0,0,0-.35.56,1.62,1.62,0,0,0,0,.69,2.54,2.54,0,0,0,.25.68,3.43,3.43,0,0,0,.34.56Z"/><path d="M532.44,604a1.16,1.16,0,0,1,.4-.83L533,603l.54.68-.09,0-.08.06a.86.86,0,0,0-.3.54,1.66,1.66,0,0,0,.05.69,3.2,3.2,0,0,0,.31.76,5.41,5.41,0,0,0,.5.72L536,609l-.64.55-3.05-3.62-.29-.33-.3-.34-.28-.3-.19-.21.62-.53.42.44c.16.18.33.37.5.58h0A2.42,2.42,0,0,1,532.44,604Z"/><path d="M536.81,601.31a1.47,1.47,0,0,0-.62,0,1.28,1.28,0,0,0-.59.3.87.87,0,0,0-.29.67,1.21,1.21,0,0,0,.33.76,1,1,0,0,0,.69.37,2.49,2.49,0,0,0,.85-.2,4.26,4.26,0,0,1,.54-.16,1.89,1.89,0,0,1,.58,0,1.63,1.63,0,0,1,.59.16,1.79,1.79,0,0,1,.58.45,2,2,0,0,1,.6,1.4,1.78,1.78,0,0,1-.62,1.26,2,2,0,0,1-.9.48,2.07,2.07,0,0,1-1,0V606a1.88,1.88,0,0,0,.74.06,1.23,1.23,0,0,0,.67-.32.9.9,0,0,0,.31-.73,1.3,1.3,0,0,0-.37-.82,1.2,1.2,0,0,0-.43-.31.94.94,0,0,0-.43-.08,1.75,1.75,0,0,0-.44.07l-.45.16a4.58,4.58,0,0,1-.49.15,1.3,1.3,0,0,1-.52,0,1.51,1.51,0,0,1-.55-.17,1.74,1.74,0,0,1-.54-.44,1.79,1.79,0,0,1-.39-.62,1.62,1.62,0,0,1-.11-.68,1.84,1.84,0,0,1,.17-.64,1.69,1.69,0,0,1,.41-.56,1.87,1.87,0,0,1,.83-.46,2,2,0,0,1,.83,0Z"/><path d="M501.18,648.49l.26,4.28-.55,0-.26-4.28Z"/><path d="M502.6,650.46c0-.32,0-.58-.08-.84l.5,0,.06.51h0a1.15,1.15,0,0,1,1-.64c.43,0,1.1.19,1.17,1.25l.11,1.83-.56,0-.11-1.77c0-.49-.24-.9-.76-.86a.8.8,0,0,0-.72.61.76.76,0,0,0,0,.27l.11,1.84-.56,0Z"/><path d="M508.92,647.8l.23,3.72c0,.27,0,.58.07.79l-.5,0-.06-.53h0a1.14,1.14,0,0,1-1,.66,1.39,1.39,0,0,1-1.41-1.48,1.47,1.47,0,0,1,1.28-1.73,1,1,0,0,1,.95.41h0l-.11-1.84Zm-.39,2.72a1.85,1.85,0,0,0,0-.23.83.83,0,0,0-.85-.6c-.58,0-.89.56-.85,1.24s.37,1.12,1,1.08a.85.85,0,0,0,.78-.71,2,2,0,0,0,0-.25Z"/><path d="M510.79,648.26a.35.35,0,1,1-.69,0,.35.35,0,0,1,.33-.37A.33.33,0,0,1,510.79,648.26Zm-.39,4-.18-3.08.56,0,.18,3.07Z"/><path d="M513.87,652l-.06-.38h0a1.17,1.17,0,0,1-.91.51.88.88,0,0,1-1-.83c0-.74.59-1.18,1.78-1.25V650a.63.63,0,0,0-.74-.67,1.5,1.5,0,0,0-.79.27l-.15-.36a1.91,1.91,0,0,1,1-.33c.95-.06,1.21.57,1.25,1.19l.07,1.15a3.94,3.94,0,0,0,.09.73Zm-.17-1.56c-.61,0-1.3.17-1.26.77a.49.49,0,0,0,.56.5.76.76,0,0,0,.71-.56,1.1,1.1,0,0,0,0-.18Z"/><path d="M515.38,649.69c0-.32,0-.58-.07-.83l.49,0,.06.51h0a1.11,1.11,0,0,1,1-.64c.42,0,1.1.19,1.16,1.24l.11,1.84-.56,0-.1-1.77c0-.5-.24-.9-.77-.87a.78.78,0,0,0-.71.62,1,1,0,0,0,0,.26l.12,1.85-.56,0Z"/><path d="M521.29,647.76l-1.3.08,0-.47,3.17-.19,0,.47-1.31.08.23,3.81-.56,0Z"/><path d="M526.37,649.71a1.51,1.51,0,0,1-1.44,1.73,1.46,1.46,0,0,1-1.56-1.5,1.5,1.5,0,0,1,1.42-1.72A1.46,1.46,0,0,1,526.37,649.71Zm-2.44.18c0,.68.46,1.16,1,1.13s.9-.56.86-1.25c0-.52-.33-1.17-1-1.13S523.9,649.31,523.93,649.89Z"/><path d="M527.31,649c0-.32,0-.58-.07-.84l.5,0,.06.5h0a1.14,1.14,0,0,1,1-.64c.43,0,1.1.19,1.17,1.25l.11,1.83-.56,0-.11-1.77c0-.49-.24-.9-.76-.86a.8.8,0,0,0-.72.61.76.76,0,0,0,0,.27l.11,1.84-.56,0Z"/><path d="M531.64,647a.33.33,0,0,1-.33.37.33.33,0,0,1-.36-.33.34.34,0,0,1,.33-.36A.32.32,0,0,1,531.64,647Zm-.38,4-.19-3.07.56,0,.19,3.08Z"/><path d="M535.21,650.64a2.23,2.23,0,0,1-.87.23,1.47,1.47,0,0,1-1.63-1.48,1.57,1.57,0,0,1,1.56-1.73,2,2,0,0,1,.78.11l-.1.44a1.38,1.38,0,0,0-.66-.11,1.07,1.07,0,0,0-1,1.23,1.05,1.05,0,0,0,1.13,1.09,1.62,1.62,0,0,0,.68-.2Z"/><path class="cls-10" d="M508.39,607.51l-1.19.32c-21.52,5.93-23.89,17.77-23.89,17.77"/><path class="cls-10" d="M494,645.51s3.79-8.86,27.41-16.1,25.93-14.43,27.15-14.25"/><path class="cls-2" d="M763,601.53l-108.25.2c.23,27.69,24.45,50,54.24,50S762.89,629.22,763,601.53Z"/><ellipse class="cls-44" cx="672.14" cy="625.15" rx="1.66" ry="1.54"/><ellipse class="cls-44" cx="674.31" cy="615.14" rx="1.66" ry="1.54"/><ellipse class="cls-44" cx="664.01" cy="608.54" rx="1.66" ry="1.54"/><ellipse class="cls-44" cx="695.05" cy="606.22" rx="1.78" ry="1.65"/><ellipse class="cls-44" cx="690.16" cy="609.79" rx="1.78" ry="1.65"/><ellipse class="cls-44" cx="686.48" cy="606.52" rx="1.72" ry="1.6"/><ellipse class="cls-44" cx="683.04" cy="614.66" rx="1.72" ry="1.6"/><ellipse class="cls-44" cx="680.02" cy="610.85" rx="1.72" ry="1.6"/><ellipse class="cls-44" cx="674.43" cy="609.2" rx="1.72" ry="1.6"/><ellipse class="cls-44" cx="670.18" cy="613.49" rx="1.66" ry="1.54"/><ellipse class="cls-44" cx="679.84" cy="606.33" rx="1.72" ry="1.6"/><ellipse class="cls-44" cx="669.06" cy="606.77" rx="1.66" ry="1.54"/><ellipse class="cls-44" cx="671.12" cy="620.63" rx="1.72" ry="1.6"/><ellipse class="cls-44" cx="677.28" cy="620" rx="1.66" ry="1.54"/><ellipse class="cls-44" cx="667.1" cy="616.58" rx="1.66" ry="1.54"/><line class="cls-45" x1="709.21" y1="606" x2="709.19" y2="650.52"/><path class="cls-46" d="M762.35,601.53l-107,.2c.23,27.36,24.15,49.45,53.59,49.39S762.25,628.89,762.35,601.53Z"/><line class="cls-46" x1="712.82" y1="604.19" x2="746.26" y2="636.01"/><line class="cls-46" x1="670.22" y1="635.85" x2="704.2" y2="604.52"/><ellipse class="cls-44" cx="754.46" cy="608.47" rx="1.78" ry="1.65"/><ellipse class="cls-44" cx="744.45" cy="614.21" rx="1.78" ry="1.65"/><ellipse class="cls-44" cx="746.42" cy="626.54" rx="1.78" ry="1.65"/><ellipse class="cls-44" cx="724.08" cy="606.73" rx="1.78" ry="1.65"/><ellipse class="cls-44" cx="730.22" cy="607.62" rx="1.78" ry="1.65"/><ellipse class="cls-44" cx="729.26" cy="611.83" rx="1.78" ry="1.65"/><ellipse class="cls-44" cx="738.3" cy="608.5" rx="1.78" ry="1.65"/><ellipse class="cls-44" cx="737.34" cy="613.32" rx="1.78" ry="1.65"/><ellipse class="cls-44" cx="739.94" cy="618.43" rx="1.78" ry="1.65"/><ellipse class="cls-44" cx="746.08" cy="618.42" rx="1.78" ry="1.65"/><ellipse class="cls-44" cx="733.79" cy="616.63" rx="1.78" ry="1.65"/><ellipse class="cls-44" cx="741.24" cy="624.14" rx="1.78" ry="1.65"/><ellipse class="cls-44" cx="751.56" cy="612.69" rx="1.78" ry="1.65"/><ellipse class="cls-44" cx="746.38" cy="608.49" rx="1.78" ry="1.65"/><ellipse class="cls-44" cx="750.92" cy="618.41" rx="1.78" ry="1.65"/><ellipse class="cls-44" cx="737.22" cy="634.9" rx="1.78" ry="1.65"/><ellipse class="cls-44" cx="725.58" cy="633.46" rx="1.78" ry="1.65"/><ellipse class="cls-44" cx="718.74" cy="644.18" rx="1.78" ry="1.65"/><ellipse class="cls-44" cx="714.85" cy="615.69" rx="1.78" ry="1.65"/><ellipse class="cls-44" cx="719.01" cy="619.99" rx="1.78" ry="1.65"/><ellipse class="cls-44" cx="715.41" cy="622.69" rx="1.78" ry="1.65"/><ellipse class="cls-44" cx="724.67" cy="625.43" rx="1.78" ry="1.65"/><ellipse class="cls-44" cx="720.66" cy="628.6" rx="1.78" ry="1.65"/><ellipse class="cls-44" cx="719.21" cy="634.08" rx="1.78" ry="1.65"/><ellipse class="cls-44" cx="723.98" cy="637.68" rx="1.78" ry="1.65"/><ellipse class="cls-44" cx="715.66" cy="629.08" rx="1.78" ry="1.65"/><ellipse class="cls-44" cx="716.35" cy="639.28" rx="1.78" ry="1.65"/><ellipse class="cls-44" cx="732.11" cy="636.46" rx="1.78" ry="1.65"/><ellipse class="cls-44" cx="730.95" cy="630.16" rx="1.78" ry="1.65"/><ellipse class="cls-44" cx="727.75" cy="640.52" rx="1.78" ry="1.65"/><ellipse class="cls-44" cx="700.92" cy="644.52" rx="1.78" ry="1.65"/><ellipse class="cls-44" cx="694.95" cy="635.1" rx="1.78" ry="1.65"/><ellipse class="cls-44" cx="681.67" cy="636.69" rx="1.78" ry="1.65"/><ellipse class="cls-44" cx="703.38" cy="616.29" rx="1.78" ry="1.65"/><ellipse class="cls-44" cx="702.31" cy="621.98" rx="1.78" ry="1.65"/><ellipse class="cls-44" cx="697.8" cy="621.01" rx="1.78" ry="1.65"/><ellipse class="cls-44" cx="701.2" cy="629.49" rx="1.78" ry="1.65"/><ellipse class="cls-44" cx="696.05" cy="628.5" rx="1.78" ry="1.65"/><ellipse class="cls-44" cx="690.51" cy="630.82" rx="1.78" ry="1.65"/><ellipse class="cls-44" cx="690.4" cy="636.53" rx="1.78" ry="1.65"/><ellipse class="cls-44" cx="692.55" cy="625.14" rx="1.78" ry="1.65"/><ellipse class="cls-44" cx="684.35" cy="631.92" rx="1.78" ry="1.65"/><ellipse class="cls-44" cx="696.45" cy="641.74" rx="1.78" ry="1.65"/><ellipse class="cls-44" cx="701.06" cy="637.01" rx="1.78" ry="1.65"/><ellipse class="cls-44" cx="690.32" cy="641.04" rx="1.78" ry="1.65"/><path class="cls-47" d="M714.52,601.62l-11.61,0a5.83,5.83,0,0,0,11.61,0Z"/><path class="cls-2" d="M654.76,598.49,763,597.06c-.59-27.68-25.1-49.76-54.88-49.37S654.51,570.8,654.76,598.49Z"/><ellipse class="cls-44" cx="745.3" cy="573.84" rx="1.66" ry="1.54"/><ellipse class="cls-44" cx="743.27" cy="583.88" rx="1.66" ry="1.54"/><ellipse class="cls-44" cx="753.66" cy="590.36" rx="1.66" ry="1.54"/><ellipse class="cls-44" cx="722.64" cy="593.03" rx="1.78" ry="1.65"/><ellipse class="cls-44" cx="727.48" cy="589.4" rx="1.78" ry="1.65"/><ellipse class="cls-44" cx="731.21" cy="592.64" rx="1.72" ry="1.6"/><ellipse class="cls-44" cx="734.54" cy="584.46" rx="1.72" ry="1.6"/><ellipse class="cls-44" cx="737.62" cy="588.23" rx="1.72" ry="1.6"/><ellipse class="cls-44" cx="743.23" cy="589.82" rx="1.72" ry="1.6"/><ellipse class="cls-44" cx="747.42" cy="585.48" rx="1.66" ry="1.54"/><ellipse class="cls-44" cx="737.85" cy="592.75" rx="1.72" ry="1.6"/><ellipse class="cls-44" cx="748.62" cy="592.19" rx="1.66" ry="1.54"/><ellipse class="cls-44" cx="746.38" cy="578.36" rx="1.72" ry="1.6"/><ellipse class="cls-44" cx="740.24" cy="579.05" rx="1.66" ry="1.54"/><ellipse class="cls-44" cx="750.45" cy="582.36" rx="1.66" ry="1.54"/><line class="cls-45" x1="708.49" y1="593.41" x2="707.93" y2="548.89"/><path class="cls-46" d="M655.41,598.48l106.94-1.41c-.58-27.35-24.79-49.17-54.22-48.78S655.16,571.12,655.41,598.48Z"/><line class="cls-46" x1="704.9" y1="595.26" x2="671.05" y2="563.82"/><line class="cls-46" x1="747.09" y1="563.13" x2="713.52" y2="594.84"/><ellipse class="cls-44" cx="663.21" cy="591.45" rx="1.78" ry="1.65"/><ellipse class="cls-44" cx="673.14" cy="585.6" rx="1.78" ry="1.65"/><ellipse class="cls-44" cx="671.02" cy="573.3" rx="1.78" ry="1.65"/><ellipse class="cls-44" cx="693.61" cy="592.85" rx="1.78" ry="1.65"/><ellipse class="cls-44" cx="687.46" cy="592.03" rx="1.78" ry="1.65"/><ellipse class="cls-44" cx="688.37" cy="587.81" rx="1.78" ry="1.65"/><ellipse class="cls-44" cx="679.37" cy="591.23" rx="1.78" ry="1.65"/><ellipse class="cls-44" cx="680.27" cy="586.41" rx="1.78" ry="1.65"/><ellipse class="cls-44" cx="677.6" cy="581.33" rx="1.78" ry="1.65"/><ellipse class="cls-44" cx="671.46" cy="581.41" rx="1.78" ry="1.65"/><ellipse class="cls-44" cx="683.77" cy="583.05" rx="1.78" ry="1.65"/><ellipse class="cls-44" cx="676.22" cy="575.63" rx="1.78" ry="1.65"/><ellipse class="cls-44" cx="666.06" cy="587.2" rx="1.78" ry="1.65"/><ellipse class="cls-44" cx="671.29" cy="591.34" rx="1.78" ry="1.65"/><ellipse class="cls-44" cx="666.62" cy="581.48" rx="1.78" ry="1.65"/><ellipse class="cls-44" cx="680.1" cy="564.83" rx="1.78" ry="1.65"/><ellipse class="cls-44" cx="691.77" cy="566.13" rx="1.78" ry="1.65"/><ellipse class="cls-44" cx="698.47" cy="555.34" rx="1.78" ry="1.65"/><ellipse class="cls-44" cx="702.72" cy="583.79" rx="1.78" ry="1.65"/><ellipse class="cls-44" cx="698.51" cy="579.53" rx="1.78" ry="1.65"/><ellipse class="cls-44" cx="702.07" cy="576.79" rx="1.78" ry="1.65"/><ellipse class="cls-44" cx="692.77" cy="574.16" rx="1.78" ry="1.65"/><ellipse class="cls-44" cx="696.74" cy="570.95" rx="1.78" ry="1.65"/><ellipse class="cls-44" cx="698.12" cy="565.44" rx="1.78" ry="1.65"/><ellipse class="cls-44" cx="693.31" cy="561.9" rx="1.78" ry="1.65"/><ellipse class="cls-44" cx="701.73" cy="570.4" rx="1.78" ry="1.65"/><ellipse class="cls-44" cx="700.92" cy="560.21" rx="1.78" ry="1.65"/><ellipse class="cls-44" cx="685.19" cy="563.21" rx="1.78" ry="1.65"/><ellipse class="cls-44" cx="686.44" cy="569.5" rx="1.78" ry="1.65"/><ellipse class="cls-44" cx="689.51" cy="559.1" rx="1.78" ry="1.65"/><ellipse class="cls-44" cx="716.28" cy="554.8" rx="1.78" ry="1.65"/><ellipse class="cls-44" cx="722.36" cy="564.15" rx="1.78" ry="1.65"/><ellipse class="cls-44" cx="735.62" cy="562.41" rx="1.78" ry="1.65"/><ellipse class="cls-44" cx="715.18" cy="577.35" rx="1.78" ry="1.65"/><ellipse class="cls-44" cx="719.7" cy="578.27" rx="1.78" ry="1.65"/><ellipse class="cls-44" cx="716.19" cy="569.84" rx="1.78" ry="1.65"/><ellipse class="cls-44" cx="721.36" cy="570.76" rx="1.78" ry="1.65"/><ellipse class="cls-44" cx="726.87" cy="568.38" rx="1.78" ry="1.65"/><ellipse class="cls-44" cx="726.9" cy="562.67" rx="1.78" ry="1.65"/><ellipse class="cls-44" cx="724.89" cy="574.09" rx="1.78" ry="1.65"/><ellipse class="cls-44" cx="733.01" cy="567.21" rx="1.78" ry="1.65"/><ellipse class="cls-44" cx="720.79" cy="557.53" rx="1.78" ry="1.65"/><ellipse class="cls-44" cx="726.92" cy="558.16" rx="1.78" ry="1.65"/><path class="cls-47" d="M703.23,597.85l11.62-.15a5.84,5.84,0,0,0-11.62.15Z"/></g></g></svg>