<svg id="Layer_1" data-name="Layer 1" xmlns="http://www.w3.org/2000/svg" xmlns:xlink="http://www.w3.org/1999/xlink" width="1920" height="1080" viewBox="0 0 1920 1080"><defs><style>.cls-1{fill:#668b5c;}.cls-2{fill:url(#linear-gradient);}.cls-3{fill:#e2de8d;}.cls-4{fill:#0a0909;}.cls-5{fill:#090a09;}.cls-6{fill:#e5de9c;}.cls-7{fill:none;}.cls-11,.cls-7{stroke:#000;}.cls-11,.cls-7,.cls-9{stroke-miterlimit:10;}.cls-8{fill:url(#linear-gradient-2);}.cls-10,.cls-11,.cls-9{fill:#1c3811;}.cls-9{stroke:#1c3811;}.cls-11,.cls-9{stroke-width:3px;}.cls-10{opacity:0.5;}</style><linearGradient id="linear-gradient" x1="1452.73" y1="188.18" x2="1467.29" y2="346.95" gradientUnits="userSpaceOnUse"><stop offset="0" stop-color="#fff" stop-opacity="0.2"/><stop offset="1" stop-color="#668b5c"/></linearGradient><linearGradient id="linear-gradient-2" x1="452.23" y1="186.68" x2="466.79" y2="345.45" xlink:href="#linear-gradient"/></defs><title>baggrund_1</title><rect class="cls-1" y="1" width="1920" height="1080"/><polyline class="cls-2" points="1446 183 1378 418 1569.61 418 1496 183 1446 183"/><polygon class="cls-3" points="1466.23 110 1466 126 1474 126 1474 108 1466.23 110"/><polygon class="cls-4" points="1473 1 1473 83 1476 83 1476 101 1462 101 1462 83 1467 83 1467 1 1473 1"/><polygon class="cls-5" points="1445 102 1495 102 1495 110 1491.16 110 1445 110 1445 102"/><polygon class="cls-5" points="1491 174 1491 110 1495 110 1495 179 1491 179 1491 174"/><polygon class="cls-5" points="1445 174 1445 110 1449 110 1449 179 1445 179 1445 174"/><polygon class="cls-5" points="1445 176 1495 176 1495 184 1491.16 184 1445 184 1445 176"/><path class="cls-6" d="M1482,138c0,9.39-5.37,17-12,17s-12-7.61-12-17c0-5.87,2.1-11,5.29-14.1A9.7,9.7,0,0,1,1470,121C1476.63,121,1482,128.61,1482,138Z"/><line class="cls-7" x1="1470" y1="110" x2="1470" y2="176"/><polyline class="cls-8" points="445.5 181.5 377.5 416.5 569.11 416.5 495.5 181.5 445.5 181.5"/><line class="cls-9" x1="229" y1="410.5" x2="695" y2="410.5"/><path class="cls-10" d="M667.5,264.5s3-9,0-11-13-2-15,0-2,5,0,9l1,2v18s-18,10-16,34,7,92,7,92h30s6-90,5-93,3-19-13-33Z"/><path class="cls-10" d="M461.5,264.5s3-9,0-11-13-2-15,0-2,5,0,9l1,2v18s-18,10-16,34,7,92,7,92h30s6-90,5-93,3-19-13-33Z"/><path class="cls-10" d="M394.5,336.27s3-4.51,0-5.52-13-1-15,0-2,2.51,0,4.52l1,1v9s-18,5-16,17.05,7,46.15,7,46.15h30s6-45.14,5-46.65,3-9.53-13-16.55Z"/><path class="cls-10" d="M596.09,300.38s4.19-6.75,0-8.25-18.14-1.51-20.94,0-2.79,3.75,0,6.75l1.4,1.5V313.9s-25.13,7.51-22.33,25.53S564,408.5,564,408.5h41.87s8.38-67.57,7-69.82S617,324.41,594.7,313.9Z"/><path class="cls-10" d="M313,264h16v48s10-1,11,13,0,84,0,84H303V321s3-8,10-9Z"/><path class="cls-10" d="M505,316h16v30.79s10-.65,11,8.33S532,409,532,409H495V352.56a13.27,13.27,0,0,1,10-5.77Z"/><path class="cls-10" d="M267.5,264.5s3-9,0-11-13-2-15,0-2,5,0,9l1,2v18s-18,10-16,34,7,92,7,92h30s6-90,5-93,3-19-13-33Z"/><line class="cls-9" x1="1244" y1="406.5" x2="1710" y2="406.5"/><path class="cls-10" d="M1682.5,260.5s3-9,0-11-13-2-15,0-2,5,0,9l1,2v18s-18,10-16,34,7,92,7,92h30s6-90,5-93,3-19-13-33Z"/><path class="cls-10" d="M1476.5,260.5s3-9,0-11-13-2-15,0-2,5,0,9l1,2v18s-18,10-16,34,7,92,7,92h30s6-90,5-93,3-19-13-33Z"/><path class="cls-10" d="M1409.5,332.27s3-4.51,0-5.52-13-1-15,0-2,2.51,0,4.52l1,1v9s-18,5-16,17.05,7,46.15,7,46.15h30s6-45.14,5-46.65,3-9.53-13-16.55Z"/><path class="cls-10" d="M1611.09,296.38s4.19-6.75,0-8.25-18.14-1.51-20.94,0-2.79,3.75,0,6.75l1.4,1.5V309.9s-25.13,7.51-22.33,25.53S1579,404.5,1579,404.5h41.87s8.38-67.57,7-69.82,4.19-14.27-18.14-24.78Z"/><path class="cls-10" d="M1328,260h16v48s10-1,11,13,0,84,0,84h-37V317s3-8,10-9Z"/><path class="cls-10" d="M1520,312h16v30.79s10-.65,11,8.33,0,53.88,0,53.88h-37V348.56a13.27,13.27,0,0,1,10-5.77Z"/><path class="cls-10" d="M1282.5,260.5s3-9,0-11-13-2-15,0-2,5,0,9l1,2v18s-18,10-16,34,7,92,7,92h30s6-90,5-93,3-19-13-33Z"/><line class="cls-11" x1="1241" y1="182.5" x2="1707" y2="182.5"/><polygon class="cls-10" points="1240 101 1315 101 1282 142 1282 177 1295 182 1266 182 1278 178 1278 142 1240 101"/><polygon class="cls-10" points="1333 101 1408 101 1375 142 1375 177 1388 182 1359 182 1371 178 1371 142 1333 101"/><polygon class="cls-10" points="1531 101 1606 101 1573 142 1573 177 1586 182 1557 182 1569 178 1569 142 1531 101"/><polygon class="cls-10" points="1627 101 1702 101 1669 142 1669 177 1682 182 1653 182 1665 178 1665 142 1627 101"/><line class="cls-11" x1="229" y1="182.5" x2="695" y2="182.5"/><polygon class="cls-10" points="228 101 303 101 270 142 270 177 283 182 254 182 266 178 266 142 228 101"/><polygon class="cls-10" points="321 101 396 101 363 142 363 177 376 182 347 182 359 178 359 142 321 101"/><polygon class="cls-10" points="519 101 594 101 561 142 561 177 574 182 545 182 557 178 557 142 519 101"/><polygon class="cls-10" points="615 101 690 101 657 142 657 177 670 182 641 182 653 178 653 142 615 101"/><line class="cls-9" x1="748" y1="299.5" x2="1214" y2="299.5"/><path class="cls-10" d="M832,153h16v48s10-1,11,13,0,84,0,84H822V210s3-8,10-9Z"/><path class="cls-10" d="M786.5,153.5s3-9,0-11-13-2-15,0-2,5,0,9l1,2v18s-18,10-16,34,7,92,7,92h30s6-90,5-93,3-19-13-33Z"/><polygon class="cls-10" points="1040 258 1044.52 298 1076.88 298 1080 258 1040 258"/><polygon class="cls-10" points="988 258 992.52 298 1024.88 298 1028 258 988 258"/><polygon class="cls-10" points="932 258 936.52 298 968.88 298 972 258 932 258"/><polygon class="cls-10" points="885 246 887.97 299.5 908.86 299.5 909 246 885 246"/><polygon class="cls-10" points="1153 246 1155.97 299.5 1176.86 299.5 1177 246 1153 246"/><polygon class="cls-10" points="1111 246 1113.97 299.5 1134.86 299.5 1135 246 1111 246"/><polygon class="cls-3" points="466.23 107 466 123 474 123 474 105 466.23 107"/><polygon class="cls-4" points="473 -2 473 80 476 80 476 98 462 98 462 80 467 80 467 -2 473 -2"/><polygon class="cls-5" points="445 99 495 99 495 107 491.16 107 445 107 445 99"/><polygon class="cls-5" points="491 171 491 107 495 107 495 176 491 176 491 171"/><polygon class="cls-5" points="445 171 445 107 449 107 449 176 445 176 445 171"/><polygon class="cls-5" points="445 173 495 173 495 181 491.16 181 445 181 445 173"/><path class="cls-6" d="M482,135c0,9.39-5.37,17-12,17s-12-7.61-12-17c0-5.87,2.1-11,5.29-14.1A9.7,9.7,0,0,1,470,118C476.63,118,482,125.61,482,135Z"/><line class="cls-7" x1="470" y1="107" x2="470" y2="173"/></svg>
