<svg id="Layer_1" data-name="Layer 1" xmlns="http://www.w3.org/2000/svg" width="300" height="460" viewBox="0 0 300 460"><defs><style>.cls-1{fill:#ddd662;}.cls-2,.cls-3,.cls-5{fill:#fcee21;}.cls-2{opacity:0.5;}.cls-3,.cls-4{stroke:#fcee21;stroke-miterlimit:10;stroke-width:15px;}.cls-4{fill:none;}</style></defs><title>citron</title><path class="cls-1" d="M224.15,232.5l-148.4.28c.32,38,33.51,68.61,74.35,68.54S224,270.46,224.15,232.5Z"/><ellipse class="cls-2" cx="99.59" cy="264.89" rx="2.28" ry="2.12"/><ellipse class="cls-2" cx="102.56" cy="251.16" rx="2.28" ry="2.12"/><ellipse class="cls-2" cx="88.44" cy="242.11" rx="2.28" ry="2.12"/><ellipse class="cls-2" cx="131" cy="238.93" rx="2.44" ry="2.27"/><ellipse class="cls-2" cx="124.3" cy="243.83" rx="2.44" ry="2.27"/><ellipse class="cls-2" cx="119.24" cy="239.34" rx="2.36" ry="2.19"/><ellipse class="cls-2" cx="114.54" cy="250.5" rx="2.36" ry="2.19"/><ellipse class="cls-2" cx="110.39" cy="245.29" rx="2.36" ry="2.19"/><ellipse class="cls-2" cx="102.72" cy="243.01" rx="2.36" ry="2.19"/><ellipse class="cls-2" cx="96.91" cy="248.9" rx="2.28" ry="2.12"/><ellipse class="cls-2" cx="110.14" cy="239.09" rx="2.36" ry="2.19"/><ellipse class="cls-2" cx="95.37" cy="239.69" rx="2.28" ry="2.12"/><ellipse class="cls-2" cx="98.2" cy="258.68" rx="2.36" ry="2.19"/><ellipse class="cls-2" cx="106.63" cy="257.83" rx="2.28" ry="2.12"/><ellipse class="cls-2" cx="92.68" cy="253.14" rx="2.28" ry="2.12"/><line class="cls-3" x1="150.41" y1="238.64" x2="150.38" y2="299.67"/><path class="cls-4" d="M223.27,232.5l-146.63.28c.31,37.51,33.11,67.79,73.46,67.71S223.12,270,223.27,232.5Z"/><line class="cls-4" x1="155.36" y1="236.15" x2="201.21" y2="279.78"/><line class="cls-4" x1="96.96" y1="279.55" x2="143.54" y2="236.6"/><ellipse class="cls-2" cx="212.44" cy="242.02" rx="2.44" ry="2.27"/><ellipse class="cls-2" cx="198.72" cy="249.89" rx="2.44" ry="2.27"/><ellipse class="cls-2" cx="201.42" cy="266.79" rx="2.44" ry="2.27"/><ellipse class="cls-2" cx="170.79" cy="239.63" rx="2.44" ry="2.27"/><ellipse class="cls-2" cx="179.21" cy="240.85" rx="2.44" ry="2.27"/><ellipse class="cls-2" cx="177.89" cy="246.63" rx="2.44" ry="2.27"/><ellipse class="cls-2" cx="190.29" cy="242.07" rx="2.44" ry="2.27"/><ellipse class="cls-2" cx="188.97" cy="248.67" rx="2.44" ry="2.27"/><ellipse class="cls-2" cx="192.53" cy="255.67" rx="2.44" ry="2.27"/><ellipse class="cls-2" cx="200.95" cy="255.65" rx="2.44" ry="2.27"/><ellipse class="cls-2" cx="184.11" cy="253.21" rx="2.44" ry="2.27"/><ellipse class="cls-2" cx="194.32" cy="263.5" rx="2.44" ry="2.27"/><ellipse class="cls-2" cx="208.47" cy="247.8" rx="2.44" ry="2.27"/><ellipse class="cls-2" cx="201.36" cy="242.05" rx="2.44" ry="2.27"/><ellipse class="cls-2" cx="207.6" cy="255.64" rx="2.44" ry="2.27"/><ellipse class="cls-2" cx="188.81" cy="278.25" rx="2.44" ry="2.27"/><ellipse class="cls-2" cx="172.85" cy="276.28" rx="2.44" ry="2.27"/><ellipse class="cls-2" cx="163.47" cy="290.97" rx="2.44" ry="2.27"/><ellipse class="cls-2" cx="158.15" cy="251.91" rx="2.44" ry="2.27"/><ellipse class="cls-2" cx="163.85" cy="257.81" rx="2.44" ry="2.27"/><ellipse class="cls-2" cx="158.91" cy="261.51" rx="2.44" ry="2.27"/><ellipse class="cls-2" cx="171.61" cy="265.26" rx="2.44" ry="2.27"/><ellipse class="cls-2" cx="166.11" cy="269.61" rx="2.44" ry="2.27"/><ellipse class="cls-2" cx="164.12" cy="277.13" rx="2.44" ry="2.27"/><ellipse class="cls-2" cx="170.66" cy="282.07" rx="2.44" ry="2.27"/><ellipse class="cls-2" cx="159.26" cy="270.28" rx="2.44" ry="2.27"/><ellipse class="cls-2" cx="160.2" cy="284.26" rx="2.44" ry="2.27"/><ellipse class="cls-2" cx="181.81" cy="280.4" rx="2.44" ry="2.27"/><ellipse class="cls-2" cx="180.21" cy="271.76" rx="2.44" ry="2.27"/><ellipse class="cls-2" cx="175.82" cy="285.96" rx="2.44" ry="2.27"/><ellipse class="cls-2" cx="139.04" cy="291.45" rx="2.44" ry="2.27"/><ellipse class="cls-2" cx="130.87" cy="278.53" rx="2.44" ry="2.27"/><ellipse class="cls-2" cx="112.66" cy="280.71" rx="2.44" ry="2.27"/><ellipse class="cls-2" cx="142.42" cy="252.73" rx="2.44" ry="2.27"/><ellipse class="cls-2" cx="140.95" cy="260.55" rx="2.44" ry="2.27"/><ellipse class="cls-2" cx="134.77" cy="259.21" rx="2.44" ry="2.27"/><ellipse class="cls-2" cx="139.43" cy="270.83" rx="2.44" ry="2.27"/><ellipse class="cls-2" cx="132.36" cy="269.48" rx="2.44" ry="2.27"/><ellipse class="cls-2" cx="124.77" cy="272.66" rx="2.44" ry="2.27"/><ellipse class="cls-2" cx="124.63" cy="280.49" rx="2.44" ry="2.27"/><ellipse class="cls-2" cx="127.58" cy="264.87" rx="2.44" ry="2.27"/><ellipse class="cls-2" cx="116.33" cy="274.17" rx="2.44" ry="2.27"/><ellipse class="cls-2" cx="132.91" cy="287.64" rx="2.44" ry="2.27"/><ellipse class="cls-2" cx="139.24" cy="281.14" rx="2.44" ry="2.27"/><ellipse class="cls-2" cx="124.51" cy="286.68" rx="2.44" ry="2.27"/><path class="cls-5" d="M157.7,232.62l-15.93,0a8,8,0,0,0,15.93,0Z"/><path class="cls-1" d="M75.76,228.34l148.39-2c-.81-38-34.4-68.23-75.24-67.69S75.41,190.37,75.76,228.34Z"/><ellipse class="cls-2" cx="199.89" cy="194.55" rx="2.28" ry="2.12"/><ellipse class="cls-2" cx="197.11" cy="208.31" rx="2.28" ry="2.12"/><ellipse class="cls-2" cx="211.34" cy="217.2" rx="2.28" ry="2.12"/><ellipse class="cls-2" cx="168.83" cy="220.86" rx="2.44" ry="2.27"/><ellipse class="cls-2" cx="175.46" cy="215.88" rx="2.44" ry="2.27"/><ellipse class="cls-2" cx="180.58" cy="220.32" rx="2.36" ry="2.19"/><ellipse class="cls-2" cx="185.14" cy="209.1" rx="2.36" ry="2.19"/><ellipse class="cls-2" cx="189.35" cy="214.27" rx="2.36" ry="2.19"/><ellipse class="cls-2" cx="197.05" cy="216.46" rx="2.36" ry="2.19"/><ellipse class="cls-2" cx="202.79" cy="210.5" rx="2.28" ry="2.12"/><ellipse class="cls-2" cx="189.68" cy="220.46" rx="2.36" ry="2.19"/><ellipse class="cls-2" cx="204.45" cy="219.69" rx="2.28" ry="2.12"/><ellipse class="cls-2" cx="201.37" cy="200.74" rx="2.36" ry="2.19"/><ellipse class="cls-2" cx="192.95" cy="201.68" rx="2.28" ry="2.12"/><ellipse class="cls-2" cx="206.95" cy="206.22" rx="2.28" ry="2.12"/><line class="cls-3" x1="149.42" y1="221.37" x2="148.65" y2="160.34"/><path class="cls-4" d="M76.65,228.33l146.61-1.94c-.8-37.5-34-67.41-74.34-66.88S76.31,190.82,76.65,228.33Z"/><line class="cls-4" x1="144.51" y1="223.91" x2="98.09" y2="180.8"/><line class="cls-4" x1="202.34" y1="179.85" x2="156.32" y2="223.33"/><ellipse class="cls-2" cx="87.35" cy="218.68" rx="2.44" ry="2.27"/><ellipse class="cls-2" cx="100.97" cy="210.67" rx="2.44" ry="2.27"/><ellipse class="cls-2" cx="98.05" cy="193.8" rx="2.44" ry="2.27"/><ellipse class="cls-2" cx="129.03" cy="220.61" rx="2.44" ry="2.27"/><ellipse class="cls-2" cx="120.59" cy="219.48" rx="2.44" ry="2.27"/><ellipse class="cls-2" cx="121.84" cy="213.69" rx="2.44" ry="2.27"/><ellipse class="cls-2" cx="109.5" cy="218.39" rx="2.44" ry="2.27"/><ellipse class="cls-2" cx="110.73" cy="211.77" rx="2.44" ry="2.27"/><ellipse class="cls-2" cx="107.08" cy="204.81" rx="2.44" ry="2.27"/><ellipse class="cls-2" cx="98.66" cy="204.92" rx="2.44" ry="2.27"/><ellipse class="cls-2" cx="115.53" cy="207.17" rx="2.44" ry="2.27"/><ellipse class="cls-2" cx="105.19" cy="197" rx="2.44" ry="2.27"/><ellipse class="cls-2" cx="91.25" cy="212.86" rx="2.44" ry="2.27"/><ellipse class="cls-2" cx="98.43" cy="218.54" rx="2.44" ry="2.27"/><ellipse class="cls-2" cx="92.02" cy="205.01" rx="2.44" ry="2.27"/><ellipse class="cls-2" cx="110.5" cy="182.19" rx="2.44" ry="2.27"/><ellipse class="cls-2" cx="126.5" cy="183.98" rx="2.44" ry="2.27"/><ellipse class="cls-2" cx="135.68" cy="169.18" rx="2.44" ry="2.27"/><ellipse class="cls-2" cx="141.51" cy="208.18" rx="2.44" ry="2.27"/><ellipse class="cls-2" cx="135.74" cy="202.35" rx="2.44" ry="2.27"/><ellipse class="cls-2" cx="140.63" cy="198.59" rx="2.44" ry="2.27"/><ellipse class="cls-2" cx="127.88" cy="194.98" rx="2.44" ry="2.27"/><ellipse class="cls-2" cx="133.32" cy="190.58" rx="2.44" ry="2.27"/><ellipse class="cls-2" cx="135.21" cy="183.03" rx="2.44" ry="2.27"/><ellipse class="cls-2" cx="128.61" cy="178.17" rx="2.44" ry="2.27"/><ellipse class="cls-2" cx="140.16" cy="189.83" rx="2.44" ry="2.27"/><ellipse class="cls-2" cx="139.04" cy="175.86" rx="2.44" ry="2.27"/><ellipse class="cls-2" cx="117.48" cy="179.97" rx="2.44" ry="2.27"/><ellipse class="cls-2" cx="119.19" cy="188.59" rx="2.44" ry="2.27"/><ellipse class="cls-2" cx="123.4" cy="174.33" rx="2.44" ry="2.27"/><ellipse class="cls-2" cx="160.1" cy="168.43" rx="2.44" ry="2.27"/><ellipse class="cls-2" cx="168.44" cy="181.26" rx="2.44" ry="2.27"/><ellipse class="cls-2" cx="186.62" cy="178.87" rx="2.44" ry="2.27"/><ellipse class="cls-2" cx="157.22" cy="207.18" rx="2.44" ry="2.27"/><ellipse class="cls-2" cx="158.6" cy="199.35" rx="2.44" ry="2.27"/><ellipse class="cls-2" cx="164.79" cy="200.62" rx="2.44" ry="2.27"/><ellipse class="cls-2" cx="159.98" cy="189.05" rx="2.44" ry="2.27"/><ellipse class="cls-2" cx="167.07" cy="190.32" rx="2.44" ry="2.27"/><ellipse class="cls-2" cx="174.61" cy="187.06" rx="2.44" ry="2.27"/><ellipse class="cls-2" cx="174.66" cy="179.23" rx="2.44" ry="2.27"/><ellipse class="cls-2" cx="171.91" cy="194.88" rx="2.44" ry="2.27"/><ellipse class="cls-2" cx="183.04" cy="185.45" rx="2.44" ry="2.27"/><ellipse class="cls-2" cx="166.28" cy="172.18" rx="2.44" ry="2.27"/><ellipse class="cls-2" cx="160.04" cy="178.74" rx="2.44" ry="2.27"/><ellipse class="cls-2" cx="174.69" cy="173.04" rx="2.44" ry="2.27"/><path class="cls-5" d="M142.21,227.46l15.93-.21a8,8,0,0,0-15.93.21Z"/></svg>
