<svg id="Layer_1" data-name="Layer 1" xmlns="http://www.w3.org/2000/svg" xmlns:xlink="http://www.w3.org/1999/xlink" width="300" height="460" viewBox="0 0 300 460"><defs><style>.cls-1{fill:url(#linear-gradient);}.cls-2,.cls-3{fill:#c80f03;}.cls-2{opacity:0.7;}.cls-4{fill:#fff;}</style><linearGradient id="linear-gradient" x1="368.1" y1="239.99" x2="518.65" y2="239.99" gradientTransform="translate(-262.46 -37.44) rotate(5.63)" gradientUnits="userSpaceOnUse"><stop offset="0.2" stop-color="#632905"/><stop offset="0.27" stop-color="#663318"/><stop offset="0.47" stop-color="#713415"/><stop offset="0.68" stop-color="#56311c"/></linearGradient></defs><title>cola</title><path class="cls-1" d="M126.54,36.73l-.83,21.94s-12.23,23.73-25.33,49.21-13.87,74.64-13.87,74.64l0,23.7L87,369.47s-3.36,64.08,13.34,77.21S140.66,444,140.66,444c22,16.63,36-1,36.87.79s19.32,7,29.83-2.7,6-68.48,6-68.48-1.14-110.58-.27-115.85-3.7-79-3.7-79-1.8-19.3-.07-31.6-32.65-71.89-40.59-87.67c0,0-7.93-16.66-7.07-22.81S126.54,36.73,126.54,36.73Z"/><polygon class="cls-2" points="85.68 263.61 212.21 260.66 212.64 373.57 86.08 373.86 85.68 263.61"/><path class="cls-3" d="M161.65,37.52s11.4-3.54,5.21-26.34c0,0-16.38-3.93-30.84-2.89-1.78.13-3.53.34-5.22.63A36.73,36.73,0,0,0,126.26,10,24.69,24.69,0,0,0,123,11.28s-7,22,.06,23.7S161.65,37.52,161.65,37.52Z"/><path class="cls-4" d="M87,332.77s37,26,78,18l10.79-2.1c31.39-6.06,36.74-6.76,36.74-6.76v5.68S200,345.77,171,350.77s-33,6-37,6-23,3.48-47.48-7.26Z"/><path class="cls-4" d="M118.14,323.86l5.81,1.76a10.77,10.77,0,0,1-1.84,4.09,8,8,0,0,1-3.13,2.47,11.61,11.61,0,0,1-4.75.84,13.75,13.75,0,0,1-5.72-1,9,9,0,0,1-3.83-3.58,12.08,12.08,0,0,1-1.62-6.56q0-5.33,2.84-8.19t8-2.86a10.94,10.94,0,0,1,6.38,1.64,9.59,9.59,0,0,1,3.45,5l-5.86,1.3a5,5,0,0,0-.65-1.43,3.72,3.72,0,0,0-1.36-1.17,3.85,3.85,0,0,0-1.8-.41,3.9,3.9,0,0,0-3.46,1.81,7.77,7.77,0,0,0-.91,4.23c0,2.38.37,4,1.09,4.89a3.73,3.73,0,0,0,3,1.33,3.69,3.69,0,0,0,2.87-1.07A6.72,6.72,0,0,0,118.14,323.86Z"/><path class="cls-4" d="M126.34,321.93q0-5.26,2.93-8.19t8.16-2.93c3.57,0,6.33,1,8.26,2.88s2.9,4.6,2.9,8.06a13.19,13.19,0,0,1-1.27,6.18,9.06,9.06,0,0,1-3.66,3.75,12.09,12.09,0,0,1-6,1.34,13.76,13.76,0,0,1-6-1.16,9,9,0,0,1-3.86-3.66A12.12,12.12,0,0,1,126.34,321.93Zm6.64,0c0,2.16.4,3.72,1.21,4.67a4.57,4.57,0,0,0,6.59,0c.79-.93,1.18-2.59,1.18-5a6.62,6.62,0,0,0-1.23-4.43,4.18,4.18,0,0,0-3.31-1.4,4.06,4.06,0,0,0-3.23,1.42C133.38,318.2,133,319.77,133,322Z"/><path class="cls-4" d="M152.17,311.18h6.63v16.18h10.36v5.29h-17Z"/><path class="cls-4" d="M185.38,329.11h-7.54l-1,3.54H170l8.07-21.47h7.24l8.07,21.47h-7ZM184,324.46l-2.37-7.72-2.34,7.72Z"/></svg>
