<svg xmlns="http://www.w3.org/2000/svg" xmlns:xlink="http://www.w3.org/1999/xlink" width="60" height="110" viewBox="0 0 60 110"><defs><style>.cls-1{isolation:isolate;}.cls-2{fill:#d8e5ef;stroke:#d8e5ef;stroke-miterlimit:10;}.cls-3{mix-blend-mode:luminosity;fill:url(#linear-gradient);}</style><linearGradient id="linear-gradient" x1="9.4" y1="29.05" x2="50.51" y2="29.05" gradientUnits="userSpaceOnUse"><stop offset="0.2" stop-color="#fff" stop-opacity="0.5"/><stop offset="1" stop-opacity="0.2"/></linearGradient></defs><title>ekstraliv2</title><g class="cls-1"><g id="Layer_1" data-name="Layer 1"><path class="cls-2" d="M19.49,103.71c-5.89.89-11.2,3.66-10.34,4.1s9.26,2.37,40.51-.22c0,0,1.08-1.72-3.23-2.8s-9-1.73-11.64-3c-1.55-.78-1.94-2.59-2.58-4.74s-1.94-34.91,4.31-41.6,19.83-9,20.47-23.06S51,3.71,50.74,3.06,23.8-1,9.36,3.06c0,0-7.54,20.48-6.25,27.16s2.8,14,19.18,24.78c0,0,3.24,1.51,4.75,9.06,0,0,3,24.78,1.72,33.4C28.76,97.46,28.11,102.42,19.49,103.71Z"/><path class="cls-3" d="M30.14,51.07c4.81-.6,6.12-3,6.12-3C41,43,50,41.44,50.47,30.79S45.89,9,45.72,8.51s-20.48-3.11-31.45,0c0,0-5.74,15.57-4.75,20.64S11.65,39.8,24.1,48l2.24,1.8S28.45,51.28,30.14,51.07Z"/></g></g></svg>
