<svg id="Layer_1" data-name="Layer 1" xmlns="http://www.w3.org/2000/svg" xmlns:xlink="http://www.w3.org/1999/xlink" width="1920" height="1080" viewBox="0 0 1920 1080"><defs><style>.cls-1{fill:#66605a;}.cls-2{fill:url(#linear-gradient);}.cls-3,.cls-4{fill:#9e0032;}.cls-3{opacity:0.7;}.cls-5{fill:#7f0934;}.cls-6{fill:url(#linear-gradient-2);}.cls-7{fill:#91003b;}.cls-8{fill:url(#linear-gradient-3);}</style><linearGradient id="linear-gradient" x1="1488.9" y1="932.42" x2="1684.97" y2="932.42" gradientUnits="userSpaceOnUse"><stop offset="0" stop-color="#fff"/><stop offset="1" stop-color="#8e8e8e"/></linearGradient><linearGradient id="linear-gradient-2" x1="908.9" y1="927.42" x2="1104.97" y2="927.42" xlink:href="#linear-gradient"/><linearGradient id="linear-gradient-3" x1="343.9" y1="928.42" x2="539.97" y2="928.42" xlink:href="#linear-gradient"/></defs><title>forgrund</title><polygon class="cls-1" points="1925.95 951.33 -7.64 950.01 -7.64 1082.61 1925.95 1082.61 1925.95 951.33"/><path class="cls-2" d="M1573.19,839.43V966.78l-84.29,26.57v17.41s80.63,33,193.32,0l2.75-22-82.46-21.08V839.43Z"/><path class="cls-3" d="M1719.79,724s22,33.25-4.58,88.66c0,0-132.8,65.58-257.36-9.23,0,0-6.41-27.71,0-73,0,0,22,24.93,132.8,25.86C1590.65,756.31,1705.13,755.38,1719.79,724Z"/><ellipse class="cls-4" cx="1587.85" cy="724.9" rx="131.02" ry="33.9"/><path class="cls-5" d="M1501.08,750.3s49.8,40.93-3.64,72.36c0,0,85.83,44.25,219.6-9.8,0,0,25.65-56.81,1.83-88C1718.87,724.9,1670.85,775.69,1501.08,750.3Z"/><path class="cls-6" d="M993.19,834.43V961.78L908.9,988.35v17.41s80.63,33,193.32,0l2.75-22-82.46-21.08V834.43Z"/><path class="cls-3" d="M1139.79,719s22,33.25-4.58,88.66c0,0-132.8,65.58-257.36-9.23,0,0-6.41-27.71,0-73,0,0,22,24.93,132.8,25.86C1010.65,751.31,1125.13,750.38,1139.79,719Z"/><ellipse class="cls-4" cx="1007.85" cy="719.9" rx="131.02" ry="33.9"/><path class="cls-5" d="M921.08,745.3s49.8,40.93-3.64,72.36c0,0,85.83,44.25,219.6-9.8,0,0,25.65-56.81,1.83-88C1138.87,719.9,1090.85,770.69,921.08,745.3Z"/><path class="cls-7" d="M1100.35,695.89s41.27,50.58-179.54,49.66c0,0,145.68,26.57,218.06-25.65C1138.87,719.9,1139.7,705.78,1100.35,695.89Z"/><path class="cls-8" d="M428.19,835.43V962.78L343.9,989.35v17.41s80.63,33,193.32,0l2.75-22-82.46-21.08V835.43Z"/><path class="cls-3" d="M574.79,720s22,33.25-4.58,88.66c0,0-132.8,65.58-257.36-9.23,0,0-6.41-27.71,0-73,0,0,22,24.93,132.8,25.86C445.65,752.31,560.13,751.38,574.79,720Z"/><ellipse class="cls-4" cx="442.85" cy="720.9" rx="131.02" ry="33.9"/><path class="cls-5" d="M356.08,746.3s49.8,40.93-3.64,72.36c0,0,85.83,44.25,219.6-9.8,0,0,25.65-56.81,1.83-88C573.87,720.9,525.85,771.69,356.08,746.3Z"/><path class="cls-7" d="M535.35,696.89s41.27,50.58-179.54,49.66c0,0,145.68,26.57,218.06-25.65C573.87,720.9,574.7,706.78,535.35,696.89Z"/></svg>
