<svg id="Layer_1" data-name="Layer 1" xmlns="http://www.w3.org/2000/svg" xmlns:xlink="http://www.w3.org/1999/xlink" width="622.33" height="450.98" viewBox="0 0 622.33 450.98"><defs><style>.cls-1{fill:#d8e5ef;stroke:#d8e5ef;}.cls-1,.cls-3{stroke-miterlimit:10;}.cls-2{fill:url(#linear-gradient);}.cls-3{fill:none;stroke:#000;stroke-width:2px;}.cls-4{fill:url(#linear-gradient-2);}.cls-5{fill:url(#linear-gradient-3);}.cls-6{fill:url(#linear-gradient-4);}</style><linearGradient id="linear-gradient" x1="383.44" y1="229.21" x2="302.72" y2="132.55" gradientUnits="userSpaceOnUse"><stop offset="0"/><stop offset="0.1" stop-color="#a0372b"/><stop offset="0.41" stop-color="#a53a29"/><stop offset="0.49" stop-color="#ee6006"/><stop offset="0.77" stop-color="#a03528"/><stop offset="1"/></linearGradient><linearGradient id="linear-gradient-2" x1="1599.62" y1="-2180.96" x2="1618.27" y2="-2180.96" gradientTransform="translate(-2433.49 679.44) rotate(45.55)" gradientUnits="userSpaceOnUse"><stop offset="0.2" stop-color="#632905"/><stop offset="0.27" stop-color="#663318"/><stop offset="0.47" stop-color="#713415"/><stop offset="0.68" stop-color="#56311c"/></linearGradient><linearGradient id="linear-gradient-3" x1="354.87" y1="262.54" x2="378.17" y2="262.54" gradientTransform="translate(-96.94 62.35) rotate(1.39)" xlink:href="#linear-gradient"/><linearGradient id="linear-gradient-4" x1="321.82" y1="288.18" x2="345.12" y2="288.18" gradientTransform="translate(-96.94 62.35) rotate(1.39)" xlink:href="#linear-gradient-2"/></defs><title>gameoverfigur</title><path class="cls-1" d="M446.06,109,428.38,87.07c-25.26-.84-23.68.75-36.21-.84-39.57-5.06-75-22.58-117.91,10.11s-69.64,88.57-71,90.81,54.44,89.56,102.18,122c0,0,79-28.31,95.52-48.62s34.4-42.86,25.74-117.78c0,0-10.94-28.78,13.48-34.4Z"/><path class="cls-2" d="M404.38,139.69s32,39.57,0,60.62S380,240.72,353.86,250.82,326.92,287,312.61,282s-11.79-13.47-5.89-21,29.46-32.84,17.68-47.15-34.52-76.62.42-73.67S324.4,88.33,354.29,98s45-7.15,48,17.68S404.38,139.69,404.38,139.69Z"/><path d="M210.24,247.74s-2.84-4.72-4.7.9l.38,15.86,1.14,16,1.22,17.28s3.33,46.9,2.17,48.24-42.95,20.05-42.95,20.05-.22,4,3.13,5.2,43.61-17.88,44.09-18.17,3.93-1.08,2.47-11.13S210.24,247.74,210.24,247.74Z"/><path class="cls-1" d="M482.26,369.11c7.82,6.62,37.23,17.85,37.23,17.85,31.33,1.85,28.44,9.1,28.44,13.31s-155.76,7.57-155.76,0,13.47-7.58,45.36-16.38S468,360.7,468,360.7,479.73,98,440.16,108.12L428.38,87.07S506.67,76,498.26,141.79C489,214.2,471.31,359.85,482.26,369.11Z"/><path class="cls-3" d="M335.76,155.26s-25.26,46.31,18.53,44.63"/><path class="cls-3" d="M283.14,191.89s-8.42-17.68-20.2-14.31"/><path class="cls-3" d="M300.4,214.2s17.68,5.89,11.79,14.31"/><polyline class="cls-3" points="300.4 191.47 313.03 199.89 313.03 184.73"/><circle cx="344.81" cy="224.09" r="3.16"/><circle cx="280.62" cy="153.16" r="3.37"/><path class="cls-4" d="M259.92,289.22s-2.9,12.29-18,10.56.95,25,11,11.23S259.92,289.22,259.92,289.22Z"/><path class="cls-5" d="M261.64,314.75s8.09,13.54-6.93,25.1,22.64,21.61,19.64.48S261.64,314.75,261.64,314.75Z"/><path class="cls-6" d="M228,339.59s8.1,13.53-6.92,25.1,22.63,21.6,19.64.47S228,339.59,228,339.59Z"/></svg>
