<svg id="Layer_1" data-name="Layer 1" xmlns="http://www.w3.org/2000/svg" xmlns:xlink="http://www.w3.org/1999/xlink" width="1920" height="1080" viewBox="0 0 1920 1080"><defs><style>.cls-1{fill:#668b5c;}.cls-2{fill:#110e0e;}.cls-16,.cls-2{opacity:0.1;}.cls-3{fill:#603813;}.cls-4{fill:#724733;}.cls-26,.cls-5{fill:none;}.cls-5{stroke:#895327;stroke-width:10px;}.cls-19,.cls-22,.cls-24,.cls-26,.cls-5{stroke-miterlimit:10;}.cls-6{fill:#663f30;}.cls-21,.cls-6{opacity:0.6;}.cls-7,.cls-8{fill:#9e0032;}.cls-13,.cls-7{opacity:0.7;}.cls-9{fill:#7f0934;}.cls-10{fill:#91003b;}.cls-11{fill:url(#linear-gradient);}.cls-12{fill:#75673e;}.cls-13{fill:#374931;}.cls-14{fill:#3e662f;}.cls-15{fill:#421e19;}.cls-17{fill:#0f110f;}.cls-18{fill:#ddd662;}.cls-19,.cls-20,.cls-22,.cls-23{fill:#1c3811;}.cls-19{stroke:#1c3811;}.cls-19,.cls-22{stroke-width:3px;}.cls-20{opacity:0.5;}.cls-22,.cls-26{stroke:#000;}.cls-24{fill:#d8e5ef;stroke:#d8e5ef;}.cls-25{fill:url(#linear-gradient-2);}.cls-26{stroke-width:2px;}.cls-27{fill:url(#linear-gradient-3);}.cls-28{fill:url(#linear-gradient-4);}.cls-29{fill:url(#linear-gradient-5);}.cls-30{fill:#0c090a;}</style><linearGradient id="linear-gradient" x1="1791.75" y1="9.76" x2="1819.31" y2="310.33" gradientUnits="userSpaceOnUse"><stop offset="0" stop-color="#fff" stop-opacity="0.2"/><stop offset="1" stop-color="#668b5c"/></linearGradient><linearGradient id="linear-gradient-2" x1="1316.07" y1="383.82" x2="1165.03" y2="202.95" gradientUnits="userSpaceOnUse"><stop offset="0"/><stop offset="0.1" stop-color="#a0372b"/><stop offset="0.41" stop-color="#a53a29"/><stop offset="0.49" stop-color="#ee6006"/><stop offset="0.77" stop-color="#a03528"/><stop offset="1"/></linearGradient><linearGradient id="linear-gradient-3" x1="911.37" y1="-2646.37" x2="946.28" y2="-2646.37" gradientTransform="translate(-1472.99 1707.97) rotate(45.55)" gradientUnits="userSpaceOnUse"><stop offset="0.2" stop-color="#632905"/><stop offset="0.27" stop-color="#663318"/><stop offset="0.47" stop-color="#713415"/><stop offset="0.68" stop-color="#56311c"/></linearGradient><linearGradient id="linear-gradient-4" x1="1137.7" y1="470.38" x2="1181.29" y2="470.38" gradientTransform="translate(-56.84 80.94) rotate(1.39)" xlink:href="#linear-gradient-2"/><linearGradient id="linear-gradient-5" x1="1075.85" y1="518.37" x2="1119.45" y2="518.37" gradientTransform="translate(-56.84 80.94) rotate(1.39)" xlink:href="#linear-gradient-3"/></defs><title>game over</title><polygon class="cls-1" points="985.42 1088.74 1922.01 1088.74 1922.01 1.43 -4.91 1.43 -4.91 1086.18 985.42 1086.18 985.42 1088.74"/><path class="cls-2" d="M852.89,430.51C796.65,578.67,664,677.84,519.44,682c-165,4.79-350.31-114-355.62-278.81C158.5,238,336.73,108.52,500.69,102,640,96.53,774.58,179.62,845.09,314.87c22.33,8.23,38.42,27.78,41.61,50.76C890.3,391.61,876.81,417.67,852.89,430.51Z"/><ellipse class="cls-2" cx="226.11" cy="453.97" rx="77.66" ry="65.14" transform="translate(-113.22 77.05) rotate(-15.52)"/><rect class="cls-3" x="-4.91" y="690.13" width="1926.92" height="66.26"/><polygon class="cls-4" points="985.42 1088.74 1922.01 1088.74 1922.01 756.38 -4.91 756.38 -4.91 1086.18 985.42 1086.18 985.42 1088.74"/><path class="cls-5" d="M242.1,759.36C242,862,242,964,242.24,1067.13"/><path class="cls-5" d="M528,758.68c0,104.32,0,209.32.15,313.38"/><path class="cls-5" d="M765.77,759.36c-.27,103.64-.27,208.64,0,312.55"/><path class="cls-5" d="M1025.88,757.68C1025.5,863,1027.5,969,1026,1074"/><path class="cls-5" d="M1315.46,763.14C1315,864,1317,966,1315.6,1067.29"/><path class="cls-5" d="M1591.85,759.36C1592,862,1592,964,1592,1067.13"/><path class="cls-5" d="M1853.09,763.14c-.09,100.86-.09,202.86.14,304.15"/><path class="cls-6" d="M1922,1088.74V756.38H-4.91V861.8c534.14-34,1019.6,84,1395.8,226.94Z"/><path class="cls-7" d="M1686.66,1088.74c5.34-55.08-15.27-86.29-15.27-86.29-27.74,59.44-244.46,61.19-244.46,61.19-209.79-1.75-251.4-49-251.4-49a528.27,528.27,0,0,0-5.39,74.06Z"/><ellipse class="cls-8" cx="1421.63" cy="1004.18" rx="248.02" ry="64.17"/><path class="cls-9" d="M1287.23,1088.74h400.63c2.91-29.27-.07-60.84-18.21-84.56,0,0-90.9,96.16-412.28,48.08C1257.37,1052.26,1275.4,1067.08,1287.23,1088.74Z"/><path class="cls-10" d="M1596.73,958.73s78.13,95.75-339.87,94c0,0,275.77,50.3,412.79-48.56C1669.65,1004.18,1671.23,977.46,1596.73,958.73Z"/><path class="cls-7" d="M587.9,1086.18c7.86-59.37-14.47-93.2-14.47-93.2C545.69,1052.42,329,1054.17,329,1054.17c-209.78-1.75-251.4-49-251.4-49a522.41,522.41,0,0,0-5.33,81Z"/><ellipse class="cls-8" cx="323.66" cy="994.72" rx="248.02" ry="64.17"/><path class="cls-9" d="M192.69,1086.18h396.4c4.09-31.13,2.17-65.87-17.4-91.46,0,0-90.9,96.15-412.28,48.07C159.41,1042.79,181.33,1060.83,192.69,1086.18Z"/><path class="cls-10" d="M498.76,949.27s78.13,95.74-339.87,94c0,0,275.78,50.3,412.79-48.56C571.68,994.72,573.27,968,498.76,949.27Z"/><polygon class="cls-11" points="1827.17 1.43 1700.19 440.24 1922.01 440.24 1922.01 1.43 1827.17 1.43"/><path class="cls-12" d="M827.89,401.51C771.65,549.67,639,648.84,494.44,653c-165,4.79-350.31-114-355.62-278.81C133.5,209,311.73,79.52,475.69,73,615,67.53,749.58,150.62,820.09,285.87c22.33,8.23,38.42,27.78,41.61,50.76C865.3,362.61,851.81,388.67,827.89,401.51Z"/><ellipse class="cls-12" cx="201.11" cy="453.97" rx="77.66" ry="65.14" transform="translate(-114.13 70.36) rotate(-15.52)"/><circle class="cls-13" cx="286.5" cy="242.5" r="14.5"/><circle class="cls-13" cx="460.5" cy="157.5" r="14.5"/><circle class="cls-13" cx="349.5" cy="172.5" r="14.5"/><circle class="cls-13" cx="446.5" cy="501.5" r="14.5"/><circle class="cls-13" cx="417.5" cy="213.5" r="14.5"/><circle class="cls-13" cx="330.5" cy="552.5" r="14.5"/><circle class="cls-13" cx="519.5" cy="607.5" r="14.5"/><circle class="cls-13" cx="678.5" cy="515.5" r="14.5"/><circle class="cls-13" cx="752.5" cy="422.5" r="14.5"/><circle class="cls-13" cx="707.5" cy="211.5" r="14.5"/><circle class="cls-13" cx="813.5" cy="335.5" r="14.5"/><circle class="cls-13" cx="531.5" cy="114.5" r="14.5"/><circle class="cls-13" cx="585.5" cy="235.5" r="14.5"/><circle class="cls-13" cx="179.5" cy="436.5" r="14.5"/><path d="M224.8,310l-.66-13.38,30.72-1.51,1.35,27.43a62.81,62.81,0,0,1-15.2,8.95,53.22,53.22,0,0,1-16,3q-11.46.56-18.87-3a26.77,26.77,0,0,1-11.76-11.08,38.34,38.34,0,0,1-4.85-17.54A37.16,37.16,0,0,1,193,284.28a28.17,28.17,0,0,1,12.14-12.45q6.39-3.45,17.45-4,10.66-.52,16,1.15a20.75,20.75,0,0,1,9.07,5.56,26.74,26.74,0,0,1,5.76,10l-19,4.37a10.37,10.37,0,0,0-4.29-5.37,12.54,12.54,0,0,0-7.31-1.58,13,13,0,0,0-10.2,5.05q-3.66,4.74-3.18,14.57.51,10.44,4.66,14.73t11.17,3.94a21,21,0,0,0,6.32-1.28,34.15,34.15,0,0,0,6.77-3.63l-.29-6.06Z"/><path d="M307.51,318.62l-22.57,1.11-2.62,10.78-20.3,1L283,266l21.69-1.07,27.34,63.16-20.82,1Zm-4.81-13.71-8.24-22.78-5.89,23.48Z"/><path d="M335,263.41l26.15-1.28,12,38.65,8.08-39.64,26.14-1.29,3.16,64.35-16.28.8-2.42-49.07-10.13,49.69-14.74.72L352,277.89,354.46,327l-16.29.8Z"/><path d="M420,259.23l53.28-2.62.68,13.74L440.63,272l.5,10.23,30.95-1.52.64,13.12-30.94,1.52L442.4,308l34.33-1.69.71,14.57-54.25,2.67Z"/><path d="M514.05,286.9q-.78-15.75,7.57-25t24-10q16.07-.78,25.18,7.41t9.88,23.74q.56,11.28-2.89,18.68a27.13,27.13,0,0,1-10.42,11.78q-7,4.37-17.69,4.9-10.89.53-18.19-2.59a27.07,27.07,0,0,1-12.1-10.4Q514.61,298.18,514.05,286.9Zm19.89-.89q.48,9.75,4.31,13.83a12.3,12.3,0,0,0,10.06,3.77q6.41-.32,9.71-4.66t2.78-15.14q-.45-9.09-4.32-13.1a12.54,12.54,0,0,0-10.15-3.7,12.12,12.12,0,0,0-9.44,4.73Q533.46,276.18,533.94,286Z"/><path d="M579.66,251.38l20.79-1L617.21,296l12-47,20.18-1-20.73,65.52-21.55,1.06Z"/><path d="M655.86,247.63,709.15,245l.67,13.74-33.36,1.64.51,10.23,30.94-1.53.65,13.13-30.95,1.52.63,12.69,34.32-1.69.72,14.57L659,312Z"/><path d="M724.25,308.77l-3.17-64.35,33.14-1.63q9.22-.45,14.17.89a15,15,0,0,1,8.14,5.47,18.19,18.19,0,0,1-4.3,26.24,24.09,24.09,0,0,1-6.85,2.89,13.48,13.48,0,0,1,8.63,5.34,25.71,25.71,0,0,1,3,3.86l10.54,18.18-22.46,1.1-11.6-19.14q-2.21-3.72-3.84-4.78a8.4,8.4,0,0,0-4.95-1.26l-1.75.09,1.28,26.12Zm18.09-39.26,8.38-.41A29.08,29.08,0,0,0,756,268a5.23,5.23,0,0,0,3.12-2.17,6,6,0,0,0,1.07-3.8,5.9,5.9,0,0,0-2.21-4.68c-1.37-1.05-3.87-1.48-7.5-1.31l-8.74.43Z"/><path class="cls-14" d="M216.8,310l-.66-13.38,30.72-1.51,1.35,27.43a62.81,62.81,0,0,1-15.2,8.95,53.22,53.22,0,0,1-16,3q-11.46.56-18.87-3a26.77,26.77,0,0,1-11.76-11.08,38.34,38.34,0,0,1-4.85-17.54A37.16,37.16,0,0,1,185,284.28a28.17,28.17,0,0,1,12.14-12.45q6.39-3.45,17.45-4,10.66-.52,16,1.15a20.75,20.75,0,0,1,9.07,5.56,26.74,26.74,0,0,1,5.76,10l-19,4.37a10.37,10.37,0,0,0-4.29-5.37,12.54,12.54,0,0,0-7.31-1.58,13,13,0,0,0-10.2,5.05q-3.66,4.74-3.18,14.57.51,10.44,4.66,14.73t11.17,3.94a21,21,0,0,0,6.32-1.28,34.15,34.15,0,0,0,6.77-3.63l-.29-6.06Z"/><path class="cls-14" d="M299.51,318.62l-22.57,1.11-2.62,10.78-20.3,1L275,266l21.69-1.07,27.34,63.16-20.82,1Zm-4.81-13.71-8.24-22.78-5.89,23.48Z"/><path class="cls-14" d="M327,263.41l26.15-1.28,12,38.65,8.08-39.64,26.14-1.29,3.16,64.35-16.28.8-2.42-49.07-10.13,49.69-14.74.72L344,277.89,346.46,327l-16.29.8Z"/><path class="cls-14" d="M412,259.23l53.28-2.62.68,13.74L432.63,272l.5,10.23,30.95-1.52.64,13.12-30.94,1.52L434.4,308l34.33-1.69.71,14.57-54.25,2.67Z"/><path class="cls-14" d="M506.05,286.9q-.78-15.75,7.57-25t24-10q16.07-.78,25.18,7.41t9.88,23.74q.56,11.28-2.89,18.68a27.13,27.13,0,0,1-10.42,11.78q-7,4.37-17.69,4.9-10.89.53-18.19-2.59a27.07,27.07,0,0,1-12.1-10.4Q506.61,298.18,506.05,286.9Zm19.89-.89q.48,9.75,4.31,13.83a12.3,12.3,0,0,0,10.06,3.77q6.41-.32,9.71-4.66t2.78-15.14q-.45-9.09-4.32-13.1a12.54,12.54,0,0,0-10.15-3.7,12.12,12.12,0,0,0-9.44,4.73Q525.46,276.18,525.94,286Z"/><path class="cls-14" d="M571.66,251.38l20.79-1L609.21,296l12-47,20.18-1-20.73,65.52-21.55,1.06Z"/><path class="cls-14" d="M647.86,247.63,701.15,245l.67,13.74-33.36,1.64.51,10.23,30.94-1.53.65,13.13-30.95,1.52.63,12.69,34.32-1.69.72,14.57L651,312Z"/><path class="cls-14" d="M716.25,308.77l-3.17-64.35,33.14-1.63q9.22-.45,14.17.89a15,15,0,0,1,8.14,5.47,18.19,18.19,0,0,1-4.3,26.24,24.09,24.09,0,0,1-6.85,2.89,13.48,13.48,0,0,1,8.63,5.34,25.71,25.71,0,0,1,3,3.86l10.54,18.18-22.46,1.1-11.6-19.14q-2.21-3.72-3.84-4.78a8.4,8.4,0,0,0-4.95-1.26l-1.75.09,1.28,26.12Zm18.09-39.26,8.38-.41A29.08,29.08,0,0,0,748,268a5.23,5.23,0,0,0,3.12-2.17,6,6,0,0,0,1.07-3.8,5.9,5.9,0,0,0-2.21-4.68c-1.37-1.05-3.87-1.48-7.5-1.31l-8.74.43Z"/><path class="cls-15" d="M144.85,449.2s38.77,12.93,9.33,48.87c0,0-47.27,2.74-59.31.74s-22.76-17.46-11.42-24.5S144.85,449.2,144.85,449.2Z"/><g class="cls-16"><ellipse cx="623.97" cy="551.8" rx="27.71" ry="33.04" transform="translate(41.56 1147.3) rotate(-87.12)"/><path d="M813.71,567c-17.36,44.21-57.46,73.47-100.79,74.23-49.45.87-104.58-35.37-105.6-84.78s52.82-87.72,102-89.09c41.77-1.17,81.81,24.19,102.47,65A18.88,18.88,0,0,1,813.71,567Z"/></g><path class="cls-17" d="M271.15,394.07l47-2.31.61,12.36-15.77.77,1.85,37.69-15.46.76-1.86-37.69-15.77.78Z"/><path class="cls-17" d="M327.83,441.45l-2.47-50.05,25.78-1.26a37.17,37.17,0,0,1,11,.69,11.68,11.68,0,0,1,6.33,4.25,14.15,14.15,0,0,1-3.34,20.41,18.83,18.83,0,0,1-5.34,2.25,15.45,15.45,0,0,1,4.12,1.64,15.68,15.68,0,0,1,2.6,2.51,19.49,19.49,0,0,1,2.32,3l8.2,14.14-17.47.86-9-14.89a11.56,11.56,0,0,0-3-3.72,6.46,6.46,0,0,0-3.84-1l-1.37.06,1,20.32Zm14.06-30.53,6.53-.32a23.77,23.77,0,0,0,4.06-.89,4.1,4.1,0,0,0,2.43-1.69,5.08,5.08,0,0,0-.89-6.6c-1.06-.81-3-1.15-5.83-1l-6.8.33Z"/><path class="cls-17" d="M371.49,389.13l17.17-.84,10.92,16.39,9.27-17.38,17.09-.84-18,30,1,21-15.5.76-1-21Z"/><path class="cls-17" d="M487.06,425.34l-17.56.86-2,8.38-15.79.78,16.35-51,16.87-.83,21.27,49.12-16.2.79Zm-3.74-10.67L476.91,397l-4.58,18.26Z"/><path class="cls-17" d="M534.09,413.13l-.52-10.41,23.9-1.18,1,21.34a49.17,49.17,0,0,1-11.82,7,41.67,41.67,0,0,1-12.43,2.3q-8.91.44-14.68-2.32a20.87,20.87,0,0,1-9.15-8.62,29.81,29.81,0,0,1-3.77-13.64,29,29,0,0,1,2.68-14.42,22,22,0,0,1,9.45-9.69q5-2.67,13.57-3.09,8.29-.42,12.48.89a16,16,0,0,1,7.06,4.32,20.8,20.8,0,0,1,4.47,7.81l-14.78,3.39a8.09,8.09,0,0,0-3.34-4.18,9.7,9.7,0,0,0-5.69-1.22,10.08,10.08,0,0,0-7.93,3.93q-2.85,3.68-2.47,11.33.39,8.12,3.62,11.45a10.79,10.79,0,0,0,8.69,3.07,16.25,16.25,0,0,0,4.91-1,26.85,26.85,0,0,0,5.27-2.82l-.23-4.72Z"/><path class="cls-17" d="M598.42,419.86l-17.56.86-2,8.38-15.79.78,16.35-51,16.87-.83,21.26,49.12-16.19.8Zm-3.74-10.66-6.41-17.73-4.58,18.27Z"/><path class="cls-17" d="M620.59,376.88l15.5-.76,2.46,50.05-15.49.76Z"/><path class="cls-17" d="M647.29,375.57l14.44-.71,20.2,26.76-1.36-27.69,14.58-.72,2.46,50.05L683,424l-20.1-26.56,1.35,27.48-14.54.72Z"/><path class="cls-14" d="M264.15,387.07l47-2.31.61,12.36-15.77.77,1.85,37.69-15.46.76-1.86-37.69-15.77.78Z"/><path class="cls-14" d="M320.83,434.45l-2.47-50.05,25.78-1.26a37.17,37.17,0,0,1,11,.69,11.68,11.68,0,0,1,6.33,4.25,14.15,14.15,0,0,1-3.34,20.41,18.83,18.83,0,0,1-5.34,2.25,15.45,15.45,0,0,1,4.12,1.64,15.68,15.68,0,0,1,2.6,2.51,19.49,19.49,0,0,1,2.32,3l8.2,14.14-17.47.86-9-14.89a11.56,11.56,0,0,0-3-3.72,6.46,6.46,0,0,0-3.84-1l-1.37.06,1,20.32Zm14.06-30.53,6.53-.32a23.77,23.77,0,0,0,4.06-.89,4.1,4.1,0,0,0,2.43-1.69,5.08,5.08,0,0,0-.89-6.6c-1.06-.81-3-1.15-5.83-1l-6.8.33Z"/><path class="cls-14" d="M364.49,382.13l17.17-.84,10.92,16.39,9.27-17.38,17.09-.84-18,30,1,21-15.5.76-1-21Z"/><path class="cls-14" d="M480.06,418.34l-17.56.86-2,8.38-15.79.78,16.35-51,16.87-.83,21.27,49.12-16.2.79Zm-3.74-10.67L469.91,390l-4.58,18.26Z"/><path class="cls-14" d="M527.09,406.13l-.52-10.41,23.9-1.18,1,21.34a49.17,49.17,0,0,1-11.82,7,41.67,41.67,0,0,1-12.43,2.3q-8.91.44-14.68-2.32a20.87,20.87,0,0,1-9.15-8.62,29.81,29.81,0,0,1-3.77-13.64,29,29,0,0,1,2.68-14.42,22,22,0,0,1,9.45-9.69q5-2.67,13.57-3.09,8.29-.42,12.48.89a16,16,0,0,1,7.06,4.32,20.8,20.8,0,0,1,4.47,7.81l-14.78,3.39a8.09,8.09,0,0,0-3.34-4.18,9.7,9.7,0,0,0-5.69-1.22,10.08,10.08,0,0,0-7.93,3.93q-2.85,3.68-2.47,11.33.39,8.12,3.62,11.45a10.79,10.79,0,0,0,8.69,3.07,16.25,16.25,0,0,0,4.91-1,26.85,26.85,0,0,0,5.27-2.82l-.23-4.72Z"/><path class="cls-14" d="M591.42,412.86l-17.56.86-2,8.38-15.79.78,16.35-51,16.87-.83,21.26,49.12-16.19.8Zm-3.74-10.66-6.41-17.73-4.58,18.27Z"/><path class="cls-14" d="M613.59,369.88l15.5-.76,2.46,50.05-15.49.76Z"/><path class="cls-14" d="M640.29,368.57l14.44-.71,20.2,26.76-1.36-27.69,14.58-.72,2.46,50.05L676,417l-20.1-26.56,1.35,27.48-14.54.72Z"/><ellipse class="cls-18" cx="608.97" cy="530.8" rx="27.71" ry="33.04" transform="translate(48.29 1112.38) rotate(-87.12)"/><path class="cls-18" d="M798.71,546c-17.36,44.21-57.46,73.47-100.79,74.23-49.45.87-104.58-35.37-105.6-84.78s52.82-87.72,102-89.09c41.77-1.17,81.81,24.19,102.47,65A18.88,18.88,0,0,1,798.71,546Z"/><rect class="cls-14" x="660.13" y="513.63" width="64" height="28" rx="12" transform="translate(-50.26 73.43) rotate(-5.86)"/><path class="cls-14" d="M713.25,498.32s-1.86,50.46,5.41,52.72,37.64-25,37.13-29.94S722,495.41,713.25,498.32Z"/><path class="cls-19" d="M1899,530.07q-212.82,0-425.88.16H1899Z"/><path class="cls-20" d="M1872.29,279.54s5.15-15.45,0-18.88-22.32-3.44-25.75,0-3.44,8.58,0,15.45,1.71,3.43,1.71,3.43v30.91s-30.9,17.17-27.47,58.38,12,158,12,158h51.51s10.3-154.53,8.59-159.68,5.15-32.62-22.33-56.66Z"/><path class="cls-20" d="M1757.25,402.77s5.15-7.75,0-9.47-22.32-1.72-25.75,0-3.44,4.31,0,7.75l1.71,1.72v15.51s-30.9,8.61-27.47,29.28,12,79.23,12,79.23h51.51s10.3-77.51,8.59-80.09,5.15-16.37-22.33-28.42Z"/><path class="cls-20" d="M1617.31,278.69h27.48V361.1s17.17-1.72,18.88,22.32,0,144.23,0,144.23h-63.53V376.56s5.16-13.74,17.17-15.46Z"/><path class="cls-20" d="M1539.19,279.54s5.15-15.45,0-18.88-22.32-3.44-25.76,0-3.43,8.58,0,15.45,1.72,3.43,1.72,3.43v30.91s-30.9,17.17-27.47,58.38,12,158,12,158h51.51s10.3-154.53,8.58-159.68,5.16-32.62-22.32-56.66Z"/><g class="cls-21"><path class="cls-22" d="M1912,215.62h-451.7q225.56.36,451.7.25Z"/><polygon class="cls-23" points="1458.54 75.68 1587.32 75.68 1530.66 146.08 1530.66 206.17 1552.98 214.76 1503.18 214.76 1523.79 207.89 1523.79 146.08 1458.54 75.68"/><polygon class="cls-23" points="1618.22 75.68 1747 75.68 1690.34 146.08 1690.34 206.17 1712.66 214.76 1662.87 214.76 1683.47 207.89 1683.47 146.08 1618.22 75.68"/><polygon class="cls-23" points="1863.76 146.08 1911.96 86.19 1911.96 75.68 1791.64 75.68 1856.89 146.08 1856.89 207.89 1836.29 214.76 1886.08 214.76 1863.76 206.17 1863.76 146.08"/></g><path class="cls-24" d="M1433.24,158.8l-33.08-41c-47.27-1.58-44.31,1.42-67.75-1.58-74-9.45-140.33-42.24-220.63,18.92S981.47,300.93,978.9,305.11s101.87,167.6,191.19,228.37c0,0,147.85-53,178.75-91s64.37-80.2,48.15-220.38c0,0-20.47-53.87,25.23-64.39Z"/><path class="cls-25" d="M1355.26,216.3s59.86,74.05,0,113.44-45.69,75.62-94.53,94.52-50.41,67.75-77.2,58.29-22-25.2-11-39.38,55.15-61.45,33.09-88.23-64.59-143.36.79-137.85-.79-96.89,55.14-78.77,84.28-13.39,89.8,33.08S1355.26,216.3,1355.26,216.3Z"/><path d="M992,418.5s-5.32-8.84-8.79,1.68l.7,29.67,2.13,30,2.29,32.33s6.24,87.76,4.07,90.26S912,640,912,640s-.41,7.47,5.85,9.73,81.6-33.46,82.5-34,7.36-2,4.61-20.84S992,418.5,992,418.5Z"/><path class="cls-24" d="M1501,645.61C1515.62,658,1570.65,679,1570.65,679c58.63,3.46,53.22,17,53.22,24.9s-291.46,14.18-291.46,0,25.21-14.18,84.88-30.63,56.91-43.41,56.91-43.41,22.06-491.54-52-472.64l-22-39.38s146.5-20.7,130.76,102.4C1513.59,355.73,1480.5,628.28,1501,645.61Z"/><path class="cls-26" d="M1226.86,245.45s-47.27,86.65,34.66,83.5"/><path class="cls-26" d="M1128.39,314s-15.75-33.08-37.81-26.78"/><path class="cls-26" d="M1160.69,355.73s33.08,11,22,26.78"/><polyline class="cls-26" points="1160.69 313.19 1184.32 328.95 1184.32 300.59"/><circle cx="1243.79" cy="374.24" r="5.91"/><circle cx="1123.67" cy="241.51" r="6.3"/><path class="cls-27" d="M1084.94,496.12s-5.43,23-33.65,19.74,1.78,46.86,20.61,21S1084.94,496.12,1084.94,496.12Z"/><path class="cls-28" d="M1088.15,543.89s15.14,25.32-13,47,42.35,40.44,36.75.9S1088.15,543.89,1088.15,543.89Z"/><path class="cls-29" d="M1025.16,590.36s15.14,25.32-13,47,42.35,40.43,36.75.89S1025.16,590.36,1025.16,590.36Z"/><path class="cls-30" d="M1859.37,1006.87c-1-3-10.17-5.08-10.17-5.08V989.6l10.17-5.59-5.09-11.69-10.16,4.58-8.63-9.66s3.55-9.14,3.55-10.16-11.68-5.08-11.68-5.08-4.58,10.67-5.59,10.16-10.67,0-10.67,0L1805.51,952l-12.19,5.59,4.57,10.16-9.15,8.64-11.18-3.56L1773.5,985l10.16,5.08v11.17s-10.16,4.58-10.16,5.59,5.08,11.69,5.08,11.69l11.69-3.56,7.62,8.64s-4.07,8.13-4.07,10.16,12.2,4.57,12.2,4.57l5.08-10.67,11.68,1,4.58,9.65,12.19-5.59-4.06-10.16s8.63-9.65,9.14-8.13,10.67,3.56,10.67,3.56S1860.38,1009.92,1859.37,1006.87Zm-42.68,9.15c-21.34-1.53-20.83-20.83-20.83-20.83,2.54-20.33,20.83-19.82,20.83-19.82,19.81-.51,20.83,20.32,20.83,20.32C1835.49,1014.49,1816.69,1016,1816.69,1016Z"/></svg>