<svg id="Layer_1" data-name="Layer 1" xmlns="http://www.w3.org/2000/svg" xmlns:xlink="http://www.w3.org/1999/xlink" width="300" height="460" viewBox="0 0 300 460"><defs><style>.cls-1{fill:#603813;}.cls-2{fill:url(#linear-gradient);}.cls-3{fill:#003cd0;}.cls-4{fill:none;stroke:#000;stroke-miterlimit:10;}.cls-5{fill:#39b54a;}</style><linearGradient id="linear-gradient" x1="241.41" y1="-161.41" x2="444.71" y2="-161.41" gradientTransform="translate(-265.54 367.36) rotate(8.06)" gradientUnits="userSpaceOnUse"><stop offset="0" stop-color="#fff"/><stop offset="1" stop-color="#8e8e8e"/></linearGradient></defs><title>gin</title><path class="cls-1" d="M65.54,102.83S55.45,49.56,60.1,46.06s32.51-9.91,57.35-2.24c0,0,2.24,50.09-.66,55.9S105.91,110.63,65.54,102.83Z"/><path class="cls-2" d="M65.54,102.83,11.12,135.57,15.77,381S11.14,399,17,401.87s116.19,21.65,157.84-1.49c0,0,11-11.92,2.74-19.32l-1.74-243.94-59-37.4S109.83,112.22,65.54,102.83Z"/><path class="cls-3" d="M26.66,196.17h0l0,0h0Z"/><path class="cls-3" d="M26.71,196.17Z"/><path class="cls-4" d="M69.2,126.55s7.19-4.11,11.3,0"/><path class="cls-4" d="M106.17,124.5s4.1-6.16,12.32,0"/><path class="cls-4" d="M69.2,165.57s20.54,11.29,43.13,0"/><polyline class="cls-4" points="98.47 123.47 92.31 129.63 98.47 129.63"/><path class="cls-5" d="M85,213.31S9.81,258.66,9.79,285.62s-8.43,27.83,79.79,93.22c0,0,82-53.07,82.82-83.87S102,217.79,85,213.31Z"/><path d="M86.31,297.38l-.06.05a16,16,0,0,1-4.89,2.72,10.6,10.6,0,0,1-4.83.48,7.38,7.38,0,0,1-3.88-1.74,7.79,7.79,0,0,1-2.35-3.65,10.76,10.76,0,0,1-.33-4.91A19.8,19.8,0,0,1,71.54,285a28.75,28.75,0,0,1,3.16-5.29,34.36,34.36,0,0,1,4.54-4.95,27.3,27.3,0,0,1,7.26-4.86,12.05,12.05,0,0,1,6.44-1.27,4.42,4.42,0,0,1,2,.74,3.22,3.22,0,0,1,1.19,1.54,4.32,4.32,0,0,1,.18,2.11,8.79,8.79,0,0,1-3.41,5.53,14.35,14.35,0,0,1-7,3.13l-.55-2a15.58,15.58,0,0,0,6.81-2.73q2.85-2.07,3.2-4.53a2.48,2.48,0,0,0-.21-1.4,2.53,2.53,0,0,0-.92-1.12,3.54,3.54,0,0,0-1.5-.54,10,10,0,0,0-5.41,1,22.61,22.61,0,0,0-5.92,3.92,28.12,28.12,0,0,0-4,4.48,27.23,27.23,0,0,0-3,5.27,21.14,21.14,0,0,0-1.54,5.33,14,14,0,0,0-.07,3.7,8.38,8.38,0,0,0,1,3.07,5.93,5.93,0,0,0,1.92,2.16,6.22,6.22,0,0,0,2.67,1q3.54.51,8.25-3l.11-.11,1.5-4.11L91,291l-2.59,7.2A39.67,39.67,0,0,1,86.94,302a15.68,15.68,0,0,1-1.49,2.41,14.42,14.42,0,0,1-3.61,3.4,14.09,14.09,0,0,1-9.51,2.16,11.17,11.17,0,0,1-4.57-1.54l1-1.65a11.44,11.44,0,0,0,5.42,2.34,9.8,9.8,0,0,0,2.81,0,8.4,8.4,0,0,0,2.53-.8,7.73,7.73,0,0,0,2.1-1.52A10.78,10.78,0,0,0,83,305.07a14.82,14.82,0,0,0,1.18-2.22c.4-.9.87-2.1,1.42-3.61Z"/><path d="M100.68,288.89l-3.34,7.85a13.1,13.1,0,0,0-1,3.15,2.58,2.58,0,0,0,.09,1.33.81.81,0,0,0,.65.6c.51.07,1.42-.42,2.71-1.49l.35.41-.28.23a22.57,22.57,0,0,1-2.41,1.95,1.93,1.93,0,0,1-1.32.41,1.55,1.55,0,0,1-1.19-1,3.45,3.45,0,0,1-.26-2,14.43,14.43,0,0,1,.63-2.31l2.79-8.47Zm2.1-9.63a1.44,1.44,0,0,1,1,.54,1.59,1.59,0,0,1-.32,2.09,1.4,1.4,0,0,1-1.08.27,1.38,1.38,0,0,1-1-.59,1.42,1.42,0,0,1-.31-1.08,1.44,1.44,0,0,1,.57-1A1.43,1.43,0,0,1,102.78,279.26Z"/><path d="M103.43,304.34,108,291l2.5-.68-3.42,8.81a28.21,28.21,0,0,1,5-6q2.35-2,4.22-1.7a1.94,1.94,0,0,1,1.4.82,2.29,2.29,0,0,1,.34,1.7,6.8,6.8,0,0,1-.5,1.58l-.4,1L116,299.39l-.39.93a9.94,9.94,0,0,0-.69,2.23,2.54,2.54,0,0,0,.09,1.32.81.81,0,0,0,.65.58c.51.08,1.42-.42,2.72-1.48l.35.4-.29.24a25.76,25.76,0,0,1-2.4,1.95,2.06,2.06,0,0,1-1.33.41,1.59,1.59,0,0,1-1.19-1,3.44,3.44,0,0,1-.26-2,15.25,15.25,0,0,1,.63-2.31l1.72-5.12a11.83,11.83,0,0,0,.44-1.71,1.08,1.08,0,0,0-.16-.84,1.05,1.05,0,0,0-.7-.38q-1.73-.24-4.74,3.08a23.55,23.55,0,0,0-2.51,3.2,47.92,47.92,0,0,0-2.46,4.53l-.32.63Z"/></svg>
