<svg id="Layer_1" data-name="Layer 1" xmlns="http://www.w3.org/2000/svg" xmlns:xlink="http://www.w3.org/1999/xlink" width="300" height="460" viewBox="0 0 300 460"><defs><style>.cls-1{fill:#603813;}.cls-2{fill:url(#linear-gradient);}.cls-3{fill:#003cd0;}.cls-4{fill:#39b54a;}.cls-5{fill:none;stroke:#000;stroke-miterlimit:10;stroke-width:3px;}</style><linearGradient id="linear-gradient" x1="243.73" y1="-161.39" x2="444.59" y2="-161.39" gradientTransform="translate(-265.54 367.36) rotate(8.06)" gradientUnits="userSpaceOnUse"><stop offset="0" stop-color="#fff"/><stop offset="1" stop-color="#8e8e8e"/></linearGradient></defs><title>ginmedansigt</title><path class="cls-1" d="M65.54,102.83s-9.78-53.54-5.14-57c4.24-3.19,27.53-8.55,50.5-3.68a8.53,8.53,0,0,1,6.8,8c.49,13.66,1.35,45.07-.91,49.59C113.89,105.54,105.91,110.63,65.54,102.83Z"/><path class="cls-2" d="M65.41,102.83,26.25,126.39a30.81,30.81,0,0,0-14.92,27L15.64,381S11,399,16.83,401.87,133,423.52,174.67,400.38c0,0,11-11.92,2.73-19.32l-1.87-228.65a28.59,28.59,0,0,0-13.32-23.94L116.66,99.72S109.71,112.22,65.41,102.83Z"/><path class="cls-3" d="M26.66,196.17h0l0,0h0Z"/><path class="cls-3" d="M26.71,196.17Z"/><path class="cls-4" d="M90,213.31s-75.21,45.35-75.23,72.31-8.43,27.83,79.79,93.22c0,0,82-53.07,82.82-83.87S107,217.79,90,213.31Z"/><path d="M83.83,302l-.07,0a19.62,19.62,0,0,1-6,3.34,12.81,12.81,0,0,1-5.93.59,9,9,0,0,1-4.76-2.13,9.61,9.61,0,0,1-2.89-4.48,13.44,13.44,0,0,1-.41-6,24.43,24.43,0,0,1,1.94-6.55,34.18,34.18,0,0,1,3.87-6.49,42.62,42.62,0,0,1,5.57-6.07,33.55,33.55,0,0,1,8.9-6c3.07-1.35,5.7-1.88,7.92-1.56a5.53,5.53,0,0,1,2.43.92,3.92,3.92,0,0,1,1.46,1.88,5.31,5.31,0,0,1,.22,2.6,10.82,10.82,0,0,1-4.19,6.78,17.54,17.54,0,0,1-8.59,3.83l-.68-2.46A19.27,19.27,0,0,0,91,276.89q3.49-2.55,3.92-5.56a3.27,3.27,0,0,0-1.39-3.09,4.34,4.34,0,0,0-1.83-.66A12.42,12.42,0,0,0,85,268.84a27.45,27.45,0,0,0-7.26,4.82,33.93,33.93,0,0,0-4.88,5.49,33.41,33.41,0,0,0-3.65,6.47,25.68,25.68,0,0,0-1.89,6.54,17.43,17.43,0,0,0-.09,4.54,10.62,10.62,0,0,0,1.18,3.77,7.49,7.49,0,0,0,2.36,2.65,7.77,7.77,0,0,0,3.27,1.24q4.35.61,10.12-3.7l.15-.13,1.83-5,3.42-1.35L86.42,303a48.75,48.75,0,0,1-1.82,4.63,18,18,0,0,1-1.83,3,17.24,17.24,0,0,1-4.43,4.17,17.05,17.05,0,0,1-5.65,2.39,16.8,16.8,0,0,1-6,.26,13.72,13.72,0,0,1-5.6-1.88l1.28-2A13.92,13.92,0,0,0,69,316.34a12,12,0,0,0,3.44,0,10.63,10.63,0,0,0,3.11-1,9.61,9.61,0,0,0,2.58-1.88,14.08,14.08,0,0,0,1.69-2.09,17.83,17.83,0,0,0,1.44-2.73c.49-1.1,1.07-2.57,1.75-4.43Z"/><path d="M101.47,291.55l-4.1,9.64a16.57,16.57,0,0,0-1.24,3.87,3.27,3.27,0,0,0,.12,1.63,1,1,0,0,0,.79.73c.63.09,1.74-.52,3.34-1.82l.42.49-.35.29a28.84,28.84,0,0,1-3,2.4,2.45,2.45,0,0,1-1.62.5,1.92,1.92,0,0,1-1.46-1.19,4.11,4.11,0,0,1-.32-2.48,18.58,18.58,0,0,1,.78-2.84l3.42-10.39ZM104,279.74a1.73,1.73,0,0,1,1.21.67,1.75,1.75,0,0,1,.31,1.34,1.78,1.78,0,0,1-.7,1.21,1.71,1.71,0,0,1-1.32.34,1.9,1.9,0,0,1-1.55-2.05,1.72,1.72,0,0,1,.7-1.18A1.77,1.77,0,0,1,104,279.74Z"/><path d="M104.84,310.52l5.62-16.42,3.07-.84-4.2,10.81a34.18,34.18,0,0,1,6.17-7.39c1.93-1.61,3.65-2.31,5.18-2.1a2.42,2.42,0,0,1,1.72,1,2.83,2.83,0,0,1,.41,2.09,8.28,8.28,0,0,1-.61,1.93l-.49,1.24-1.44,3.59-.47,1.14a13,13,0,0,0-.85,2.74,3.23,3.23,0,0,0,.11,1.62,1,1,0,0,0,.8.71c.63.09,1.74-.51,3.33-1.82l.43.49-.35.3a29.8,29.8,0,0,1-3,2.39,2.41,2.41,0,0,1-1.62.5,2,2,0,0,1-1.47-1.19,4.19,4.19,0,0,1-.31-2.48,17.13,17.13,0,0,1,.77-2.84l2.1-6.29a15.8,15.8,0,0,0,.55-2.1,1.33,1.33,0,0,0-.2-1,1.2,1.2,0,0,0-.86-.46c-1.4-.2-3.34,1.05-5.82,3.77a28.8,28.8,0,0,0-3.07,3.93,57.77,57.77,0,0,0-3,5.55l-.39.79Z"/><path class="cls-5" d="M65.63,154.41s5-4.56,9.18-3.28"/><path class="cls-5" d="M61,186.22s31.47,37.52,70,3.6"/><polyline class="cls-5" points="94.49 166.7 88.01 176.71 97.82 177.08"/><path class="cls-5" d="M119.62,153.89s-4.64-5.42-9.17-3.28"/></svg>
