<svg xmlns="http://www.w3.org/2000/svg" xmlns:xlink="http://www.w3.org/1999/xlink" width="1920" height="1080" viewBox="0 0 1920 1080"><defs><style>.cls-1{isolation:isolate;}.cls-2{fill:#668b5c;}.cls-3{fill:#603813;}.cls-22,.cls-23,.cls-25,.cls-28,.cls-30,.cls-31,.cls-34,.cls-35,.cls-36,.cls-4,.cls-40,.cls-43,.cls-45,.cls-47{fill:none;}.cls-4{stroke:#895327;stroke-width:10px;}.cls-11,.cls-14,.cls-22,.cls-23,.cls-25,.cls-30,.cls-35,.cls-36,.cls-37,.cls-4,.cls-40,.cls-43,.cls-45,.cls-47{stroke-miterlimit:10;}.cls-5,.cls-6{fill:#9e0032;}.cls-26,.cls-31,.cls-36,.cls-44,.cls-5{opacity:0.7;}.cls-7{fill:#7f0934;}.cls-8{fill:#91003b;}.cls-9{fill:url(#linear-gradient);}.cls-10{fill:#724733;}.cls-11,.cls-12,.cls-14,.cls-15{fill:#1c3811;}.cls-11{stroke:#1c3811;}.cls-11,.cls-14,.cls-40,.cls-47{stroke-width:3px;}.cls-12,.cls-46{opacity:0.5;}.cls-13,.cls-35,.cls-52{opacity:0.6;}.cls-14,.cls-40{stroke:#000;}.cls-16{fill:#003cd0;}.cls-17,.cls-29{fill:#ddd662;}.cls-18{opacity:0.1;}.cls-19{fill:#0c060c;}.cls-20{fill:url(#linear-gradient-2);}.cls-21{fill:url(#linear-gradient-3);}.cls-22{stroke:url(#linear-gradient-4);}.cls-23{stroke:url(#linear-gradient-5);}.cls-24{fill:url(#linear-gradient-6);}.cls-25{stroke:url(#linear-gradient-7);}.cls-27,.cls-42,.cls-46{fill:#fcee21;}.cls-27,.cls-28,.cls-29,.cls-30,.cls-32,.cls-33{opacity:0.4;}.cls-30,.cls-35,.cls-36,.cls-43{stroke:#ff0;stroke-width:2px;}.cls-32{fill:#f7f7f7;}.cls-33,.cls-44{fill:#ff0;}.cls-37,.cls-41{fill:#d8e5ef;}.cls-37{stroke:#d8e5ef;}.cls-38{mix-blend-mode:luminosity;fill:url(#linear-gradient-8);}.cls-39{fill:url(#linear-gradient-9);}.cls-45{stroke:#fff;}.cls-47{stroke:#663b3f;}.cls-48{fill:#8cc63f;}.cls-49{fill:#f0f;}.cls-50{fill:#110f11;}.cls-51{fill:#231523;}.cls-52{fill:#663f30;}</style><linearGradient id="linear-gradient" x1="1798.46" y1="0.27" x2="1826.37" y2="304.62" gradientUnits="userSpaceOnUse"><stop offset="0" stop-color="#fff" stop-opacity="0.2"/><stop offset="1" stop-color="#668b5c"/></linearGradient><linearGradient id="linear-gradient-2" x1="280.97" y1="876.11" x2="348.19" y2="876.11" gradientTransform="matrix(0.85, -0.53, 0.53, 0.85, 548.2, -98.9)" gradientUnits="userSpaceOnUse"><stop offset="0.2" stop-color="#fff" stop-opacity="0.5"/><stop offset="1" stop-opacity="0.2"/></linearGradient><linearGradient id="linear-gradient-3" x1="815.45" y1="687.33" x2="882.68" y2="687.33" gradientTransform="translate(310.46 48.18) rotate(-17.74)" xlink:href="#linear-gradient-2"/><linearGradient id="linear-gradient-4" x1="1217.98" y1="514.3" x2="1259.13" y2="488.88" gradientTransform="matrix(1, -0.02, 0.02, 1, 23.72, -5.35)" xlink:href="#linear-gradient-2"/><linearGradient id="linear-gradient-5" x1="1610.69" y1="37.16" x2="1651.84" y2="11.74" gradientTransform="translate(-245.4 11.81) rotate(13.97)" xlink:href="#linear-gradient-2"/><linearGradient id="linear-gradient-6" x1="-1169.05" y1="568.52" x2="-1101.82" y2="568.52" gradientTransform="matrix(0.26, -0.97, 0.97, 0.26, 995.01, -823.74)" xlink:href="#linear-gradient-2"/><linearGradient id="linear-gradient-7" x1="-139.72" y1="988.08" x2="-98.58" y2="962.66" gradientTransform="translate(664.72 -375.17) rotate(-43.41)" xlink:href="#linear-gradient-2"/><linearGradient id="linear-gradient-8" x1="1126.78" y1="351.01" x2="1447.52" y2="351.01" gradientTransform="matrix(1, 0, 0, 1, 0, 0)" xlink:href="#linear-gradient-2"/><linearGradient id="linear-gradient-9" x1="1170.36" y1="197.34" x2="1413.4" y2="197.34" gradientTransform="matrix(1, 0, 0, 1, 0, 0)" xlink:href="#linear-gradient-2"/></defs><title>levelcompleteuknap</title><g class="cls-1"><g id="Layer_1" data-name="Layer 1"><rect class="cls-2" x="-1.06" y="-8.57" width="1926.92" height="1092.6"/><rect class="cls-3" x="-1.06" y="688.79" width="1926.92" height="67.09"/><path class="cls-4" d="M230.6,749.36c-.1,102.64-.1,204.64.14,307.77"/><path class="cls-4" d="M516.45,746.68c0,104.32,0,209.32.15,313.38"/><path class="cls-4" d="M757.11,749.36c-.61,106.64-1.61,213.64,0,320.37"/><path class="cls-4" d="M1013.67,746.68c-.17,108.32-.17,215.32.13,323.14"/><path class="cls-4" d="M1304,753.14c-.46,100.86,1.54,202.86.14,304.15"/><path class="cls-4" d="M1580.35,749.36c.15,102.64.15,204.64.14,307.77"/><path class="cls-4" d="M1865,762.73c-.08,102.13-.08,205.41.15,308"/><path class="cls-5" d="M1659.89,992.45c-27.74,59.44-244.46,61.19-244.46,61.19-209.79-1.75-251.4-49-251.4-49a523.93,523.93,0,0,0-5.37,77.81h460.07v.77h56C1681.64,1025.37,1659.89,992.45,1659.89,992.45Z"/><ellipse class="cls-6" cx="1410.13" cy="994.18" rx="248.02" ry="64.17"/><path class="cls-7" d="M1658.15,994.18s-90.89,96.16-412.28,48.08c0,0,20.13,16.55,31.8,40.23h341.06v.77h57.14C1679.54,1052.75,1677.23,1019.12,1658.15,994.18Z"/><path class="cls-8" d="M1585.23,948.73s78.13,95.75-339.87,94c0,0,275.77,50.3,412.79-48.56C1658.15,994.18,1659.73,967.46,1585.23,948.73Z"/><path class="cls-5" d="M561.93,983c-27.75,59.44-244.47,61.19-244.47,61.19-209.78-1.75-251.4-49-251.4-49a516.45,516.45,0,0,0-5.19,87.32h270v0H575.46C585.85,1019.21,561.93,983,561.93,983Z"/><ellipse class="cls-6" cx="312.16" cy="984.72" rx="248.02" ry="64.17"/><path class="cls-7" d="M560.18,984.72s-90.89,96.15-412.27,48.07c0,0,25.66,21.11,35.83,49.75H330.89v0H576.68C581.86,1049.83,581.09,1012.05,560.18,984.72Z"/><path class="cls-8" d="M487.26,939.27s78.13,95.74-339.87,94c0,0,275.78,50.3,412.79-48.56C560.18,984.72,561.77,958,487.26,939.27Z"/><polygon class="cls-9" points="1925.87 -8.57 1838.76 -8.57 1710.19 435.76 1925.87 435.76 1925.87 -8.57"/><polygon class="cls-2" points="1921.86 112.7 1921.86 -3.94 -1.06 -3.94 -1.06 1084.03 1921.86 1084.03 1921.86 1067.44 1921.46 1067.44 1921.46 112.7 1921.86 112.7"/><polygon class="cls-10" points="1921.46 1067.44 1921.46 942.26 -1.06 942.26 -1.06 1082.54 330.89 1082.54 330.89 1082.49 806.14 1082.49 806.14 1084.03 1074.52 1084.03 1074.52 1082.49 1618.73 1082.49 1618.73 1084.03 1921.86 1084.03 1921.86 1067.44 1921.46 1067.44"/><path class="cls-11" d="M1921.46,727.07q-212.82,0-425.88.16h425.88Z"/><path class="cls-12" d="M1894.79,476.54s5.15-15.45,0-18.88-22.32-3.44-25.75,0-3.44,8.58,0,15.45,1.71,3.43,1.71,3.43v30.91s-30.9,17.17-27.47,58.38,12,158,12,158h51.51s10.3-154.53,8.59-159.68,5.15-32.62-22.33-56.66Z"/><path class="cls-12" d="M1779.75,599.77s5.15-7.75,0-9.47-22.32-1.72-25.75,0-3.44,4.31,0,7.75l1.71,1.72v15.51s-30.9,8.61-27.47,29.28,12,79.23,12,79.23h51.51s10.3-77.51,8.59-80.09,5.15-16.37-22.33-28.42Z"/><path class="cls-12" d="M1639.81,475.69h27.48V558.1s17.17-1.72,18.88,22.32,0,144.23,0,144.23h-63.53V573.56s5.16-13.74,17.17-15.46Z"/><path class="cls-12" d="M1561.69,476.54s5.15-15.45,0-18.88-22.32-3.44-25.76,0-3.43,8.58,0,15.45,1.72,3.43,1.72,3.43v30.91s-30.9,17.17-27.47,58.38,12,158,12,158h51.51s10.3-154.53,8.58-159.68,5.16-32.62-22.32-56.66Z"/><g class="cls-13"><path class="cls-14" d="M1921.46,328.62h-451.7q225.56.36,451.7.25Z"/><polygon class="cls-15" points="1468.04 188.68 1596.82 188.68 1540.16 259.08 1540.16 319.17 1562.48 327.76 1512.68 327.76 1533.29 320.89 1533.29 259.08 1468.04 188.68"/><polygon class="cls-15" points="1627.72 188.68 1756.5 188.68 1699.84 259.08 1699.84 319.17 1722.16 327.76 1672.37 327.76 1692.97 320.89 1692.97 259.08 1627.72 188.68"/><polygon class="cls-15" points="1873.26 259.08 1921.46 199.19 1921.46 188.68 1801.14 188.68 1866.39 259.08 1866.39 320.89 1845.79 327.76 1895.58 327.76 1873.26 319.17 1873.26 259.08"/></g><path class="cls-4" d="M210.88,942q-.31,69.11,0,138"/><path class="cls-4" d="M448.22,942c0,46.23,0,91.38-.17,138"/><path class="cls-4" d="M669.74,942c-.13,47.67-.13,94.19.13,142"/><path class="cls-4" d="M928.05,941.81c1.67,46.18.59,92.16-.06,138.19"/><path class="cls-4" d="M1140.25,942c.56,46.49.56,91.86.16,138"/><path class="cls-4" d="M1379.54,941.81c-1,46.43,1,91.58.71,138.19"/><path class="cls-4" d="M1644.94,942.39c.15,46.06.15,91.46.11,137.61"/><path class="cls-4" d="M1893.84,942q-.3,53.73-.16,107.45,0,15.3.12,30.59"/><path class="cls-16" d="M366,737.08h0Z"/><path class="cls-16" d="M366,737.09h0Z"/><ellipse class="cls-17" cx="241.77" cy="561.98" rx="136.5" ry="114.5" transform="matrix(0.87, -0.5, 0.5, 0.87, -248.6, 196.18)"/><g class="cls-18"><ellipse class="cls-19" cx="351.83" cy="574.19" rx="122.93" ry="103.12" transform="translate(-197.51 184.7) rotate(-23.16)"/><path class="cls-19" d="M917.74,460.09c-36,154.32-154.32,270.26-297,293.65-162.87,26.7-362.36-66.38-389.55-229-27.26-163,132.16-315.1,293.8-343.34,137.34-24,281.78,40.46,369.66,165.13,23.22,5.17,41.77,22.41,48,44.76C949.64,416.55,939.75,444.18,917.74,460.09Z"/><path class="cls-19" d="M231.12,570.23s40.15,7.65,15.74,47.2c0,0-46.48,9-58.68,8.62s-24.88-14.28-14.58-22.77S231.12,570.23,231.12,570.23Z"/></g><polygon class="cls-20" points="1306.21 496.48 1277.91 514.63 1248.04 499.19 1246.48 465.61 1274.78 447.46 1304.64 462.9 1306.21 496.48"/><polygon class="cls-21" points="1353.85 466.27 1322.01 477.05 1296.75 454.86 1303.34 421.89 1335.18 411.11 1360.44 433.3 1353.85 466.27"/><polyline class="cls-22" points="1246.05 466.47 1276.91 480.59 1302.37 465.1"/><polyline class="cls-23" points="1304.54 422.37 1330.56 444.17 1359.21 435.97"/><polygon class="cls-24" points="1285.21 410.3 1277.12 442.93 1244.82 452.24 1220.61 428.92 1228.69 396.29 1261 386.98 1285.21 410.3"/><polyline class="cls-25" points="1227.91 434.42 1260.29 424.25 1268.83 395.71"/><g class="cls-26"><path class="cls-27" d="M1266.66,151.29l-10.39,2c-.09-.5-.2-1-.3-1.49l-72.43,15.6-45.91,71.13a84.66,84.66,0,0,0,129-87.25Z"/><path class="cls-28" d="M1266.66,151.29l-10.39,2c-.09-.5-.2-1-.3-1.49a74.09,74.09,0,1,0-112.6,77.84l-5.74,8.89a84.66,84.66,0,1,1,129-87.25Z"/><path class="cls-29" d="M1256.27,153.3c-.09-.5-.2-1-.3-1.49l-72.43,15.6-40.17,62.24a74.08,74.08,0,0,0,112.9-76.35Z"/><path class="cls-28" d="M1121.31,127.24A74,74,0,0,0,1111.12,183l72.42-15.6Zm11.15,20.14a2.64,2.64,0,1,1,1.64,5,2.64,2.64,0,0,1-1.64-5Zm-10-5.1a2.64,2.64,0,1,1,1.64,5,2.64,2.64,0,0,1-1.64-5Zm-3.44,15a2.64,2.64,0,1,1-1.63-5,2.63,2.63,0,0,1,3.32,1.67A2.66,2.66,0,0,1,1119,157.31Zm-.12,16.74a2.65,2.65,0,0,1-3.34-1.72,2.64,2.64,0,0,1,5-1.63A2.67,2.67,0,0,1,1118.9,174.05Zm10.93-9.13a2.65,2.65,0,0,1-1.64-5,2.65,2.65,0,1,1,1.64,5Zm10,5.1a2.64,2.64,0,0,1-1.63-5,2.64,2.64,0,1,1,1.63,5Zm5.93-7.48a2.64,2.64,0,0,1-1.63-5,2.62,2.62,0,0,1,3.32,1.68A2.66,2.66,0,0,1,1145.75,162.54Zm10-3.27a2.65,2.65,0,0,1,1.71-3.34,2.64,2.64,0,1,1-1.71,3.34Z"/><path class="cls-28" d="M1168,95a73.91,73.91,0,0,0-46.64,32.25l62.23,40.17Zm-35.67,29.88a2.64,2.64,0,1,1,3.66-.79A2.66,2.66,0,0,1,1132.28,124.87Zm13.06-10.46a2.65,2.65,0,1,1,3.65-.79A2.65,2.65,0,0,1,1145.34,114.41Zm.92,13.19a2.64,2.64,0,1,1,3.66-.79A2.65,2.65,0,0,1,1146.26,127.6Zm10-15.56a2.64,2.64,0,1,1,3.66-.79A2.66,2.66,0,0,1,1156.31,112Zm-7.68,26.53a2.64,2.64,0,1,1,3.66-.78A2.65,2.65,0,0,1,1148.63,138.57Zm10-15.56a2.64,2.64,0,1,1,3.66-.78A2.65,2.65,0,0,1,1158.67,123Zm-.5,15.42a2.64,2.64,0,1,1,3.65-.78A2.64,2.64,0,0,1,1158.17,138.43Zm9.67,9.4a2.65,2.65,0,1,1,3.66-.79A2.65,2.65,0,0,1,1167.84,147.83Z"/><path class="cls-28" d="M1168,95l15.59,72.42,40.18-62.23A73.91,73.91,0,0,0,1168,95Zm40.28,15a2.65,2.65,0,1,1-2.2,3A2.65,2.65,0,0,1,1208.23,110Zm-6.58,9.07a2.64,2.64,0,1,1-2.2,3A2.64,2.64,0,0,1,1201.65,119Zm-18.17-13.21a2.66,2.66,0,1,1,2.21-3A2.66,2.66,0,0,1,1183.48,105.81Zm.69,21.32a2.64,2.64,0,0,1-3-2.2,2.64,2.64,0,0,1,5.22-.82A2.64,2.64,0,0,1,1184.17,127.13Zm6.62-9.08a2.65,2.65,0,1,1,2.2-3A2.68,2.68,0,0,1,1190.79,118.05Zm9.2-9.49a2.64,2.64,0,0,1-.81-5.22,2.64,2.64,0,1,1,.81,5.22Zm-9.36,25.58a2.65,2.65,0,0,1-3-2.2,2.65,2.65,0,0,1,5.23-.82A2.65,2.65,0,0,1,1190.63,134.14Zm-.57,13.48a2.66,2.66,0,0,1-3-2.2,2.65,2.65,0,1,1,3,2.2Z"/><path class="cls-29" d="M1256.27,153.3c-.09-.5-.2-1-.3-1.49l-72.43,15.6-40.17,62.24a74.08,74.08,0,0,0,112.9-76.35Z"/><path class="cls-28" d="M1111.12,183a74,74,0,0,0,32.25,46.64l40.17-62.24Zm52.28-5.52a2.64,2.64,0,0,1-3.19,4.21,2.64,2.64,0,1,1,3.19-4.21Zm-10.09,8.95a2.64,2.64,0,1,1-3.72.49A2.63,2.63,0,0,1,1153.31,186.44Zm-29.67,4.06a2.66,2.66,0,1,1,3.7-.51A2.65,2.65,0,0,1,1123.64,190.5Zm1.52,11.11a2.65,2.65,0,1,1,3.22-4.21,2.65,2.65,0,1,1-3.22,4.21Zm9.6-12.63a2.68,2.68,0,0,1-.49-3.72,2.64,2.64,0,1,1,.49,3.72Zm3.13,9a2.64,2.64,0,1,1,.51,3.7A2.63,2.63,0,0,1,1137.89,198Zm-3.29,17.43a2.64,2.64,0,0,1-.49-3.72,2.65,2.65,0,0,1,4.21,3.23A2.64,2.64,0,0,1,1134.6,215.42Zm14.91-15.25a2.66,2.66,0,1,1,3.7-.51A2.63,2.63,0,0,1,1149.51,200.17Z"/><line class="cls-30" x1="1245.78" y1="207.59" x2="1183.54" y2="167.41"/><line class="cls-30" x1="1199.14" y1="239.83" x2="1183.54" y2="167.41"/><circle class="cls-28" cx="1157.74" cy="109.82" r="2.65"/><circle class="cls-31" cx="1146.77" cy="112.18" r="2.65"/><circle class="cls-31" cx="1133.72" cy="122.65" r="2.65"/><circle class="cls-28" cx="1147.7" cy="125.38" r="2.65"/><circle class="cls-28" cx="1160.11" cy="120.79" r="2.65"/><circle class="cls-28" cx="1159.6" cy="136.21" r="2.65"/><circle class="cls-28" cx="1169.28" cy="145.61" r="2.65"/><circle class="cls-28" cx="1150.06" cy="136.35" r="2.65"/><path class="cls-31" d="M1124.1,147.3a2.64,2.64,0,0,1-1.64-5,2.64,2.64,0,1,1,1.64,5Z"/><path class="cls-31" d="M1119,157.31a2.64,2.64,0,1,1-1.63-5,2.63,2.63,0,0,1,3.32,1.67A2.66,2.66,0,0,1,1119,157.31Z"/><path class="cls-28" d="M1118.9,174.05a2.65,2.65,0,0,1-3.34-1.72,2.64,2.64,0,0,1,5-1.63A2.67,2.67,0,0,1,1118.9,174.05Z"/><path class="cls-28" d="M1129.83,164.92a2.65,2.65,0,0,1-1.64-5,2.65,2.65,0,1,1,1.64,5Z"/><path class="cls-28" d="M1134.1,152.4a2.64,2.64,0,0,1-1.64-5,2.64,2.64,0,1,1,1.64,5Z"/><path class="cls-28" d="M1145.75,162.54a2.64,2.64,0,0,1-1.63-5,2.62,2.62,0,0,1,3.32,1.68A2.66,2.66,0,0,1,1145.75,162.54Z"/><path class="cls-28" d="M1159.15,161a2.64,2.64,0,1,1,1.68-3.32A2.61,2.61,0,0,1,1159.15,161Z"/><path class="cls-28" d="M1139.82,170a2.64,2.64,0,0,1-1.63-5,2.64,2.64,0,1,1,1.63,5Z"/><path class="cls-32" d="M1127.34,190a2.64,2.64,0,1,1-.49-3.73A2.65,2.65,0,0,1,1127.34,190Z"/><path class="cls-28" d="M1128.88,201.12a2.66,2.66,0,1,1-.5-3.72A2.67,2.67,0,0,1,1128.88,201.12Z"/><path class="cls-28" d="M1138.32,214.93a2.65,2.65,0,1,1-4.21-3.23,2.65,2.65,0,0,1,4.21,3.23Z"/><path class="cls-28" d="M1142.1,201.18a2.64,2.64,0,1,1-.51-3.7A2.64,2.64,0,0,1,1142.1,201.18Z"/><path class="cls-28" d="M1138.47,188.45a2.64,2.64,0,1,1-.51-3.7A2.66,2.66,0,0,1,1138.47,188.45Z"/><path class="cls-28" d="M1153.82,190.14a2.66,2.66,0,1,1-.51-3.7A2.66,2.66,0,0,1,1153.82,190.14Z"/><path class="cls-28" d="M1163.91,181.19a2.62,2.62,0,0,1-3.7.51,2.64,2.64,0,1,1,3.19-4.21A2.62,2.62,0,0,1,1163.91,181.19Z"/><path class="cls-28" d="M1153.21,199.66a2.63,2.63,0,0,1-3.7.51,2.66,2.66,0,1,1,3.7-.51Z"/><circle class="cls-33" cx="1159.47" cy="219.56" r="2.65"/><circle class="cls-33" cx="1168.27" cy="226.53" r="2.65"/><circle class="cls-33" cx="1184.65" cy="229.96" r="2.65"/><circle class="cls-33" cx="1177.87" cy="217.43" r="2.65"/><circle class="cls-33" cx="1166.44" cy="210.76" r="2.65"/><circle class="cls-33" cx="1178.67" cy="201.35" r="2.65"/><circle class="cls-33" cx="1179.78" cy="187.91" r="2.65"/><circle class="cls-33" cx="1184.84" cy="208.63" r="2.65"/><circle class="cls-33" cx="1208.22" cy="224.93" r="2.65"/><circle class="cls-33" cx="1219.33" cy="223.37" r="2.65"/><circle class="cls-33" cx="1233.12" cy="213.89" r="2.65"/><circle class="cls-33" cx="1219.37" cy="210.15" r="2.65"/><circle class="cls-33" cx="1206.66" cy="213.81" r="2.65"/><circle class="cls-33" cx="1208.3" cy="198.47" r="2.65"/><circle class="cls-33" cx="1199.34" cy="188.39" r="2.65"/><circle class="cls-33" cx="1217.82" cy="199.03" r="2.65"/><path class="cls-31" d="M1209.07,115.18a2.65,2.65,0,1,1,2.21-3A2.67,2.67,0,0,1,1209.07,115.18Z"/><path class="cls-31" d="M1200,108.56a2.64,2.64,0,0,1-.81-5.22,2.64,2.64,0,1,1,.81,5.22Z"/><path class="cls-28" d="M1183.48,105.81a2.66,2.66,0,1,1,2.21-3A2.66,2.66,0,0,1,1183.48,105.81Z"/><path class="cls-28" d="M1190.79,118.05a2.65,2.65,0,1,1,2.2-3A2.68,2.68,0,0,1,1190.79,118.05Z"/><path class="cls-28" d="M1202.47,124.24a2.64,2.64,0,1,1,2.2-3A2.62,2.62,0,0,1,1202.47,124.24Z"/><path class="cls-28" d="M1190.63,134.14a2.65,2.65,0,0,1-3-2.2,2.65,2.65,0,0,1,5.23-.82A2.65,2.65,0,0,1,1190.63,134.14Z"/><path class="cls-28" d="M1190.06,147.62a2.66,2.66,0,0,1-3-2.2,2.65,2.65,0,1,1,3,2.2Z"/><path class="cls-28" d="M1184.17,127.13a2.64,2.64,0,0,1-3-2.2,2.64,2.64,0,0,1,5.22-.82A2.64,2.64,0,0,1,1184.17,127.13Z"/><circle class="cls-33" cx="1242.75" cy="191.12" r="2.65"/><circle class="cls-33" cx="1248.8" cy="181.67" r="2.65"/><circle class="cls-33" cx="1250.57" cy="165.03" r="2.65"/><circle class="cls-33" cx="1238.78" cy="173.03" r="2.65"/><circle class="cls-33" cx="1233.3" cy="185.07" r="2.65"/><circle class="cls-33" cx="1222.71" cy="173.85" r="2.65"/><circle class="cls-33" cx="1209.22" cy="174.11" r="2.65"/><circle class="cls-33" cx="1229.33" cy="166.98" r="2.65"/></g><line class="cls-34" x1="1137.38" y1="247.56" x2="1143.09" y2="238.65"/><path class="cls-34" d="M1246.93,146.61a2.64,2.64,0,1,1-.48-3.7A2.61,2.61,0,0,1,1246.93,146.61Z"/><path class="cls-34" d="M1228.86,105.08l-40,62.33,72.38-15.77A74,74,0,0,0,1228.86,105.08Zm6.76,12.83a2.64,2.64,0,1,1-3.71.48A2.65,2.65,0,0,1,1235.62,117.91Zm-18.69,15.63a2.65,2.65,0,1,1,.47,3.73A2.67,2.67,0,0,1,1216.93,133.54Zm-10.3,22.13a2.69,2.69,0,0,1-.51-3.72,2.65,2.65,0,1,1,.51,3.72Zm10.14-8.9a2.64,2.64,0,1,1,3.71-.48A2.63,2.63,0,0,1,1216.77,146.77Zm11.78-11a2.68,2.68,0,0,1-.5-3.72,2.63,2.63,0,0,1,3.7-.48,2.64,2.64,0,1,1-3.2,4.2Zm3.56,12.72a2.61,2.61,0,0,1-.48-3.7,2.64,2.64,0,1,1,.48,3.7Zm9.65-12.57a2.65,2.65,0,1,1,3.72-.51A2.65,2.65,0,0,1,1241.76,136Zm1.47,11.12a2.64,2.64,0,1,1,3.7-.48A2.63,2.63,0,0,1,1243.23,147.09Z"/><path class="cls-34" d="M1210.33,155.18a2.63,2.63,0,0,1-3.7.49,2.69,2.69,0,0,1-.51-3.72,2.65,2.65,0,0,1,4.21,3.23Z"/><path class="cls-34" d="M1236.1,121.61a2.64,2.64,0,1,1-.48-3.7A2.63,2.63,0,0,1,1236.1,121.61Z"/><path class="cls-34" d="M1221.12,136.77a2.65,2.65,0,1,1-.48-3.71A2.66,2.66,0,0,1,1221.12,136.77Z"/><path class="cls-34" d="M1220.48,146.29a2.64,2.64,0,1,1-.49-3.7A2.63,2.63,0,0,1,1220.48,146.29Z"/><path class="cls-34" d="M1235.82,148.06a2.65,2.65,0,0,1-3.71.48,2.61,2.61,0,0,1-.48-3.7,2.64,2.64,0,1,1,4.19,3.22Z"/><path class="cls-34" d="M1232.26,135.34a2.64,2.64,0,0,1-3.71.48,2.68,2.68,0,0,1-.5-3.72,2.63,2.63,0,0,1,3.7-.48A2.67,2.67,0,0,1,1232.26,135.34Z"/><path class="cls-34" d="M1245.48,135.46a2.64,2.64,0,1,1-.49-3.7A2.63,2.63,0,0,1,1245.48,135.46Z"/><line class="cls-34" x1="1261.52" y1="153.12" x2="1188.84" y2="167.41"/><line class="cls-34" x1="1278.8" y1="149.72" x2="1271.92" y2="151.08"/><line class="cls-35" x1="1184.69" y1="169.99" x2="1147.65" y2="228.19"/><line class="cls-36" x1="1188.66" y1="168.66" x2="1257.45" y2="152.79"/><path class="cls-37" d="M1217.14,875.9c-42.08,6.31-80,26.15-73.84,29.22s66.14,16.93,289.19-1.53c0,0,7.69-12.31-23.08-20s-64.6-12.31-83.06-21.54c-11.09-5.54-13.84-18.45-18.46-33.84S1294.05,579,1338.65,531.34s141.52-64.61,146.14-164.59-43.07-204.58-44.61-209.2-192.28-29.23-295.34,0c0,0-53.84,146.13-44.61,193.82s20,100,136.9,176.89c0,0,23.08,10.77,33.84,64.61,0,0,21.54,176.89,12.31,238.42C1283.28,831.29,1278.66,866.67,1217.14,875.9Z"/><path class="cls-38" d="M1288.57,522.82c37.6-4.7,47.78-23.07,47.78-23.07,37.07-39.63,107.07-52.06,110.91-135.16s-35.79-170-37.07-173.85-159.8-24.29-245.45,0c0,0-44.74,121.44-37.07,161.07s16.62,83.1,113.77,147l17.47,14.11S1275.39,524.47,1288.57,522.82Z"/><path class="cls-39" d="M1170.36,191.53s124.59,52.3,243,0C1413.4,191.53,1241.12,165.38,1170.36,191.53Z"/><polyline class="cls-40" points="1265.95 311.4 1249.03 325.24 1265.95 325.24"/><path class="cls-40" d="M1296,295.25s20-20,38.45,0"/><path class="cls-40" d="M1189.81,289s20-14.26,38.45,0"/><path class="cls-40" d="M1199,326s10.77,109.21,146.13,0"/><ellipse cx="1361.32" cy="319.86" rx="6.15" ry="6.92"/><ellipse cx="1174.43" cy="317.55" rx="6.15" ry="6.92"/><path class="cls-41" d="M1535.91,112.2l12.3-12.31s3.08-24.61-26.15,10.77,32.31,13.84,32.31,13.84l6.15,47.69c16.92,110.75-167.67,170.74-167.67,170.74s3.08,20,13.85,15.38c160-68.56,166.13-101.52,172.28-110.75,10.27-15.41-10.77-124.6-10.77-124.6,23.07-32.3-6.15-38.45-6.15-38.45-3.08-43.07-13.85-43.07-20-33.84s9.23,41.53,9.23,41.53-9.23-23.07-23.07-26.15,4.61,20,4.61,20-1.54-10.77-16.92-10.77,10.77,16.92,10.77,16.92-46.15-18.46-41.53-6.15,41.9,18.8,41.9,18.8"/><path class="cls-41" d="M1088.2,106.5c-7.87,37.47-14,74.39-9.41,111.31,4.62,33.84,15.38,64.6,31.54,94.6l-4.62,13.84c-3.08,1.54-44.61-52.3-49.22-63.07s16.37-156.86,16.37-156.86c-3.3-10-14.06-20.8-6.37-33.11,3.07-3.07,7.69-7.69,12.3-6.15,3.08-12.31,0-26.15,7.69-36.92,3.08-3.07,7.69-4.61,10.77,0s3.08,9.23,3,14.27c-1.68,10.21-5.76,20.24-10.14,29.57a72.85,72.85,0,0,1,5.56-10.7c1.92-3.06,19.93-23.83,22.65-13.43,1.37,5.25-6.75,14.18-9.75,18,.52-2.62,3-3.8,0,0,2.55-10,13.32-10,21-10,0,0,17.41,7.78-17.06,26.58,0,0,36.29-27.35,44-22.73s9.23,18.45-13.84,24.61-26.16,2.41-26.16,2.41"/><path d="M1284.89,266s-8.46,5.75-7.22-5.16l12.94-26.44L1305,208.25l15.47-28.17s42-76.45,41.1-79.61-56.83-67.14-56.83-67.14,2.73-6.89,9.31-6.33,59.62,64,60.2,64.84,5.8,4.87-4.48,20.68S1284.89,266,1284.89,266Z"/><path class="cls-42" d="M1228.67,97.15a84.66,84.66,0,1,0-90.6,143l45.3-71.52L1266,150.13A84.4,84.4,0,0,0,1228.67,97.15Z"/><path class="cls-34" d="M1185.34,233.83a2.65,2.65,0,1,1,2.28-3A2.66,2.66,0,0,1,1185.34,233.83Z"/><path class="cls-34" d="M1254.89,214a84.67,84.67,0,0,1-116.82,26.21l5.66-8.94a74.07,74.07,0,0,0,111.92-78.8l10.34-2.31A84.44,84.44,0,0,1,1254.89,214Z"/><path class="cls-17" d="M1255.65,152.44l-72.28,16.22-39.64,62.58a74.07,74.07,0,1,1,111.92-78.8Z"/><path class="cls-17" d="M1255.65,152.44l-72.28,16.22-39.64,62.58a74.07,74.07,0,1,1,111.92-78.8Z"/><line class="cls-43" x1="1183.37" y1="168.66" x2="1223.01" y2="106.09"/><line class="cls-43" x1="1183.37" y1="168.66" x2="1120.79" y2="129.02"/><line class="cls-43" x1="1183.37" y1="168.66" x2="1111.09" y2="184.88"/><line class="cls-43" x1="1183.37" y1="168.66" x2="1167.15" y2="96.38"/><circle class="cls-44" cx="1157.08" cy="111.3" r="2.65"/><circle class="cls-44" cx="1146.12" cy="113.75" r="2.65"/><circle class="cls-44" cx="1133.16" cy="124.33" r="2.65"/><circle class="cls-44" cx="1147.17" cy="126.94" r="2.65"/><circle class="cls-44" cx="1159.53" cy="122.25" r="2.65"/><circle class="cls-44" cx="1159.16" cy="137.67" r="2.65"/><circle class="cls-44" cx="1168.92" cy="146.98" r="2.65"/><circle class="cls-44" cx="1149.62" cy="137.89" r="2.65"/><circle class="cls-44" cx="1122.92" cy="146.56" r="2.65"/><circle class="cls-44" cx="1117.91" cy="156.61" r="2.65"/><circle class="cls-44" cx="1117.93" cy="173.34" r="2.65"/><circle class="cls-44" cx="1128.8" cy="164.13" r="2.65"/><circle class="cls-44" cx="1132.97" cy="151.57" r="2.65"/><circle class="cls-44" cx="1144.69" cy="161.6" r="2.65"/><circle class="cls-44" cx="1158.07" cy="159.91" r="2.65"/><circle class="cls-44" cx="1138.84" cy="169.14" r="2.65"/><circle class="cls-44" cx="1125.25" cy="190.14" r="2.65"/><circle class="cls-44" cx="1126.87" cy="201.24" r="2.65"/><circle class="cls-44" cx="1136.43" cy="214.98" r="2.65"/><circle class="cls-44" cx="1140.1" cy="201.21" r="2.65"/><circle class="cls-44" cx="1136.36" cy="188.52" r="2.65"/><circle class="cls-44" cx="1151.71" cy="190.06" r="2.65"/><circle class="cls-44" cx="1161.74" cy="181.04" r="2.65"/><circle class="cls-44" cx="1151.21" cy="199.59" r="2.65"/><circle class="cls-44" cx="1208.01" cy="113.6" r="2.65"/><circle class="cls-44" cx="1198.88" cy="107.07" r="2.65"/><circle class="cls-44" cx="1182.36" cy="104.45" r="2.65"/><circle class="cls-44" cx="1189.74" cy="116.63" r="2.65"/><circle class="cls-44" cx="1201.48" cy="122.73" r="2.65"/><circle class="cls-44" cx="1189.73" cy="132.72" r="2.65"/><circle class="cls-44" cx="1189.29" cy="146.2" r="2.65"/><circle class="cls-44" cx="1183.21" cy="125.76" r="2.65"/><circle class="cls-44" cx="1239.24" cy="145.9" r="2.65"/><circle class="cls-44" cx="1237.71" cy="134.78" r="2.65"/><circle class="cls-44" cx="1228.26" cy="120.97" r="2.65"/><circle class="cls-44" cx="1224.48" cy="134.71" r="2.65"/><circle class="cls-44" cx="1228.12" cy="147.43" r="2.65"/><circle class="cls-44" cx="1212.78" cy="145.76" r="2.65"/><circle class="cls-44" cx="1202.68" cy="154.7" r="2.65"/><circle class="cls-44" cx="1213.36" cy="136.24" r="2.65"/><line class="cls-34" x1="1267.34" y1="149.82" x2="1265.98" y2="150.13"/><line class="cls-34" x1="1255.65" y1="152.44" x2="1252.73" y2="153.1"/><line class="cls-34" x1="1260.07" y1="213.15" x2="1126.5" y2="127.39"/><circle class="cls-45" cx="1409.57" cy="257.29" r="2.65"/><circle class="cls-45" cx="1393.7" cy="244.07" r="3.97"/><circle class="cls-45" cx="1408.25" cy="229.51" r="2.65"/><circle class="cls-45" cx="1381.79" cy="232.16" r="2.65"/><circle class="cls-45" cx="1402.96" cy="300.95" r="5.29"/><circle class="cls-45" cx="1379.15" cy="295.65" r="2.65"/><circle class="cls-45" cx="1421.48" cy="324.76" r="2.65"/><circle class="cls-45" cx="1397.67" cy="377.67" r="2.65"/><circle class="cls-45" cx="1375.18" cy="360.47" r="3.97"/><circle class="cls-45" cx="1376.5" cy="388.25" r="2.65"/><circle class="cls-45" cx="1404.28" cy="405.45" r="3.97"/><circle class="cls-45" cx="1406.93" cy="270.52" r="2.65"/><circle class="cls-45" cx="1331.52" cy="245.39" r="2.65"/><circle class="cls-45" cx="1307.71" cy="250.68" r="2.65"/><circle class="cls-45" cx="1331.52" cy="263.91" r="5.29"/><circle class="cls-45" cx="1275.97" cy="242.74" r="2.65"/><circle class="cls-45" cx="1275.97" cy="274.49" r="2.65"/><ellipse class="cls-17" cx="281.48" cy="543.95" rx="132.73" ry="111.34" transform="translate(-191.28 154.58) rotate(-23.16)"/><path class="cls-17" d="M890.49,441.74c-41.56,178-178,311.81-342.68,338.8C359.9,811.35,129.73,704,98.36,516.32c-31.44-188.1,152.48-363.55,339-396.13,158.45-27.68,325.1,46.68,426.49,190.52,26.8,6,48.2,25.86,55.37,51.65C927.3,391.51,915.89,423.38,890.49,441.74Z"/><path class="cls-3" d="M138.23,588.12s46.32,8.83,18.16,54.45c0,0-53.63,10.38-67.7,9.95S60,636.05,71.87,626.26,138.23,588.12,138.23,588.12Z"/><circle class="cls-46" cx="518" cy="183.5" r="15.5"/><circle class="cls-46" cx="598" cy="261.5" r="15.5"/><circle class="cls-46" cx="709" cy="209.5" r="15.5"/><circle class="cls-46" cx="848" cy="385.5" r="15.5"/><circle class="cls-46" cx="794" cy="486.5" r="15.5"/><circle class="cls-46" cx="724" cy="594.5" r="15.5"/><circle class="cls-46" cx="602" cy="620.5" r="15.5"/><circle class="cls-46" cx="457" cy="590.5" r="15.5"/><circle class="cls-46" cx="534" cy="660.5" r="15.5"/><circle class="cls-46" cx="441" cy="290.5" r="15.5"/><circle class="cls-46" cx="351" cy="249.5" r="15.5"/><circle class="cls-46" cx="294" cy="290.5" r="15.5"/><circle class="cls-46" cx="474" cy="524.5" r="15.5"/><circle class="cls-46" cx="503" cy="416.5" r="15.5"/><circle class="cls-46" cx="246" cy="455.5" r="15.5"/><circle class="cls-46" cx="351" cy="594.5" r="15.5"/><path class="cls-47" d="M125.15,559.28c5.92,31.37-17.19,55-17.19,55s-55.26-58.67-48.4-89.84"/><path class="cls-48" d="M59.18,528.83S15,520,17.22,492.22,49,434.88,41.78,426.39s38.14,32.78,42.84,47.51S102.55,506.61,59.18,528.83Z"/><path class="cls-48" d="M123.69,562.88s-29.53-18-20.66-37.42,37.95-33,35-41,18.9,33.66,18.43,45.52S160.8,558.24,123.69,562.88Z"/><circle class="cls-46" cx="191" cy="570.5" r="15.5"/><circle class="cls-46" cx="294" cy="547.5" r="15.5"/><circle class="cls-46" cx="425" cy="743.5" r="15.5"/><circle class="cls-46" cx="634" cy="691.5" r="15.5"/><circle class="cls-46" cx="403" cy="183.5" r="15.5"/><circle class="cls-46" cx="212" cy="300.5" r="15.5"/><circle class="cls-46" cx="742" cy="417.5" r="15.5"/><circle class="cls-46" cx="356" cy="673.5" r="15.5"/><path d="M157.14,392.17,172,389.92l5.47,36.28,23.21-3.51,1.79,11.85-38.08,5.75Z"/><path d="M202,385.41l39.85-6,1.55,10.28-24.95,3.76,1.16,7.65,23.14-3.49,1.48,9.81L221,410.89l1.43,9.49,25.67-3.87,1.65,10.9-40.58,6.12Z"/><path d="M245.8,378.79l15.55-2.35,16.06,33,5.46-36.24,15.1-2.28-10.61,50.82-16.12,2.43Z"/><path d="M302.81,370.19l39.85-6,1.55,10.27-24.95,3.76,1.15,7.65,23.15-3.49,1.48,9.82-23.14,3.49,1.43,9.49L349,401.29l1.64,10.9-40.57,6.12Z"/><path d="M351.4,362.86l14.87-2.25,5.47,36.28,23.21-3.5,1.79,11.85L358.66,411Z"/><path d="M455,376.31l13.63,2a24.22,24.22,0,0,1-2.76,9.78,18.13,18.13,0,0,1-6.17,6.61,26.47,26.47,0,0,1-10.37,3.48q-7.85,1.19-13.16-.35a20.46,20.46,0,0,1-9.79-6.73q-4.49-5.19-5.83-14.15-1.8-11.94,3.58-19.31t17-9.13q9.09-1.37,14.85,1.52t9.43,10.13L452.71,365a11.5,11.5,0,0,0-1.93-3,8.61,8.61,0,0,0-3.45-2.16A9.5,9.5,0,0,0,436,364.79q-1.57,3.33-.6,9.79,1.2,8,4.08,10.6a8.41,8.41,0,0,0,7.28,1.93q4.26-.64,6.08-3.37A14.8,14.8,0,0,0,455,376.31Z"/><path d="M472.74,369.2q-1.78-11.79,3.79-19.34t17.3-9.33q12-1.81,19.48,3.66t9.23,17.09q1.28,8.43-.75,14.26a20.56,20.56,0,0,1-6.94,9.65q-4.92,3.81-12.92,5t-13.87-.56a20.46,20.46,0,0,1-9.89-6.9Q474,377.64,472.74,369.2ZM487.62,367q1.1,7.29,4.28,10.06a10.38,10.38,0,0,0,14.8-2.16q2.16-3.53.94-11.59-1-6.79-4.24-9.52a9.46,9.46,0,0,0-7.91-2,9.12,9.12,0,0,0-6.74,4.27Q486.5,359.67,487.62,367Z"/><path d="M526.8,336.4l19.56-2.95,11.95,28.14,3.07-30.41,19.55-2.95,7.26,48.12L576,378.19l-5.54-36.7-3.84,38.12-11,1.66L540.7,346l5.54,36.7-12.18,1.84Z"/><path d="M590.35,326.81l24.72-3.73q8.07-1.21,12.67,2t5.67,10.32q1.11,7.29-2.66,12.05T618,353.59l-8.14,1.23,2.69,17.86-14.93,2.25Zm18,18.26,3.64-.55q4.31-.64,5.82-2.4A4.88,4.88,0,0,0,619,338a5.39,5.39,0,0,0-2.09-3.61c-1.16-.9-3.14-1.14-5.92-.72l-4.23.64Z"/><path d="M639,319.47l14.87-2.24,5.48,36.27,23.21-3.5,1.78,11.85-38.08,5.75Z"/><path d="M683.79,312.71l39.85-6L725.19,317l-25,3.77,1.16,7.65,23.14-3.5,1.48,9.82-23.14,3.49,1.43,9.49L730,343.82l1.64,10.89-40.57,6.13Z"/><path d="M729,305.89l45.2-6.82L776,311l-15.16,2.28,5.47,36.25-14.87,2.24L746,315.49l-15.17,2.29Z"/><path d="M780.89,298.06l39.85-6,1.55,10.28-24.95,3.76,1.16,7.65,23.14-3.49,1.48,9.81L800,323.55l1.43,9.49,25.67-3.87,1.64,10.9-40.57,6.12Z"/><path class="cls-49" d="M147.54,385.36l15.29-2.3,5.63,37.31,23.88-3.6L194.18,429,155,434.87Z"/><path class="cls-49" d="M193.65,378.41l41-6.19,1.6,10.57-25.67,3.87,1.19,7.87,23.8-3.59L237.1,401l-23.81,3.59,1.47,9.76,26.41-4,1.69,11.22-41.74,6.29Z"/><path class="cls-49" d="M238.75,371.6l16-2.41,16.51,33.95,5.63-37.29,15.53-2.34L281.5,415.79l-16.58,2.5Z"/><path class="cls-49" d="M297.38,362.76l41-6.19,1.6,10.57L314.31,371l1.19,7.87,23.81-3.59,1.52,10.1L317,389l1.47,9.76,26.41-4L346.59,406l-41.74,6.29Z"/><path class="cls-49" d="M347.36,355.22l15.3-2.31,5.63,37.31,23.88-3.6L394,398.81l-39.17,5.91Z"/><path class="cls-49" d="M454,369.05l14,2a24.87,24.87,0,0,1-2.83,10.06,18.65,18.65,0,0,1-6.35,6.79,27.23,27.23,0,0,1-10.67,3.58q-8.07,1.23-13.54-.35a21.21,21.21,0,0,1-10.08-6.92q-4.61-5.36-6-14.56-1.86-12.29,3.69-19.87t17.49-9.39Q449.05,339,455,342t9.7,10.41l-13.05,5.05a11.51,11.51,0,0,0-2-3.09,9,9,0,0,0-3.54-2.23,9.8,9.8,0,0,0-11.64,5.07q-1.62,3.42-.62,10.06,1.23,8.24,4.2,10.91a8.62,8.62,0,0,0,7.48,2q4.39-.66,6.27-3.46A15.48,15.48,0,0,0,454,369.05Z"/><path class="cls-49" d="M472.18,361.74q-1.83-12.14,3.91-19.9t17.79-9.59q12.36-1.87,20,3.76t9.49,17.58q1.3,8.69-.77,14.68a21.09,21.09,0,0,1-7.14,9.92q-5.06,3.92-13.3,5.16c-5.58.85-10.34.65-14.26-.57a21.21,21.21,0,0,1-10.18-7.1Q473.5,370.42,472.18,361.74Zm15.31-2.24c.75,5,2.22,8.45,4.41,10.35a10.67,10.67,0,0,0,15.23-2.23c1.47-2.41,1.8-6.38,1-11.92q-1.05-7-4.36-9.79a9.74,9.74,0,0,0-8.14-2.07,9.39,9.39,0,0,0-6.93,4.39Q486.35,351.93,487.49,359.5Z"/><path class="cls-49" d="M527.83,328,548,325l12.31,29,3.16-31.29,20.1-3L591,369.1,578.46,371l-5.69-37.76-4,39.21-11.34,1.71-15.33-36.3,5.69,37.76L535.3,377.5Z"/><path class="cls-49" d="M593.19,318.13l25.43-3.84q8.31-1.25,13,2.08T637.5,327q1.13,7.5-2.74,12.4t-13.13,6.29L613.26,347,616,365.32l-15.37,2.32Zm18.55,18.79,3.75-.57c3-.44,5-1.27,6-2.47a5,5,0,0,0,1.2-4.21,5.52,5.52,0,0,0-2.15-3.71c-1.2-.93-3.23-1.17-6.09-.74l-4.35.66Z"/><path class="cls-49" d="M643.22,310.58l15.29-2.31,5.63,37.32L688,342l1.84,12.19-39.17,5.91Z"/><path class="cls-49" d="M689.33,303.62l41-6.18,1.6,10.57-25.67,3.87,1.19,7.87,23.81-3.59,1.52,10.1L709,329.85l1.47,9.76,26.41-4,1.69,11.21-41.74,6.3Z"/><path class="cls-49" d="M735.82,296.61l46.5-7,1.84,12.22-15.6,2.35,5.63,37.29-15.3,2.31-5.63-37.29-15.6,2.36Z"/><path class="cls-49" d="M789.21,288.56l41-6.19,1.59,10.57-25.66,3.87,1.19,7.87,23.8-3.59,1.53,10.1-23.81,3.59,1.47,9.76,26.41-4,1.69,11.22-41.74,6.29Z"/><path class="cls-50" d="M225.84,510.86l11,1.55a19.59,19.59,0,0,1-2.2,7.92,14.63,14.63,0,0,1-5,5.37,21.4,21.4,0,0,1-8.38,2.85,25.3,25.3,0,0,1-10.65-.23,16.59,16.59,0,0,1-8-5.41q-3.63-4.18-4.76-11.42-1.5-9.66,2.82-15.64t13.73-7.44q7.35-1.14,12,1.17t7.67,8.16l-10.25,4a9.15,9.15,0,0,0-1.58-2.42,7.06,7.06,0,0,0-2.79-1.74,7.2,7.2,0,0,0-3.38-.23,7.12,7.12,0,0,0-5.75,4.26c-.85,1.8-1,4.43-.46,7.91.67,4.31,1.79,7.17,3.35,8.56a7.82,7.82,0,0,0,10.8-1.2A12.14,12.14,0,0,0,225.84,510.86Z"/><path class="cls-50" d="M240.48,510.54a14.24,14.24,0,0,1,2.7-11.3c2.46-3.24,6.17-5.24,11.1-6q8.47-1.32,13.56,2.92a15.52,15.52,0,0,1,2.33,20.52q-3.66,4.83-11.28,6-6.79,1.05-11.52-1.74A14,14,0,0,1,240.48,510.54Zm10.82-1.71q.58,3.77,2.39,5.34a5.08,5.08,0,0,0,7.68-1.17q1.22-2,.61-5.94-.57-3.66-2.36-5.22a4.8,4.8,0,0,0-4-1.21,5,5,0,0,0-3.62,2.43C251.14,504.43,250.92,506.35,251.3,508.83Z"/><path class="cls-50" d="M275.84,490.53,285.9,489l.72,4.59a15.33,15.33,0,0,1,3.93-4.73,12.33,12.33,0,0,1,5.44-2.08,9.35,9.35,0,0,1,7.44,1.58c2,1.51,3.23,4.13,3.81,7.84L310,514.07l-10.86,1.69-2.41-15.49a5.72,5.72,0,0,0-1.56-3.61,3.57,3.57,0,0,0-2.93-.67,4,4,0,0,0-3,2q-1,1.68-.39,5.53L291,517l-10.8,1.68Z"/><path class="cls-50" d="M331.71,481.84l10.11-1.57L346,506.88l.22,1.24a11.91,11.91,0,0,1-.34,5.24,10.84,10.84,0,0,1-2.39,4.35A12,12,0,0,1,339,520.6a30.13,30.13,0,0,1-6.49,1.69q-8.49,1.32-12.06-.74a8.37,8.37,0,0,1-4.23-6.32c-.06-.36-.11-.84-.17-1.44l10.67-.44a3.43,3.43,0,0,0,1.53,1.83,5.24,5.24,0,0,0,3.13.35,4.58,4.58,0,0,0,3.29-1.79q1-1.43.48-4.53l-.66-4.27a10.62,10.62,0,0,1-7.94,5.39,10.8,10.8,0,0,1-9.9-3.51q-3-3.12-3.91-8.88-1-6.58,1.63-10.53a10.9,10.9,0,0,1,7.79-4.74,11.85,11.85,0,0,1,5.6.27,12,12,0,0,1,4.57,3.06Zm-8,15.25a6.8,6.8,0,0,0,2,4.32,4.67,4.67,0,0,0,6.8-1.11,6.83,6.83,0,0,0,.65-4.82A7.05,7.05,0,0,0,331,491a4.52,4.52,0,0,0-3.76-1.08,4.09,4.09,0,0,0-3.07,2C323.47,493.05,323.31,494.77,323.67,497.09Z"/><path class="cls-50" d="M349.45,479.08l10.11-1.57.72,4.61a11,11,0,0,1,2.37-4.59,6.41,6.41,0,0,1,3.66-1.72,11.47,11.47,0,0,1,5.46.67l-2.15,8.21a8.54,8.54,0,0,0-3.15-.32,3.79,3.79,0,0,0-3,2.26c-.86,1.82-.93,5-.23,9.5l1.47,9.44-10.86,1.69Z"/><path class="cls-50" d="M385.67,482.8l-10.49.51a11.84,11.84,0,0,1,1-4.52,9.3,9.3,0,0,1,2.75-3.18,13.26,13.26,0,0,1,3.89-1.91,33.07,33.07,0,0,1,5.56-1.33,45.21,45.21,0,0,1,7.88-.67,10.11,10.11,0,0,1,5.26,1.51,8,8,0,0,1,2.71,3,12.41,12.41,0,0,1,1.44,4.06l1.94,12.44a14.32,14.32,0,0,0,.74,3.08,13.69,13.69,0,0,0,1.55,2.71l-10.14,1.58a11.76,11.76,0,0,1-1.06-1.54,12.9,12.9,0,0,1-.65-1.73,14,14,0,0,1-3.76,3.57,17.82,17.82,0,0,1-6.48,2.21c-3.36.52-6,.14-8-1.15a7.53,7.53,0,0,1-3.51-5.35,7.64,7.64,0,0,1,1.06-5.57q1.56-2.37,6.48-4.16,5.88-2.17,7.61-2.94a38.35,38.35,0,0,0,3.62-1.88,3.81,3.81,0,0,0-1.25-2.66,4.19,4.19,0,0,0-3-.35A7.67,7.67,0,0,0,387,480,4.69,4.69,0,0,0,385.67,482.8ZM395.92,487q-2.1,1.14-4.43,2.13-3.15,1.38-3.89,2.37a2.77,2.77,0,0,0-.6,2.13,2.72,2.72,0,0,0,1.22,1.94A3.78,3.78,0,0,0,391,496a6.92,6.92,0,0,0,3.22-1.4,5.46,5.46,0,0,0,1.87-2.48,7.27,7.27,0,0,0,.14-3.38Z"/><path class="cls-50" d="M421.07,457l1.67,10.72,5.94-.92,1.23,7.9-5.94.93,1.55,10a5.46,5.46,0,0,0,.72,2.33,2,2,0,0,0,2,.61,11.81,11.81,0,0,0,3.24-1.2l2,7.33a35.49,35.49,0,0,1-7.35,2,13.32,13.32,0,0,1-6.11-.11,6.37,6.37,0,0,1-3.31-2.7,18.68,18.68,0,0,1-2-6.69l-1.54-9.91-4,.62L407.93,470l4-.61-.8-5.18Z"/><path class="cls-50" d="M467.92,489.52l-10.08,1.56-.71-4.56a15.05,15.05,0,0,1-3.93,4.72,12.3,12.3,0,0,1-5.45,2.07,9.34,9.34,0,0,1-7.41-1.58c-2-1.52-3.23-4.12-3.81-7.82L433.74,466l10.85-1.69,2.41,15.5a5.77,5.77,0,0,0,1.57,3.61,3.52,3.52,0,0,0,2.94.69,4,4,0,0,0,2.94-2c.66-1.12.8-3,.4-5.53L452.74,463l10.8-1.68Z"/><path class="cls-50" d="M468.79,449.54l10.83-1.69,6.05,38.91-10.83,1.68Z"/><path class="cls-50" d="M499.46,465.1l-10.5.52a11.65,11.65,0,0,1,1-4.53,9.3,9.3,0,0,1,2.75-3.18,13.14,13.14,0,0,1,3.89-1.91,34,34,0,0,1,5.55-1.33,46.4,46.4,0,0,1,7.89-.67,10.14,10.14,0,0,1,5.26,1.51,7.87,7.87,0,0,1,2.7,3,12.44,12.44,0,0,1,1.45,4.06l1.94,12.44a15,15,0,0,0,.73,3.08,14.21,14.21,0,0,0,1.55,2.71l-10.13,1.58a10.83,10.83,0,0,1-1.06-1.54,12.9,12.9,0,0,1-.65-1.73,14.18,14.18,0,0,1-3.76,3.57,17.82,17.82,0,0,1-6.48,2.21q-5.06.78-8-1.15a7.47,7.47,0,0,1-3.51-5.35,7.64,7.64,0,0,1,1.06-5.57c1-1.58,3.2-3,6.47-4.16,3.93-1.45,6.47-2.42,7.62-2.94a36.13,36.13,0,0,0,3.62-1.88,3.87,3.87,0,0,0-1.25-2.66,4.2,4.2,0,0,0-3-.34,7.58,7.58,0,0,0-3.85,1.46A4.69,4.69,0,0,0,499.46,465.1Zm10.25,4.22c-1.41.76-2.88,1.47-4.43,2.13a10.84,10.84,0,0,0-3.9,2.37,2.81,2.81,0,0,0,.62,4.08,3.84,3.84,0,0,0,2.74.4,6.73,6.73,0,0,0,3.22-1.4,5.27,5.27,0,0,0,1.87-2.48A7.25,7.25,0,0,0,510,471Z"/><path class="cls-50" d="M534.85,439.26,536.52,450l6-.92L543.7,457l-6,.92,1.55,10a5.52,5.52,0,0,0,.72,2.33,2,2,0,0,0,2,.61,12.33,12.33,0,0,0,3.23-1.21l2,7.33a35.49,35.49,0,0,1-7.35,2,13.14,13.14,0,0,1-6.1-.11,6.39,6.39,0,0,1-3.32-2.7,18.93,18.93,0,0,1-2-6.68l-1.55-9.91-4,.61-1.23-7.9,4-.62-.81-5.18Z"/><path class="cls-50" d="M546.36,437.47l10.8-1.68,1.14,7.35-10.8,1.68ZM548,448.19l10.8-1.68,4.38,28.19-10.8,1.68Z"/><path class="cls-50" d="M566.6,459.82a14.3,14.3,0,0,1,2.69-11.31c2.47-3.23,6.17-5.24,11.11-6q8.46-1.32,13.56,2.92A15.52,15.52,0,0,1,596.29,466q-3.66,4.83-11.28,6-6.79,1.05-11.52-1.74A14,14,0,0,1,566.6,459.82Zm10.82-1.71q.58,3.76,2.39,5.33a5.06,5.06,0,0,0,7.67-1.16c.82-1.34,1-3.32.62-5.94q-.57-3.66-2.36-5.22a4.78,4.78,0,0,0-4-1.21,4.93,4.93,0,0,0-3.61,2.43Q576.84,454.4,577.42,458.11Z"/><path class="cls-50" d="M602,439.8l10.06-1.56.71,4.59a15.12,15.12,0,0,1,3.94-4.73,12.12,12.12,0,0,1,5.44-2.09,9.33,9.33,0,0,1,7.43,1.58c2,1.51,3.24,4.13,3.82,7.84l2.78,17.92L625.32,465l-2.41-15.5a5.71,5.71,0,0,0-1.57-3.6,3.53,3.53,0,0,0-2.93-.68,4,4,0,0,0-2.95,2q-1,1.67-.39,5.52l2.1,13.53L606.37,468Z"/><path class="cls-50" d="M639.49,454.81l10.57-2.67a5.34,5.34,0,0,0,2.28,2.44,5.59,5.59,0,0,0,3.31.33,5.5,5.5,0,0,0,3.23-1.45,2.09,2.09,0,0,0,.66-1.87A2,2,0,0,0,658,450a22.47,22.47,0,0,0-4.82-.39,49.06,49.06,0,0,1-8.1-.6,8.33,8.33,0,0,1-4.12-2.25,7.4,7.4,0,0,1-2.21-4.3,7.5,7.5,0,0,1,.87-5.05,9.7,9.7,0,0,1,4-3.7,23.77,23.77,0,0,1,7.47-2.18,26.55,26.55,0,0,1,7.56-.39,9.82,9.82,0,0,1,4.38,1.76,12.8,12.8,0,0,1,3.34,4l-10.08,2.6a3.51,3.51,0,0,0-1.64-1.78,5.49,5.49,0,0,0-3.21-.38,4.46,4.46,0,0,0-2.56,1.07,2,2,0,0,0-.59,1.71,1.69,1.69,0,0,0,1.3,1.39,16.87,16.87,0,0,0,4.77.24,32.14,32.14,0,0,1,8.27.45,8.93,8.93,0,0,1,4.51,2.48,7.72,7.72,0,0,1,2.08,4.21,8.77,8.77,0,0,1-.74,5,10.15,10.15,0,0,1-4.07,4.4,22.61,22.61,0,0,1-8.42,2.7q-7.72,1.2-11.35-.49A10,10,0,0,1,639.49,454.81Z"/><path class="cls-50" d="M670.29,425.44l9.44-1.47,1.13,7.25.44,14.86-5.84.91-4-14.3Zm4.06,24,8.82-1.38,1.21,7.8-8.82,1.37Z"/><path class="cls-51" d="M240.27,615l-1.2-7.95,18.25-2.77,2.47,16.3a37.82,37.82,0,0,1-8.53,6.26,31.88,31.88,0,0,1-9.36,2.74q-6.81,1-11.45-.64a16,16,0,0,1-7.69-5.9,22.87,22.87,0,0,1-4-10.17,22.27,22.27,0,0,1,.93-11.27,17,17,0,0,1,6.5-8.18q3.6-2.43,10.17-3.43,6.33-1,9.65-.29a12.42,12.42,0,0,1,5.75,2.77,15.81,15.81,0,0,1,4,5.64l-11.09,3.76a6.25,6.25,0,0,0-2.88-2.95,7.55,7.55,0,0,0-4.47-.5,7.81,7.81,0,0,0-5.78,3.64q-1.89,3-1,8.89.93,6.19,3.67,8.51a8.33,8.33,0,0,0,6.91,1.67,12.32,12.32,0,0,0,3.69-1.15,20.08,20.08,0,0,0,3.83-2.58l-.55-3.6Z"/><path class="cls-51" d="M263.54,611.57a14,14,0,0,1,2.7-11.09c2.43-3.17,6.08-5.12,10.92-5.85q8.32-1.26,13.3,2.91a15.24,15.24,0,0,1,2.22,20.16q-3.62,4.72-11.1,5.86-6.68,1-11.31-1.75A13.77,13.77,0,0,1,263.54,611.57Zm10.64-1.64q.56,3.71,2.33,5.25a5,5,0,0,0,7.53-1.11q1.21-2,.63-5.83c-.37-2.4-1.13-4.11-2.3-5.13a4.66,4.66,0,0,0-3.94-1.21,4.87,4.87,0,0,0-3.56,2.37Q273.63,606.28,274.18,609.93Z"/><path class="cls-51" d="M316.22,589.35l9.91-1.51.61,4a14,14,0,0,1,3.78-4.26,12,12,0,0,1,5.1-1.86,10.2,10.2,0,0,1,5.42.37,8.86,8.86,0,0,1,3.69,3,16,16,0,0,1,4-4.38,11.94,11.94,0,0,1,4.92-1.75,9.23,9.23,0,0,1,7.36,1.59c1.93,1.51,3.18,4.15,3.75,7.9l2.64,17.39-10.64,1.61-2.39-15.77a4.49,4.49,0,0,0-1.15-2.68,3.23,3.23,0,0,0-2.87-1,3.8,3.8,0,0,0-2.81,1.81,6.85,6.85,0,0,0-.48,4.53l2.17,14.28-10.64,1.62L336.28,599a9.74,9.74,0,0,0-.59-2.45,3.4,3.4,0,0,0-1.43-1.5,3.15,3.15,0,0,0-2.06-.34,3.82,3.82,0,0,0-2.8,1.84q-1,1.56-.49,4.71l2.15,14.13L320.42,617Z"/><path class="cls-51" d="M380.58,588.76l-10.3.47a11.35,11.35,0,0,1,1-4.43,9.22,9.22,0,0,1,2.71-3.12,13.12,13.12,0,0,1,3.83-1.86,32.16,32.16,0,0,1,5.46-1.28,44,44,0,0,1,7.74-.63,9.84,9.84,0,0,1,5.16,1.5,7.79,7.79,0,0,1,2.65,3,12.35,12.35,0,0,1,1.4,4l1.85,12.23a15,15,0,0,0,.72,3,13.53,13.53,0,0,0,1.51,2.66l-10,1.51a9.91,9.91,0,0,1-1-1.51,11.87,11.87,0,0,1-.63-1.7A14.11,14.11,0,0,1,389,606.1a17.53,17.53,0,0,1-6.37,2.14c-3.3.5-5.93.12-7.87-1.15a7.4,7.4,0,0,1-3.43-5.27,7.54,7.54,0,0,1,1.07-5.47q1.55-2.31,6.37-4.06c3.86-1.4,6.35-2.35,7.49-2.85a39.32,39.32,0,0,0,3.56-1.84A3.81,3.81,0,0,0,388.6,585a4.09,4.09,0,0,0-3-.35,7.51,7.51,0,0,0-3.79,1.42A4.68,4.68,0,0,0,380.58,588.76ZM390.63,593q-2.07,1.11-4.35,2.07a10.74,10.74,0,0,0-3.84,2.31,2.72,2.72,0,0,0-.59,2.09,2.66,2.66,0,0,0,1.19,1.92,3.68,3.68,0,0,0,2.68.4,6.68,6.68,0,0,0,3.17-1.36,5.22,5.22,0,0,0,1.85-2.42,7.13,7.13,0,0,0,.15-3.32Z"/><path class="cls-51" d="M403.57,565.33l10.84-1.65,3,19.73L423.94,573,437,571l-8.47,11.2,13.24,16.39-12,1.82-7.29-10.25-3.4,4.51,1.09,7.19-10.85,1.65Z"/><path class="cls-51" d="M472.17,582.56l-21.28,3.22a7,7,0,0,0,2,3.6,5.11,5.11,0,0,0,4.29,1.19,6.15,6.15,0,0,0,2.85-1.23,7,7,0,0,0,1.59-2l10.6-.62a15.15,15.15,0,0,1-4.88,6.86q-3.12,2.33-9.45,3.28a20.16,20.16,0,0,1-8.89-.23,12.88,12.88,0,0,1-6-4.14,15,15,0,0,1-3.28-7.62,14.08,14.08,0,0,1,2.57-11.14q3.54-4.63,10.87-5.75c4-.61,7.18-.48,9.66.37a12.31,12.31,0,0,1,6,4.42,19.44,19.44,0,0,1,3.15,8.62Zm-11.57-3.45a7.15,7.15,0,0,0-2.32-4.15,5.25,5.25,0,0,0-7.47,1.82,7.37,7.37,0,0,0-.66,3.91Z"/><path class="cls-51" d="M493.51,582.92l10.38-2.59a5.25,5.25,0,0,0,2.24,2.41,5.53,5.53,0,0,0,3.25.34,5.36,5.36,0,0,0,3.17-1.42,2.06,2.06,0,0,0,.66-1.83,2,2,0,0,0-1.47-1.58,21.84,21.84,0,0,0-4.73-.41,47.76,47.76,0,0,1-7.95-.62,8.19,8.19,0,0,1-4-2.22,7.71,7.71,0,0,1-1.27-9.19,9.62,9.62,0,0,1,3.93-3.62,23.73,23.73,0,0,1,7.33-2.11,26,26,0,0,1,7.43-.35,9.68,9.68,0,0,1,4.29,1.75,12.45,12.45,0,0,1,3.27,3.9l-9.91,2.52a3.52,3.52,0,0,0-1.6-1.76,5.38,5.38,0,0,0-3.15-.37,4.29,4.29,0,0,0-2.52,1,1.92,1.92,0,0,0-.59,1.67,1.67,1.67,0,0,0,1.27,1.38,16.94,16.94,0,0,0,4.68.25,31.25,31.25,0,0,1,8.13.48,8.75,8.75,0,0,1,4.41,2.44,7.61,7.61,0,0,1,2,4.15,8.73,8.73,0,0,1-.74,4.88,9.92,9.92,0,0,1-4,4.29,22.08,22.08,0,0,1-8.28,2.63q-7.59,1.15-11.13-.52A9.83,9.83,0,0,1,493.51,582.92Z"/><path class="cls-51" d="M525.79,571.81a14,14,0,0,1,2.69-11.09c2.44-3.16,6.08-5.12,10.93-5.85q8.33-1.26,13.3,2.92a15.24,15.24,0,0,1,2.21,20.15q-3.61,4.72-11.1,5.86-6.66,1-11.3-1.75A13.77,13.77,0,0,1,525.79,571.81Zm10.63-1.64q.57,3.71,2.33,5.25a4.79,4.79,0,0,0,4,1.2,4.74,4.74,0,0,0,3.5-2.31c.81-1.32,1-3.26.63-5.83-.37-2.4-1.13-4.11-2.3-5.13a4.68,4.68,0,0,0-4-1.21,4.9,4.9,0,0,0-3.56,2.37Q535.88,566.52,536.42,570.17Z"/><path class="cls-51" d="M560.65,552.29l9.91-1.51.61,4.05a14,14,0,0,1,3.78-4.26,12,12,0,0,1,5.09-1.86,10.23,10.23,0,0,1,5.43.37,8.78,8.78,0,0,1,3.69,3,16,16,0,0,1,4-4.38,11.94,11.94,0,0,1,4.92-1.75,9.23,9.23,0,0,1,7.36,1.59q2.89,2.28,3.75,7.9l2.64,17.39-10.64,1.61-2.39-15.77a4.49,4.49,0,0,0-1.15-2.68,3.23,3.23,0,0,0-2.87-1,3.8,3.8,0,0,0-2.81,1.81,6.85,6.85,0,0,0-.48,4.53l2.17,14.28L583,577.22,580.71,562a9.62,9.62,0,0,0-.59-2.45,3.4,3.4,0,0,0-1.43-1.5,3.15,3.15,0,0,0-2.06-.34,3.81,3.81,0,0,0-2.8,1.83q-1,1.57-.49,4.72l2.15,14.13L564.85,580Z"/><path class="cls-51" d="M647.21,556l-21.27,3.22a6.9,6.9,0,0,0,2,3.6,5.08,5.08,0,0,0,4.28,1.19A6.15,6.15,0,0,0,635,562.8a7,7,0,0,0,1.58-2l10.6-.62a15.15,15.15,0,0,1-4.88,6.86q-3.11,2.32-9.45,3.29a20.3,20.3,0,0,1-8.89-.24,12.88,12.88,0,0,1-6-4.14,15,15,0,0,1-3.28-7.62,14.12,14.12,0,0,1,2.57-11.14q3.55-4.63,10.87-5.75,6-.9,9.66.37a12.27,12.27,0,0,1,6,4.42,19.32,19.32,0,0,1,3.15,8.62Zm-11.56-3.45a7.16,7.16,0,0,0-2.33-4.15,5.25,5.25,0,0,0-7.47,1.82,7.59,7.59,0,0,0-.66,3.92Z"/><path class="cls-51" d="M667.48,536.09l9.91-1.5.61,4a13.9,13.9,0,0,1,3.78-4.25,11.83,11.83,0,0,1,5.1-1.87,10.09,10.09,0,0,1,5.42.38,8.76,8.76,0,0,1,3.69,3,16,16,0,0,1,4-4.38,11.94,11.94,0,0,1,4.92-1.75,9.23,9.23,0,0,1,7.36,1.6q2.9,2.26,3.75,7.89l2.64,17.39L708,558.26l-2.39-15.77a4.49,4.49,0,0,0-1.15-2.68,3.26,3.26,0,0,0-2.87-1,3.82,3.82,0,0,0-2.81,1.81,6.85,6.85,0,0,0-.48,4.53l2.17,14.29L689.85,561l-2.31-15.25a9.51,9.51,0,0,0-.59-2.44,3.38,3.38,0,0,0-1.43-1.51,3.21,3.21,0,0,0-2.06-.34,3.85,3.85,0,0,0-2.8,1.84,7.07,7.07,0,0,0-.49,4.71l2.15,14.13-10.64,1.61Z"/><path class="cls-51" d="M721.59,542.13A14,14,0,0,1,724.28,531q3.66-4.75,10.93-5.86,8.31-1.26,13.3,2.92a15.26,15.26,0,0,1,2.21,20.16q-3.62,4.72-11.1,5.85-6.68,1-11.3-1.75A13.77,13.77,0,0,1,721.59,542.13Zm10.63-1.64c.38,2.47,1.15,4.22,2.33,5.25a5,5,0,0,0,7.54-1.12c.8-1.31,1-3.26.62-5.83a8.26,8.26,0,0,0-2.29-5.13,4.71,4.71,0,0,0-3.95-1.2,4.86,4.86,0,0,0-3.56,2.36Q731.67,536.84,732.22,540.49Z"/><path class="cls-51" d="M756.51,522.59l9.94-1.51.68,4.54a10.86,10.86,0,0,1,2.35-4.5,6.32,6.32,0,0,1,3.6-1.68,11.28,11.28,0,0,1,5.35.68l-2.13,8.06a8.48,8.48,0,0,0-3.09-.33,3.71,3.71,0,0,0-3,2.21q-1.28,2.67-.26,9.32l1.4,9.28-10.66,1.62Z"/><path class="cls-51" d="M814.19,530.7l-21.27,3.23a6.91,6.91,0,0,0,2,3.59,5.08,5.08,0,0,0,4.29,1.19,6.15,6.15,0,0,0,2.85-1.23,7.22,7.22,0,0,0,1.59-2l10.6-.62a15.17,15.17,0,0,1-4.88,6.86q-3.12,2.32-9.45,3.29a20,20,0,0,1-8.89-.24,12.86,12.86,0,0,1-6-4.13,15.11,15.11,0,0,1-3.27-7.63,14.12,14.12,0,0,1,2.56-11.14q3.56-4.64,10.88-5.75,5.94-.9,9.65.37a12.33,12.33,0,0,1,6,4.42A19.21,19.21,0,0,1,814,529.5Zm-11.56-3.45a7.24,7.24,0,0,0-2.32-4.15,5.26,5.26,0,0,0-7.47,1.82,7.41,7.41,0,0,0-.66,3.92Z"/><path class="cls-49" d="M235.27,611l-1.2-7.95,18.25-2.77,2.47,16.3a37.82,37.82,0,0,1-8.53,6.26,31.88,31.88,0,0,1-9.36,2.74q-6.81,1-11.45-.64a16,16,0,0,1-7.69-5.9,22.87,22.87,0,0,1-4-10.17,22.27,22.27,0,0,1,.93-11.27,17,17,0,0,1,6.5-8.18q3.6-2.43,10.17-3.43,6.33-1,9.65-.29a12.42,12.42,0,0,1,5.75,2.77,15.81,15.81,0,0,1,4,5.64l-11.09,3.76a6.25,6.25,0,0,0-2.88-2.95,7.55,7.55,0,0,0-4.47-.5,7.81,7.81,0,0,0-5.78,3.64q-1.89,3-1,8.89.93,6.19,3.67,8.51a8.33,8.33,0,0,0,6.91,1.67,12.32,12.32,0,0,0,3.69-1.15,20.08,20.08,0,0,0,3.83-2.58l-.55-3.6Z"/><path class="cls-49" d="M258.54,607.57a14,14,0,0,1,2.7-11.09c2.43-3.17,6.08-5.12,10.92-5.85q8.32-1.26,13.3,2.91a15.24,15.24,0,0,1,2.22,20.16q-3.62,4.72-11.1,5.86-6.68,1-11.31-1.75A13.77,13.77,0,0,1,258.54,607.57Zm10.64-1.64q.56,3.71,2.33,5.25a5,5,0,0,0,7.53-1.11q1.21-2,.63-5.83c-.37-2.4-1.13-4.11-2.3-5.13a4.66,4.66,0,0,0-3.94-1.21,4.87,4.87,0,0,0-3.56,2.37Q268.63,602.28,269.18,605.93Z"/><path class="cls-49" d="M311.22,585.35l9.91-1.51.61,4a14,14,0,0,1,3.78-4.26,12,12,0,0,1,5.1-1.86,10.2,10.2,0,0,1,5.42.37,8.86,8.86,0,0,1,3.69,3,16,16,0,0,1,4-4.38,11.94,11.94,0,0,1,4.92-1.75,9.23,9.23,0,0,1,7.36,1.59c1.93,1.51,3.18,4.15,3.75,7.9l2.64,17.39-10.64,1.61-2.39-15.77a4.49,4.49,0,0,0-1.15-2.68,3.23,3.23,0,0,0-2.87-1,3.8,3.8,0,0,0-2.81,1.81,6.85,6.85,0,0,0-.48,4.53l2.17,14.28-10.64,1.62L331.28,595a9.74,9.74,0,0,0-.59-2.45,3.4,3.4,0,0,0-1.43-1.5,3.15,3.15,0,0,0-2.06-.34,3.82,3.82,0,0,0-2.8,1.84q-1,1.56-.49,4.71l2.15,14.13L315.42,613Z"/><path class="cls-49" d="M375.58,584.76l-10.3.47a11.35,11.35,0,0,1,1-4.43,9.22,9.22,0,0,1,2.71-3.12,13.12,13.12,0,0,1,3.83-1.86,32.16,32.16,0,0,1,5.46-1.28,44,44,0,0,1,7.74-.63,9.84,9.84,0,0,1,5.16,1.5,7.79,7.79,0,0,1,2.65,3,12.35,12.35,0,0,1,1.4,4l1.85,12.23a15,15,0,0,0,.72,3,13.53,13.53,0,0,0,1.51,2.66l-10,1.51a9.91,9.91,0,0,1-1-1.51,11.87,11.87,0,0,1-.63-1.7A14.11,14.11,0,0,1,384,602.1a17.53,17.53,0,0,1-6.37,2.14c-3.3.5-5.93.12-7.87-1.15a7.4,7.4,0,0,1-3.43-5.27,7.54,7.54,0,0,1,1.07-5.47q1.55-2.31,6.37-4.06c3.86-1.4,6.35-2.35,7.49-2.85a39.32,39.32,0,0,0,3.56-1.84A3.81,3.81,0,0,0,383.6,581a4.09,4.09,0,0,0-3-.35,7.51,7.51,0,0,0-3.79,1.42A4.68,4.68,0,0,0,375.58,584.76ZM385.63,589q-2.07,1.11-4.35,2.07a10.74,10.74,0,0,0-3.84,2.31,2.72,2.72,0,0,0-.59,2.09,2.66,2.66,0,0,0,1.19,1.92,3.68,3.68,0,0,0,2.68.4,6.68,6.68,0,0,0,3.17-1.36,5.22,5.22,0,0,0,1.85-2.42,7.13,7.13,0,0,0,.15-3.32Z"/><path class="cls-49" d="M398.57,561.33l10.84-1.65,3,19.73L418.94,569,432,567l-8.47,11.2,13.24,16.39-12,1.82-7.29-10.25-3.4,4.51,1.09,7.19-10.85,1.65Z"/><path class="cls-49" d="M467.17,578.56l-21.28,3.22a7,7,0,0,0,2,3.6,5.11,5.11,0,0,0,4.29,1.19,6.15,6.15,0,0,0,2.85-1.23,7,7,0,0,0,1.59-2l10.6-.62a15.15,15.15,0,0,1-4.88,6.86q-3.12,2.33-9.45,3.28a20.16,20.16,0,0,1-8.89-.23,12.88,12.88,0,0,1-6-4.14,15,15,0,0,1-3.28-7.62,14.08,14.08,0,0,1,2.57-11.14q3.54-4.63,10.87-5.75c4-.61,7.18-.48,9.66.37a12.31,12.31,0,0,1,6,4.42,19.44,19.44,0,0,1,3.15,8.62Zm-11.57-3.45a7.15,7.15,0,0,0-2.32-4.15,5.25,5.25,0,0,0-7.47,1.82,7.37,7.37,0,0,0-.66,3.91Z"/><path class="cls-49" d="M488.51,578.92l10.38-2.59a5.25,5.25,0,0,0,2.24,2.41,5.53,5.53,0,0,0,3.25.34,5.36,5.36,0,0,0,3.17-1.42,2.06,2.06,0,0,0,.66-1.83,2,2,0,0,0-1.47-1.58,21.84,21.84,0,0,0-4.73-.41,47.76,47.76,0,0,1-7.95-.62,8.19,8.19,0,0,1-4-2.22,7.71,7.71,0,0,1-1.27-9.19,9.62,9.62,0,0,1,3.93-3.62,23.73,23.73,0,0,1,7.33-2.11,26,26,0,0,1,7.43-.35,9.68,9.68,0,0,1,4.29,1.75,12.45,12.45,0,0,1,3.27,3.9l-9.91,2.52a3.52,3.52,0,0,0-1.6-1.76,5.38,5.38,0,0,0-3.15-.37,4.29,4.29,0,0,0-2.52,1,1.92,1.92,0,0,0-.59,1.67,1.67,1.67,0,0,0,1.27,1.38,16.94,16.94,0,0,0,4.68.25,31.25,31.25,0,0,1,8.13.48,8.75,8.75,0,0,1,4.41,2.44,7.61,7.61,0,0,1,2,4.15,8.73,8.73,0,0,1-.74,4.88,9.92,9.92,0,0,1-4,4.29,22.08,22.08,0,0,1-8.28,2.63q-7.59,1.15-11.13-.52A9.83,9.83,0,0,1,488.51,578.92Z"/><path class="cls-49" d="M520.79,567.81a14,14,0,0,1,2.69-11.09c2.44-3.16,6.08-5.12,10.93-5.85q8.33-1.26,13.3,2.92a15.24,15.24,0,0,1,2.21,20.15q-3.61,4.72-11.1,5.86-6.66,1-11.3-1.75A13.77,13.77,0,0,1,520.79,567.81Zm10.63-1.64q.57,3.71,2.33,5.25a4.79,4.79,0,0,0,4,1.2,4.74,4.74,0,0,0,3.5-2.31c.81-1.32,1-3.26.63-5.83-.37-2.4-1.13-4.11-2.3-5.13a4.68,4.68,0,0,0-4-1.21,4.9,4.9,0,0,0-3.56,2.37Q530.88,562.52,531.42,566.17Z"/><path class="cls-49" d="M555.65,548.29l9.91-1.51.61,4.05a14,14,0,0,1,3.78-4.26,12,12,0,0,1,5.09-1.86,10.23,10.23,0,0,1,5.43.37,8.78,8.78,0,0,1,3.69,3,16,16,0,0,1,4-4.38,11.94,11.94,0,0,1,4.92-1.75,9.23,9.23,0,0,1,7.36,1.59q2.89,2.28,3.75,7.9l2.64,17.39-10.64,1.61-2.39-15.77a4.49,4.49,0,0,0-1.15-2.68,3.23,3.23,0,0,0-2.87-1,3.8,3.8,0,0,0-2.81,1.81,6.85,6.85,0,0,0-.48,4.53l2.17,14.28L578,573.22,575.71,558a9.62,9.62,0,0,0-.59-2.45,3.4,3.4,0,0,0-1.43-1.5,3.15,3.15,0,0,0-2.06-.34,3.81,3.81,0,0,0-2.8,1.83q-1,1.57-.49,4.72l2.15,14.13L559.85,576Z"/><path class="cls-49" d="M642.21,552l-21.27,3.22a6.9,6.9,0,0,0,2,3.6,5.08,5.08,0,0,0,4.28,1.19A6.15,6.15,0,0,0,630,558.8a7,7,0,0,0,1.58-2l10.6-.62a15.15,15.15,0,0,1-4.88,6.86q-3.11,2.32-9.45,3.29a20.3,20.3,0,0,1-8.89-.24,12.88,12.88,0,0,1-6-4.14,15,15,0,0,1-3.28-7.62,14.12,14.12,0,0,1,2.57-11.14q3.55-4.63,10.87-5.75,6-.9,9.66.37a12.27,12.27,0,0,1,6,4.42,19.32,19.32,0,0,1,3.15,8.62Zm-11.56-3.45a7.16,7.16,0,0,0-2.33-4.15,5.25,5.25,0,0,0-7.47,1.82,7.59,7.59,0,0,0-.66,3.92Z"/><path class="cls-49" d="M662.48,532.09l9.91-1.5.61,4a13.9,13.9,0,0,1,3.78-4.25,11.83,11.83,0,0,1,5.1-1.87,10.09,10.09,0,0,1,5.42.38,8.76,8.76,0,0,1,3.69,3,16,16,0,0,1,4-4.38,11.94,11.94,0,0,1,4.92-1.75,9.23,9.23,0,0,1,7.36,1.6q2.9,2.26,3.75,7.89l2.64,17.39L703,554.26l-2.39-15.77a4.49,4.49,0,0,0-1.15-2.68,3.26,3.26,0,0,0-2.87-1,3.82,3.82,0,0,0-2.81,1.81,6.85,6.85,0,0,0-.48,4.53l2.17,14.29L684.85,557l-2.31-15.25a9.51,9.51,0,0,0-.59-2.44,3.38,3.38,0,0,0-1.43-1.51,3.21,3.21,0,0,0-2.06-.34,3.85,3.85,0,0,0-2.8,1.84,7.07,7.07,0,0,0-.49,4.71l2.15,14.13-10.64,1.61Z"/><path class="cls-49" d="M716.59,538.13A14,14,0,0,1,719.28,527q3.66-4.75,10.93-5.86,8.31-1.26,13.3,2.92a15.26,15.26,0,0,1,2.21,20.16q-3.62,4.72-11.1,5.85-6.68,1-11.3-1.75A13.77,13.77,0,0,1,716.59,538.13Zm10.63-1.64c.38,2.47,1.15,4.22,2.33,5.25a5,5,0,0,0,7.54-1.12c.8-1.31,1-3.26.62-5.83a8.26,8.26,0,0,0-2.29-5.13,4.71,4.71,0,0,0-3.95-1.2,4.86,4.86,0,0,0-3.56,2.36Q726.67,532.84,727.22,536.49Z"/><path class="cls-49" d="M751.51,518.59l9.94-1.51.68,4.54a10.86,10.86,0,0,1,2.35-4.5,6.32,6.32,0,0,1,3.6-1.68,11.28,11.28,0,0,1,5.35.68l-2.13,8.06a8.48,8.48,0,0,0-3.09-.33,3.71,3.71,0,0,0-3,2.21q-1.28,2.67-.26,9.32l1.4,9.28-10.66,1.62Z"/><path class="cls-49" d="M809.19,526.7l-21.27,3.23a6.91,6.91,0,0,0,2,3.59,5.08,5.08,0,0,0,4.29,1.19,6.15,6.15,0,0,0,2.85-1.23,7.22,7.22,0,0,0,1.59-2l10.6-.62a15.17,15.17,0,0,1-4.88,6.86q-3.12,2.32-9.45,3.29a20,20,0,0,1-8.89-.24,12.86,12.86,0,0,1-6-4.13,15.11,15.11,0,0,1-3.27-7.63,14.12,14.12,0,0,1,2.56-11.14q3.56-4.64,10.88-5.75,5.94-.9,9.65.37a12.33,12.33,0,0,1,6,4.42A19.21,19.21,0,0,1,809,525.5Zm-11.56-3.45a7.24,7.24,0,0,0-2.32-4.15,5.26,5.26,0,0,0-7.47,1.82,7.41,7.41,0,0,0-.66,3.92Z"/><g class="cls-26"><path class="cls-27" d="M1266.24,151.56l-10.4,2c-.08-.5-.2-1-.3-1.49l-72.42,15.6-45.91,71.13a84.66,84.66,0,0,0,129-87.25Z"/><path class="cls-28" d="M1266.24,151.56l-10.4,2c-.08-.5-.2-1-.3-1.49a74.08,74.08,0,1,0-112.6,77.84l-5.73,8.89a84.66,84.66,0,1,1,129-87.25Z"/><path class="cls-29" d="M1255.84,153.57c-.08-.5-.2-1-.3-1.49l-72.42,15.6-40.18,62.24a74.08,74.08,0,0,0,112.9-76.35Z"/><path class="cls-28" d="M1120.89,127.51a73.91,73.91,0,0,0-10.19,55.77l72.42-15.6ZM1132,147.65a2.64,2.64,0,1,1,1.63,5,2.64,2.64,0,0,1-1.63-5Zm-10-5.1a2.64,2.64,0,1,1,1.64,5,2.64,2.64,0,0,1-1.64-5Zm-3.44,15a2.64,2.64,0,1,1-1.64-5,2.64,2.64,0,0,1,3.33,1.67A2.68,2.68,0,0,1,1118.6,157.58Zm-.13,16.74a2.65,2.65,0,0,1-3.33-1.72,2.64,2.64,0,0,1,5-1.63A2.67,2.67,0,0,1,1118.47,174.32Zm10.93-9.13a2.64,2.64,0,0,1-1.63-5,2.68,2.68,0,0,1,3.35,1.69A2.66,2.66,0,0,1,1129.4,165.19Zm10,5.1a2.65,2.65,0,0,1-1.64-5,2.65,2.65,0,1,1,1.64,5Zm5.93-7.48a2.65,2.65,0,0,1-3.33-1.71,2.64,2.64,0,0,1,5-1.64A2.68,2.68,0,0,1,1145.33,162.81Zm10.05-3.27a2.65,2.65,0,0,1,1.71-3.34,2.64,2.64,0,1,1-1.71,3.34Z"/><path class="cls-28" d="M1167.52,95.26a73.92,73.92,0,0,0-46.63,32.25l62.23,40.17Zm-35.66,29.88a2.64,2.64,0,1,1,3.66-.79A2.66,2.66,0,0,1,1131.86,125.14Zm13.05-10.46a2.65,2.65,0,1,1,3.66-.79A2.66,2.66,0,0,1,1144.91,114.68Zm.93,13.19a2.64,2.64,0,1,1,3.66-.79A2.67,2.67,0,0,1,1145.84,127.87Zm10.05-15.56a2.64,2.64,0,1,1,3.65-.79A2.65,2.65,0,0,1,1155.89,112.31Zm-7.68,26.53a2.64,2.64,0,1,1,3.65-.78A2.64,2.64,0,0,1,1148.21,138.84Zm10-15.56a2.64,2.64,0,1,1,3.66-.78A2.65,2.65,0,0,1,1158.25,123.28Zm-.51,15.42a2.64,2.64,0,1,1,3.66-.78A2.64,2.64,0,0,1,1157.74,138.7Zm9.68,9.4a2.65,2.65,0,1,1,3.66-.79A2.67,2.67,0,0,1,1167.42,148.1Z"/><path class="cls-28" d="M1167.52,95.26l15.6,72.42,40.18-62.23A73.93,73.93,0,0,0,1167.52,95.26Zm40.29,15a2.65,2.65,0,1,1-2.2,3A2.64,2.64,0,0,1,1207.81,110.22Zm-6.58,9.07a2.64,2.64,0,1,1-2.2,3A2.64,2.64,0,0,1,1201.23,119.29Zm-18.17-13.21a2.66,2.66,0,1,1,2.21-3A2.66,2.66,0,0,1,1183.06,106.08Zm.69,21.32a2.64,2.64,0,1,1,2.2-3A2.63,2.63,0,0,1,1183.75,127.4Zm6.61-9.08a2.65,2.65,0,1,1,2.2-3A2.67,2.67,0,0,1,1190.36,118.32Zm9.21-9.49a2.64,2.64,0,1,1,2.2-3A2.63,2.63,0,0,1,1199.57,108.83Zm-9.36,25.58a2.65,2.65,0,0,1-3-2.2,2.64,2.64,0,1,1,3,2.2Zm-.58,13.48a2.64,2.64,0,1,1-.82-5.22,2.64,2.64,0,1,1,.82,5.22Z"/><path class="cls-29" d="M1255.84,153.57c-.08-.5-.2-1-.3-1.49l-72.42,15.6-40.18,62.24a74.08,74.08,0,0,0,112.9-76.35Z"/><path class="cls-28" d="M1110.7,183.28a74,74,0,0,0,32.24,46.64l40.18-62.24Zm52.28-5.52a2.64,2.64,0,1,1-3.7.51A2.63,2.63,0,0,1,1163,177.76Zm-10.09,9a2.64,2.64,0,1,1-3.72.49A2.64,2.64,0,0,1,1152.89,186.71Zm-29.67,4.06a2.66,2.66,0,1,1,3.7-.51A2.64,2.64,0,0,1,1123.22,190.77Zm1.52,11.11a2.65,2.65,0,1,1,3.22-4.21,2.65,2.65,0,1,1-3.22,4.21Zm9.6-12.63a2.69,2.69,0,0,1-.5-3.72,2.64,2.64,0,1,1,.5,3.72Zm3.13,9a2.64,2.64,0,1,1,.51,3.7A2.61,2.61,0,0,1,1137.47,198.26Zm-3.29,17.43a2.64,2.64,0,0,1-.5-3.72,2.66,2.66,0,0,1,4.22,3.23A2.64,2.64,0,0,1,1134.18,215.69Zm14.91-15.25a2.66,2.66,0,1,1,3.7-.51A2.63,2.63,0,0,1,1149.09,200.44Z"/><line class="cls-30" x1="1245.36" y1="207.86" x2="1183.12" y2="167.68"/><line class="cls-30" x1="1198.72" y1="240.1" x2="1183.12" y2="167.68"/><circle class="cls-28" cx="1157.32" cy="110.09" r="2.65"/><circle class="cls-31" cx="1146.35" cy="112.45" r="2.65"/><circle class="cls-31" cx="1133.29" cy="122.92" r="2.65"/><circle class="cls-28" cx="1147.28" cy="125.65" r="2.65"/><circle class="cls-28" cx="1159.68" cy="121.06" r="2.65"/><circle class="cls-28" cx="1159.18" cy="136.48" r="2.65"/><circle class="cls-28" cx="1168.86" cy="145.88" r="2.65"/><circle class="cls-28" cx="1149.64" cy="136.62" r="2.65"/><path class="cls-31" d="M1123.68,147.57a2.64,2.64,0,0,1-1.64-5,2.64,2.64,0,1,1,1.64,5Z"/><path class="cls-31" d="M1118.6,157.58a2.64,2.64,0,1,1-1.64-5,2.64,2.64,0,0,1,3.33,1.67A2.68,2.68,0,0,1,1118.6,157.58Z"/><path class="cls-28" d="M1118.47,174.32a2.65,2.65,0,0,1-3.33-1.72,2.64,2.64,0,0,1,5-1.63A2.67,2.67,0,0,1,1118.47,174.32Z"/><path class="cls-28" d="M1129.4,165.19a2.64,2.64,0,0,1-1.63-5,2.68,2.68,0,0,1,3.35,1.69A2.66,2.66,0,0,1,1129.4,165.19Z"/><path class="cls-28" d="M1133.67,152.67a2.64,2.64,0,0,1-1.63-5,2.64,2.64,0,1,1,1.63,5Z"/><path class="cls-28" d="M1145.33,162.81a2.65,2.65,0,0,1-3.33-1.71,2.64,2.64,0,0,1,5-1.64A2.68,2.68,0,0,1,1145.33,162.81Z"/><path class="cls-28" d="M1158.73,161.22a2.64,2.64,0,1,1,1.67-3.32A2.61,2.61,0,0,1,1158.73,161.22Z"/><path class="cls-28" d="M1139.4,170.29a2.65,2.65,0,0,1-1.64-5,2.65,2.65,0,1,1,1.64,5Z"/><path class="cls-32" d="M1126.92,190.26a2.64,2.64,0,1,1-.5-3.73A2.65,2.65,0,0,1,1126.92,190.26Z"/><path class="cls-28" d="M1128.46,201.39a2.66,2.66,0,1,1-.5-3.72A2.67,2.67,0,0,1,1128.46,201.39Z"/><path class="cls-28" d="M1137.9,215.2a2.66,2.66,0,0,1-4.22-3.23,2.66,2.66,0,0,1,4.22,3.23Z"/><path class="cls-28" d="M1141.67,201.45a2.64,2.64,0,1,1-.51-3.7A2.63,2.63,0,0,1,1141.67,201.45Z"/><path class="cls-28" d="M1138.05,188.72a2.64,2.64,0,1,1-.51-3.7A2.66,2.66,0,0,1,1138.05,188.72Z"/><path class="cls-28" d="M1153.4,190.41a2.66,2.66,0,0,1-3.72.49,2.64,2.64,0,1,1,3.72-.49Z"/><path class="cls-28" d="M1163.49,181.46a2.64,2.64,0,1,1-.51-3.7A2.62,2.62,0,0,1,1163.49,181.46Z"/><path class="cls-28" d="M1152.79,199.93a2.63,2.63,0,0,1-3.7.51,2.66,2.66,0,1,1,3.7-.51Z"/><circle class="cls-33" cx="1159.05" cy="219.83" r="2.65"/><circle class="cls-33" cx="1167.85" cy="226.8" r="2.65"/><circle class="cls-33" cx="1184.22" cy="230.23" r="2.65"/><circle class="cls-33" cx="1177.45" cy="217.7" r="2.65"/><circle class="cls-33" cx="1166.02" cy="211.03" r="2.65"/><circle class="cls-33" cx="1178.25" cy="201.62" r="2.65"/><circle class="cls-33" cx="1179.36" cy="188.18" r="2.65"/><circle class="cls-33" cx="1184.42" cy="208.9" r="2.65"/><circle class="cls-33" cx="1207.79" cy="225.2" r="2.65"/><circle class="cls-33" cx="1218.91" cy="223.64" r="2.65"/><circle class="cls-33" cx="1232.7" cy="214.16" r="2.65"/><circle class="cls-33" cx="1218.95" cy="210.42" r="2.65"/><circle class="cls-33" cx="1206.24" cy="214.08" r="2.65"/><circle class="cls-33" cx="1207.88" cy="198.74" r="2.65"/><circle class="cls-33" cx="1198.91" cy="188.66" r="2.65"/><circle class="cls-33" cx="1217.4" cy="199.3" r="2.65"/><path class="cls-31" d="M1208.65,115.45a2.65,2.65,0,1,1,2.2-3A2.67,2.67,0,0,1,1208.65,115.45Z"/><path class="cls-31" d="M1199.57,108.83a2.64,2.64,0,1,1,2.2-3A2.63,2.63,0,0,1,1199.57,108.83Z"/><path class="cls-28" d="M1183.06,106.08a2.66,2.66,0,1,1,2.21-3A2.66,2.66,0,0,1,1183.06,106.08Z"/><path class="cls-28" d="M1190.36,118.32a2.65,2.65,0,1,1,2.2-3A2.67,2.67,0,0,1,1190.36,118.32Z"/><path class="cls-28" d="M1202.05,124.51a2.64,2.64,0,1,1,2.2-3A2.62,2.62,0,0,1,1202.05,124.51Z"/><path class="cls-28" d="M1190.21,134.41a2.65,2.65,0,0,1-3-2.2,2.64,2.64,0,1,1,3,2.2Z"/><path class="cls-28" d="M1189.63,147.89a2.64,2.64,0,1,1-.82-5.22,2.64,2.64,0,1,1,.82,5.22Z"/><path class="cls-28" d="M1183.75,127.4a2.64,2.64,0,1,1,2.2-3A2.63,2.63,0,0,1,1183.75,127.4Z"/><circle class="cls-33" cx="1242.33" cy="191.39" r="2.65"/><circle class="cls-33" cx="1248.38" cy="181.94" r="2.65"/><circle class="cls-33" cx="1250.14" cy="165.3" r="2.65"/><circle class="cls-33" cx="1238.36" cy="173.3" r="2.65"/><circle class="cls-33" cx="1232.88" cy="185.34" r="2.65"/><circle class="cls-33" cx="1222.29" cy="174.12" r="2.65"/><circle class="cls-33" cx="1208.8" cy="174.38" r="2.65"/><circle class="cls-33" cx="1228.9" cy="167.25" r="2.65"/></g><path class="cls-52" d="M-2.59,940.88v104.6c236.18-11.61,462.85,4.29,675.12,37.69h692.79v.32h253.41v1.68h307.52V940.88Z"/><rect class="cls-3" x="-1.06" y="882.17" width="1922.52" height="60.1"/></g></g></svg>
