<svg xmlns="http://www.w3.org/2000/svg" xmlns:xlink="http://www.w3.org/1999/xlink" width="447.43" height="679.54" viewBox="0 0 447.43 679.54"><defs><style>.cls-1{isolation:isolate;}.cls-2,.cls-6{fill:#d8e5ef;}.cls-2{stroke:#d8e5ef;}.cls-10,.cls-12,.cls-17,.cls-2,.cls-5{stroke-miterlimit:10;}.cls-3{mix-blend-mode:luminosity;fill:url(#linear-gradient);}.cls-4{fill:url(#linear-gradient-2);}.cls-10,.cls-12,.cls-15,.cls-17,.cls-18,.cls-5,.cls-8{fill:none;}.cls-5{stroke:#000;stroke-width:3px;}.cls-14,.cls-7{fill:#fcee21;}.cls-16,.cls-9{fill:#ddd662;}.cls-10,.cls-17{stroke:#ff0;stroke-width:2px;}.cls-11,.cls-20{fill:#ff0;}.cls-11,.cls-13,.cls-18{opacity:0.7;}.cls-12{stroke:#fff;}.cls-14,.cls-15,.cls-16,.cls-17,.cls-19,.cls-20{opacity:0.4;}.cls-19{fill:#f7f7f7;}</style><linearGradient id="linear-gradient" x1="128.91" y1="237.45" x2="321.41" y2="237.45" gradientUnits="userSpaceOnUse"><stop offset="0.2" stop-color="#fff" stop-opacity="0.5"/><stop offset="1" stop-opacity="0.2"/></linearGradient><linearGradient id="linear-gradient-2" x1="155.06" y1="145.22" x2="300.93" y2="145.22" xlink:href="#linear-gradient"/></defs><title>levelcompletegt</title><g class="cls-1"><g id="Layer_1" data-name="Layer 1"><path class="cls-2" d="M183.14,552.47c-25.25,3.79-48,15.69-44.31,17.54s39.69,10.15,173.55-.92c0,0,4.62-7.39-13.84-12s-38.78-7.38-49.86-12.92c-6.65-3.33-8.3-11.08-11.07-20.31s-8.31-149.56,18.46-178.18,84.93-38.77,87.7-98.78S317.92,124.11,317,121.34s-115.4-17.54-177.25,0c0,0-32.31,87.7-26.77,116.32s12,60,82.16,106.17c0,0,13.85,6.46,20.31,38.77,0,0,12.92,106.17,7.39,143.1C222.84,525.7,220.07,546.93,183.14,552.47Z"/><path class="cls-3" d="M226,340.56c22.57-2.82,28.68-13.84,28.68-13.84,22.25-23.79,64.26-31.25,66.56-81.12s-21.48-102-22.25-104.34-95.9-14.58-147.31,0c0,0-26.85,72.88-22.25,96.67s10,49.87,68.29,88.23l10.48,8.47S218.1,341.55,226,340.56Z"/><path class="cls-4" d="M155.06,141.73s74.78,31.39,145.87,0C300.93,141.73,197.53,126,155.06,141.73Z"/><polyline class="cls-5" points="212.44 213.67 202.28 221.98 212.44 221.98"/><path class="cls-5" d="M230.44,204s12-12,23.08,0"/><path class="cls-5" d="M166.74,200.22s12-8.56,23.08,0"/><path class="cls-5" d="M172.28,222.44s6.46,65.55,87.7,0"/><ellipse cx="269.67" cy="218.75" rx="3.69" ry="4.15"/><ellipse cx="157.51" cy="217.37" rx="3.69" ry="4.15"/><path class="cls-6" d="M374.45,94.12l7.39-7.38S383.69,72,366.15,93.2s19.38,8.31,19.38,8.31l3.7,28.61C399.38,196.59,288.6,232.6,288.6,232.6s1.84,12,8.31,9.23c96-41.15,99.7-60.93,103.39-66.47,6.17-9.25-6.46-74.78-6.46-74.78,13.85-19.38-3.69-23.08-3.69-23.08-1.85-25.85-8.31-25.85-12-20.31s5.54,24.93,5.54,24.93-5.54-13.85-13.85-15.69,2.77,12,2.77,12S371.68,72,362.45,72s6.47,10.16,6.47,10.16S341.22,71,344,78.43s25.15,11.28,25.15,11.28"/><path class="cls-6" d="M105.76,90.7c-4.73,22.49-8.42,44.65-5.65,66.8,2.77,20.31,9.23,38.78,18.92,56.78l-2.77,8.31c-1.84.92-26.77-31.39-29.54-37.85S96.55,90.6,96.55,90.6c-2-6-8.44-12.49-3.83-19.88,1.85-1.84,4.62-4.61,7.39-3.69,1.85-7.38,0-15.69,4.61-22.16,1.85-1.84,4.62-2.77,6.47,0S113,50.41,113,53.44c-1,6.12-3.46,12.15-6.09,17.74a45,45,0,0,1,3.34-6.42c1.16-1.84,12-14.3,13.59-8.06.83,3.16-4,8.51-5.85,10.79.31-1.57,1.8-2.28,0,0,1.54-6,8-6,12.61-6,0,0,10.45,4.67-10.24,15.95,0,0,21.78-16.41,26.4-13.64s5.54,11.08-8.31,14.77S122.72,80,122.72,80"/><path d="M223.8,186.43s-5.07,3.46-4.33-3.1l7.76-15.86,8.63-15.7,9.29-16.91S270.36,89,269.81,87.08s-34.1-40.29-34.1-40.29,1.63-4.14,5.58-3.8,35.78,38.4,36.13,38.91,3.48,2.93-2.69,12.42S223.8,186.43,223.8,186.43Z"/><path class="cls-7" d="M190.06,85.09a50.81,50.81,0,0,0-54.38,85.84L162.87,128l49.59-11.13A50.66,50.66,0,0,0,190.06,85.09Z"/><path class="cls-8" d="M164.05,167.12a1.59,1.59,0,1,1,1.38-1.78A1.6,1.6,0,0,1,164.05,167.12Z"/><path class="cls-8" d="M205.8,155.2a50.82,50.82,0,0,1-70.12,15.73l3.4-5.36a44.47,44.47,0,0,0,67.18-47.29l6.2-1.4A50.69,50.69,0,0,1,205.8,155.2Z"/><path class="cls-9" d="M206.26,118.28,162.87,128l-23.79,37.56a44.46,44.46,0,1,1,67.18-47.29Z"/><path class="cls-9" d="M206.26,118.28,162.87,128l-23.79,37.56a44.46,44.46,0,1,1,67.18-47.29Z"/><line class="cls-10" x1="162.87" y1="128.01" x2="186.66" y2="90.45"/><line class="cls-10" x1="162.87" y1="128.01" x2="125.32" y2="104.22"/><line class="cls-10" x1="162.87" y1="128.01" x2="119.49" y2="137.74"/><line class="cls-10" x1="162.87" y1="128.01" x2="153.14" y2="84.63"/><circle class="cls-11" cx="147.09" cy="93.58" r="1.59"/><circle class="cls-11" cx="140.52" cy="95.05" r="1.59"/><circle class="cls-11" cx="132.74" cy="101.4" r="1.59"/><circle class="cls-11" cx="141.14" cy="102.97" r="1.59"/><circle class="cls-11" cx="148.57" cy="100.15" r="1.59"/><circle class="cls-11" cx="148.34" cy="109.41" r="1.59"/><circle class="cls-11" cx="154.2" cy="115" r="1.59"/><circle class="cls-11" cx="142.62" cy="109.54" r="1.59"/><circle class="cls-11" cx="126.59" cy="114.75" r="1.59"/><circle class="cls-11" cx="123.59" cy="120.77" r="1.59"/><circle class="cls-11" cx="123.6" cy="130.82" r="1.59"/><circle class="cls-11" cx="130.12" cy="125.29" r="1.59"/><circle class="cls-11" cx="132.62" cy="117.75" r="1.59"/><circle class="cls-11" cx="139.66" cy="123.77" r="1.59"/><circle class="cls-11" cx="147.69" cy="122.76" r="1.59"/><circle class="cls-11" cx="136.15" cy="128.29" r="1.59"/><circle class="cls-11" cx="127.99" cy="140.9" r="1.59"/><circle class="cls-11" cx="128.96" cy="147.56" r="1.59"/><circle class="cls-11" cx="134.7" cy="155.8" r="1.59"/><circle class="cls-11" cx="136.9" cy="147.54" r="1.59"/><circle class="cls-11" cx="134.66" cy="139.93" r="1.59"/><circle class="cls-11" cx="143.87" cy="140.85" r="1.59"/><circle class="cls-11" cx="149.89" cy="135.44" r="1.59"/><circle class="cls-11" cx="143.57" cy="146.57" r="1.59"/><circle class="cls-11" cx="177.66" cy="94.96" r="1.59"/><circle class="cls-11" cx="172.18" cy="91.04" r="1.59"/><circle class="cls-11" cx="162.26" cy="89.47" r="1.59"/><circle class="cls-11" cx="166.7" cy="96.78" r="1.59"/><circle class="cls-11" cx="173.74" cy="100.44" r="1.59"/><circle class="cls-11" cx="166.69" cy="106.44" r="1.59"/><circle class="cls-11" cx="166.43" cy="114.53" r="1.59"/><circle class="cls-11" cx="162.78" cy="102.26" r="1.59"/><circle class="cls-11" cx="196.4" cy="114.35" r="1.59"/><circle class="cls-11" cx="195.49" cy="107.68" r="1.59"/><circle class="cls-11" cx="189.82" cy="99.39" r="1.59"/><circle class="cls-11" cx="187.55" cy="107.63" r="1.59"/><circle class="cls-11" cx="189.73" cy="115.27" r="1.59"/><circle class="cls-11" cx="180.52" cy="114.26" r="1.59"/><circle class="cls-11" cx="174.46" cy="119.63" r="1.59"/><circle class="cls-11" cx="180.87" cy="108.55" r="1.59"/><line class="cls-8" x1="213.27" y1="116.7" x2="212.46" y2="116.88"/><line class="cls-8" x1="206.26" y1="118.28" x2="204.5" y2="118.67"/><line class="cls-8" x1="208.91" y1="154.71" x2="128.74" y2="103.24"/><circle class="cls-12" cx="298.63" cy="181.2" r="1.59"/><circle class="cls-12" cx="289.1" cy="173.26" r="2.38"/><circle class="cls-12" cx="297.84" cy="164.53" r="1.59"/><circle class="cls-12" cx="281.96" cy="166.12" r="1.59"/><circle class="cls-12" cx="294.66" cy="207.4" r="3.18"/><circle class="cls-12" cx="280.37" cy="204.23" r="1.59"/><circle class="cls-12" cx="305.78" cy="221.69" r="1.59"/><circle class="cls-12" cx="291.49" cy="253.45" r="1.59"/><circle class="cls-12" cx="277.99" cy="243.13" r="2.38"/><circle class="cls-12" cx="278.78" cy="259.8" r="1.59"/><circle class="cls-12" cx="295.46" cy="270.12" r="2.38"/><circle class="cls-12" cx="297.04" cy="189.14" r="1.59"/><circle class="cls-12" cx="251.79" cy="174.06" r="1.59"/><circle class="cls-12" cx="237.5" cy="177.23" r="1.59"/><circle class="cls-12" cx="251.79" cy="185.17" r="3.18"/><circle class="cls-12" cx="218.45" cy="172.47" r="1.59"/><circle class="cls-12" cx="218.45" cy="191.52" r="1.59"/><g class="cls-13"><path class="cls-14" d="M214.05,116.72,207.72,118c-.05-.31-.12-.62-.18-.91l-44.07,9.49-27.94,43.28a51.52,51.52,0,0,0,78.52-53.09Z"/><path class="cls-15" d="M214.05,116.72,207.72,118c-.05-.31-.12-.62-.18-.91A45.08,45.08,0,1,0,139,164.4l-3.5,5.41a51.52,51.52,0,1,1,78.52-53.09Z"/><path class="cls-16" d="M207.72,118c-.05-.31-.12-.62-.18-.91l-44.07,9.49L139,164.4A45.07,45.07,0,0,0,207.72,118Z"/><path class="cls-15" d="M125.6,102.09A45,45,0,0,0,119.41,136l44.06-9.5Zm6.79,12.25a1.61,1.61,0,1,1,1,3.06,1.61,1.61,0,0,1-1-3.06Zm-6.08-3.1a1.61,1.61,0,1,1,1,3.06,1.61,1.61,0,0,1-1-3.06Zm-2.1,9.15a1.61,1.61,0,1,1,1-2A1.61,1.61,0,0,1,124.21,120.39Zm-.07,10.18a1.61,1.61,0,1,1,1-2A1.62,1.62,0,0,1,124.14,130.57Zm6.65-5.55a1.61,1.61,0,0,1-1-3.06,1.63,1.63,0,0,1,2,1A1.61,1.61,0,0,1,130.79,125Zm6.08,3.1a1.61,1.61,0,0,1-1-3.06,1.61,1.61,0,1,1,1,3.06Zm3.61-4.55a1.61,1.61,0,0,1-2-1,1.61,1.61,0,0,1,3.06-1A1.64,1.64,0,0,1,140.48,123.57Zm6.11-2a1.62,1.62,0,0,1,1-2,1.61,1.61,0,0,1,1,3.06A1.62,1.62,0,0,1,146.59,121.58Z"/><path class="cls-15" d="M154,82.47a45,45,0,0,0-28.38,19.62l37.87,24.44Zm-21.7,18.18a1.61,1.61,0,1,1,2.23-.48A1.62,1.62,0,0,1,132.28,100.65Zm7.94-6.37a1.61,1.61,0,0,1,1.75-2.7,1.6,1.6,0,0,1,.48,2.22A1.62,1.62,0,0,1,140.22,94.28Zm.57,8a1.61,1.61,0,1,1,2.23-.48A1.62,1.62,0,0,1,140.79,102.31Zm6.11-9.47a1.61,1.61,0,1,1,2.23-.48A1.61,1.61,0,0,1,146.9,92.84ZM142.23,109a1.61,1.61,0,1,1,2.22-.48A1.62,1.62,0,0,1,142.23,109Zm6.11-9.47a1.61,1.61,0,1,1,2.23-.48A1.62,1.62,0,0,1,148.34,99.52ZM148,108.9a1.61,1.61,0,1,1,2.23-.48A1.61,1.61,0,0,1,148,108.9Zm5.89,5.72a1.61,1.61,0,1,1,2.23-.48A1.62,1.62,0,0,1,153.92,114.62Z"/><path class="cls-15" d="M154,82.47l9.49,44.06,24.45-37.87A45,45,0,0,0,154,82.47Zm24.52,9.1a1.61,1.61,0,1,1-1.34,1.83A1.6,1.6,0,0,1,178.5,91.57Zm-4,5.52a1.6,1.6,0,1,1,.5,3.17,1.6,1.6,0,1,1-.5-3.17Zm-11.06-8a1.61,1.61,0,1,1,1.35-1.85A1.62,1.62,0,0,1,163.43,89.05Zm.42,13a1.6,1.6,0,0,1-1.83-1.34,1.6,1.6,0,1,1,3.17-.49A1.6,1.6,0,0,1,163.85,102Zm4-5.52a1.62,1.62,0,1,1,1.34-1.84A1.63,1.63,0,0,1,167.88,96.5Zm5.6-5.77a1.61,1.61,0,1,1,1.34-1.84A1.61,1.61,0,0,1,173.48,90.73Zm-5.69,15.56a1.61,1.61,0,1,1,1.34-1.84A1.61,1.61,0,0,1,167.79,106.29Zm-.35,8.2a1.61,1.61,0,0,1-.5-3.18,1.61,1.61,0,1,1,.5,3.18Z"/><path class="cls-16" d="M207.72,118c-.05-.31-.12-.62-.18-.91l-44.07,9.49L139,164.4A45.07,45.07,0,0,0,207.72,118Z"/><path class="cls-15" d="M119.41,136A44.94,44.94,0,0,0,139,164.4l24.44-37.87Zm31.81-3.36A1.61,1.61,0,1,1,149,133,1.59,1.59,0,0,1,151.22,132.67Zm-6.14,5.44a1.61,1.61,0,1,1-2.27.3A1.61,1.61,0,0,1,145.08,138.11ZM127,140.58A1.61,1.61,0,0,1,129,138a1.61,1.61,0,0,1-1.94,2.57Zm.92,6.77a1.62,1.62,0,1,1,2.26-.31A1.61,1.61,0,0,1,128,147.35Zm5.84-7.69a1.62,1.62,0,1,1,2.26-.32A1.63,1.63,0,0,1,133.79,139.66Zm1.9,5.48a1.61,1.61,0,1,1,.31,2.25A1.59,1.59,0,0,1,135.69,145.14Zm-2,10.61a1.61,1.61,0,0,1-.3-2.26,1.62,1.62,0,1,1,.3,2.26Zm9.08-9.28a1.61,1.61,0,1,1,2.25-.31A1.61,1.61,0,0,1,142.77,146.47Z"/><line class="cls-17" x1="201.34" y1="150.98" x2="163.47" y2="126.53"/><line class="cls-17" x1="172.97" y1="170.6" x2="163.47" y2="126.53"/><circle class="cls-15" cx="147.77" cy="91.49" r="1.61"/><circle class="cls-18" cx="141.1" cy="92.93" r="1.61"/><circle class="cls-18" cx="133.15" cy="99.3" r="1.61"/><circle class="cls-15" cx="141.66" cy="100.96" r="1.61"/><circle class="cls-15" cx="149.21" cy="98.17" r="1.61"/><circle class="cls-15" cx="148.9" cy="107.55" r="1.61"/><circle class="cls-15" cx="154.79" cy="113.27" r="1.61"/><circle class="cls-15" cx="143.1" cy="107.63" r="1.61"/><path class="cls-18" d="M127.3,114.3a1.61,1.61,0,0,1-1-3.06,1.61,1.61,0,1,1,1,3.06Z"/><path class="cls-18" d="M124.21,120.39a1.61,1.61,0,1,1,1-2A1.61,1.61,0,0,1,124.21,120.39Z"/><path class="cls-15" d="M124.14,130.57a1.61,1.61,0,1,1,1-2A1.62,1.62,0,0,1,124.14,130.57Z"/><path class="cls-15" d="M130.79,125a1.61,1.61,0,0,1-1-3.06,1.63,1.63,0,0,1,2,1A1.61,1.61,0,0,1,130.79,125Z"/><path class="cls-15" d="M133.39,117.4a1.61,1.61,0,0,1-1-3.06,1.61,1.61,0,1,1,1,3.06Z"/><path class="cls-15" d="M140.48,123.57a1.61,1.61,0,0,1-2-1,1.61,1.61,0,0,1,3.06-1A1.64,1.64,0,0,1,140.48,123.57Z"/><path class="cls-15" d="M148.63,122.61a1.61,1.61,0,1,1-1-3.06,1.61,1.61,0,0,1,1,3.06Z"/><path class="cls-15" d="M136.87,128.12a1.61,1.61,0,0,1-1-3.06,1.61,1.61,0,1,1,1,3.06Z"/><path class="cls-19" d="M129.28,140.27a1.61,1.61,0,0,1-2.56-1.94A1.59,1.59,0,0,1,129,138,1.62,1.62,0,0,1,129.28,140.27Z"/><path class="cls-15" d="M130.21,147a1.61,1.61,0,1,1-.3-2.26A1.62,1.62,0,0,1,130.21,147Z"/><path class="cls-15" d="M136,155.45a1.62,1.62,0,1,1-.3-2.27A1.64,1.64,0,0,1,136,155.45Z"/><path class="cls-15" d="M138.25,147.08a1.61,1.61,0,1,1-.31-2.25A1.6,1.6,0,0,1,138.25,147.08Z"/><path class="cls-15" d="M136.05,139.34a1.61,1.61,0,1,1-.31-2.26A1.63,1.63,0,0,1,136.05,139.34Z"/><path class="cls-15" d="M145.39,140.36a1.62,1.62,0,1,1-.31-2.25A1.62,1.62,0,0,1,145.39,140.36Z"/><path class="cls-15" d="M151.53,134.92a1.61,1.61,0,1,1-.31-2.25A1.59,1.59,0,0,1,151.53,134.92Z"/><path class="cls-15" d="M145,146.16a1.61,1.61,0,1,1-.3-2.26A1.61,1.61,0,0,1,145,146.16Z"/><circle class="cls-20" cx="148.83" cy="158.26" r="1.61"/><circle class="cls-20" cx="154.18" cy="162.51" r="1.61"/><circle class="cls-20" cx="164.14" cy="164.59" r="1.61"/><circle class="cls-20" cx="160.02" cy="156.97" r="1.61"/><circle class="cls-20" cx="153.07" cy="152.91" r="1.61"/><circle class="cls-20" cx="160.51" cy="147.19" r="1.61"/><circle class="cls-20" cx="161.18" cy="139.01" r="1.61"/><circle class="cls-20" cx="164.26" cy="151.61" r="1.61"/><circle class="cls-20" cx="178.49" cy="161.53" r="1.61"/><circle class="cls-20" cx="185.25" cy="160.59" r="1.61"/><circle class="cls-20" cx="193.64" cy="154.82" r="1.61"/><circle class="cls-20" cx="185.28" cy="152.54" r="1.61"/><circle class="cls-20" cx="177.54" cy="154.77" r="1.61"/><circle class="cls-20" cx="178.54" cy="145.43" r="1.61"/><circle class="cls-20" cx="173.08" cy="139.3" r="1.61"/><circle class="cls-20" cx="184.33" cy="145.77" r="1.61"/><path class="cls-18" d="M179,94.75a1.61,1.61,0,1,1,1.34-1.83A1.62,1.62,0,0,1,179,94.75Z"/><path class="cls-18" d="M173.48,90.73a1.61,1.61,0,1,1,1.34-1.84A1.61,1.61,0,0,1,173.48,90.73Z"/><path class="cls-15" d="M163.43,89.05a1.61,1.61,0,1,1,1.35-1.85A1.62,1.62,0,0,1,163.43,89.05Z"/><path class="cls-15" d="M167.88,96.5a1.62,1.62,0,1,1,1.34-1.84A1.63,1.63,0,0,1,167.88,96.5Z"/><path class="cls-15" d="M175,100.26a1.6,1.6,0,1,1-.5-3.17,1.6,1.6,0,1,1,.5,3.17Z"/><path class="cls-15" d="M167.79,106.29a1.61,1.61,0,1,1,1.34-1.84A1.61,1.61,0,0,1,167.79,106.29Z"/><path class="cls-15" d="M167.44,114.49a1.61,1.61,0,0,1-.5-3.18,1.61,1.61,0,1,1,.5,3.18Z"/><path class="cls-15" d="M163.85,102a1.6,1.6,0,0,1-1.83-1.34,1.6,1.6,0,1,1,3.17-.49A1.6,1.6,0,0,1,163.85,102Z"/><circle class="cls-20" cx="199.5" cy="140.96" r="1.61"/><circle class="cls-20" cx="203.18" cy="135.21" r="1.61"/><circle class="cls-20" cx="204.26" cy="125.08" r="1.61"/><circle class="cls-20" cx="197.08" cy="129.96" r="1.61"/><circle class="cls-20" cx="193.75" cy="137.28" r="1.61"/><circle class="cls-20" cx="187.31" cy="130.45" r="1.61"/><circle class="cls-20" cx="179.1" cy="130.61" r="1.61"/><circle class="cls-20" cx="191.33" cy="126.27" r="1.61"/></g></g></g></svg>
