<svg xmlns="http://www.w3.org/2000/svg" xmlns:xlink="http://www.w3.org/1999/xlink" width="60" height="110" viewBox="0 0 60 110"><defs><style>.cls-1{isolation:isolate;}.cls-2{fill:#d8e5ef;stroke:#d8e5ef;stroke-miterlimit:10;}.cls-3{mix-blend-mode:luminosity;fill:url(#linear-gradient);}</style><linearGradient id="linear-gradient" x1="9.52" y1="32.81" x2="50.63" y2="32.81" gradientUnits="userSpaceOnUse"><stop offset="0.2" stop-color="#fff" stop-opacity="0.5"/><stop offset="1" stop-opacity="0.2"/></linearGradient></defs><title>liv1</title><g class="cls-1"><g id="Layer_1" data-name="Layer 1"><path class="cls-2" d="M19.93,101.69c-5.65.85-10.74,3.51-9.92,3.92s8.89,2.27,38.84-.2c0,0,1-1.66-3.1-2.69s-8.68-1.65-11.16-2.89c-1.48-.75-1.85-2.48-2.47-4.55s-1.86-33.46,4.13-39.86,19-8.68,19.62-22.11-5.78-27.47-6-28.09-25.82-3.92-39.66,0c0,0-7.23,19.62-6,26S6.91,44.67,22.61,55c0,0,3.1,1.45,4.55,8.68,0,0,2.89,23.75,1.65,32C28.81,95.7,28.19,100.45,19.93,101.69Z"/><path class="cls-3" d="M30.26,54.83c4.82-.6,6.12-3,6.12-3C41.13,46.8,50.11,45.2,50.6,34.55S46,12.76,45.85,12.27s-20.48-3.11-31.46,0c0,0-5.73,15.57-4.75,20.65s2.13,10.64,14.58,18.84l2.24,1.8S28.57,55,30.26,54.83Z"/></g></g></svg>
