<svg xmlns="http://www.w3.org/2000/svg" xmlns:xlink="http://www.w3.org/1999/xlink" width="60" height="110" viewBox="0 0 60 110"><defs><style>.cls-1{isolation:isolate;}.cls-2{fill:#d8e5ef;stroke:#d8e5ef;stroke-miterlimit:10;}.cls-3{mix-blend-mode:luminosity;fill:url(#linear-gradient);}</style><linearGradient id="linear-gradient" x1="9.57" y1="32.8" x2="50.67" y2="32.8" gradientUnits="userSpaceOnUse"><stop offset="0.2" stop-color="#fff" stop-opacity="0.5"/><stop offset="1" stop-opacity="0.2"/></linearGradient></defs><title>liv3</title><g class="cls-1"><g id="Layer_1" data-name="Layer 1"><path class="cls-2" d="M20.05,101.7c-5.65.85-10.74,3.53-9.91,3.94S19,107.9,49,105.37c0,0,1-1.66-3.11-2.68s-8.68-1.64-11.16-2.88c-1.49-.74-1.86-2.47-2.48-4.54S30.31,61.81,36.29,55.4s19-8.71,19.59-22.14-5.83-27.46-6-28.08S24,1.3,10.18,5.25c0,0-7.2,19.63-5.95,26S6.94,44.71,22.66,55c0,0,3.1,1.44,4.55,8.67,0,0,2.94,23.75,1.71,32C28.92,95.69,28.31,100.44,20.05,101.7Z"/><path class="cls-3" d="M30.3,54.82c4.82-.6,6.12-3,6.12-3,4.76-5.08,13.73-6.67,14.22-17.32s-4.59-21.79-4.75-22.29-20.48-3.11-31.46,0c0,0-5.73,15.57-4.75,20.65s2.13,10.65,14.58,18.84l2.24,1.81S28.61,55,30.3,54.82Z"/></g></g></svg>
