<svg id="Layer_1" data-name="Layer 1" xmlns="http://www.w3.org/2000/svg" width="1920" height="1080" viewBox="0 0 1920 1080"><defs><style>.cls-1{fill:#724733;}.cls-2{fill:none;stroke:#895327;stroke-miterlimit:10;stroke-width:10px;}.cls-3{fill:#663f30;opacity:0.6;}.cls-4{fill:#603813;}</style></defs><title>mellemgrund</title><path class="cls-1" d="M1670.13,1082.9v-2.18H1919.5V598.5a12,12,0,0,0-12-12H11.5a12,12,0,0,0-12,12v482.22H564.23v2.18Z"/><path class="cls-2" d="M119.61,604.57q-.17,236.89.22,473.44"/><path class="cls-2" d="M245.11,605.57c-.25,159.21-.25,317.46.21,476.93"/><path class="cls-2" d="M383.61,605.57c-.11,158.93-.11,316.93.18,475.84"/><path class="cls-2" d="M530.11,603.57c-1.61,157.93.39,315.93.13,474.31"/><path class="cls-2" d="M667.61,605.57c-.11,156.93-.11,314.93.17,472.34"/><path class="cls-2" d="M800.11,603.57c-1.61,158.93.39,316.93.16,475.83"/><path class="cls-2" d="M931.11,605.57c-1.61,158.93.39,317.93.2,477.23"/><path class="cls-2" d="M1081.11,602.57c-1.61,160.93.39,320.93.19,481.64"/><path class="cls-2" d="M1205.11,605.57c-.61,33.93.39,68.93.39,102.93-3,124,0,249-.24,372.91"/><path class="cls-2" d="M1343.11,602.57c-1.61,161.93.39,322.93.19,484.44"/><path class="cls-2" d="M1495.11,607.57c-1.61,158.93.39,318.93.17,478"/><path class="cls-2" d="M1634.62,605.57q-.18,238.39.09,477.23"/><path class="cls-2" d="M1776.94,607.57q-.43,237.24.24,474.93"/><path class="cls-3" d="M-1.78,604V951.83C871.73,325.92,1770.63,873.68,1924.84,977V604Z"/><rect class="cls-4" x="-1.78" y="569" width="1926.61" height="35"/></svg>
