<svg id="Layer_1" data-name="Layer 1" xmlns="http://www.w3.org/2000/svg" width="150" height="70" viewBox="0 0 150 70"><defs><style>.cls-1{fill:#deedd9;}</style></defs><title>point</title><path class="cls-1" d="M17.29,52.67V20.85a36,36,0,0,1-5.83,1V16.61a14.39,14.39,0,0,0,8-3.93h4.83v40Z"/><path class="cls-1" d="M31.18,53.25,45.34,10.89h5.41L36.64,53.25Z"/><path class="cls-1" d="M60.07,52.67V20.85a36,36,0,0,1-5.83,1V16.61a14.42,14.42,0,0,0,8-3.93h4.83v40Z"/><path class="cls-1" d="M102.11,31.74c0,11.17-2.79,21.53-13.74,21.53C77.22,53.27,74.55,42.91,74.55,32s4-19.87,14-19.87S102.11,20.65,102.11,31.74Zm-20.35.13c0,9.58,1.47,15.92,6.63,15.92,5.44,0,6.54-6.51,6.54-15.91,0-8.63-1.54-14.25-6.46-14.25S81.76,22.91,81.76,31.87Z"/></svg>
