<svg id="Layer_1" data-name="Layer 1" xmlns="http://www.w3.org/2000/svg" xmlns:xlink="http://www.w3.org/1999/xlink" width="300" height="460" viewBox="0 0 300 460"><defs><style>.cls-1{fill:url(#linear-gradient);}.cls-2{fill:#c69c6d;}.cls-3{fill:url(#linear-gradient-2);}.cls-4{fill:none;stroke:#000;stroke-miterlimit:10;stroke-width:3px;}</style><linearGradient id="linear-gradient" x1="65.82" y1="252.08" x2="209.46" y2="252.08" gradientUnits="userSpaceOnUse"><stop offset="0"/><stop offset="0.1" stop-color="#a0372b"/><stop offset="0.41" stop-color="#a53a29"/><stop offset="0.49" stop-color="#ee6006"/><stop offset="0.77" stop-color="#a03528"/><stop offset="1"/></linearGradient><linearGradient id="linear-gradient-2" x1="64.95" y1="393.7" x2="209.95" y2="393.7" xlink:href="#linear-gradient"/></defs><title>rommedansigt</title><path class="cls-1" d="M112,107.7s-1,17,0,19-49,17-46,42,0,218,0,218,63,22,142,0v-195s9-35-17-48-31-17-31-17l0-19Z"/><rect x="107.95" y="40.7" width="54" height="71" rx="12"/><rect class="cls-2" x="80.45" y="212.7" width="115" height="107" rx="12"/><path d="M105,264.41c.27.5.45.87.57,1.11a84.37,84.37,0,0,0,4.42,7.9c.87,1.26,1.68,1.92,2.42,1.95,1.17.07,2.08-.83,2.74-2.69.43.25.64.51.64.8a5.19,5.19,0,0,1-1.65,3.07c-1.1,1.22-2,1.83-2.77,1.83q-1.62,0-4.22-3.55a50.49,50.49,0,0,1-5.15-9.3c-.72.07-1.33.1-1.84.1s-1.12,0-1.88-.1l-.14,1.29-.26,2.25a9.08,9.08,0,0,1-1.19,4,8.53,8.53,0,0,1-3.34,2.39l4.61.29L95.61,278l-8.46-.43,2.5-2.42,2.13.23q2.35-1.5,2.93-6.15l.21-1.89,1.64-14.81q-8.88,1.68-8.88,6.7a7.48,7.48,0,0,0,.84,3.58l-3.15,2.77a11.67,11.67,0,0,1-.41-3.05,10.32,10.32,0,0,1,4.51-8.65q4.52-3.36,11.62-3.36,9.66,0,9.65,6.14Q110.74,261.16,105,264.41Zm-5.27-12-1.26,11.35a18.07,18.07,0,0,0,2.87.26,15.09,15.09,0,0,0,2.64-.26q3.51-2.5,3.51-6.06Q107.48,252.43,99.72,252.42Z"/><path d="M120.08,262.44l-3.19,3.05a10.58,10.58,0,0,1-.44-3,9.88,9.88,0,0,1,3.75-8.08q3.75-3,10-3H133a35.22,35.22,0,0,0-2.87,8.12,37.87,37.87,0,0,0-1.12,8.74q0,8.08,4.93,8.08a6.11,6.11,0,0,0,5.35-3.21q2-3.21,2.64-9.41c.18-1.89.3-3.12.37-3.69l.81-7.36,3.87-2a58.73,58.73,0,0,0-1.37,8l-.7,6.25c0,.22-.1,1-.21,2.21l-.28,2.71c-.1,1-.15,1.91-.15,2.66,0,1.3.49,1.95,1.48,1.95a5.15,5.15,0,0,0,2.64-.92,1.65,1.65,0,0,0,.06.24,3.39,3.39,0,0,1,0,.37c0,.37-.36.73-1.08,1.07l-1.15.57-5.75,2.73.73-6.52q-4.19,6.52-9,6.52-6.61,0-6.61-10.07a37.88,37.88,0,0,1,3.29-14.62h-1.65q-8.11,0-8.12,5.38A7,7,0,0,0,120.08,262.44Z"/><path d="M154.26,262.44l-3.19,3.05a10.68,10.68,0,0,1-.45-3.05,10.2,10.2,0,0,1,3.66-8,13.47,13.47,0,0,1,9.19-3.2,15.38,15.38,0,0,1,1.62.08l.62,0H166c0,.38,0,.65,0,.82q0,3,2.62,9.69l.88,2.23c.12.31.31.82.57,1.54l.73,2q.58,1.61,1,3.18l1-1.68c1.12-1.86,2.13-3.55,3-5.07l1.91-3.31,1.49-2.73,1.79-3.28c.17-.3.5-.91,1-1.84l3.78-2.36a73.19,73.19,0,0,0-1.25,11.7l-.25,6.39-.06,2.4a12.36,12.36,0,0,0,.4,4,1.66,1.66,0,0,0,1.71,1,7.38,7.38,0,0,0,2.48-.39.69.69,0,0,1,.17.41c0,.43-.44.75-1.33,1l-1,.25L181,278.34c-.06-1.22-.09-2.35-.09-3.38a157.17,157.17,0,0,1,.88-17.69c-1.79,2.55-3.15,4.62-4.06,6.21l-1.17,2a56.48,56.48,0,0,0-3.88,8l-2.81,2.93A38.19,38.19,0,0,0,167,266l-.76-2c-.11-.24-.34-.81-.71-1.72a31.33,31.33,0,0,1-1.66-5.16l-1.59,9.66a25.19,25.19,0,0,1-1.45,5.93,5.84,5.84,0,0,1-2.69,2.59l4.9.36-2.48,2.3-8.33-.43,2.52-2.42,2.2.19a5.29,5.29,0,0,0,1.84-2.35,34.4,34.4,0,0,0,1.27-5.6l2.34-13.73h-.92q-8.11,0-8.12,5.38A7,7,0,0,0,154.26,262.44Z"/><rect class="cls-3" x="64.95" y="384.7" width="145" height="18" rx="9"/><path class="cls-4" d="M107.94,146.41s10.78,8.3,13.2,2.37"/><path class="cls-4" d="M168.11,146.78s-10.78,8.29-13.21,2.37"/><polyline class="cls-4" points="138.41 159.27 135.2 167.19 145.2 167.45"/><path class="cls-4" d="M117.5,193.18s21.05-13.49,40.24-1.41"/></svg>
