<svg id="Layer_1" data-name="Layer 1" xmlns="http://www.w3.org/2000/svg" width="90" height="90" viewBox="0 0 90 90"><defs><style>.cls-1{fill:#0c090a;opacity:0.7;}</style></defs><title>settings</title><path class="cls-1" d="M87.87,56.68c-1-3-10.17-5.08-10.17-5.08V39.41l10.17-5.58L82.78,22.14,72.62,26.71,64,17.05s3.55-9.14,3.55-10.16S55.86,1.82,55.86,1.82,51.28,12.48,50.27,12,39.6,12,39.6,12L34,1.82,21.82,7.4l4.57,10.17-9.15,8.64L6.06,22.64,2,34.84l10.16,5.08V51.09S2,55.67,2,56.68s5.08,11.7,5.08,11.7l11.69-3.56,7.62,8.64s-4.07,8.12-4.07,10.15,12.2,4.57,12.2,4.57L39.6,77.52l11.68,1,4.58,9.65,12.19-5.59L64,72.43s8.63-9.65,9.14-8.13S83.8,67.86,83.8,67.86,88.88,59.73,87.87,56.68ZM45.19,65.83C23.85,64.3,24.36,45,24.36,45,26.9,24.67,45.19,25.18,45.19,25.18,65,24.67,66,45.51,66,45.51,64,64.3,45.19,65.83,45.19,65.83Z"/></svg>
