<svg id="Layer_1" data-name="Layer 1" xmlns="http://www.w3.org/2000/svg" width="646.75" height="445.31" viewBox="0 0 646.75 445.31"><defs><style>.cls-1{opacity:0.1;}.cls-2{fill:#ddd662;}.cls-3,.cls-4,.cls-7{fill:#fcee21;}.cls-3{opacity:0.5;}.cls-4,.cls-5{stroke:#fcee21;}.cls-4,.cls-5,.cls-6{stroke-miterlimit:10;stroke-width:15px;}.cls-5,.cls-6{fill:none;}.cls-6{stroke:#f15a24;}.cls-8{fill:#ea35ef;}</style></defs><title>startknap</title><path class="cls-1" d="M500,253.22,76.89,46.31c-56.2,116.61-7.75,256.86,108.69,313.8S442.47,369.18,500,253.22Z"/><path class="cls-2" d="M488.17,210.5,66.85,0c-57.2,116.12-9.94,256.78,106,314.71S429.66,326,488.17,210.5Z"/><path class="cls-2" d="M446.59,211.32,91.33,33.83c-48.24,97.91-8.39,216.53,89.38,265.38S397.26,308.69,446.59,211.32Z"/><circle class="cls-3" cx="106.92" cy="144.95" r="6.09"/><circle class="cls-3" cx="131.72" cy="113.24" r="6.09"/><circle class="cls-3" cx="109.63" cy="73.04" r="6.09"/><circle class="cls-3" cx="215.51" cy="115.98" r="6.52"/><circle class="cls-3" cx="193.17" cy="120.52" r="6.52"/><circle class="cls-3" cx="186.87" cy="102.91" r="6.3"/><circle class="cls-3" cx="161.21" cy="125.94" r="6.3"/><circle class="cls-3" cx="158.02" cy="107.56" r="6.3"/><circle class="cls-3" cx="142.62" cy="92.51" r="6.3"/><circle class="cls-3" cx="121.11" cy="100.66" r="6.09"/><circle class="cls-3" cx="165.43" cy="91.34" r="6.3"/><circle class="cls-3" cx="129.32" cy="75.14" r="6.09"/><circle class="cls-3" cx="111.58" cy="127.33" r="6.3"/><circle class="cls-3" cx="105.55" cy="106.46" r="6.09"/><line class="cls-4" x1="262.31" y1="138.53" x2="183.51" y2="295.3"/><path class="cls-5" d="M444.46,210.26,93.45,34.89c-47.65,96.74-8.28,213.93,88.32,262.2S395.72,306.46,444.46,210.26Z"/><line class="cls-5" x1="277.35" y1="138.09" x2="330.71" y2="305.24"/><line class="cls-6" x1="81.69" y1="179.46" x2="248.5" y2="125.04"/><line class="cls-5" x1="81.69" y1="179.46" x2="248.5" y2="125.04"/><circle class="cls-3" cx="363.34" cy="225.45" r="6.52"/><circle class="cls-3" cx="347.98" cy="272.12" r="6.52"/><circle class="cls-3" cx="309.77" cy="165.56" r="6.52"/><circle class="cls-3" cx="328.33" cy="178.81" r="6.52"/><circle class="cls-3" cx="317.73" cy="192.07" r="6.52"/><circle class="cls-3" cx="353.26" cy="195.24" r="6.52"/><circle class="cls-3" cx="341.6" cy="210.62" r="6.52"/><circle class="cls-3" cx="341.07" cy="232.88" r="6.52"/><circle class="cls-3" cx="361.22" cy="242.95" r="6.52"/><circle class="cls-3" cx="324.1" cy="216.45" r="6.52"/><circle class="cls-3" cx="335.25" cy="255.15" r="6.52"/><circle class="cls-3" cx="389.32" cy="231.81" r="6.52"/><circle class="cls-3" cx="379.77" cy="208.48" r="6.52"/><circle class="cls-3" cx="377.13" cy="250.9" r="6.52"/><circle class="cls-3" cx="303.04" cy="286.43" r="6.52"/><circle class="cls-3" cx="267.39" cy="262.2" r="6.52"/><circle class="cls-3" cx="226.02" cy="288.68" r="6.52"/><circle class="cls-3" cx="263.68" cy="181.93" r="6.52"/><circle class="cls-3" cx="269.7" cy="203.93" r="6.52"/><circle class="cls-3" cx="253.11" cy="207.52" r="6.52"/><circle class="cls-3" cx="278.66" cy="232.41" r="6.52"/><circle class="cls-3" cx="259.9" cy="236.97" r="6.52"/><circle class="cls-3" cx="245.44" cy="253.9" r="6.52"/><circle class="cls-3" cx="254.7" cy="274.44" r="6.52"/><circle class="cls-3" cx="242.65" cy="230.45" r="6.52"/><circle class="cls-3" cx="226.86" cy="267.49" r="6.52"/><circle class="cls-3" cx="283.53" cy="283.54" r="6.52"/><circle class="cls-3" cx="290.85" cy="259.42" r="6.52"/><circle class="cls-3" cx="262.02" cy="290.64" r="6.52"/><circle class="cls-3" cx="167" cy="260.57" r="6.52"/><circle class="cls-3" cx="164.1" cy="217.56" r="6.52"/><circle class="cls-3" cx="225.02" cy="165.16" r="6.52"/><circle class="cls-3" cx="211.42" cy="183.46" r="6.52"/><circle class="cls-3" cx="198.37" cy="172.61" r="6.52"/><circle class="cls-3" cx="194.51" cy="208.06" r="6.52"/><circle class="cls-3" cx="179.36" cy="196.11" r="6.52"/><circle class="cls-3" cx="157.11" cy="195.15" r="6.52"/><circle class="cls-3" cx="146.65" cy="215.1" r="6.52"/><circle class="cls-3" cx="173.86" cy="178.5" r="6.52"/><circle class="cls-3" cx="134.95" cy="188.9" r="6.52"/><circle class="cls-3" cx="157.25" cy="243.41" r="6.52"/><circle class="cls-3" cx="180.75" cy="234.31" r="6.52"/><circle class="cls-3" cx="138.4" cy="230.86" r="6.52"/><path class="cls-7" d="M287.49,131.84l-38.13-19a21.32,21.32,0,0,0,38.13,19Z"/><path class="cls-8" d="M133.15,176.74a30.16,30.16,0,0,1-9.22,6,23.66,23.66,0,0,1-9.32,1.77,21.45,21.45,0,0,1-8.79-2.06A23.9,23.9,0,0,1,98.36,177,28.4,28.4,0,0,1,91.8,165.4a26.5,26.5,0,0,1-.63-12.4l8.47-.2a20.53,20.53,0,0,0,.23,10,19.87,19.87,0,0,0,4.53,8.38,13.9,13.9,0,0,0,10.34,4.71c4.07.07,8.12-1.73,12.14-5.43a17.4,17.4,0,0,0,4.19-5.62,18.41,18.41,0,0,0,1.54-6.2,27.33,27.33,0,0,0-.33-6.49,61,61,0,0,0-1.51-6.65,57.72,57.72,0,0,1-1.83-8,28.85,28.85,0,0,1-.13-7.92,24.17,24.17,0,0,1,2.44-7.81,27,27,0,0,1,6-7.62,29.2,29.2,0,0,1,9.5-6.09,22.91,22.91,0,0,1,9.4-1.49,21.69,21.69,0,0,1,8.55,2.29,24.48,24.48,0,0,1,7,5.35,28.23,28.23,0,0,1,6,9.73,20.17,20.17,0,0,1,.75,10.7l-8.47.2a15.31,15.31,0,0,0-.17-8.15,18.07,18.07,0,0,0-4-6.74,15.43,15.43,0,0,0-4.37-3.31,12.87,12.87,0,0,0-5.46-1.43,15.63,15.63,0,0,0-6.21,1.12,20.62,20.62,0,0,0-6.52,4.24,17.74,17.74,0,0,0-4.19,5.44,17,17,0,0,0-1.57,5.77,22.41,22.41,0,0,0,.3,6.09,61.38,61.38,0,0,0,1.44,6.18,72.87,72.87,0,0,1,1.83,8.12,34.11,34.11,0,0,1,.34,8.44,24.18,24.18,0,0,1-2.28,8.27A25.81,25.81,0,0,1,133.15,176.74Z"/><path class="cls-8" d="M203.46,156.49l-51.59,66.59-7.09-5.49L196.37,151l-14-10.82,4.77-6.17,35.15,27.23-4.78,6.16Z"/><path class="cls-8" d="M225.32,264.42l4.4-23.26L203.9,229.47,189.08,248l-8.41-3.8L239.94,170l11.25,5.1L234,268.34Zm16.93-84.37-.47-.22-33.69,43.55L231.54,234Z"/><path class="cls-8" d="M308.69,278.72,294.83,235.1l-11.8-.77-2.75,42.55-9-.57,5.94-91.85,22.06,1.42a31.34,31.34,0,0,1,8.67,1.8,20.11,20.11,0,0,1,7.26,4.57,20.49,20.49,0,0,1,4.83,7.87,28.91,28.91,0,0,1,1.28,11.55,30.45,30.45,0,0,1-2.14,10,22.83,22.83,0,0,1-4.35,6.82,18.09,18.09,0,0,1-5.61,4.06,17.12,17.12,0,0,1-5.9,1.57l15.06,45.27Zm3.82-67.17a21.77,21.77,0,0,0-.83-8.29,13.57,13.57,0,0,0-3.3-5.47,13,13,0,0,0-5-3,23.83,23.83,0,0,0-6-1.17l-11.68-.75-2.22,34.38,12.06.78q7.4.48,11.91-3.84T312.51,211.55Z"/><path class="cls-8" d="M351.31,188.15l19,82.07-8.74,2-19-82.07-17.22,4-1.76-7.59,43.32-10,1.76,7.6Z"/></svg>
