<svg id="Layer_1" data-name="Layer 1" xmlns="http://www.w3.org/2000/svg" width="1000" height="800" viewBox="0 0 1000 800"><defs><style>.cls-1{fill:#101111;}.cls-1,.cls-2{stroke:#d8e5ef;}.cls-1,.cls-2,.cls-3,.cls-4{stroke-miterlimit:10;}.cls-2{fill:#d8e5ef;}.cls-3,.cls-4{fill:none;stroke:#000;}.cls-3{stroke-width:20px;}.cls-4{stroke-width:9px;}</style></defs><title>tid</title><circle class="cls-1" cx="490.5" cy="388" r="342"/><circle class="cls-2" cx="490.5" cy="388" r="273"/><line class="cls-3" x1="490.5" y1="168" x2="491" y2="231.5"/><line class="cls-3" x1="667" y1="405.75" x2="730.5" y2="405.75"/><line class="cls-3" x1="238" y1="405.75" x2="301.5" y2="405.75"/><line class="cls-3" x1="491" y1="631.5" x2="490.5" y2="568"/><rect x="229" y="388.5" width="89" height="35" rx="12"/><rect x="446" y="182.5" width="89" height="35" rx="12" transform="translate(290.5 690.5) rotate(-90)"/><rect x="449" y="574.5" width="89" height="35" rx="12" transform="translate(-98.5 1085.5) rotate(-90)"/><rect x="654" y="388.5" width="89" height="35" rx="12" transform="translate(1397 812) rotate(180)"/><line class="cls-4" x1="362" y1="183.5" x2="388" y2="236.5"/><line class="cls-4" x1="273.94" y1="287.83" x2="330.06" y2="306.17"/><line class="cls-4" x1="695.93" y1="291.69" x2="637.79" y2="301.96"/><line class="cls-4" x1="625.82" y1="185.35" x2="592.63" y2="234.18"/><line class="cls-4" x1="616.65" y1="584.74" x2="590.5" y2="532"/><line class="cls-4" x1="695.26" y1="476.91" x2="639.25" y2="458.26"/><line class="cls-4" x1="282.63" y1="483.3" x2="339.21" y2="466.43"/><line class="cls-4" x1="361.06" y1="592.09" x2="388.43" y2="539.78"/><circle cx="491.5" cy="385" r="27"/><rect x="433" y="326.5" width="17" height="82" rx="8.5" transform="translate(-62.53 643.06) rotate(-68.44)"/><rect x="505" y="379.5" width="28" height="103" rx="12" transform="translate(-145.97 317.24) rotate(-30)"/></svg>
