<svg xmlns="http://www.w3.org/2000/svg" xmlns:xlink="http://www.w3.org/1999/xlink" width="1920" height="1080" viewBox="0 0 1920 1080"><defs><style>.cls-1{isolation:isolate;}.cls-2{fill:url(#linear-gradient);}.cls-3{opacity:0.1;}.cls-4{fill:#ddd662;}.cls-5{fill:#fcee21;opacity:0.5;}.cls-11,.cls-16,.cls-17,.cls-19,.cls-21,.cls-29,.cls-6{fill:none;}.cls-6{stroke:#663b3f;}.cls-12,.cls-16,.cls-17,.cls-19,.cls-21,.cls-29,.cls-6{stroke-miterlimit:10;}.cls-21,.cls-6{stroke-width:3px;}.cls-7{fill:#603813;}.cls-8{fill:#8cc63f;}.cls-9{opacity:0.85;}.cls-10{fill:#f0f;}.cls-12,.cls-22{fill:#d8e5ef;}.cls-12{stroke:#d8e5ef;}.cls-13{mix-blend-mode:luminosity;fill:url(#linear-gradient-2);}.cls-14{fill:url(#linear-gradient-3);}.cls-15{fill:url(#linear-gradient-4);}.cls-16{stroke:url(#linear-gradient-5);}.cls-17{stroke:url(#linear-gradient-6);}.cls-18{fill:url(#linear-gradient-7);}.cls-19{stroke:url(#linear-gradient-8);}.cls-20{fill:url(#linear-gradient-9);}.cls-21,.cls-29{stroke:#000;}.cls-23{fill:url(#linear-gradient-10);}.cls-24{fill:url(#linear-gradient-11);}.cls-25{fill:#e2cc43;}.cls-25,.cls-26{opacity:0.7;}.cls-26{fill:#8e7e2f;}.cls-27{fill:url(#linear-gradient-12);}.cls-28{fill:#39b54a;}.cls-30{fill:#c2674a;}</style><linearGradient id="linear-gradient" x1="-100.84" y1="1045.33" x2="2611.66" y2="-245.43" gradientUnits="userSpaceOnUse"><stop offset="0" stop-color="#d4fff2"/><stop offset="0" stop-color="#caf3e4"/><stop offset="0.08" stop-color="#bae0ce"/><stop offset="0.12" stop-color="#a6c8b2"/><stop offset="0.18" stop-color="#92ae95"/><stop offset="0.24" stop-color="#829b7e"/><stop offset="0.3" stop-color="#778d6e"/><stop offset="0.37" stop-color="#708564"/><stop offset="0.46" stop-color="#6e8261"/></linearGradient><linearGradient id="linear-gradient-2" x1="933.58" y1="564.31" x2="1218.19" y2="564.31" gradientUnits="userSpaceOnUse"><stop offset="0.2" stop-color="#fff" stop-opacity="0.5"/><stop offset="1" stop-opacity="0.2"/></linearGradient><linearGradient id="linear-gradient-3" x1="890.01" y1="670.93" x2="949.67" y2="670.93" gradientTransform="matrix(0.85, -0.53, 0.53, 0.85, -68.89, 592.45)" xlink:href="#linear-gradient-2"/><linearGradient id="linear-gradient-4" x1="1031.36" y1="605.95" x2="1091.01" y2="605.95" gradientTransform="translate(-82.71 393.14) rotate(-17.74)" xlink:href="#linear-gradient-2"/><linearGradient id="linear-gradient-5" x1="1040.73" y1="686.44" x2="1077.28" y2="663.86" gradientTransform="matrix(1, -0.02, 0.02, 1, -10.81, 17.15)" xlink:href="#linear-gradient-2"/><linearGradient id="linear-gradient-6" x1="1133.62" y1="548.08" x2="1170.17" y2="525.5" gradientTransform="translate(127.17 -165.15) rotate(13.97)" xlink:href="#linear-gradient-2"/><linearGradient id="linear-gradient-7" x1="641.99" y1="607.1" x2="701.65" y2="607.1" gradientTransform="matrix(0.26, -0.97, 0.97, 0.26, 286.24, 1118.58)" xlink:href="#linear-gradient-2"/><linearGradient id="linear-gradient-8" x1="803.21" y1="761.57" x2="839.76" y2="738.99" gradientTransform="translate(-70.84 640.84) rotate(-43.41)" xlink:href="#linear-gradient-2"/><linearGradient id="linear-gradient-9" x1="968.22" y1="425.03" x2="1183.88" y2="425.03" xlink:href="#linear-gradient-2"/><linearGradient id="linear-gradient-10" x1="171.43" y1="170.57" x2="333.87" y2="170.57" gradientTransform="matrix(-0.97, 0.24, 0.24, 0.97, 1277.59, 184.27)" gradientUnits="userSpaceOnUse"><stop offset="0" stop-color="#fff"/><stop offset="0" stop-opacity="0.7"/></linearGradient><linearGradient id="linear-gradient-11" x1="610.71" y1="705.72" x2="858.04" y2="705.72" gradientTransform="matrix(0.99, -0.16, 0.16, 0.99, -106.79, 140.07)" gradientUnits="userSpaceOnUse"><stop offset="0" stop-color="#fff"/><stop offset="1" stop-color="#8e8e8e"/></linearGradient><linearGradient id="linear-gradient-12" x1="1237.29" y1="502.86" x2="1592.9" y2="502.86" gradientTransform="translate(280.47 -103.19) rotate(19.24)" xlink:href="#linear-gradient-11"/></defs><title>titelskærmuknap</title><g class="cls-1"><g id="Layer_1" data-name="Layer 1"><rect class="cls-2" x="-2" y="1" width="1922" height="1080"/><path class="cls-3" d="M1692.69,667.37c-100.8,241.7-325.23,398.41-564.19,397.63C855.75,1064.11,556,858,556,585.5c0-273.17,301.34-477.56,572.5-479.5,230.4-1.65,448.25,142.78,557.49,369.94,36.45,14.77,62,47.93,66,86.06C1756.56,605.1,1732.9,647.43,1692.69,667.37Z"/><path class="cls-4" d="M1611.1,653.09C1493.32,887,1258.29,1027.3,1020,1009.48c-272-20.34-556.31-247.3-536.85-519.1,19.5-272.46,334.62-454.85,605.23-437.46C1318.3,67.7,1525.3,227.3,1618.06,461.67c35.31,17.34,58.41,52.22,59.71,90.55C1679.24,595.53,1652.63,636.07,1611.1,653.09Z"/><ellipse class="cls-4" cx="596.5" cy="500.5" rx="136.5" ry="114.5"/><circle class="cls-5" cx="653" cy="284" r="11"/><circle class="cls-5" cx="596" cy="386" r="11"/><circle class="cls-5" cx="687" cy="361" r="11"/><circle class="cls-5" cx="642" cy="493" r="11"/><circle class="cls-5" cx="525" cy="536" r="11"/><circle class="cls-5" cx="631" cy="626" r="11"/><circle class="cls-5" cx="653" cy="758" r="11"/><circle class="cls-5" cx="781" cy="795" r="11"/><circle class="cls-5" cx="805" cy="333" r="11"/><circle class="cls-5" cx="872" cy="110" r="11"/><circle class="cls-5" cx="721" cy="224" r="11"/><circle class="cls-5" cx="1374" cy="866" r="11"/><circle class="cls-5" cx="1353" cy="748" r="11"/><circle class="cls-5" cx="1472" cy="763" r="11"/><circle class="cls-5" cx="1536" cy="670" r="11"/><circle class="cls-5" cx="1374" cy="637" r="11"/><circle class="cls-5" cx="1468" cy="561" r="11"/><circle class="cls-5" cx="1300" cy="316" r="11"/><circle class="cls-5" cx="1450" cy="379" r="11"/><circle class="cls-5" cx="1589" cy="534" r="11"/><circle class="cls-5" cx="1457" cy="235" r="11"/><circle class="cls-5" cx="1093" cy="806" r="11"/><circle class="cls-5" cx="1025" cy="344" r="11"/><circle class="cls-5" cx="1137" cy="235" r="11"/><circle class="cls-5" cx="1025" cy="76" r="11"/><circle class="cls-5" cx="1268" cy="110" r="11"/><circle class="cls-5" cx="1342" cy="452" r="11"/><circle class="cls-5" cx="742" cy="615" r="11"/><circle class="cls-5" cx="742" cy="467" r="11"/><circle class="cls-5" cx="1139" cy="434" r="11"/><circle class="cls-5" cx="861" cy="456" r="11"/><circle class="cls-5" cx="927" cy="797" r="11"/><circle class="cls-5" cx="997" cy="852" r="11"/><circle class="cls-5" cx="946" cy="934" r="11"/><circle class="cls-5" cx="1159" cy="974" r="11"/><circle class="cls-5" cx="1230" cy="856" r="11"/><circle class="cls-5" cx="1403" cy="457" r="11"/><circle class="cls-5" cx="872" cy="654" r="11"/><circle class="cls-5" cx="536" cy="654" r="11"/><circle class="cls-5" cx="1219" cy="342" r="11"/><circle class="cls-5" cx="1241" cy="722" r="11"/><path class="cls-6" d="M464.5,370.5c12,46-19.9,83.5-19.9,83.5s-88.1-81.5-81.1-128.5"/><path class="cls-7" d="M484.84,451.17S525.35,489.51,468.2,517c0,0-60-23.87-73.79-33.28s-18.08-34.72,0-36.89S484.84,451.17,484.84,451.17Z"/><path class="cls-8" d="M363.39,332s-66.52-8.66-66.09-50.09S338.57,193.51,327,181.63s60,44.79,68.5,66.19S425.54,294.57,363.39,332Z"/><path class="cls-8" d="M462.7,376S417,352.29,428.18,322.52s53-52.94,47.79-64.54,31.53,48.07,32,65.73S517.36,365.31,462.7,376Z"/><g class="cls-9"><path d="M795.41,274.6a46.68,46.68,0,0,1-13,7.16,32.63,32.63,0,0,1-30.07-2.84,46,46,0,0,1-12.18-11.58,77.59,77.59,0,0,1-13.95-36.76,48.17,48.17,0,0,1,1.3-16.91,33.14,33.14,0,0,1,7-13.28,30.42,30.42,0,0,1,12.43-8.47q8.75-3.33,15.78-2.59a28.1,28.1,0,0,1,12.13,3.95l-5.18,18.23A14.94,14.94,0,0,0,755.38,210a12.41,12.41,0,0,0-6.15,4.76,18.08,18.08,0,0,0-2.69,7.63,31.54,31.54,0,0,0,.36,9.6,59.37,59.37,0,0,0,3,10.68,63.42,63.42,0,0,0,4.77,10,31.52,31.52,0,0,0,6,7.47,18.35,18.35,0,0,0,7,4,11.86,11.86,0,0,0,7.74-.43,12.05,12.05,0,0,0,6.15-4.42l-6.09-16-9.24,3.5-6.41-16.89,26.25-10,17.4,45.82A36.15,36.15,0,0,1,795.41,274.6Z"/><path d="M823.36,265.25l-27.85-87.72,20-6.34,27.85,87.73Z"/><path d="M901.94,242l-35.46-48.34-.38.1,15.41,53.88-17.92,4.94L839.1,163.87l22.06-6.09L896.7,206.9l.37-.1-15.49-54.66,17.3-4.77,24.48,88.72Z"/><path d="M1019.3,216.06l-6.41-6.79a20.88,20.88,0,0,1-6.51,7.87,24.58,24.58,0,0,1-11.6,4.58q-12,1.78-20-4.23t-10-19.27q-1.38-9.25,1.92-16.13a30,30,0,0,1,9.34-11.33,35.13,35.13,0,0,1-6.15-8.08,29.73,29.73,0,0,1-3.27-10,25.8,25.8,0,0,1,.37-10.24,21.83,21.83,0,0,1,4-8.3,23.28,23.28,0,0,1,7-5.91,27.13,27.13,0,0,1,9.32-3.11,26.8,26.8,0,0,1,9.22.12,19.7,19.7,0,0,1,13.55,9.67,25.87,25.87,0,0,1,3.11,9.32,22.13,22.13,0,0,1-.16,8.11,24.84,24.84,0,0,1-2.69,7,31.6,31.6,0,0,1-4.53,6.14c-1.78,1.89-3.63,3.68-5.57,5.37l9.17,9.4,4.27-14.44,19.41-2.92-10.54,29.59,19.58,20.06Zm-32.44-33.91a11.39,11.39,0,0,0-3,4.46,13.77,13.77,0,0,0-.71,7.54q.81,5.4,3.73,8.18a8,8,0,0,0,7,2.17,7.08,7.08,0,0,0,5-2.79,13.9,13.9,0,0,0,2.22-4.47Zm9.84-34.21a12.6,12.6,0,0,0-2.35-6,4.63,4.63,0,0,0-4.62-1.87,5.23,5.23,0,0,0-4.22,3.39,11.9,11.9,0,0,0-.72,6.55,18.53,18.53,0,0,0,6.15,11.17,21.56,21.56,0,0,0,4.52-5.74A11.46,11.46,0,0,0,996.7,147.94Z"/><path d="M1113.13,139.06l-2.82,74.31-20.39-.77,2.82-74.31-16.89-.64.67-17.67,54.17,2.06L1130,139.7Z"/><path d="M1210.48,180.92a76,76,0,0,1-6,19.2,48,48,0,0,1-9.64,13.92,32.34,32.34,0,0,1-12.69,7.76,32.8,32.8,0,0,1-29-5.22,32.15,32.15,0,0,1-9.19-11.7,48,48,0,0,1-4.19-16.4,82.25,82.25,0,0,1,7-39.16,46.41,46.41,0,0,1,9.53-13.74,30.85,30.85,0,0,1,27.93-8.39,31.37,31.37,0,0,1,13.91,6,32,32,0,0,1,9.22,11.56,47.48,47.48,0,0,1,4.21,16.22A74.46,74.46,0,0,1,1210.48,180.92Zm-21-3.78a63.38,63.38,0,0,0,1.07-11.1,36.25,36.25,0,0,0-1-9.23,16.73,16.73,0,0,0-3.24-6.6,9.37,9.37,0,0,0-5.64-3.19,9.59,9.59,0,0,0-6.45,1,16.09,16.09,0,0,0-5.4,5,33.9,33.9,0,0,0-4.13,8.31,66.77,66.77,0,0,0-2.8,10.79,69.33,69.33,0,0,0-1.15,11.15,34.17,34.17,0,0,0,1,9.29,16.79,16.79,0,0,0,3.29,6.66,9.37,9.37,0,0,0,5.69,3.27,9.14,9.14,0,0,0,6.41-1.09,17.29,17.29,0,0,0,5.34-5.12,35.73,35.73,0,0,0,4.21-8.35A64.5,64.5,0,0,0,1189.49,177.14Z"/><path d="M1253.15,244.77l.19-60-.37-.14-19.6,52.49L1216,230.51l33-85.93,21.36,8.21-.58,60.63.36.14,20-53.18,16.75,6.44-33,85.92Z"/><path d="M1289.89,262.19l46.68-79.32,18,10.61-46.68,79.33Z"/><path d="M1360.71,312.25q-7-1.22-14.22-7.35a30.18,30.18,0,0,1-8.85-12.18,33.89,33.89,0,0,1-2.11-14.91,49.41,49.41,0,0,1,4.36-16.41,69.72,69.72,0,0,1,10.66-16.61,71,71,0,0,1,14.76-13.4,48.61,48.61,0,0,1,15.47-7,33.51,33.51,0,0,1,15-.27,30.5,30.5,0,0,1,13.43,6.78q7,6,9.62,12.48a30.36,30.36,0,0,1,2.25,12.73l-18.28,4.28a19.66,19.66,0,0,0-.82-7.17,13.81,13.81,0,0,0-4.43-6.14,12,12,0,0,0-6.94-3,18.17,18.17,0,0,0-7.87,1.25,30.52,30.52,0,0,0-8.31,4.88,57.61,57.61,0,0,0-8.06,7.91,56.79,56.79,0,0,0-6.44,9.2,31.85,31.85,0,0,0-3.45,9,17.9,17.9,0,0,0,.07,8.06,12.21,12.21,0,0,0,4.13,6.39,12.68,12.68,0,0,0,6.9,3.12,16.55,16.55,0,0,0,7-.58l-.5,18.49A31,31,0,0,1,1360.71,312.25Z"/></g><path class="cls-10" d="M786.41,258.6a46.68,46.68,0,0,1-13,7.16,32.63,32.63,0,0,1-30.07-2.84,46,46,0,0,1-12.18-11.58,77.59,77.59,0,0,1-13.95-36.76,48.17,48.17,0,0,1,1.3-16.91,33.14,33.14,0,0,1,7-13.28,30.42,30.42,0,0,1,12.43-8.47q8.75-3.33,15.78-2.59a28.1,28.1,0,0,1,12.13,3.95l-5.18,18.23A14.94,14.94,0,0,0,746.38,194a12.41,12.41,0,0,0-6.15,4.76,18.08,18.08,0,0,0-2.69,7.63,31.54,31.54,0,0,0,.36,9.6,59.37,59.37,0,0,0,3,10.68,63.42,63.42,0,0,0,4.77,10,31.52,31.52,0,0,0,6,7.47,18.35,18.35,0,0,0,7,4,11.86,11.86,0,0,0,7.74-.43,12.05,12.05,0,0,0,6.15-4.42l-6.09-16-9.24,3.5-6.41-16.89,26.25-10,17.4,45.82A36.15,36.15,0,0,1,786.41,258.6Z"/><path class="cls-10" d="M814.36,249.25l-27.85-87.72,20-6.34,27.85,87.73Z"/><path class="cls-10" d="M892.94,226l-35.46-48.34-.38.1,15.41,53.88-17.92,4.94L830.1,147.87l22.06-6.09L887.7,190.9l.37-.1-15.49-54.66,17.3-4.77,24.48,88.72Z"/><path class="cls-10" d="M1010.3,200.06l-6.41-6.79a20.88,20.88,0,0,1-6.51,7.87,24.58,24.58,0,0,1-11.6,4.58q-12,1.78-20-4.23t-10-19.27q-1.38-9.25,1.92-16.13a30,30,0,0,1,9.34-11.33,35.13,35.13,0,0,1-6.15-8.08,29.73,29.73,0,0,1-3.27-10,25.8,25.8,0,0,1,.37-10.24,21.83,21.83,0,0,1,4-8.3,23.28,23.28,0,0,1,7-5.91,27.13,27.13,0,0,1,9.32-3.11,26.8,26.8,0,0,1,9.22.12,19.7,19.7,0,0,1,13.55,9.67,25.87,25.87,0,0,1,3.11,9.32,22.13,22.13,0,0,1-.16,8.11,24.84,24.84,0,0,1-2.69,7,31.6,31.6,0,0,1-4.53,6.14c-1.78,1.89-3.63,3.68-5.57,5.37l9.17,9.4,4.27-14.44,19.41-2.92-10.54,29.59,19.58,20.06Zm-32.44-33.91a11.39,11.39,0,0,0-3,4.46,13.77,13.77,0,0,0-.71,7.54q.81,5.4,3.73,8.18a8,8,0,0,0,7,2.17,7.08,7.08,0,0,0,5-2.79,13.9,13.9,0,0,0,2.22-4.47Zm9.84-34.21a12.6,12.6,0,0,0-2.35-6,4.63,4.63,0,0,0-4.62-1.87,5.23,5.23,0,0,0-4.22,3.39,11.9,11.9,0,0,0-.72,6.55,18.53,18.53,0,0,0,6.15,11.17,21.56,21.56,0,0,0,4.52-5.74A11.46,11.46,0,0,0,987.7,131.94Z"/><path class="cls-10" d="M1104.13,123.06l-2.82,74.31-20.39-.77,2.82-74.31-16.89-.64.67-17.67,54.17,2.06L1121,123.7Z"/><path class="cls-10" d="M1201.48,164.92a76,76,0,0,1-6,19.2,48,48,0,0,1-9.64,13.92,32.34,32.34,0,0,1-12.69,7.76,32.8,32.8,0,0,1-29-5.22,32.15,32.15,0,0,1-9.19-11.7,48,48,0,0,1-4.19-16.4,82.25,82.25,0,0,1,7-39.16,46.41,46.41,0,0,1,9.53-13.74,30.85,30.85,0,0,1,27.93-8.39,31.37,31.37,0,0,1,13.91,6,32,32,0,0,1,9.22,11.56,47.48,47.48,0,0,1,4.21,16.22A74.46,74.46,0,0,1,1201.48,164.92Zm-21-3.78a63.38,63.38,0,0,0,1.07-11.1,36.25,36.25,0,0,0-1-9.23,16.73,16.73,0,0,0-3.24-6.6,9.37,9.37,0,0,0-5.64-3.19,9.59,9.59,0,0,0-6.45,1,16.09,16.09,0,0,0-5.4,5,33.9,33.9,0,0,0-4.13,8.31,66.77,66.77,0,0,0-2.8,10.79,69.33,69.33,0,0,0-1.15,11.15,34.17,34.17,0,0,0,1,9.29,16.79,16.79,0,0,0,3.29,6.66,9.37,9.37,0,0,0,5.69,3.27,9.14,9.14,0,0,0,6.41-1.09,17.29,17.29,0,0,0,5.34-5.12,35.73,35.73,0,0,0,4.21-8.35A64.5,64.5,0,0,0,1180.49,161.14Z"/><path class="cls-10" d="M1244.15,228.77l.19-60-.37-.14-19.6,52.49L1207,214.51l33-85.93,21.36,8.21-.58,60.63.36.14,20-53.18,16.75,6.44-33,85.92Z"/><path class="cls-10" d="M1280.89,246.19l46.68-79.32,18,10.61-46.68,79.33Z"/><path class="cls-10" d="M1351.71,296.25q-7-1.22-14.22-7.35a30.18,30.18,0,0,1-8.85-12.18,33.89,33.89,0,0,1-2.11-14.91,49.41,49.41,0,0,1,4.36-16.41,69.72,69.72,0,0,1,10.66-16.61,71,71,0,0,1,14.76-13.4,48.61,48.61,0,0,1,15.47-7,33.51,33.51,0,0,1,15-.27,30.5,30.5,0,0,1,13.43,6.78q7,6,9.62,12.48a30.36,30.36,0,0,1,2.25,12.73l-18.28,4.28a19.66,19.66,0,0,0-.82-7.17,13.81,13.81,0,0,0-4.43-6.14,12,12,0,0,0-6.94-3,18.17,18.17,0,0,0-7.87,1.25,30.52,30.52,0,0,0-8.31,4.88,57.61,57.61,0,0,0-8.06,7.91,56.79,56.79,0,0,0-6.44,9.2,31.85,31.85,0,0,0-3.45,9,17.9,17.9,0,0,0,.07,8.06,12.21,12.21,0,0,0,4.13,6.39,12.68,12.68,0,0,0,6.9,3.12,16.55,16.55,0,0,0,7-.58l-.5,18.49A31,31,0,0,1,1351.71,296.25Z"/><g class="cls-9"><path d="M1028.73,309.49l6.1,15.15-15.16,6.1-6.09-15.15L986,326.7l-5.84-14.51,3.63-54.76,20.7-8.33,18.63,46.31,7.68-3.09,5.66,14.08Zm-32.42-37.78-.22.09-1,34.85,13.13-5.28Z"/><path d="M1046.12,296.65l-2.26-13.5,21.78-3.64,2.26,13.5Z"/><path d="M1084.6,316.59l-2-86.92,18.39-.42,2,86.92Z"/><path d="M1119.18,317l7.13-59.72,18,2.15-7.13,59.72Zm27.91-73.69a10.63,10.63,0,0,1-3.62,7,9.87,9.87,0,0,1-14.16-1.69,10.62,10.62,0,0,1-1.86-7.69,10.91,10.91,0,0,1,1.23-4,11.06,11.06,0,0,1,2.39-3.07,9.57,9.57,0,0,1,14.16,1.69,11.13,11.13,0,0,1,1.6,3.55A11,11,0,0,1,1147.09,243.29Z"/><path d="M1199.52,257.5a11.71,11.71,0,0,0-3.42-1.49q-3.66-1-5.69,1.53a16.65,16.65,0,0,0-3,6.28l-1.26,4.78L1195,271l-3.58,13.56-8.78-2.31-11.76,44.59-17-4.49,11.76-44.59-6.9-1.82,3.58-13.56,6.89,1.82,1.29-4.9a41.23,41.23,0,0,1,3.39-8.8,22.13,22.13,0,0,1,5.33-6.68,17.21,17.21,0,0,1,7.61-3.58,22.35,22.35,0,0,1,10.18.6c1,.28,2.25.67,3.62,1.19a23,23,0,0,1,3.49,1.64Z"/><path d="M1211.2,314.47a17.6,17.6,0,0,0-1.44,4.6,15.41,15.41,0,0,0-.14,4.25,8.37,8.37,0,0,0,1.18,3.46,6,6,0,0,0,2.61,2.3,6.3,6.3,0,0,0,5.2.26,14.07,14.07,0,0,0,4.55-2.95l8.83,12.36a25.9,25.9,0,0,1-12,6.07,21.9,21.9,0,0,1-13.69-2.07,23.39,23.39,0,0,1-8-6,22.13,22.13,0,0,1-4.6-8.92,29.49,29.49,0,0,1-.54-11.36,45.23,45.23,0,0,1,4.11-13.31,46.87,46.87,0,0,1,7.27-11.39,30.15,30.15,0,0,1,8.91-7.14,23.33,23.33,0,0,1,9.78-2.61,23.37,23.37,0,0,1,18.5,8.75,20.52,20.52,0,0,1,3.73,9,28.81,28.81,0,0,1-.53,10.8,60,60,0,0,1-4.22,12.05l-2.13,4.59Zm17.26-4.9a19,19,0,0,0,2-7.93,5.1,5.1,0,0,0-3.12-5,4.79,4.79,0,0,0-3.33-.35,9.5,9.5,0,0,0-3.2,1.56,13.72,13.72,0,0,0-2.8,2.75,17,17,0,0,0-2,3.19Z"/></g><path class="cls-10" d="M1023.73,298.49l6.1,15.15-15.16,6.1-6.09-15.15L981,315.7l-5.84-14.51,3.63-54.76,20.7-8.33,18.63,46.31,7.68-3.09,5.66,14.08Zm-32.42-37.78-.22.09-1,34.85,13.13-5.28Z"/><path class="cls-10" d="M1041.12,285.65l-2.26-13.5,21.78-3.64,2.26,13.5Z"/><path class="cls-10" d="M1079.6,305.59l-2-86.92,18.39-.42,2,86.92Z"/><path class="cls-10" d="M1114.18,306l7.13-59.72,18,2.15-7.13,59.72Zm27.91-73.69a10.63,10.63,0,0,1-3.62,7,9.87,9.87,0,0,1-14.16-1.69,10.62,10.62,0,0,1-1.86-7.69,10.91,10.91,0,0,1,1.23-4,11.06,11.06,0,0,1,2.39-3.07,9.57,9.57,0,0,1,14.16,1.69,11.13,11.13,0,0,1,1.6,3.55A11,11,0,0,1,1142.09,232.29Z"/><path class="cls-10" d="M1194.52,246.5a11.71,11.71,0,0,0-3.42-1.49q-3.66-1-5.69,1.53a16.65,16.65,0,0,0-3,6.28l-1.26,4.78L1190,260l-3.58,13.56-8.78-2.31-11.76,44.59-17-4.49,11.76-44.59-6.9-1.82,3.58-13.56,6.89,1.82,1.29-4.9a41.23,41.23,0,0,1,3.39-8.8,22.13,22.13,0,0,1,5.33-6.68,17.21,17.21,0,0,1,7.61-3.58,22.35,22.35,0,0,1,10.18.6c1,.28,2.25.67,3.62,1.19a23,23,0,0,1,3.49,1.64Z"/><path class="cls-10" d="M1206.2,303.47a17.6,17.6,0,0,0-1.44,4.6,15.41,15.41,0,0,0-.14,4.25,8.37,8.37,0,0,0,1.18,3.46,6,6,0,0,0,2.61,2.3,6.3,6.3,0,0,0,5.2.26,14.07,14.07,0,0,0,4.55-2.95l8.83,12.36a25.9,25.9,0,0,1-12,6.07,21.9,21.9,0,0,1-13.69-2.07,23.39,23.39,0,0,1-8-6,22.13,22.13,0,0,1-4.6-8.92,29.49,29.49,0,0,1-.54-11.36,45.23,45.23,0,0,1,4.11-13.31,46.87,46.87,0,0,1,7.27-11.39,30.15,30.15,0,0,1,8.91-7.14,23.33,23.33,0,0,1,9.78-2.61,23.37,23.37,0,0,1,18.5,8.75,20.52,20.52,0,0,1,3.73,9,28.81,28.81,0,0,1-.53,10.8,60,60,0,0,1-4.22,12.05l-2.13,4.59Zm17.26-4.9a19,19,0,0,0,2-7.93,5.1,5.1,0,0,0-3.12-5,4.79,4.79,0,0,0-3.33-.35,9.5,9.5,0,0,0-3.2,1.56,13.72,13.72,0,0,0-2.8,2.75,17,17,0,0,0-2,3.19Z"/><path class="cls-11" d="M663.67,1078.79h245.2c-.06-40.42-15-103.43-15-103.43S858.36,764,858.42,753.62,827.54,603.5,827.54,603.5s-9.27-36.42-9.67-60.48S733.7,415.2,713.75,387.38c0,0-20.22-29.5-20.42-41.53s-67.2,10.74-67.2,10.74l5,42.27S614.89,448,597.48,500.72s-4.05,147.09-4.05,147.09l7.24,45.35,50,312.47A588.56,588.56,0,0,0,663.67,1078.79Z"/><path class="cls-12" d="M1013.75,1030.08c-37.33,5.6-71,23.2-65.51,25.93s58.69,15,256.61-1.36c0,0,6.82-10.92-20.48-17.75s-57.32-10.92-73.7-19.11c-9.85-4.92-12.29-16.38-16.38-30s-12.29-221.12,27.3-263.43S1247.16,667,1251.26,578.28,1213,396.74,1211.67,392.64s-170.62-25.93-262.07,0c0,0-47.77,129.67-39.58,172s17.74,88.72,121.48,157c0,0,20.47,9.55,30,57.33,0,0,19.11,157,10.92,211.56C1072.45,990.49,1068.35,1021.89,1013.75,1030.08Z"/><path class="cls-13" d="M1077.14,716.77c33.37-4.17,42.4-20.47,42.4-20.47,32.9-35.17,95-46.2,98.42-119.93s-31.76-150.88-32.9-154.28-141.8-21.55-217.8,0c0,0-39.7,107.77-32.9,142.93s14.75,73.74,101,130.46l15.5,12.52S1065.44,718.23,1077.14,716.77Z"/><polygon class="cls-14" points="1092.8 693.4 1067.68 709.5 1041.18 695.8 1039.79 666 1064.9 649.9 1091.41 663.6 1092.8 693.4"/><polygon class="cls-15" points="1135.07 666.59 1106.81 676.15 1084.4 656.46 1090.25 627.21 1118.51 617.64 1140.92 637.33 1135.07 666.59"/><polyline class="cls-16" points="1039.41 666.77 1066.8 679.3 1089.39 665.55"/><polyline class="cls-17" points="1091.31 627.63 1114.4 646.97 1139.82 639.7"/><polygon class="cls-18" points="1074.16 616.92 1066.99 645.88 1038.32 654.14 1016.83 633.45 1024.01 604.49 1052.68 596.23 1074.16 616.92"/><polyline class="cls-19" points="1023.31 638.33 1052.05 629.3 1059.63 603.97"/><path class="cls-20" d="M968.22,419.88s110.56,46.41,215.66,0C1183.88,419.88,1031,396.67,968.22,419.88Z"/><polyline class="cls-21" points="1057.07 529.16 1042.06 541.44 1057.07 541.44"/><path class="cls-21" d="M1083.69,514.83s17.74-17.75,34.12,0"/><path class="cls-21" d="M989.51,509.27s17.74-12.65,34.12,0"/><path class="cls-21" d="M997.7,542.13s9.55,96.91,129.67,0"/><ellipse cx="1141.7" cy="536.67" rx="5.46" ry="6.14"/><ellipse cx="975.86" cy="534.62" rx="5.46" ry="6.14"/><path class="cls-22" d="M1296.62,352.4l10.92-10.92s2.73-21.84-23.2,9.55S1313,363.32,1313,363.32l5.46,42.31c15,98.28-148.78,151.51-148.78,151.51s2.73,17.75,12.29,13.65c142-60.84,147.41-90.09,152.87-98.28,9.12-13.67-9.55-110.56-9.55-110.56,20.47-28.66-5.46-34.12-5.46-34.12-2.73-38.22-12.29-38.22-17.75-30s8.19,36.85,8.19,36.85-8.19-20.47-20.47-23.2,4.09,17.74,4.09,17.74-1.36-9.55-15-9.55,9.55,15,9.55,15-41-16.38-36.85-5.46,37.18,16.68,37.18,16.68"/><path class="cls-22" d="M899.34,347.34c-7,33.25-12.44,66-8.35,98.77,4.1,30,13.65,57.33,28,83.94l-4.1,12.29c-2.73,1.36-39.58-46.41-43.68-56s14.53-139.2,14.53-139.2c-2.93-8.9-12.48-18.46-5.66-29.38,2.73-2.73,6.83-6.82,10.92-5.46,2.73-10.92,0-23.2,6.83-32.76,2.73-2.73,6.82-4.09,9.55,0s2.73,8.19,2.64,12.67c-1.5,9.05-5.12,18-9,26.24a63.82,63.82,0,0,1,4.93-9.5c1.71-2.72,17.69-21.14,20.1-11.92,1.22,4.66-6,12.58-8.65,16,.46-2.33,2.66-3.38,0,0,2.27-8.88,11.82-8.88,18.65-8.88,0,0,15.44,6.91-15.14,23.59,0,0,32.2-24.27,39-20.17s8.19,16.38-12.28,21.84-23.21,2.14-23.21,2.14"/><path class="cls-23" d="M1168.91,462.28s2.15,8.81-6.54,4.39l-17.94-19-17.26-20.09L1108.58,406s-50.46-58.71-53.36-58.94-73.48,26.33-73.48,26.33-4.88-4.42-2.37-9.71S1051.09,334,1052,333.82s5.86-3.3,15.8,10.16S1168.91,462.28,1168.91,462.28Z"/><path class="cls-24" d="M663.67,1078.79h245.2c-.06-40.42-15-103.43-15-103.43S858.36,764,858.42,753.62,827.54,603.5,827.54,603.5s-9.27-36.42-9.67-60.48S733.7,415.2,713.75,387.38c0,0-20.22-29.5-20.42-41.53s-67.2,10.74-67.2,10.74l5,42.27S614.89,448,597.48,500.72s-4.05,147.09-4.05,147.09l7.24,45.35,50,312.47A588.56,588.56,0,0,0,663.67,1078.79Z"/><polygon class="cls-25" points="617.29 803.32 858.65 759.52 893.51 975.58 651.28 1014.3 617.29 803.32"/><path class="cls-26" d="M693.6,347.53s20.76-10.21,2-52c0,0-32.54-2.59-59.91,3.78a100.65,100.65,0,0,0-9.81,2.77,70.1,70.1,0,0,0-8.37,3.45,49.12,49.12,0,0,0-5.91,3.43s-6.72,44.14,7.25,45.35S693.6,347.53,693.6,347.53Z"/><path d="M721.27,954l1.81,11.32-1.46.24-1.81-11.32Z"/><path d="M725.54,958.84c-.13-.84-.26-1.53-.42-2.19l1.31-.21.3,1.33h0a3,3,0,0,1,2.45-2c1.12-.18,3,.21,3.42,3l.78,4.85-1.48.24-.75-4.69c-.21-1.31-.87-2.32-2.26-2.1a2.13,2.13,0,0,0-1.74,1.83,2.07,2.07,0,0,0,0,.7l.78,4.89-1.48.24Z"/><path d="M741.67,950.11l1.57,9.83c.11.72.26,1.54.4,2.09l-1.33.21-.29-1.4h0a3.06,3.06,0,0,1-2.52,2c-2,.31-3.74-1.11-4.14-3.58-.45-2.7,1-4.64,2.95-4.95a2.74,2.74,0,0,1,2.65.85h0l-.77-4.85Zm-.35,7.34a2.29,2.29,0,0,0-.16-.61,2.21,2.21,0,0,0-2.41-1.37c-1.53.24-2.22,1.73-1.93,3.53s1.28,2.88,2.88,2.62a2.25,2.25,0,0,0,1.89-2.11,3,3,0,0,0,0-.65Z"/><path d="M746.75,950.85a.93.93,0,1,1-1.06-.78A.9.9,0,0,1,746.75,950.85Zm0,10.68-1.3-8.13,1.47-.24,1.3,8.13Z"/><path d="M755.94,960.06l-.28-1h0a3.06,3.06,0,0,1-2.3,1.61,2.34,2.34,0,0,1-2.86-1.94c-.31-2,1.26-3.32,4.41-3.8l0-.17a1.69,1.69,0,0,0-2.15-1.58,4.16,4.16,0,0,0-2,.94l-.49-.92a5,5,0,0,1,2.56-1.15c2.48-.4,3.36,1.2,3.62,2.83l.49,3a11.27,11.27,0,0,0,.44,1.93Zm-.88-4.11c-1.62.22-3.41.8-3.16,2.38a1.33,1.33,0,0,0,1.62,1.19,2,2,0,0,0,1.75-1.68,1.3,1.3,0,0,0,0-.48Z"/><path d="M759.32,953.44c-.13-.84-.26-1.53-.42-2.19l1.31-.21.3,1.33h0a3,3,0,0,1,2.44-2c1.13-.18,3,.21,3.43,3l.77,4.85-1.48.24-.74-4.69c-.21-1.31-.88-2.32-2.27-2.1a2.2,2.2,0,0,0-1.73,2.54l.78,4.88-1.48.24Z"/><path d="M774.54,946.75l-3.45.55-.2-1.24,8.39-1.34.2,1.24-3.47.56,1.61,10.08-1.47.23Z"/><path d="M788.54,950.61a4,4,0,0,1-3.36,5,3.92,3.92,0,0,1-4.57-3.56,4,4,0,0,1,3.35-5A3.89,3.89,0,0,1,788.54,950.61Zm-6.44,1.12c.29,1.78,1.53,3,3,2.73s2.26-1.72,2-3.55c-.22-1.38-1.19-3-2.94-2.74S781.85,950.18,782.1,951.73Z"/><path d="M790.86,948.4c-.14-.84-.26-1.52-.42-2.19l1.31-.21.3,1.33h0a3,3,0,0,1,2.44-2c1.13-.18,3,.21,3.43,3l.78,4.85-1.48.24-.75-4.69c-.21-1.31-.87-2.32-2.27-2.1a2.2,2.2,0,0,0-1.73,2.54l.78,4.88-1.48.24Z"/><path d="M801.85,942a.93.93,0,0,1-1.83.3.91.91,0,0,1,.77-1.08A.9.9,0,0,1,801.85,942Zm0,10.68-1.3-8.13,1.48-.23,1.29,8.13Z"/><path d="M812.28,950.75a5.43,5.43,0,0,1-2.26.84,3.92,3.92,0,0,1-4.71-3.5,4.19,4.19,0,0,1,3.68-5,5,5,0,0,1,2.12.1l-.16,1.19a3.5,3.5,0,0,0-1.77-.11,3.1,3.1,0,0,0,.93,6.12,4.28,4.28,0,0,0,1.75-.69Z"/><polyline class="cls-21" points="688.34 576.4 707.91 590.6 689.62 598.48"/><path class="cls-21" d="M634.62,546.28s11.2-12.58,23.48-6.48"/><path class="cls-21" d="M722.15,527.58s20-8,25.87,5.32"/><path class="cls-21" d="M692,624.75s11.57,23.19,25.48-1.47"/><path class="cls-7" d="M1449.07,565s.76-94.84,9.91-99.26,59.16-6,99.19,15.59c0,0-13.15,86.72-20.09,95.71S1515.72,592.05,1449.07,565Z"/><path class="cls-27" d="M1264.33,1061.68c2.52,1.94,18.69,8.8,42.41,17.11h101.83c46.23-.27,92.46-.15,138.69-.06l79.39-417.54L1538.08,577s-16.17,19.09-89-12L1344.6,602.71l-75.22,422.69S1255.34,1054.74,1264.33,1061.68Z"/><path class="cls-28" d="M1460.47,720.27S1316,772.6,1306.85,818.86s-23.91,44.91,105.31,187c0,0,158.7-63.28,170.56-115.85S1488.11,733.72,1460.47,720.27Z"/><path d="M1482.78,758.75h0v-.06h0l0,0v0h0Zm0,0h0l0,0h0Z"/><path d="M1482.79,758.75v0h0v0h0Zm0,0h0Z"/><path d="M1482.85,758.76l0,0s0,0,0,0h0v0h0v0h0Zm0,0Z"/><path d="M1482.93,758.79h0Zm0,0h0Z"/><path d="M1483,758.82h0v0h0l0,0h0v0h0s0,0,0,0h0v0l0,0h0v0h0Z"/><path d="M1483.1,758.81l0,0h0l0,0Zm0,0Z"/><path d="M1483.08,758.9l0-.07h0v0h0l0,0Zm0,0h0s0,0,0,0h0Z"/><path d="M1483.15,758.88h0Z"/><path d="M1483.23,758.86l0,0h0l0,0h0l0,0h0v0Z"/><path d="M1483.29,758.93h0v0h0l0,0h0v0h0s0,0,0,0h0l0,0h0v0h0Z"/><path d="M1454.53,818.83h0v0h0l0,0v0h0Zm0,0h0l0,0h0Z"/><path d="M1454.54,818.82a0,0,0,0,0,0,0h0v0h0Zm0,0h0Z"/><path d="M1454.6,818.84l0,0h0s0,0,0,0v0h0v0h0v0Zm0,0h0Z"/><path d="M1454.68,818.87h0s0,0,0,0h0Zm0,0h0Z"/><path d="M1454.72,818.9h0l0,0h0l0,0h0l0,0,0,0h0s0,0,0,0h0v0h0Z"/><path d="M1454.85,818.89l0,0h0l0,0Zm0,0Z"/><path d="M1454.83,819l0-.08h0v0h0l0,0Zm0,0h0l0,0h0Z"/><path d="M1454.9,819h0Z"/><path d="M1455,818.94l0,0h0l0,0h0l0,0h0v0Z"/><path d="M1455,819h0v0h0l0,0h0l0,0,0,0h0s0,0,0,0h0l0,0h0v0h0Z"/><path d="M1421.51,876.93l-.15.07a37.58,37.58,0,0,1-12.45,4,24.67,24.67,0,0,1-11.29-1.08,17.32,17.32,0,0,1-8.11-5.75,18.42,18.42,0,0,1-3.75-9.44,25.61,25.61,0,0,1,1.47-11.4,46.46,46.46,0,0,1,6-11.52,65.68,65.68,0,0,1,9.63-10.69,82.17,82.17,0,0,1,12.65-9.31,64.06,64.06,0,0,1,18.84-7.85q9.34-2.12,15.37,0a10.69,10.69,0,0,1,4.2,2.62,7.36,7.36,0,0,1,2,4.06,10.19,10.19,0,0,1-.54,4.93q-2.37,6.81-10.34,11.13a33.32,33.32,0,0,1-17.46,4l-.36-4.84a36.82,36.82,0,0,0,16.87-3.17q7.47-3.48,9.39-9a6.2,6.2,0,0,0-1.47-6.29,8.37,8.37,0,0,0-3.18-1.91q-5.21-1.81-12.88-.09a52.36,52.36,0,0,0-15.35,6.31,65.3,65.3,0,0,0-11.15,8.46A64.14,64.14,0,0,0,1400.3,841a49.55,49.55,0,0,0-5.94,11.51,33.25,33.25,0,0,0-1.84,8.46,19.93,19.93,0,0,0,.81,7.48,14.16,14.16,0,0,0,3.43,5.82,14.6,14.6,0,0,0,5.66,3.52q7.9,2.76,20.28-3.16l.31-.2,5.3-8.77,6.89-1.25-9.2,15.34q-3.33,5.61-5.12,8a35.42,35.42,0,0,1-4.51,4.85,33.14,33.14,0,0,1-9.82,6.16,32.25,32.25,0,0,1-11.44,2.37,31.89,31.89,0,0,1-11.34-1.72,26.1,26.1,0,0,1-9.78-5.59l3.14-3.31a26.45,26.45,0,0,0,11.36,7.81,22.74,22.74,0,0,0,6.44,1.29,19.8,19.8,0,0,0,6.16-.67,18.34,18.34,0,0,0,5.51-2.55,27.42,27.42,0,0,0,3.94-3.28,36.41,36.41,0,0,0,3.71-4.57q2-2.82,4.89-7.63Z"/><path d="M1458.32,864l-11.22,16.5a30.93,30.93,0,0,0-3.73,6.76,6.29,6.29,0,0,0-.39,3.09,1.9,1.9,0,0,0,1.22,1.67q1.71.6,6.9-2.18l.61,1.08-.76.41a56.5,56.5,0,0,1-6.39,3.39,4.62,4.62,0,0,1-3.22.33,3.63,3.63,0,0,1-2.3-2.75,7.92,7.92,0,0,1,.33-4.76,33.25,33.25,0,0,1,2.49-5l10.25-18.15Zm9.17-21.13a3.44,3.44,0,0,1,.34,6.32,3.44,3.44,0,0,1-3-6.19A3.34,3.34,0,0,1,1467.49,842.83Z"/><path d="M1457.62,900.64l16.56-28.6,6-.44-11.84,18.64q8-8.07,14.26-11.53t10.44-2a4.62,4.62,0,0,1,2.85,2.51,5.39,5.39,0,0,1,0,4.07,16.73,16.73,0,0,1-1.86,3.39l-1.37,2.13-4,6.17-1.31,2a25,25,0,0,0-2.61,4.8,6.07,6.07,0,0,0-.38,3.06,1.91,1.91,0,0,0,1.23,1.64q1.71.6,6.9-2.18l.62,1.08-.77.42a56,56,0,0,1-6.39,3.38,4.69,4.69,0,0,1-3.22.34,3.66,3.66,0,0,1-2.3-2.76,7.93,7.93,0,0,1,.33-4.76,31.93,31.93,0,0,1,2.5-5l6.25-11a32.76,32.76,0,0,0,1.79-3.71,2.58,2.58,0,0,0,0-2,2.4,2.4,0,0,0-1.45-1.18q-3.81-1.33-12.26,4.9a55.16,55.16,0,0,0-7.19,6.21,105.81,105.81,0,0,0-7.7,9.26l-1,1.32Z"/><path class="cls-21" d="M1447.33,606.93s13.72-4.61,19.38,3.83"/><path class="cls-21" d="M1511.45,615.94s9.14-9.18,21.15,4.17"/><path class="cls-21" d="M1434.1,673.88s31.41,26.35,74,14.62"/><polyline class="cls-21" points="1481.91 637.4 1462.34 651.6 1480.63 659.48"/><path class="cls-29" d="M701.81,929.74s8.06-20.49,61.54-38.62,58.24-34.72,61.06-34.4"/><path class="cls-29" d="M672.81,880.74s8.06-20.49,61.54-38.62,58.24-34.72,61.06-34.4"/><ellipse class="cls-30" cx="733.18" cy="838.48" rx="13.61" ry="17.86" transform="translate(-123.14 126.22) rotate(-9.08)"/><path d="M697.33,901.07a6.83,6.83,0,0,1,1.73,1.86,5.37,5.37,0,0,1,.77,2.05,4.88,4.88,0,0,1-.12,2.08,5.55,5.55,0,0,1-1,1.91,6.39,6.39,0,0,1-2.36,1.95,6.11,6.11,0,0,1-2.8.63l-.38-1.91a4.93,4.93,0,0,0,2.28-.45,4.67,4.67,0,0,0,1.72-1.36,3.18,3.18,0,0,0,.66-2.54,4,4,0,0,0-1.71-2.55,3.9,3.9,0,0,0-2.91-.83,6.25,6.25,0,0,0-1.47.33,12.79,12.79,0,0,0-1.45.61,13.22,13.22,0,0,1-1.75.73,6.73,6.73,0,0,1-1.8.34,5.63,5.63,0,0,1-1.87-.24,6.36,6.36,0,0,1-2-1.06,6.81,6.81,0,0,1-1.76-1.92,5.21,5.21,0,0,1-.71-2.08,4.94,4.94,0,0,1,.18-2,5.59,5.59,0,0,1,.94-1.81,6.38,6.38,0,0,1,2-1.76,4.7,4.7,0,0,1,2.4-.6l.39,1.92a3.65,3.65,0,0,0-1.85.36,4.18,4.18,0,0,0-1.38,1.18,3.73,3.73,0,0,0-.58,1.12,3,3,0,0,0-.1,1.3,3.52,3.52,0,0,0,.5,1.37,4.64,4.64,0,0,0,1.22,1.31,4.14,4.14,0,0,0,1.4.74,4.05,4.05,0,0,0,1.38.13,5.21,5.21,0,0,0,1.37-.31q.68-.25,1.35-.57a15.64,15.64,0,0,1,1.77-.74,7.87,7.87,0,0,1,1.9-.41,5.61,5.61,0,0,1,2,.19A6,6,0,0,1,697.33,901.07Z"/><path d="M708.19,899.46a4.13,4.13,0,0,1-2.07,1,4.84,4.84,0,0,1-2.28-.2,7.9,7.9,0,0,1-2.35-1.27,16.27,16.27,0,0,1-4.17-4.92,8.26,8.26,0,0,1-.86-2.55,5,5,0,0,1,.19-2.29,4.24,4.24,0,0,1,1.33-1.86,4,4,0,0,1,1.76-.94,4.11,4.11,0,0,1,1.62-.08l.13,1.78a2.55,2.55,0,0,0-2.37.54,2.2,2.2,0,0,0-.76,1.26,3.49,3.49,0,0,0,.09,1.62,7.9,7.9,0,0,0,.81,1.86,15.06,15.06,0,0,0,1.45,2,14.07,14.07,0,0,0,1.72,1.73,7.22,7.22,0,0,0,1.69,1.08,3.29,3.29,0,0,0,1.58.32,2.43,2.43,0,0,0,1.4-.6,2.58,2.58,0,0,0,.79-1.08,2.77,2.77,0,0,0,.15-1.29l1.68.59A4,4,0,0,1,708.19,899.46Z"/><path d="M719.33,891.11l-5.16-8.1q-.37-.59-.81-1.14a4.8,4.8,0,0,0-1-.91,2.4,2.4,0,0,0-1.11-.44,1.9,1.9,0,0,0-1.23.34,2.33,2.33,0,0,0-.91,1.06,3.68,3.68,0,0,0-.25,1.48,6.13,6.13,0,0,0,.33,1.71,8.31,8.31,0,0,0,.83,1.73l4.61,7.23L713,895.14,700.82,876l1.67-1.07,5.7,9,0,0a5.19,5.19,0,0,1-.14-2.72,3.29,3.29,0,0,1,1.52-2.07,3.07,3.07,0,0,1,3.56-.08,5.77,5.77,0,0,1,1.44,1.29,15.06,15.06,0,0,1,1.22,1.66L721,890Z"/><path d="M735.59,882.58l-2.1,1-7.56-9.77,0,0,3,12-2,1-9.24-12.06,1.81-.88L727,884.22l0,0-3.16-12.47,1.72-.84,7.89,10.17h0l-3.47-12.33,1.81-.88Z"/><path d="M740.48,872.88a11.66,11.66,0,0,0,1,2,6.43,6.43,0,0,0,1.23,1.45,3.34,3.34,0,0,0,1.4.74,2.45,2.45,0,0,0,1.52-.13,2.35,2.35,0,0,0,1.38-1.25,4.42,4.42,0,0,0,.37-1.86l1.72.26a5.8,5.8,0,0,1-.67,2.7,4,4,0,0,1-2.19,1.84,4.39,4.39,0,0,1-4.37-.53,10.49,10.49,0,0,1-3.4-4.89,13,13,0,0,1-.84-3.12,7.93,7.93,0,0,1,0-2.72,5,5,0,0,1,.93-2.12,4.11,4.11,0,0,1,1.8-1.34,4.18,4.18,0,0,1,2.29-.29,4.49,4.49,0,0,1,1.94.91,7.53,7.53,0,0,1,1.61,1.85,14.34,14.34,0,0,1,1.27,2.54l.4,1Zm5-3.74a7.94,7.94,0,0,0-2-3.11,2.28,2.28,0,0,0-2.52-.48,2.11,2.11,0,0,0-1.16,1,4.1,4.1,0,0,0-.43,1.55,6.24,6.24,0,0,0,.09,1.72,8.37,8.37,0,0,0,.41,1.48Z"/><path d="M762.23,864.59a16,16,0,0,1,.76,3.11,8.55,8.55,0,0,1,0,2.64,4.78,4.78,0,0,1-.85,2,3.52,3.52,0,0,1-1.74,1.22,3.18,3.18,0,0,1-2.41-.05,4.45,4.45,0,0,1-1.92-1.65h0l3.19,9.21-1.87.65-7.23-20.87,1.82-.63.87,2.53.06,0a5,5,0,0,1,.39-2.53,3.11,3.11,0,0,1,1.95-1.62,3.44,3.44,0,0,1,2.08-.08,4.74,4.74,0,0,1,1.94,1.07,8.77,8.77,0,0,1,1.69,2.07A15.68,15.68,0,0,1,762.23,864.59Zm-2,.62a14.81,14.81,0,0,0-1-2.23,7.58,7.58,0,0,0-1.18-1.67,3.82,3.82,0,0,0-1.35-.93,2.15,2.15,0,0,0-1.48,0,2.12,2.12,0,0,0-1.16.91,3.82,3.82,0,0,0-.5,1.57,7.22,7.22,0,0,0,.08,2,14,14,0,0,0,.6,2.35,15.21,15.21,0,0,0,1,2.26,7.42,7.42,0,0,0,1.21,1.66,3.73,3.73,0,0,0,1.38.9,2.15,2.15,0,0,0,1.46,0,2.09,2.09,0,0,0,1.16-.91,3.63,3.63,0,0,0,.49-1.55,7.25,7.25,0,0,0-.1-2A16,16,0,0,0,760.28,865.21Z"/><path d="M776.74,858.78a15.06,15.06,0,0,1,.94,3.05,8.32,8.32,0,0,1,.11,2.65,4.69,4.69,0,0,1-.73,2.07,3.61,3.61,0,0,1-1.66,1.32A3.23,3.23,0,0,1,773,868a4.37,4.37,0,0,1-2-1.54l0,0,3.72,9-1.83.75-8.42-20.41,1.78-.73,1,2.47.06,0a5.1,5.1,0,0,1,.24-2.55,3.15,3.15,0,0,1,1.86-1.72,3.43,3.43,0,0,1,2.07-.2,4.69,4.69,0,0,1,2,1,8.6,8.6,0,0,1,1.8,2A14.58,14.58,0,0,1,776.74,858.78Zm-1.91.72a15.13,15.13,0,0,0-1.08-2.17,7.59,7.59,0,0,0-1.28-1.59,3.55,3.55,0,0,0-1.4-.85,2.16,2.16,0,0,0-1.48.08,2.12,2.12,0,0,0-1.1,1,3.7,3.7,0,0,0-.41,1.6,7.09,7.09,0,0,0,.19,2,13.39,13.39,0,0,0,.74,2.31,14.13,14.13,0,0,0,1.12,2.2,7.39,7.39,0,0,0,1.3,1.59,3.8,3.8,0,0,0,1.43.82,2.16,2.16,0,0,0,1.46-.08,2.12,2.12,0,0,0,1.1-1,3.64,3.64,0,0,0,.41-1.57,7.29,7.29,0,0,0-.23-2A14.18,14.18,0,0,0,774.83,859.5Z"/><path d="M782.86,856.32a11.6,11.6,0,0,0,1.22,1.93,6.71,6.71,0,0,0,1.36,1.32,3.39,3.39,0,0,0,1.46.6,2.44,2.44,0,0,0,1.5-.27,2.35,2.35,0,0,0,1.26-1.38,4.37,4.37,0,0,0,.19-1.88l1.74.09a5.81,5.81,0,0,1-.41,2.75,4,4,0,0,1-2,2,4.38,4.38,0,0,1-4.4-.12,10.49,10.49,0,0,1-3.86-4.54,13.67,13.67,0,0,1-1.13-3,8.15,8.15,0,0,1-.23-2.72,5.17,5.17,0,0,1,.73-2.2,4.52,4.52,0,0,1,3.91-2,4.52,4.52,0,0,1,2,.72,7.6,7.6,0,0,1,1.78,1.69,14.84,14.84,0,0,1,1.5,2.4l.49,1Zm4.63-4.2a7.94,7.94,0,0,0-2.26-2.91,2.28,2.28,0,0,0-2.55-.23,2.1,2.1,0,0,0-1.07,1.13,4.16,4.16,0,0,0-.27,1.59,6.32,6.32,0,0,0,.26,1.7,7.81,7.81,0,0,0,.54,1.44Z"/><path d="M793.6,841.75a2.71,2.71,0,0,1,1.19-1.8,1.27,1.27,0,0,1,.32-.17l1,1.75a1,1,0,0,0-.21.08,1,1,0,0,0-.22.13,1.93,1.93,0,0,0-.85,1.14,4,4,0,0,0-.11,1.64,7.34,7.34,0,0,0,.5,1.87,10.66,10.66,0,0,0,1,1.84l4.09,6.39-1.67,1.07-6-9.38-.57-.86-.61-.89-.54-.79c-.17-.24-.3-.42-.41-.55l1.62-1c.24.29.52.68.85,1.15s.65,1,1,1.51l0,0A5.53,5.53,0,0,1,793.6,841.75Z"/><path d="M804.18,836.2a3.28,3.28,0,0,0-1.45-.15,2.69,2.69,0,0,0-1.39.67,2,2,0,0,0-.73,1.57,2.7,2.7,0,0,0,.75,1.79,2.23,2.23,0,0,0,1.6.92,5.63,5.63,0,0,0,2-.43,10.15,10.15,0,0,1,1.29-.35,4.5,4.5,0,0,1,1.37-.05,4.29,4.29,0,0,1,1.37.41,4.38,4.38,0,0,1,1.34,1.09,4.62,4.62,0,0,1,1.34,3.34,4.1,4.1,0,0,1-1.52,2.94A4.58,4.58,0,0,1,808,849a5,5,0,0,1-2.34,0l.05-1.76a4.65,4.65,0,0,0,1.76.17,2.82,2.82,0,0,0,1.58-.72,2.11,2.11,0,0,0,.78-1.69,3,3,0,0,0-.85-2,2.69,2.69,0,0,0-1-.76,2.58,2.58,0,0,0-1-.21,4.21,4.21,0,0,0-1,.15c-.36.1-.72.21-1.08.34a8.08,8.08,0,0,1-1.16.34,4.2,4.2,0,0,1-1.23,0,3.7,3.7,0,0,1-1.26-.43,4.67,4.67,0,0,1-1.27-1.07,4.41,4.41,0,0,1-.88-1.49,3.67,3.67,0,0,1-.21-1.59,4.24,4.24,0,0,1,.41-1.52,4,4,0,0,1,1-1.29,4.44,4.44,0,0,1,2-1,4.33,4.33,0,0,1,2,0Z"/></g></g></svg>
