<svg id="Layer_1" data-name="Layer 1" xmlns="http://www.w3.org/2000/svg" xmlns:xlink="http://www.w3.org/1999/xlink" width="300" height="460" viewBox="0 0 300 460"><defs><style>.cls-1{fill:url(#linear-gradient);}.cls-2{fill:#e2cc43;opacity:0.7;}.cls-3,.cls-6{fill:none;stroke:#000;stroke-miterlimit:10;}.cls-4{fill:#8e7e2f;}.cls-5{fill:#c2674a;}.cls-6{stroke-width:3px;}</style><linearGradient id="linear-gradient" x1="-772.95" y1="485.84" x2="-650.86" y2="485.84" gradientTransform="matrix(1, -0.03, 0.03, 1, 833.6, -256.88)" gradientUnits="userSpaceOnUse"><stop offset="0" stop-color="#fff"/><stop offset="1" stop-color="#8e8e8e"/></linearGradient></defs><title>tonicfigur</title><path class="cls-1" d="M110.08,57.08l-.11,21s-11,23.07-22.69,47.85-11,71.8-11,71.8l.79,22.66,5.45,156.09s-1.22,61.38,15.16,73.41S136.25,446,136.25,446c21.53,15.21,34.38-2,35.27-.39s18.7,6.07,28.45-3.51,3.59-65.67,3.59-65.67S199,270.76,199.7,265.7s-6-75.42-6-75.42a109,109,0,0,0-1.06-30.21c-2.25-11.66-33.45-67.73-41.53-82.57,0,0-8.1-15.68-7.47-21.59S110.08,57.08,110.08,57.08Z"/><polygon class="cls-2" points="78.07 275.31 198.96 268.54 202.88 376.5 81.88 380.72 78.07 275.31"/><path class="cls-3" d="M146.23,298.65s25.75-8.46,30.38-20.38"/><path class="cls-4" d="M143.68,56.75S154.47,53,147.84,31.4c0,0-15.78-3.25-29.58-1.8-1.7.18-3.37.43-5,.76A36.67,36.67,0,0,0,109,31.54a24.06,24.06,0,0,0-3.1,1.32s-6,21.22.79,22.66S143.68,56.75,143.68,56.75Z"/><ellipse class="cls-5" cx="138.69" cy="299.33" rx="6.72" ry="8.82" transform="translate(-10.35 5.01) rotate(-2)"/><path d="M105.33,327.36a2.24,2.24,0,0,0-.85-.28,2.08,2.08,0,0,0-.86.11,1.29,1.29,0,0,0-.67.55,1.12,1.12,0,0,0,0,1,1,1,0,0,0,.64.69,6.1,6.1,0,0,0,1.26.27c.3,0,.62.09,1,.16a4.42,4.42,0,0,1,1,.36,3.52,3.52,0,0,1,.91.7,3.29,3.29,0,0,1,.69,1.18,4.39,4.39,0,0,1,.29,1.69,3.58,3.58,0,0,1-.36,1.42,3.37,3.37,0,0,1-.87,1.08,4,4,0,0,1-1.23.71,4.8,4.8,0,0,1-2,.29,4.87,4.87,0,0,1-1.66-.41l.61-2.36a3.08,3.08,0,0,0,1.06.31,2.62,2.62,0,0,0,1-.12,1.18,1.18,0,0,0,.66-.58,1.2,1.2,0,0,0,0-.95,1.17,1.17,0,0,0-.7-.74,5.76,5.76,0,0,0-1.35-.29,8.35,8.35,0,0,1-1-.18,3.28,3.28,0,0,1-1-.39,3.12,3.12,0,0,1-.8-.71,3.81,3.81,0,0,1-.61-1.14,4.17,4.17,0,0,1-.27-1.71,3.28,3.28,0,0,1,.41-1.39,3.37,3.37,0,0,1,.88-1,3.87,3.87,0,0,1,1.15-.65,4.64,4.64,0,0,1,1.75-.3A3.74,3.74,0,0,1,106,325Z"/><path d="M115.68,333.44a3.14,3.14,0,0,1-1.14.64,3,3,0,0,1-2.83-.44,4.74,4.74,0,0,1-1.1-1.2,7.86,7.86,0,0,1-1.17-3.57,4.82,4.82,0,0,1,.18-1.6,3,3,0,0,1,2-2,2.85,2.85,0,0,1,1.29-.15,2.82,2.82,0,0,1,1,.31l-.36,2.28a1.09,1.09,0,0,0-.47-.23.87.87,0,0,0-1.09.84,3.47,3.47,0,0,0,.21,1.66,3.43,3.43,0,0,0,.81,1.45,1,1,0,0,0,1,.28.85.85,0,0,0,.43-.29,1.19,1.19,0,0,0,.21-.47l1.64,1.6A2.54,2.54,0,0,1,115.68,333.44Z"/><path d="M120.58,331.89l-2.52.76-3.67-12.15,2.52-.76,1.47,4.87.05,0a2.32,2.32,0,0,1,.4-1.2,1.92,1.92,0,0,1,1.14-.82,2.13,2.13,0,0,1,1.26-.06,2.06,2.06,0,0,1,.92.59,3.44,3.44,0,0,1,.67,1,9.61,9.61,0,0,1,.48,1.31l1.56,5.14-2.53.76-1.56-5.16a2.73,2.73,0,0,0-.43-.89.64.64,0,0,0-.74-.21.82.82,0,0,0-.59.64,2.2,2.2,0,0,0,.08,1.2Z"/><path d="M135.59,327.63l-2.57.71-2.41-4.57h0l.29,5.15-2.5.68-4.2-7.95,2.59-.71L129,326h0l-.48-5.56,2.17-.6,2.45,5h0l-.63-5.52,2.56-.71Z"/><path d="M140.08,320.61a2.33,2.33,0,0,0,.4.57,2,2,0,0,0,.48.4,1.19,1.19,0,0,0,.5.17.88.88,0,0,0,.5-.09,1,1,0,0,0,.5-.58,2.09,2.09,0,0,0,.06-.79l2.22.08a3.74,3.74,0,0,1-.38,1.93,3.11,3.11,0,0,1-1.46,1.4,3.32,3.32,0,0,1-1.41.39,3,3,0,0,1-1.44-.27,4.1,4.1,0,0,1-1.36-.95,6.11,6.11,0,0,1-1.17-1.66,6.76,6.76,0,0,1-.67-1.86,4.24,4.24,0,0,1,0-1.66,3.56,3.56,0,0,1,.57-1.37,3.12,3.12,0,0,1,1.13-1,3.06,3.06,0,0,1,1.54-.39,2.9,2.9,0,0,1,1.37.37,4.23,4.23,0,0,1,1.2,1,8.42,8.42,0,0,1,1,1.56l.34.66Zm1-2.43a2.74,2.74,0,0,0-.73-.95.76.76,0,0,0-.86-.09.74.74,0,0,0-.34.36,1.36,1.36,0,0,0-.1.51,1.65,1.65,0,0,0,.07.57,3,3,0,0,0,.18.51Z"/><path d="M145.61,312l.51.91,0,0a2.43,2.43,0,0,1,.13-1.14,1.75,1.75,0,0,1,.84-.89,2.32,2.32,0,0,1,1.27-.29,2.86,2.86,0,0,1,1.26.4,5.37,5.37,0,0,1,1.18,1,7.7,7.7,0,0,1,1,1.49,8.14,8.14,0,0,1,.73,1.72,5.35,5.35,0,0,1,.25,1.6,3,3,0,0,1-.31,1.32,2.13,2.13,0,0,1-.91.92,1.81,1.81,0,0,1-1.23.26,2,2,0,0,1-.93-.45l0,0,2.4,4.35-2.26,1.25-6.19-11.22Zm2.08,3.86c.16.28.33.54.5.78a3,3,0,0,0,.56.56,1.37,1.37,0,0,0,.55.28.7.7,0,0,0,.53-.08.76.76,0,0,0,.36-.41,1.48,1.48,0,0,0,.06-.61,3,3,0,0,0-.19-.77,7.89,7.89,0,0,0-.4-.84,7,7,0,0,0-.5-.78,2.7,2.7,0,0,0-.54-.57,1.55,1.55,0,0,0-.56-.28.75.75,0,0,0-.54.09.67.67,0,0,0-.34.4,1.23,1.23,0,0,0-.06.62,2.87,2.87,0,0,0,.18.76A6.31,6.31,0,0,0,147.69,315.81Z"/><path d="M153.72,307.34l.53.89,0,0a2.41,2.41,0,0,1,.09-1.14,1.73,1.73,0,0,1,.81-.92,2.35,2.35,0,0,1,1.26-.34,2.85,2.85,0,0,1,1.27.37,4.93,4.93,0,0,1,1.22.95,8.32,8.32,0,0,1,1.09,1.45,8.9,8.9,0,0,1,.79,1.7,5.34,5.34,0,0,1,.3,1.58,3,3,0,0,1-.26,1.33,2.16,2.16,0,0,1-.89,1,1.78,1.78,0,0,1-1.21.3,2,2,0,0,1-.95-.41h0l2.55,4.27-2.22,1.33-6.57-11Zm2.2,3.79a7.59,7.59,0,0,0,.53.75,3.23,3.23,0,0,0,.57.55,1.43,1.43,0,0,0,.57.26.73.73,0,0,0,.52-.09.75.75,0,0,0,.34-.43,1.52,1.52,0,0,0,.05-.62,3.72,3.72,0,0,0-.22-.76,7.21,7.21,0,0,0-.43-.82,5.77,5.77,0,0,0-.53-.77,2.79,2.79,0,0,0-.55-.54,1.43,1.43,0,0,0-.57-.26.76.76,0,0,0-.54.1.78.78,0,0,0-.33.41,1.56,1.56,0,0,0,0,.62,3,3,0,0,0,.21.76A6.57,6.57,0,0,0,155.92,311.13Z"/><path d="M164.16,306.81a2.53,2.53,0,0,0,1,.88,1.19,1.19,0,0,0,.52.11,1,1,0,0,0,.92-.77,2.34,2.34,0,0,0,0-.79l2.21-.15a3.79,3.79,0,0,1-.17,2,3.17,3.17,0,0,1-1.3,1.54,3.64,3.64,0,0,1-1.37.54,3.32,3.32,0,0,1-1.46-.12,4.11,4.11,0,0,1-1.45-.8,6.39,6.39,0,0,1-1.34-1.53,6.75,6.75,0,0,1-.86-1.78,4.43,4.43,0,0,1-.21-1.65,3.57,3.57,0,0,1,.43-1.42,3.06,3.06,0,0,1,1-1.07,3.13,3.13,0,0,1,1.49-.56,3.06,3.06,0,0,1,1.4.23,4.16,4.16,0,0,1,1.31.9,8.71,8.71,0,0,1,1.17,1.44l.41.62Zm.71-2.52a2.74,2.74,0,0,0-.83-.86.75.75,0,0,0-.86,0,.77.77,0,0,0-.3.39,1.74,1.74,0,0,0,0,.52,2.38,2.38,0,0,0,.13.56,2.79,2.79,0,0,0,.24.49Z"/><path d="M166.85,298.89l2.06-1.51.87,1.19h0c-.44-1.13-.31-1.94.39-2.45a.69.69,0,0,1,.18-.12l.18-.09,1.43,2.23-.25.1a1.86,1.86,0,0,0-.26.17.94.94,0,0,0-.37.49,1.42,1.42,0,0,0-.07.62,1.91,1.91,0,0,0,.18.7,2.93,2.93,0,0,0,.39.69l2.57,3.51L172,306Z"/><path d="M176.71,294.28a3.1,3.1,0,0,0-.81.05,1.65,1.65,0,0,0-.71.36.79.79,0,0,0-.29.51.68.68,0,0,0,.19.57.55.55,0,0,0,.5.22,3.61,3.61,0,0,0,.93-.32,5,5,0,0,1,.8-.25,2.48,2.48,0,0,1,.86-.05,2.63,2.63,0,0,1,.87.26,2.71,2.71,0,0,1,.83.68,3,3,0,0,1,.67,1.24,2.75,2.75,0,0,1,0,1.17,3,3,0,0,1-.42,1,4,4,0,0,1-.69.81,4.82,4.82,0,0,1-1.5.84,4.08,4.08,0,0,1-1.64.23l-.09-2.13a3.19,3.19,0,0,0,1,0,1.74,1.74,0,0,0,.83-.4.8.8,0,0,0,.31-.54.83.83,0,0,0-.21-.58.67.67,0,0,0-.65-.25,5.79,5.79,0,0,0-1,.34,5.19,5.19,0,0,1-.73.23,2.09,2.09,0,0,1-.79,0,2.44,2.44,0,0,1-.82-.26,3.22,3.22,0,0,1-1.43-1.84,2.82,2.82,0,0,1-.06-1.15,3.14,3.14,0,0,1,.39-1,3.24,3.24,0,0,1,.7-.82,4.3,4.3,0,0,1,1.36-.78,4.38,4.38,0,0,1,1.51-.24Z"/><path d="M109.1,355.53l.31,8.76-1.13,0-.31-8.76Z"/><path d="M111.88,359.61c0-.65,0-1.18-.11-1.7l1,0,.1,1h0a2.3,2.3,0,0,1,2-1.25c.87,0,2.24.44,2.32,2.6l.13,3.75-1.15,0-.12-3.63c0-1-.44-1.84-1.52-1.8a1.63,1.63,0,0,0-1.5,1.22,1.77,1.77,0,0,0,0,.54l.13,3.78-1.15,0Z"/><path d="M124.93,354.51l.27,7.6c0,.56,0,1.2.11,1.62l-1,0-.09-1.09h0a2.34,2.34,0,0,1-2.11,1.31c-1.52.05-2.73-1.19-2.8-3.1-.08-2.09,1.17-3.43,2.71-3.48a2.08,2.08,0,0,1,1.92.9h0l-.13-3.76Zm-1,5.54a1.55,1.55,0,0,0-.07-.48,1.68,1.68,0,0,0-1.69-1.27c-1.18,0-1.85,1.11-1.8,2.5s.7,2.3,1.94,2.26a1.73,1.73,0,0,0,1.63-1.43,1.93,1.93,0,0,0,0-.49Z"/><path d="M128.72,355.55a.71.71,0,0,1-1.42.05.7.7,0,0,1,.69-.74A.68.68,0,0,1,128.72,355.55Zm-1,8.1-.22-6.29,1.14,0,.22,6.29Z"/><path d="M134.82,363.4l-.12-.79h0a2.32,2.32,0,0,1-1.89,1,1.81,1.81,0,0,1-2-1.74c-.05-1.52,1.27-2.4,3.7-2.47v-.13a1.31,1.31,0,0,0-1.48-1.41,3.12,3.12,0,0,0-1.62.53l-.29-.75a4,4,0,0,1,2-.63c1.92-.07,2.44,1.23,2.48,2.49l.08,2.35a9.33,9.33,0,0,0,.16,1.51Zm-.28-3.2c-1.25,0-2.66.29-2.62,1.51a1,1,0,0,0,1.12,1.05,1.55,1.55,0,0,0,1.48-1.1,1.19,1.19,0,0,0,.06-.37Z"/><path d="M138,358.7c0-.65,0-1.18-.11-1.7l1,0,.1,1h0a2.32,2.32,0,0,1,2-1.26c.87,0,2.24.45,2.31,2.6l.13,3.76-1.14,0-.13-3.63c0-1-.44-1.84-1.52-1.8a1.62,1.62,0,0,0-1.49,1.22,1.46,1.46,0,0,0-.06.53l.13,3.79-1.14,0Z"/><path d="M150.17,355.06l-2.66.09,0-1L154,354l0,1-2.67.09.27,7.8-1.14,0Z"/><path d="M160.43,359.31a3.08,3.08,0,0,1-3,3.45,3,3,0,0,1-3.13-3.13,3.07,3.07,0,0,1,3-3.45A3,3,0,0,1,160.43,359.31Zm-5,.24c.05,1.38.88,2.39,2,2.35s1.87-1.09,1.82-2.51c0-1.07-.61-2.4-2-2.35S155.4,358.35,155.44,359.55Z"/><path d="M162.4,357.85c0-.65-.06-1.18-.12-1.7l1,0,.1,1h0a2.34,2.34,0,0,1,2-1.26c.87,0,2.24.45,2.32,2.6l.13,3.76-1.14,0-.13-3.63c0-1-.44-1.84-1.52-1.8a1.62,1.62,0,0,0-1.49,1.22,1.46,1.46,0,0,0-.06.53l.13,3.79-1.14,0Z"/><path d="M171.33,354.06a.68.68,0,0,1-.7.73.69.69,0,0,1-.72-.68.71.71,0,0,1,.69-.74A.69.69,0,0,1,171.33,354.06Zm-1,8.1-.22-6.28,1.14,0,.22,6.28Z"/><path d="M178.42,361.65a4.33,4.33,0,0,1-1.79.42,3,3,0,0,1-3.24-3.1,3.19,3.19,0,0,1,3.26-3.45,3.61,3.61,0,0,1,1.59.27l-.22.89a2.56,2.56,0,0,0-1.34-.25,2.37,2.37,0,0,0,.13,4.73,3.42,3.42,0,0,0,1.39-.36Z"/><path class="cls-3" d="M131.21,301.69l-1.57.38c-28.56,7.12-32.07,22.64-32.07,22.64"/><path class="cls-3" d="M109.6,348.46s6.16-11.11,38.11-17.45,35.93-15.46,37.52-15.06"/><polyline class="cls-6" points="132.5 165.28 142.28 173.6 132.28 177.03"/><path class="cls-6" d="M152.4,140.82s10.91-3.41,13.48,3.87"/><path class="cls-6" d="M130.22,196.62s6.26,12,13.52-.93"/><path class="cls-6" d="M116.88,142.82s-10.91-3.41-13.48,3.87"/></svg>
