<svg id="Layer_1" data-name="Layer 1" xmlns="http://www.w3.org/2000/svg" xmlns:xlink="http://www.w3.org/1999/xlink" width="300" height="460" viewBox="0 0 300 460"><defs><style>.cls-1{fill:url(#linear-gradient);}.cls-2{fill:#e2cc43;opacity:0.7;}.cls-3{fill:none;stroke:#000;stroke-miterlimit:10;}.cls-4{fill:#8e7e2f;}.cls-5{fill:#c2674a;}</style><linearGradient id="linear-gradient" x1="36.14" y1="-290.83" x2="169.41" y2="-290.83" gradientTransform="matrix(0.94, -0.33, 0.33, 0.94, 138.36, 545.88)" gradientUnits="userSpaceOnUse"><stop offset="0" stop-color="#fff"/><stop offset="1" stop-color="#8e8e8e"/></linearGradient></defs><title>tonic</title><path class="cls-1" d="M46.59,41.92l6.65,21.95s-4,27.59-8.27,57.21,11.7,78.42,11.7,78.42l8.12,23.38,55.93,161.06s18.49,64.42,39.45,71.69S199.1,439.2,199.1,439.2c27.36,8.94,35.2-13.19,36.67-11.76s21.46.31,28.54-12.82S246.92,345,246.92,345s-38.76-108.8-39.7-114.3-30.52-76.73-30.52-76.73-8.35-18.45-10.83-31.18S109.18,62.88,96,50c0,0-13.51-13.74-14.75-20.11S46.59,41.92,46.59,41.92Z"/><polygon class="cls-2" points="83.45 279.85 207.37 233.88 246.22 345.21 121.36 388.57 83.45 279.85"/><path class="cls-3" d="M162.07,282.25s24.13-17.11,25.12-31"/><path class="cls-4" d="M81.53,30.76S91.58,23.39,77.7,3c0,0-17.51,1.69-31.43,7.65-1.71.73-3.37,1.53-4.94,2.39a36.5,36.5,0,0,0-4.11,2.62A27.57,27.57,0,0,0,34.4,18S35,42.07,42.52,41.39,81.53,30.76,81.53,30.76Z"/><ellipse class="cls-5" cx="154.42" cy="285.39" rx="7.33" ry="9.62" transform="translate(-85.07 66.45) rotate(-19.15)"/><path d="M136.82,329.63a4.46,4.46,0,0,1,.85,1.3,3.29,3.29,0,0,1,.25,1.32,3,3,0,0,1-.29,1.24,3.39,3.39,0,0,1-.77,1.05,4.11,4.11,0,0,1-1.63.93,3.73,3.73,0,0,1-1.75.09l0-1.2a2.84,2.84,0,0,0,1.42,0,2.88,2.88,0,0,0,1.18-.64,2,2,0,0,0,.66-1.46,2.46,2.46,0,0,0-.77-1.71,2.37,2.37,0,0,0-.79-.59,2.43,2.43,0,0,0-.88-.22,4,4,0,0,0-.91.05,8.4,8.4,0,0,0-.94.21,6.58,6.58,0,0,1-1.13.26,3.83,3.83,0,0,1-1.12,0,3.4,3.4,0,0,1-1.1-.34,3.53,3.53,0,0,1-1.07-.84,4.14,4.14,0,0,1-.87-1.34,3.46,3.46,0,0,1-.21-1.33,3.05,3.05,0,0,1,.32-1.2,3.49,3.49,0,0,1,.76-1,4.1,4.1,0,0,1,1.37-.85,2.85,2.85,0,0,1,1.51-.11l0,1.2a2.12,2.12,0,0,0-1.15,0,2.39,2.39,0,0,0-.95.57,2.16,2.16,0,0,0-.47.61,1.87,1.87,0,0,0-.2.77,2.2,2.2,0,0,0,.16.88,3,3,0,0,0,.6.92,2.41,2.41,0,0,0,.77.59,2.33,2.33,0,0,0,.81.22,3.57,3.57,0,0,0,.86,0c.29-.06.58-.12.87-.21s.75-.19,1.15-.26a5.25,5.25,0,0,1,1.19-.05,3.53,3.53,0,0,1,1.16.32A3.7,3.7,0,0,1,136.82,329.63Z"/><path d="M143.44,328.62a2.54,2.54,0,0,1-1.26.62,2.89,2.89,0,0,1-1.39-.1,4.91,4.91,0,0,1-1.45-.75,9.45,9.45,0,0,1-1.45-1.35,9.26,9.26,0,0,1-1.14-1.62,4.82,4.82,0,0,1-.55-1.55,3,3,0,0,1,.09-1.4,2.65,2.65,0,0,1,.79-1.15,2.55,2.55,0,0,1,1.07-.59,2.63,2.63,0,0,1,1-.07l.1,1.09a1.68,1.68,0,0,0-.74,0,1.45,1.45,0,0,0-.7.37,1.32,1.32,0,0,0-.46.77,2.28,2.28,0,0,0,.07,1,4.67,4.67,0,0,0,.52,1.13,9,9,0,0,0,.9,1.22,9.41,9.41,0,0,0,1.07,1,4.44,4.44,0,0,0,1,.64,1.92,1.92,0,0,0,1,.18,1.46,1.46,0,0,0,.85-.38,1.61,1.61,0,0,0,.48-.67,1.73,1.73,0,0,0,.07-.79l1,.35A2.39,2.39,0,0,1,143.44,328.62Z"/><path d="M150,322.65l-3.75-4.51a8.48,8.48,0,0,0-.58-.63,3.11,3.11,0,0,0-.65-.48,1.4,1.4,0,0,0-.71-.17,1.13,1.13,0,0,0-.72.3,1.42,1.42,0,0,0-.47.71,2.12,2.12,0,0,0,0,.91,3.41,3.41,0,0,0,.33,1,4.78,4.78,0,0,0,.64,1l3.35,4-.93.78-8.87-10.65.93-.77,4.15,5,0,0a3.1,3.1,0,0,1-.29-1.64,2,2,0,0,1,.76-1.37,2.09,2.09,0,0,1,1.1-.52,2.13,2.13,0,0,1,1.05.19,3.76,3.76,0,0,1,1,.67,12.37,12.37,0,0,1,.87.91l3.75,4.51Z"/><path d="M159,315.45l-1.13.89-5.78-4.85,0,0,3.36,6.76-1.08.85-7.09-6,1-.76,5.86,5.18h0l-3.52-7,.93-.73,6,5.05,0,0-3.68-6.9,1-.76Z"/><path d="M160.33,307.78a7,7,0,0,0,1.13.81,4.26,4.26,0,0,0,1.08.43,2,2,0,0,0,1,0,1.62,1.62,0,0,0,1.17-1.58,2.62,2.62,0,0,0-.32-1.1l1-.35a3.53,3.53,0,0,1,.41,1.64,2.45,2.45,0,0,1-.66,1.63,2.68,2.68,0,0,1-2.52.95,6.32,6.32,0,0,1-3.23-1.67A8.13,8.13,0,0,1,158,307.1a5.21,5.21,0,0,1-.76-1.48,3.15,3.15,0,0,1-.1-1.42,2.75,2.75,0,0,1,1.74-2,2.67,2.67,0,0,1,1.32-.06,4.16,4.16,0,0,1,1.39.54,8.49,8.49,0,0,1,1.41,1l.5.43Zm1.64-3.45a5,5,0,0,0-1.95-1.12,1.41,1.41,0,0,0-1.5.46,1.29,1.29,0,0,0-.34.89,2.77,2.77,0,0,0,.21,1,4.09,4.09,0,0,0,.55.91,4.26,4.26,0,0,0,.64.68Z"/><path d="M169.12,296.9a10,10,0,0,1,1.39,1.37,5.26,5.26,0,0,1,.83,1.39,2.76,2.76,0,0,1,.2,1.33,2.18,2.18,0,0,1-.51,1.19,2,2,0,0,1-1.27.75,2.7,2.7,0,0,1-1.53-.25v0l4.61,3.77-.77.94-10.44-8.55.74-.91,1.27,1,0,0a3.1,3.1,0,0,1-.61-1.45,1.92,1.92,0,0,1,.5-1.46,2.11,2.11,0,0,1,1.06-.71,2.9,2.9,0,0,1,1.35-.06,5.43,5.43,0,0,1,1.54.53A9.08,9.08,0,0,1,169.12,296.9Zm-.81.94a10,10,0,0,0-1.22-.85,4.84,4.84,0,0,0-1.15-.49,2.29,2.29,0,0,0-1-.05,1.25,1.25,0,0,0-.76.48,1.28,1.28,0,0,0-.32.84,2.31,2.31,0,0,0,.24,1,4.75,4.75,0,0,0,.7,1,8.09,8.09,0,0,0,1.07,1,8.41,8.41,0,0,0,1.24.86,4.61,4.61,0,0,0,1.16.48,2.44,2.44,0,0,0,1,0,1.36,1.36,0,0,0,.77-.47,1.34,1.34,0,0,0,.31-.84,2.27,2.27,0,0,0-.24-1,4.44,4.44,0,0,0-.71-1A9.92,9.92,0,0,0,168.31,297.84Z"/><path d="M174.75,289.68a9.31,9.31,0,0,1,1.43,1.34,5.18,5.18,0,0,1,.87,1.36,3.21,3.21,0,0,1,.24,1.33,2.16,2.16,0,0,1-.49,1.2,1.94,1.94,0,0,1-1.25.78,2.66,2.66,0,0,1-1.53-.2h0l4.71,3.65-.74,1-10.67-8.27.72-.92,1.29,1,0,0a3.12,3.12,0,0,1-.65-1.43,2,2,0,0,1,.46-1.48,2.2,2.2,0,0,1,1-.74,3.16,3.16,0,0,1,1.35-.1,5.36,5.36,0,0,1,1.55.5A9.23,9.23,0,0,1,174.75,289.68Zm-.79,1a8,8,0,0,0-1.23-.82,4.65,4.65,0,0,0-1.16-.46,2.31,2.31,0,0,0-1,0,1.29,1.29,0,0,0-.75.49,1.31,1.31,0,0,0-.29.85,2.38,2.38,0,0,0,.27,1,4.55,4.55,0,0,0,.72,1,8.24,8.24,0,0,0,1.1,1,9.1,9.1,0,0,0,1.26.83A4.13,4.13,0,0,0,174,295a2.15,2.15,0,0,0,1,0,1.32,1.32,0,0,0,.75-.48,1.37,1.37,0,0,0,.29-.86,2.29,2.29,0,0,0-.27-1,4.25,4.25,0,0,0-.74-1A8.53,8.53,0,0,0,174,290.65Z"/><path d="M177.24,286.73a6.88,6.88,0,0,0,1.2.7,4,4,0,0,0,1.11.34,2,2,0,0,0,1-.07,1.51,1.51,0,0,0,.74-.57,1.45,1.45,0,0,0,.3-1.1,2.77,2.77,0,0,0-.42-1.08l1-.43a3.52,3.52,0,0,1,.55,1.61,2.54,2.54,0,0,1-.52,1.67A2.68,2.68,0,0,1,179.7,289a6.45,6.45,0,0,1-3.36-1.39,8.6,8.6,0,0,1-1.46-1.33,5.09,5.09,0,0,1-.88-1.42,3.14,3.14,0,0,1-.22-1.4,2.56,2.56,0,0,1,.49-1.28,2.66,2.66,0,0,1,1.08-.9,2.73,2.73,0,0,1,1.31-.17,4.53,4.53,0,0,1,1.43.42,8.62,8.62,0,0,1,1.49.89l.53.38Zm1.35-3.58a4.87,4.87,0,0,0-2-.95,1.38,1.38,0,0,0-1.45.58,1.3,1.3,0,0,0-.27.91,2.35,2.35,0,0,0,.3.94,3.64,3.64,0,0,0,.61.86,5.43,5.43,0,0,0,.7.63Z"/><path d="M179.27,275.93a1.71,1.71,0,0,1,.24-1.3,1,1,0,0,1,.14-.17l1,.73-.1.1a.62.62,0,0,0-.09.12,1.21,1.21,0,0,0-.2.85,2.57,2.57,0,0,0,.33.95,5,5,0,0,0,.74.93,6.16,6.16,0,0,0,1,.8l3.84,2.6-.68,1-5.63-3.81-.53-.35-.56-.35-.49-.32-.36-.21.66-1,.75.44c.3.19.61.39.93.61l0,0A3.44,3.44,0,0,1,179.27,275.93Z"/><path d="M184.29,270.56a1.88,1.88,0,0,0-.88.18,1.62,1.62,0,0,0-.69.64,1.2,1.2,0,0,0-.14,1,1.65,1.65,0,0,0,.75.92,1.37,1.37,0,0,0,1.1.25,3.64,3.64,0,0,0,1.1-.61,4.73,4.73,0,0,1,.69-.43,2.52,2.52,0,0,1,.78-.28,2.6,2.6,0,0,1,.88,0,2.71,2.71,0,0,1,1,.39,2.83,2.83,0,0,1,1.38,1.72,2.5,2.5,0,0,1-.37,2,2.75,2.75,0,0,1-1.05,1,3,3,0,0,1-1.38.39l-.28-1a2.86,2.86,0,0,0,1.06-.21,1.73,1.73,0,0,0,.79-.71,1.25,1.25,0,0,0,.15-1.12,1.8,1.8,0,0,0-.84-1,1.58,1.58,0,0,0-.7-.27,1.51,1.51,0,0,0-.64.06,2.52,2.52,0,0,0-.58.27l-.57.39a4.07,4.07,0,0,1-.61.41,2.46,2.46,0,0,1-.71.23,2.28,2.28,0,0,1-.82,0,2.81,2.81,0,0,1-.93-.4,2.88,2.88,0,0,1-.79-.72,2.31,2.31,0,0,1-.4-.89,2.53,2.53,0,0,1,0-.95,2.41,2.41,0,0,1,.36-.94,2.79,2.79,0,0,1,1-1,2.85,2.85,0,0,1,1.14-.35Z"/><path d="M153.31,349.83l2,5.84-.76.26-2-5.84Z"/><path d="M156,352c-.15-.43-.28-.78-.43-1.12l.68-.24.28.68h0a1.62,1.62,0,0,1,1.11-1.26c.59-.21,1.61-.17,2.1,1.27l.88,2.5-.77.26-.84-2.41c-.23-.68-.68-1.15-1.4-.91a1.16,1.16,0,0,0-.75,1.14,1.33,1.33,0,0,0,.07.37l.88,2.52-.76.27Z"/><path d="M163.77,345.85l1.76,5.07c.13.37.28.79.41,1.07l-.69.23-.28-.71h0a1.65,1.65,0,0,1-1.15,1.32,2,2,0,0,1-2.53-1.51,2.13,2.13,0,0,1,1.1-2.91,1.5,1.5,0,0,1,1.49.2h0l-.87-2.51Zm.51,3.93a1.27,1.27,0,0,0-.15-.31,1.18,1.18,0,0,0-1.41-.5c-.78.27-1,1.13-.69,2.06s1,1.4,1.78,1.12a1.22,1.22,0,0,0,.8-1.3,1.4,1.4,0,0,0-.08-.34Z"/><path d="M166.53,345.76a.5.5,0,1,1-.94.33.5.5,0,1,1,.94-.33Zm1,5.67-1.46-4.19.76-.27,1.46,4.19Z"/><path d="M172.28,349.79l-.25-.51h0a1.66,1.66,0,0,1-1.07,1.07,1.26,1.26,0,0,1-1.7-.76c-.35-1,.36-1.88,2-2.44l0-.08a.91.91,0,0,0-1.29-.64,2.13,2.13,0,0,0-1,.69l-.35-.44a2.7,2.7,0,0,1,1.25-.85A1.58,1.58,0,0,1,172,347l.54,1.57a7,7,0,0,0,.42,1Zm-.86-2.1c-.84.27-1.73.74-1.45,1.56a.71.71,0,0,0,1,.47,1.07,1.07,0,0,0,.77-1.05.75.75,0,0,0,0-.26Z"/><path d="M173.45,346c-.15-.43-.28-.78-.43-1.12l.67-.23.29.67h0a1.64,1.64,0,0,1,1.11-1.27c.58-.2,1.6-.17,2.1,1.27l.87,2.5-.76.27-.84-2.42c-.24-.68-.68-1.15-1.4-.9a1.14,1.14,0,0,0-.76,1.13,1.18,1.18,0,0,0,.08.38l.87,2.52-.76.26Z"/><path d="M180.89,341l-1.78.62-.22-.64,4.32-1.5.22.64-1.78.62,1.81,5.19-.77.27Z"/><path d="M188.68,341.7a2.17,2.17,0,0,1-1.31,2.95,2.1,2.1,0,0,1-2.76-1.46,2.15,2.15,0,0,1,1.3-2.94A2.1,2.1,0,0,1,188.68,341.7Zm-3.31,1.2c.32.92,1.09,1.43,1.83,1.17a1.52,1.52,0,0,0,.71-2.07c-.25-.71-.91-1.49-1.81-1.18A1.5,1.5,0,0,0,185.37,342.9Z"/><path d="M189.7,340.31c-.15-.43-.28-.79-.43-1.12L190,339l.28.68h0a1.65,1.65,0,0,1,1.11-1.27c.58-.2,1.6-.16,2.1,1.28l.87,2.5-.76.26-.84-2.41c-.23-.68-.68-1.16-1.4-.91a1.16,1.16,0,0,0-.75,1.14,1,1,0,0,0,.07.37l.87,2.52-.76.27Z"/><path d="M194.93,335.9a.5.5,0,0,1-.94.33.49.49,0,0,1,.31-.64A.47.47,0,0,1,194.93,335.9Zm1,5.67-1.46-4.2.77-.26,1.45,4.19Z"/><path d="M201.29,339.54a3.08,3.08,0,0,1-1.12.66,2.11,2.11,0,0,1-2.83-1.42,2.26,2.26,0,0,1,1.48-3,2.83,2.83,0,0,1,1.13-.15l0,.65a1.94,1.94,0,0,0-.95.11,1.67,1.67,0,0,0,1.07,3.16A2.27,2.27,0,0,0,201,339Z"/><path class="cls-3" d="M147.38,290.26c-.52.3-1,.61-1.52.91-27.5,16.61-26.16,33.94-26.16,33.94"/><path class="cls-3" d="M142.22,348.53s1.8-13.75,31.7-33,30.29-30.1,32.06-30.33"/></svg>
