<svg id="Layer_1" data-name="Layer 1" xmlns="http://www.w3.org/2000/svg" width="240" height="180" viewBox="0 0 240 180"><defs><style>.cls-1{fill:#ddd662;}.cls-2{fill:#f0f;}</style></defs><title>videreknappink</title><ellipse class="cls-1" cx="36.39" cy="87.53" rx="27.71" ry="33.04" transform="translate(-52.86 119.48) rotate(-87.12)"/><path class="cls-1" d="M226.13,102.72c-17.36,44.21-57.46,73.47-100.78,74.23-49.46.87-104.59-35.37-105.61-84.77s52.83-87.73,102-89.1c41.77-1.17,81.81,24.19,102.48,65a18.89,18.89,0,0,1,1.93,34.68Z"/><rect class="cls-2" x="79.65" y="68" width="64" height="28" rx="12" transform="translate(-10.52 16.69) rotate(-8.17)"/><path class="cls-2" d="M131.57,51.86s.17,50.49,7.53,52.47S175.71,77.86,175,72.91,140.19,48.61,131.57,51.86Z"/></svg>
